<svg xmlns="http://www.w3.org/2000/svg" width="18.663" height="32"><path d="M9.433 32c-2.58 0-4.939-.898-6.74-2.695-3.59-3.594-3.59-9.445 0-13.035l8.336-7.938c.461-.465.727-1.102.727-1.785 0-.68-.266-1.32-.742-1.805-.993-.992-2.833-.988-3.833.004-.985.992-.985 2.609.007 3.602l-2.832 2.832c-2.55-2.555-2.55-6.707-.003-9.262 2.562-2.559 6.934-2.555 9.49-.004 1.242 1.238 1.922 2.887 1.922 4.637s-.68 3.395-1.922 4.629l-8.338 7.934c-2.02 2.016-2.02 5.328.02 7.363 2.031 2.035 5.566 2.031 7.607 0 2.031-2.035 2.031-5.348 0-7.379l-1.424-1.414 4.354-4.348 2.602 2.828-1.672 1.672c2.266 3.562 1.852 8.359-1.031 11.469-1.798 1.797-4.167 2.695-6.528 2.695z" fill="#4E4E50"/></svg>