<svg xmlns="http://www.w3.org/2000/svg" width="32" height="32"><path d="M21.172 13.98l5.691-9.664c-2.855-2.658-6.652-4.316-10.863-4.316-.998 0-1.965.119-2.912.293l8.084 13.687zm-1.221 6.02h11.482c.333-1.285.567-2.609.567-4 0-3.873-1.43-7.377-3.723-10.145l-8.326 14.145zm-3.451-10l-5.408-9.152c-4.5 1.459-8.139 4.798-9.904 9.152h15.312zm-.867 12l5.391 9.117c4.449-1.484 8.039-4.801 9.789-9.117h-15.18zm-3.528-10h-11.539c-.334 1.285-.566 2.609-.566 4 0 3.891 1.445 7.41 3.756 10.188l8.349-14.188zm-1.187 5.961l-5.744 9.758c2.853 2.633 6.635 4.281 10.826 4.281 1.041 0 2.055-.117 3.041-.305l-8.123-13.734z" fill="#4E4E50"/></svg>