<svg xmlns="http://www.w3.org/2000/svg" width="32" height="32"><path d="M30.309 8.973l-9.973 9.973h11.367c.18-.962.297-1.938.297-2.946 0-2.533-.641-4.898-1.691-7.027zm-9.254 6.267l8.203-8.199c-1.953-2.879-4.844-5.021-8.203-6.146v14.345zm-4.307 5.815l8.205 8.207c2.883-1.949 5.027-4.844 6.152-8.207h-14.357zm2.195-9.311v-11.447c-.957-.178-1.935-.297-2.943-.297-2.555 0-4.938.654-7.08 1.721l10.023 10.023zm-5.886 8.608v11.352c.957.179 1.935.296 2.943.296 2.531 0 4.891-.641 7.02-1.688l-9.963-9.96zm-2.114-3.579l-8.193 8.192c1.949 2.875 4.838 5.016 8.193 6.141v-14.333zm-10.646-3.716c-.178.957-.297 1.935-.297 2.943 0 2.539.645 4.906 1.695 7.035l9.979-9.979h-11.377zm6.699-10.276c-2.855 1.949-4.982 4.823-6.101 8.162h14.264l-8.163-8.162z" fill="#4E4E50"/></svg>