<svg xmlns="http://www.w3.org/2000/svg" width="32" height="32"><g fill="#4E4E50"><polygon points="32,32 0,32 0,4 4,4 4,28 28,28 28,4 32,4 32,32"/><rect x="6" y="12" width="4" height="4"/><rect x="14" y="12.008" width="4" height="4"/><rect x="22" y="12" width="4" height="4"/><rect x="6" y="20" width="4" height="4"/><rect x="14" y="20" width="4" height="4"/><polygon points="22,24 22,20 26,20"/><path d="M8 6v-4c0-1.105.895-2 2-2s2 .895 2 2v4c0 1.105-.895 2-2 2s-2-.895-2-2zm12 0v-4c0-1.105.895-2 2-2s2 .895 2 2v4c0 1.105-.895 2-2 2s-2-.895-2-2z"/></g></svg>