<svg xmlns="http://www.w3.org/2000/svg" width="32" height="32"><g fill="#4E4E50"><path d="M23.996 12c0 4.418-3.578 8-7.996 8 0-2.207-1.793-4-4-4h-4.004c-3.996 0-7.996-2.25-7.996-8 0-5.875 4-8 7.996-8h8.004c4 0 7.996 2.479 7.996 8v4zm-11.996 0"/><path d="M12 12"/><path d="M25.98 12.213c-.117 5.412-4.542 9.787-9.98 9.787h-2v-2c0-1.104-.898-2-2-2h-3.801c-.125.619-.203 1.281-.203 2v4c0 4.418 3.586 8 8.004 8 0-2.211 1.793-4 4-4h3.996c4.004 0 8.004-2.25 8.004-8 0-4.893-2.785-7.16-6.02-7.787z"/></g></svg>