<svg xmlns="http://www.w3.org/2000/svg" width="32" height="32"><path d="M25.977 12.213c-.027 1.387-.336 2.695-.883 3.889 2.883.48 2.906 2.828 2.906 3.898 0 .992 0 4-3.996 4h-4.004c-2.605 0-4.938 1.258-6.398 3.203-.969-.734-1.602-1.898-1.602-3.203v-4c0-.791.141-1.414.359-1.928-.117-.021-.234-.072-.359-.072h-3.797c-.129.619-.199 1.281-.199 2v4c0 4.418 3.578 8 7.996 8 0-2.211 1.789-4 4-4h4.004c3.996 0 7.996-2.25 7.996-8 0-4.893-2.781-7.16-6.023-7.787zm-9.977-8.213c1.492 0 4 .52 4 4v4c0 1.309-.633 2.471-1.602 3.201-1.46-1.941-3.789-3.201-6.398-3.201h-3.996c-4.004 0-4.004-3.01-4.004-4 0-1.195 0-4 4.004-4h7.996m0-4h-7.996c-4.004 0-8.004 2.125-8.004 8 0 5.75 4 8 8.004 8h3.996c2.211 0 4 1.793 4 4 4.418 0 8.004-3.582 8.004-8v-4c0-5.521-4.004-8-8.004-8z" fill="#4E4E50"/></svg>