<svg xmlns="http://www.w3.org/2000/svg" width="32" height="32"><path d="M24 4c-.375 0-.738.059-1.102.113-1.394-2.468-3.972-4.113-6.898-4.113-2.988 0-5.568 1.668-6.941 4.098-.352-.047-.702-.098-1.059-.098-4.412 0-8 3.59-8 8s3.588 8 8 8h6v6h-4l5.998 6 6.002-6h-4v-6h6c4.414 0 8-3.59 8-8s-3.586-8-8-8zm0 12h-16c-2.205 0-4-1.793-4-4 0-2.191 1.943-3.887 4.004-3.945.008.941.172 1.871.5 2.746l3.746-1.406c-.166-.442-.25-.915-.25-1.395 0-2.207 1.795-4 4-4 1.295 0 2.463.641 3.201 1.637-1.931 1.461-3.201 3.758-3.201 6.363h4c0-2.207 1.797-4 4-4s4 1.793 4 4-1.797 4-4 4z" fill="#4E4E50"/></svg>