<svg xmlns="http://www.w3.org/2000/svg" width="32" height="32"><g fill="#4E4E50"><path d="M24 4c-.375 0-.738.062-1.102.109-1.394-2.461-3.972-4.109-6.898-4.109-2.988 0-5.568 1.664-6.941 4.102-.352-.047-.702-.102-1.059-.102-4.412 0-8 3.586-8 8s3.588 8 8 8h16c4.414 0 8-3.586 8-8s-3.586-8-8-8zm0 12h-16c-2.205 0-4-1.797-4-4 0-2.195 1.943-3.883 4.004-3.945.008.945.172 1.867.5 2.742l3.746-1.398c-.166-.446-.25-.915-.25-1.399 0-2.203 1.795-4 4-4 1.295 0 2.463.641 3.201 1.641-1.931 1.461-3.201 3.754-3.201 6.359h4c0-2.203 1.797-4 4-4s4 1.797 4 4-1.797 4-4 4z"/><polygon points="18.002,26 22,26 16.004,20 10.002,26 14.002,26 14.002,32 18.002,32"/></g></svg>