<svg xmlns="http://www.w3.org/2000/svg" width="32" height="32"><path d="M32 17.969v-4l-4.781-1.992c-.133-.375-.273-.738-.445-1.094l1.93-4.805-2.829-2.828-4.762 1.961c-.363-.176-.734-.324-1.117-.461l-2.027-4.75h-4l-1.977 4.734c-.398.141-.781.289-1.16.469l-4.754-1.91-2.828 2.828 1.938 4.711c-.188.387-.34.781-.485 1.188l-4.703 2.011v4l4.707 1.961c.145.406.301.801.488 1.188l-1.902 4.742 2.828 2.828 4.723-1.945c.379.18.766.324 1.164.461l2.023 4.734h4l1.98-4.758c.379-.141.754-.289 1.113-.461l4.797 1.922 2.828-2.828-1.969-4.773c.168-.359.305-.723.438-1.094l4.782-2.039zm-16.031 4.031c-3.312 0-6-2.688-6-6s2.688-6 6-6 6 2.688 6 6-2.688 6-6 6z" fill="#4E4E50"/></svg>