<svg xmlns="http://www.w3.org/2000/svg" width="32" height="31.828"><g fill="#4E4E50"><circle cx="16" cy="15.828" r="4"/><path d="M28.555 6.047c-.344.281-.762.469-1.242.469-1.102 0-2-.891-2-2 0-.484.195-.914.484-1.266-2.219-1.711-4.906-2.863-7.836-3.227-.102 1.008-.922 1.805-1.961 1.805s-1.871-.805-1.961-1.828c-2.969.383-5.672 1.555-7.91 3.328.254.336.434.734.434 1.188 0 1.109-.891 2-2 2-.445 0-.844-.172-1.176-.422-2.09 2.703-3.387 6.054-3.387 9.734 0 8.836 7.164 16 16 16s16-7.164 16-16c0-3.715-1.312-7.082-3.445-9.781zm-12.555 17.781c-4.418 0-8-3.582-8-8 0-2.211.895-4.207 2.344-5.656l5.656-5.656 5.648 5.648c1.454 1.449 2.352 3.453 2.352 5.664 0 4.422-3.582 8-8 8z"/></g></svg>