<?xml version="1.0" encoding="utf-8"?>
<!-- Generator: Adobe Illustrator 18.0.0, SVG Export Plug-In . SVG Version: 6.00 Build 0)  -->
<!DOCTYPE svg PUBLIC "-//W3C//DTD SVG 1.1//EN" "http://www.w3.org/Graphics/SVG/1.1/DTD/svg11.dtd">
<svg version="1.1" id="Ebene_1" xmlns="http://www.w3.org/2000/svg" xmlns:xlink="http://www.w3.org/1999/xlink" x="0px" y="0px"
	 viewBox="0 0 50 50" enable-background="new 0 0 50 50" xml:space="preserve">
<g>
	<path fill="#FFFFFF" d="M33.6,27.4c-0.4-0.4-0.9-0.6-1.5-0.6c-0.6,0-1.1,0.2-1.6,0.7c0,0,0.2,0.2,0.4,0.4c0.2,0.2,0.4,0.4,0.5,0.5
		c0.1,0.1,0.2,0.2,0.3,0.4c0.1,0.2,0.2,0.4,0.3,0.6c0.1,0.2,0.1,0.4,0.1,0.6c0,0.6-0.2,1.1-0.6,1.5S30.6,32,30,32
		c-0.2,0-0.4,0-0.6-0.1c-0.2-0.1-0.4-0.1-0.6-0.3c-0.2-0.1-0.3-0.2-0.4-0.3c-0.1-0.1-0.2-0.2-0.5-0.5c-0.2-0.2-0.4-0.4-0.4-0.4
		c-0.5,0.5-0.7,1-0.7,1.6c0,0.6,0.2,1.1,0.6,1.5l4.5,4.5c0.4,0.4,0.9,0.6,1.5,0.6c0.6,0,1.1-0.2,1.5-0.6l3.2-3.2
		c0.4-0.4,0.6-0.9,0.6-1.5c0-0.6-0.2-1.1-0.6-1.5L33.6,27.4z"/>
	<path fill="#FFFFFF" d="M18.3,12c-0.4-0.4-0.9-0.6-1.5-0.6c-0.6,0-1.1,0.2-1.5,0.6l-3.2,3.2c-0.4,0.4-0.6,0.9-0.6,1.5
		c0,0.6,0.2,1.1,0.6,1.5l4.5,4.5c0.4,0.4,0.9,0.6,1.5,0.6c0.6,0,1.1-0.2,1.6-0.7c0,0-0.2-0.2-0.4-0.4c-0.2-0.2-0.4-0.4-0.5-0.5
		c-0.1-0.1-0.2-0.2-0.3-0.4c-0.1-0.2-0.2-0.4-0.3-0.6c-0.1-0.2-0.1-0.4-0.1-0.6c0-0.6,0.2-1.1,0.6-1.5s0.9-0.6,1.5-0.6
		c0.2,0,0.4,0,0.6,0.1c0.2,0.1,0.4,0.1,0.6,0.3c0.2,0.1,0.3,0.2,0.4,0.3c0.1,0.1,0.2,0.2,0.5,0.5c0.2,0.2,0.4,0.4,0.4,0.4
		c0.5-0.5,0.7-1,0.7-1.6c0-0.6-0.2-1.1-0.6-1.5L18.3,12z"/>
	<path fill="#FFFFFF" d="M47.2,2.7c-1.8-1.8-4-2.7-6.6-2.7H9.4C6.8,0,4.6,0.9,2.7,2.7C0.9,4.6,0,6.8,0,9.4v31.2
		c0,2.6,0.9,4.8,2.7,6.6C4.6,49,6.8,50,9.4,50h31.2c2.6,0,4.8-0.9,6.6-2.7c1.8-1.8,2.7-4,2.7-6.6V9.4C50,6.8,49,4.6,47.2,2.7z
		 M41.1,37.8L37.9,41c-1.2,1.2-2.7,1.8-4.4,1.8c-1.8,0-3.2-0.6-4.4-1.9l-4.5-4.5c-1.2-1.2-1.8-2.7-1.8-4.4c0-1.8,0.6-3.3,1.9-4.6
		l-1.9-1.9c-1.2,1.3-2.8,1.9-4.5,1.9c-1.7,0-3.2-0.6-4.4-1.8l-4.5-4.5c-1.2-1.2-1.8-2.7-1.8-4.4s0.6-3.2,1.9-4.4L12.4,9
		c1.2-1.2,2.7-1.8,4.4-1.8c1.8,0,3.2,0.6,4.4,1.9l4.5,4.5c1.2,1.2,1.8,2.7,1.8,4.4c0,1.8-0.6,3.3-1.9,4.6l1.9,1.9
		c1.2-1.3,2.8-1.9,4.5-1.9c1.7,0,3.2,0.6,4.4,1.8l4.5,4.5c1.2,1.2,1.8,2.7,1.8,4.4S42.3,36.6,41.1,37.8z"/>
</g>
</svg>
