<?xml version="1.0" encoding="utf-8"?>
<!-- Generator: Adobe Illustrator 17.0.0, SVG Export Plug-In . SVG Version: 6.00 Build 0)  -->
<!DOCTYPE svg PUBLIC "-//W3C//DTD SVG 1.1//EN" "http://www.w3.org/Graphics/SVG/1.1/DTD/svg11.dtd">
<svg version="1.1" id="Ebene_1" xmlns="http://www.w3.org/2000/svg" xmlns:xlink="http://www.w3.org/1999/xlink" x="0px" y="0px"
	 width="50px" height="50px" viewBox="0 0 50 50" enable-background="new 0 0 50 50" xml:space="preserve">
<path fill="#FFFFFF" d="M50.027,40.645c0,2.583-0.914,4.791-2.753,6.629c-1.834,1.834-4.042,2.748-6.629,2.748h-6.25v-19.8h6.61
	l0.978-7.295h-7.587v-4.659c0-1.172,0.302-2.072,0.91-2.699c0.608-0.632,1.649-0.948,3.127-0.948l4.299-0.029V7.845
	c-2.087-0.195-4.037-0.292-5.861-0.292c-2.957,0-5.321,0.875-7.101,2.622c-1.78,1.751-2.67,4.197-2.67,7.349v5.403h-7.295v7.295
	H27.1v19.8H9.382c-2.583,0-4.796-0.914-6.629-2.748C0.919,45.436,0,43.228,0,40.645V9.377c0-2.583,0.919-4.791,2.753-6.629
	C4.586,0.919,6.799,0,9.382,0h31.263c2.587,0,4.796,0.919,6.629,2.748c1.838,1.838,2.753,4.047,2.753,6.629V40.645z"/>
</svg>
