<?xml version="1.0" encoding="utf-8"?>
<!-- Generator: Adobe Illustrator 17.0.0, SVG Export Plug-In . SVG Version: 6.00 Build 0)  -->
<!DOCTYPE svg PUBLIC "-//W3C//DTD SVG 1.1//EN" "http://www.w3.org/Graphics/SVG/1.1/DTD/svg11.dtd">
<svg version="1.1" id="Ebene_1" xmlns="http://www.w3.org/2000/svg" xmlns:xlink="http://www.w3.org/1999/xlink" x="0px" y="0px"
	 width="50px" height="50px" viewBox="0 0 50 50" enable-background="new 0 0 50 50" xml:space="preserve">
<path fill="#FFFFFF" d="M49.952,9.369v31.224c0,2.579-0.913,4.784-2.749,6.62c-1.831,1.826-4.036,2.744-6.615,2.744H9.364
	c-2.579,0-4.784-0.918-6.615-2.744C0.913,45.377,0,43.172,0,40.593V9.369c0-2.579,0.913-4.784,2.749-6.62
	C4.58,0.918,6.785,0,9.364,0h31.224c2.579,0,4.784,0.918,6.615,2.749C49.039,4.585,49.952,6.79,49.952,9.369 M27.999,9.369
	l2.866-2.084h-8.621c-1.846,0-3.589,0.35-5.236,1.044c-1.646,0.695-3.031,1.753-4.148,3.186c-1.117,1.433-1.676,3.089-1.676,4.973
	c0,2.02,0.699,3.696,2.098,5.027c1.399,1.336,3.118,2.001,5.158,2.001c0.476,0,0.942-0.034,1.399-0.097
	c-0.287,0.627-0.427,1.214-0.427,1.753c0,0.957,0.437,1.977,1.302,3.06c-3.793,0.257-6.581,0.942-8.359,2.05
	c-1.015,0.631-1.836,1.418-2.453,2.37c-0.622,0.957-0.928,1.986-0.928,3.094c0,0.933,0.199,1.773,0.602,2.521
	c0.398,0.748,0.928,1.36,1.578,1.836c0.646,0.476,1.399,0.879,2.239,1.204c0.85,0.325,1.69,0.554,2.521,0.68
	c0.835,0.131,1.666,0.199,2.492,0.199c1.302,0,2.608-0.17,3.919-0.505c1.311-0.335,2.54-0.835,3.691-1.496
	c1.146-0.661,2.079-1.559,2.798-2.686c0.714-1.122,1.069-2.394,1.069-3.803c0-1.064-0.214-2.035-0.646-2.909
	c-0.437-0.879-0.967-1.598-1.593-2.166c-0.631-0.563-1.258-1.078-1.889-1.544c-0.631-0.466-1.161-0.942-1.593-1.428
	c-0.432-0.491-0.651-0.971-0.651-1.447c0-0.476,0.17-0.942,0.505-1.384c0.335-0.442,0.743-0.874,1.219-1.287
	c0.476-0.408,0.952-0.865,1.433-1.365c0.476-0.495,0.879-1.141,1.219-1.933c0.335-0.792,0.505-1.685,0.505-2.686
	c0-1.302-0.243-2.38-0.733-3.235c-0.491-0.855-1.272-1.836-2.356-2.943H27.999z M26.96,35.455c0,1.646-0.631,2.866-1.904,3.657
	c-1.268,0.792-2.778,1.185-4.536,1.185c-0.889,0-1.763-0.102-2.618-0.306c-0.86-0.209-1.676-0.515-2.458-0.928
	c-0.777-0.413-1.408-0.986-1.884-1.724c-0.476-0.738-0.714-1.583-0.714-2.535c0-1.001,0.267-1.865,0.811-2.603
	c0.539-0.738,1.253-1.297,2.132-1.676c0.879-0.379,1.763-0.651,2.666-0.816c0.899-0.16,1.812-0.243,2.749-0.243
	c0.432,0,0.767,0.024,1.005,0.068c0.044,0.019,0.291,0.199,0.748,0.534c0.457,0.34,0.738,0.544,0.845,0.622
	c0.107,0.073,0.359,0.267,0.748,0.583c0.393,0.316,0.661,0.554,0.797,0.714c0.146,0.165,0.35,0.408,0.622,0.733
	c0.267,0.325,0.457,0.607,0.554,0.845c0.097,0.238,0.194,0.525,0.291,0.865C26.912,34.765,26.96,35.105,26.96,35.455 M24.551,17.727
	c0,1.302-0.355,2.38-1.069,3.235c-0.719,0.855-1.714,1.287-2.997,1.287c-1.146,0-2.156-0.461-3.021-1.384
	c-0.869-0.918-1.491-1.967-1.87-3.137c-0.384-1.17-0.573-2.322-0.573-3.448c0-1.321,0.35-2.448,1.044-3.38
	c0.69-0.933,1.69-1.399,2.992-1.399c1.146,0,2.161,0.486,3.04,1.462c0.879,0.976,1.506,2.069,1.884,3.283
	C24.362,15.459,24.551,16.62,24.551,17.727 M37.465,23.939h4.162v-2.084h-4.162v-4.162h-2.084v4.162h-4.162v2.084h4.162v5.202h2.084
	V23.939z"/>
</svg>
