<svg xmlns="http://www.w3.org/2000/svg" width="32" height="32"><g fill="#4E4E50"><path d="M22 4c3.309 0 6 2.691 6 6s-2.691 6-6 6c-.312 0-.656-.039-1.086-.117l-2.07-.383-1.488 1.488-.184.184-1.172 1.172v1.656h-4v4h-4v4h-4v-2.344l11.012-11.012 1.488-1.488-.383-2.07c-.08-.43-.117-.774-.117-1.086 0-3.309 2.691-6 6-6m0-4c-5.523 0-10 4.477-10 10 0 .625.074 1.227.184 1.816l-12.184 12.184v8h12v-4h4v-4h4v-4l.184-.184c.589.11 1.191.184 1.816.184 5.523 0 10-4.477 10-10s-4.477-10-10-10z"/><circle cx="22.008" cy="10" r="2"/></g></svg>