<svg xmlns="http://www.w3.org/2000/svg" width="20" height="32"><g fill="#4E4E50"><path d="M10 4.008c3.312 0 6 2.699 6 6.016 0 1.895-.863 3.637-2.375 4.773-2.256 1.707-3.168 3.594-3.482 5.18h-.286c-.312-1.586-1.227-3.473-3.484-5.18-1.508-1.137-2.375-2.879-2.375-4.773 0-3.317 2.691-6.016 6.002-6.016m0-4.008c-5.523 0-10 4.488-10 10.023 0 3.282 1.545 6.149 3.969 7.977 1.115.844 2.035 1.93 2.035 3.43v2.555h7.996v-2.555c0-1.5.918-2.586 2.031-3.43 2.426-1.828 3.969-4.695 3.969-7.977 0-5.535-4.477-10.023-10-10.023z"/><rect x="6.004" y="27.992" width="7.996" height="4.008"/></g></svg>