<svg xmlns="http://www.w3.org/2000/svg" width="32" height="32"><path d="M31.414.586c-.781-.781-2.059-.781-2.84 0l-4.07 4.074c-1.668-1.109-3.582-1.66-5.504-1.66-2.559 0-5.201.977-7.07 2.93l-6 6c-3.422 3.418-3.844 8.703-1.273 12.582l-4.07 4.074c-.781.781-.781 2.047 0 2.828.39.391.901.586 1.413.586s1.023-.195 1.414-.586l4.07-4.074c1.668 1.109 3.594 1.66 5.516 1.66 2.475 0 5.117-.977 7.07-2.93l5.988-6c3.422-3.418 3.844-8.703 1.273-12.582l4.082-4.074c.782-.781.782-2.047.001-2.828zm-6.426 12.414c0 1.602-.625 3.109-1.758 4.242l-5.988 6c-1.137 1.133-2.724 1.758-4.242 1.758-.906 0-1.773-.223-2.57-.602l2.9-2.984c.781-.781.781-2.047 0-2.828-.697-.781-1.963-.781-2.744 0l-2.984 2.984c-.383-.793-.602-1.66-.602-2.57 0-1.602.625-3.109 1.758-4.242l5.916-6c1.133-1.133 2.724-1.758 4.326-1.758.906 0 1.77.223 2.566.602l-3.043 3.047c-.781.781-.781 2.047 0 2.828.391.391.902.586 1.414.586.508 0 1.02-.195 1.41-.586l3.039-3.047c.384.793.602 1.66.602 2.57z" fill="#4E4E50"/></svg>