<?xml version="1.0" encoding="utf-8"?>
<!-- Generator: Adobe Illustrator 17.0.0, SVG Export Plug-In . SVG Version: 6.00 Build 0)  -->
<!DOCTYPE svg PUBLIC "-//W3C//DTD SVG 1.1//EN" "http://www.w3.org/Graphics/SVG/1.1/DTD/svg11.dtd">
<svg version="1.1" id="Ebene_1" xmlns="http://www.w3.org/2000/svg" xmlns:xlink="http://www.w3.org/1999/xlink" x="0px" y="0px"
	 width="246.045px" height="156.379px" viewBox="0 0 246.045 156.379" enable-background="new 0 0 246.045 156.379"
	 xml:space="preserve">
<g>
	<g>
		<defs>
			<rect id="SVGID_1_" x="0" y="0" width="246.045" height="156.379"/>
		</defs>
		<clipPath id="SVGID_2_">
			<use xlink:href="#SVGID_1_"  overflow="visible"/>
		</clipPath>
		<path clip-path="url(#SVGID_2_)" fill="none" stroke="#FFFFFF" stroke-width="2" d="M87.604,17.984l-9.163,10.568l-12.71,3.318
			v-6.943H55.682v3.625l-6.207,6.943c0,0,8.571,1.358,8.571,2.244c0,0.887-9.609,17.171-11.159,17.171S32.036,66.706,32.036,66.706
			l-6.208,2.51v13.747L8.094,97.446v12.71l5.911,6.207L1,127.626v4.403h12.119l6.207-7.981l0.295-10.308l12.415-5.949l14.851,2.365
			l-2.585,20.69l6.355,1.183l10.345,18.916l5.912,2.365l5.984-4.729l5.248,2.66l9.458-5.912l14.188,4.434l3.251-5.911h5.616
			l2.66-8.218h3.533c0,0,2.379-5.878,2.379-6.943s-2.379-6.416-2.379-6.416l3.857-3.547l12.414-12.71l1.182,17.439
			c0,0,6.798,7.389,7.685,7.98c0.887,0.592,11.232,4.197,11.232,4.197l3.497,4.375l-4.088,3.843l5.911,1.773
			c0,0-0.886,9.754,0,9.754h7.094l2.956-5.025l-5.248-5.32l2.588-3.843l-2.588-5.557l11.737-6.943l4.301-14.951l-2.514-5.062
			l2.514-5.918l9.605,2.371v8.609c0,0,4.433,4.214,5.025,5.579c0.591,1.364,7.549,1.364,7.549,1.364l2.5-5.502l11.528-1.441
			l5.616,11.49l7.397-1.182l-5.033-8.276l2.365-3.843l-4.729-3.547l-1.282-8.867l10.149-5.911c0,0-1.725,5.615,2.093,5.615
			c3.818,0,10.026,3.541,10.026,3.541l2.66-6.943l-6.798-5.465l6.798-21.136l-7.094-4.579l-7.389,7.981l-7.39,3.541l-15.665-14.305
			l-11.528-1.447h-6.207l2.3-13.886l7.158-11.026l-1.292-8.692l12.496-5.194l-3.814-5.89l-6.503,4.286l-10.345-6.207h-12.119
			l-5.025-3.843h-9.09l-6.625,3.843V7.591l-3.497-1.774l-2.365,1.774l1.478,4.138l-4.433-2.66l0.886-5.912l-8.571-2.069
			l-9.163,7.389l3.251,3.547l8.572,0.887l-2.069,2.808l-2.451-1.626l-3.756,1.626v3.695l-7.981-0.591l-2.66-3.104h-4.434
			l-5.911,3.99l-5.321,1.9l-6.502-3.625l-3.302,1.725l-5.27,1.9l-0.296-3.625H87.604z"/>
	</g>
	<g>
		<defs>
			<rect id="SVGID_3_" x="0" y="0" width="246.045" height="156.379"/>
		</defs>
		<clipPath id="SVGID_4_">
			<use xlink:href="#SVGID_3_"  overflow="visible"/>
		</clipPath>
	</g>
	<g>
		<defs>
			<rect id="SVGID_5_" x="0" y="0" width="246.045" height="156.379"/>
		</defs>
		<clipPath id="SVGID_6_">
			<use xlink:href="#SVGID_5_"  overflow="visible"/>
		</clipPath>
	</g>
	<g>
		<defs>
			<rect id="SVGID_7_" x="0" y="0" width="246.045" height="156.379"/>
		</defs>
		<clipPath id="SVGID_8_">
			<use xlink:href="#SVGID_7_"  overflow="visible"/>
		</clipPath>
	</g>
	<g>
		<defs>
			<rect id="SVGID_9_" x="0" y="0" width="246.045" height="156.379"/>
		</defs>
		<clipPath id="SVGID_10_">
			<use xlink:href="#SVGID_9_"  overflow="visible"/>
		</clipPath>
	</g>
	<g>
		<defs>
			<rect id="SVGID_11_" x="0" y="0" width="246.045" height="156.379"/>
		</defs>
		<clipPath id="SVGID_12_">
			<use xlink:href="#SVGID_11_"  overflow="visible"/>
		</clipPath>
	</g>
	<g>
		<defs>
			<rect id="SVGID_13_" x="0" y="0" width="246.045" height="156.379"/>
		</defs>
		<clipPath id="SVGID_14_">
			<use xlink:href="#SVGID_13_"  overflow="visible"/>
		</clipPath>
	</g>
	<g>
		<defs>
			<rect id="SVGID_15_" x="0" y="0" width="246.045" height="156.379"/>
		</defs>
		<clipPath id="SVGID_16_">
			<use xlink:href="#SVGID_15_"  overflow="visible"/>
		</clipPath>
	</g>
	<g>
		<defs>
			<rect id="SVGID_17_" x="0" y="0" width="246.045" height="156.379"/>
		</defs>
		<clipPath id="SVGID_18_">
			<use xlink:href="#SVGID_17_"  overflow="visible"/>
		</clipPath>
	</g>
	<g>
		<defs>
			<rect id="SVGID_19_" x="0" y="0" width="246.045" height="156.379"/>
		</defs>
		<clipPath id="SVGID_20_">
			<use xlink:href="#SVGID_19_"  overflow="visible"/>
		</clipPath>
	</g>
</g>
</svg>
