<?xml version="1.0" encoding="utf-8"?>
<!-- Generator: Adobe Illustrator 17.0.0, SVG Export Plug-In . SVG Version: 6.00 Build 0)  -->
<!DOCTYPE svg PUBLIC "-//W3C//DTD SVG 1.1//EN" "http://www.w3.org/Graphics/SVG/1.1/DTD/svg11.dtd">
<svg version="1.1" id="Ebene_1" xmlns="http://www.w3.org/2000/svg" xmlns:xlink="http://www.w3.org/1999/xlink" x="0px" y="0px"
	 width="358px" height="185.733px" viewBox="302.89 0 358 185.733" enable-background="new 302.89 0 358 185.733"
	 xml:space="preserve">
<g>
	<polygon fill="#E30613" points="563.151,6.372 547.432,2.051 457.736,19.579 443.032,17.481 410.958,32.555 378.096,39.009 
		378.096,120.166 418.142,106.853 426.39,110.624 514.612,93.293 522.136,98.336 550.247,83.495 582.59,81.185 582.59,0 	"/>
	<g>
		<g>
			<defs>
				<rect id="SVGID_1_" x="378.096" y="0" width="204.493" height="120.165"/>
			</defs>
			<clipPath id="SVGID_2_">
				<use xlink:href="#SVGID_1_"  overflow="visible"/>
			</clipPath>
			<path clip-path="url(#SVGID_2_)" fill="#FFFFFF" d="M558.67,32.612v-1.026h0.3c0.411,0,0.655,0.097,0.655,0.497
				c0,0.352-0.267,0.528-0.655,0.528H558.67z M557.939,34.57h0.731v-1.492l0.169-0.002c0.266,0.002,0.456,0.092,0.555,0.365
				l0.394,1.129h0.778l-0.52-1.325c-0.129-0.322-0.294-0.383-0.44-0.403l-0.002-0.012c0.448-0.063,0.774-0.364,0.774-0.817
				c0-0.639-0.48-0.918-1.193-0.918h-1.247L557.939,34.57L557.939,34.57z"/>
		</g>
		<g>
			<defs>
				<rect id="SVGID_3_" x="378.096" y="0" width="204.493" height="120.165"/>
			</defs>
			<clipPath id="SVGID_4_">
				<use xlink:href="#SVGID_3_"  overflow="visible"/>
			</clipPath>
			<path clip-path="url(#SVGID_4_)" fill="#FFFFFF" d="M555.926,32.89c0,1.747,1.424,3.176,3.175,3.176
				c1.75,0,3.176-1.429,3.176-3.176c0-1.752-1.426-3.178-3.176-3.18C557.35,29.711,555.926,31.138,555.926,32.89 M556.328,32.888
				c0-1.53,1.243-2.772,2.773-2.772c1.53,0,2.773,1.242,2.773,2.772c0,1.528-1.242,2.773-2.773,2.773
				C557.571,35.661,556.328,34.416,556.328,32.888"/>
		</g>
		<g>
			<defs>
				<rect id="SVGID_5_" x="378.096" y="0" width="204.493" height="120.165"/>
			</defs>
			<clipPath id="SVGID_6_">
				<use xlink:href="#SVGID_5_"  overflow="visible"/>
			</clipPath>
			<path clip-path="url(#SVGID_6_)" fill="#FFFFFF" d="M487.377,54.769l0.022-1.692c0.001-1.997-0.688-3.873-1.8-4.906
				c-0.803-0.744-1.759-1.011-2.842-0.803c-4.262,0.808-4.934,9.314-4.934,9.314L487.377,54.769z M495.317,55.919
				c-0.323,0.502-0.8,0.6-0.8,0.6l-16.593,3.255c-0.052,2.638,0.18,7.157,2.685,9.433c4.038,3.671,11.062-0.632,14.534-4.841
				c0.226-0.304,0.3-0.072,0.246,0.118c-1.14,3.823-5.457,9.238-11.45,10.412c-8.318,1.616-14.717-3.187-15.072-12.027
				c-0.172-4.299,1.058-8.365,3.565-11.761c2.663-3.618,6.502-6.057,10.789-6.88c3.555-0.672,6.924,0.168,9.246,2.315
				c2.053,1.901,3.139,4.655,3.139,7.943C495.606,54.484,495.674,55.345,495.317,55.919 M545.502,46.136
				c-2.941,1.999-6.605,4.486-6.602,8.533c0.003,1.542,0.391,2.786,1.067,3.413c0.453,0.419,1.027,0.56,1.709,0.432
				c0.931-0.176,2.011-0.931,2.801-1.967c0.683-0.889,1.057-1.866,1.058-2.734L545.502,46.136z M556.985,54.711
				c0.059,0.125-0.021,0.37-0.021,0.37c-0.278,1.254-1.515,5.5-5.645,6.307c-3.362,0.657-4.927-0.634-5.498-2.396
				c-2.364,3.206-5.728,4.805-8.653,5.375c-5.994,1.166-7.086-3.659-7.086-5.672c-0.009-6.242,5.263-9.248,10.888-12.907
				c1.692-1.1,4.566-2.639,4.559-4.598c-0.009-1.875-0.079-3.758-1.048-4.644c-0.526-0.49-4.32-1.435-5.905,3.49
				c-0.661,2.047-1.495,4.605-4.062,5.116c-2.288,0.455-4.757-2.836-2.083-7.006c1.791-2.782,6.221-4.412,10.438-5.231
				c4.216-0.821,7.251-0.381,9.015,1.25c1.233,1.138,1.865,2.889,1.861,5.192l0.012,13.628c0.014,3.985,1.892,2.908,2.883,1.917
				c0.05-0.054,0.102-0.106,0.142-0.157C556.782,54.745,556.927,54.566,556.985,54.711 M453.65,55.3
				c-0.583-1.438,0.413-2.864,1.461-3.873l0.095-0.093c0.34-0.327,0.379-0.567,0.302-0.739c-0.13-0.275-0.365-0.129-0.441-0.129
				l-0.068,0.017l-0.478,0.121c-1.517,0.356-3.702,0.841-5.805,1.254c-2.539,0.496-5.186,0.91-6.643,1.138l-0.098,0.007
				c-0.08,0.034-0.315-0.026-0.442,0.299c-0.079,0.212-0.023,0.377,0.275,0.614l0.041,0.041c0.658,0.643,1.527,1.643,2.096,2.909
				c0.937,2.104,8.944,19.459,10.315,22.423c0.039,0.119,0.118,0.286,0.24,0.349c0.125,0.063,0.338,0.012,0.338,0.012l1.807-0.355
				l0.07-0.013c0,0,0.208-0.032,0.335-0.146c0.129-0.108,0.194-0.312,0.238-0.436l0.045-0.118c1.354-3.702,8.25-22.526,9.269-25.17
				c0.787-2.047,1.924-3.728,2.742-4.78l0.061-0.085c0.29-0.355,0.35-0.517,0.271-0.691c-0.127-0.283-0.365-0.129-0.444-0.128
				l-0.151,0.034c-1.018,0.258-2.446,0.601-3.639,0.835c-1.033,0.206-2.339,0.405-3.409,0.564l-0.061,0.008
				c-0.087,0.027-0.317-0.026-0.444,0.297c-0.081,0.21-0.035,0.43,0.31,0.623l0.094,0.06c1.055,0.601,2.067,1.628,1.488,3.295
				c-0.749,2.185-3.088,8.972-4.839,14.028C458.579,67.469,454.408,57.173,453.65,55.3 M429.616,47.222
				c0.003-1.426,0.498-2.856,1.399-4.037c0.899-1.177,2.101-1.962,3.377-2.201c1.254-0.244,2.415,0.061,3.27,0.862
				c0.897,0.825,1.387,2.099,1.392,3.589c0.002,2.909-2.125,5.597-4.838,6.116c-1.122,0.212-2.276-0.134-3.167-0.958
				C430.141,49.747,429.619,48.524,429.616,47.222 M427.934,57.023c-0.08,0.03-0.384,0.148-0.439,0.421
				c-0.059,0.288,0.209,0.434,0.264,0.46c1.157,0.529,3.157,1.77,3.157,4.547l0.008,0.233l0.026,16.244
				c0.011,2.04-1.097,3.674-2.117,4.744l-0.078,0.087c-0.291,0.291-0.486,0.558-0.405,0.799c0.087,0.262,0.445,0.219,0.445,0.219
				l0.117-0.03l12.394-2.457l0.123-0.035c0,0,0.357-0.098,0.442-0.393c0.076-0.27-0.121-0.462-0.412-0.643l-0.115-0.064
				c-1.097-0.705-2.165-1.807-2.172-3.813l-0.027-23.19c0,0,0.069-0.546-0.231-0.782c-0.307-0.249-0.588-0.097-0.698-0.049
				c-3.154,1.414-6.436,2.598-9.992,3.625L427.934,57.023z M499.997,33.478l0.022,30.431c0.018,2.813-1.652,4.832-2.918,6.263
				l-0.111,0.123c-0.295,0.295-0.487,0.561-0.414,0.806c0.091,0.261,0.436,0.207,0.436,0.207l0.159-0.022
				c3.115-0.607,10.298-2.004,13.447-2.624l0.078-0.02c0,0,0.345-0.081,0.429-0.382c0.078-0.27-0.122-0.461-0.417-0.641
				l-0.086-0.062c-1.105-0.761-2.376-2.152-2.387-4.164l-0.019-39.176c0,0,0.045-0.344-0.126-0.498
				c-0.149-0.133-0.396,0.035-0.548,0.108c-0.721,0.344-2.252,1.026-4.655,1.866c-2.217,0.772-4.29,1.431-5.499,1.8l-0.317,0.102
				c-0.085,0.029-0.389,0.149-0.445,0.423c-0.055,0.286,0.213,0.435,0.268,0.456c1.155,0.528,3.079,1.809,3.085,4.585
				L499.997,33.478z M513.689,24.357c-0.083,0.032-0.387,0.15-0.442,0.423c-0.057,0.288,0.211,0.434,0.266,0.459
				c1.153,0.529,3.082,1.807,3.084,4.584l0.015,0.253l0.028,30.812c0.008,2.576-1.669,4.643-2.941,6.073l-0.098,0.101
				c-0.287,0.293-0.488,0.564-0.406,0.801c0.088,0.262,0.435,0.207,0.435,0.207l0.092-0.009c3.056-0.593,10.26-1.997,13.461-2.619
				l0.138-0.039c0,0,0.34-0.077,0.429-0.378c0.076-0.27-0.12-0.46-0.412-0.64l-0.096-0.066c-1.105-0.76-2.396-2.472-2.387-4.594
				l-0.016-38.629l0.005-0.117c0,0,0.04-0.341-0.127-0.497c-0.136-0.118-0.338-0.007-0.488,0.071l-0.163,0.085
				c-0.756,0.352-2.259,1.015-4.561,1.819c-2.319,0.808-4.474,1.49-5.656,1.855L513.689,24.357z M417.039,87.045
				c0,0,0.355-0.1,0.441-0.393c0.08-0.268-0.121-0.458-0.413-0.64c-0.295-0.179-1.4-0.978-1.834-2.138
				c-0.44-1.197-0.599-3.787-0.607-4.798l-0.027-3.644l-0.008-0.22c-0.015-1.184-0.03-2.181-0.03-2.811
				c-0.009-1.742,0.092-8.686,3.495-9.334c0.785-0.144,1.136,0.277,1.575,0.808c0.565,0.688,1.285,1.801,3.174,1.175
				c4.462-1.47,4.608-9.876-1.148-8.755c-3.227,0.63-5.935,4.165-7.51,7.494l-0.368-4.817c0,0,0.004-0.637-0.25-0.808
				c-0.316-0.212-0.589-0.002-0.712,0.057c-0.758,0.395-2.176,1.073-4.396,2.002c-2.45,1.028-4.24,1.72-4.958,1.981
				c-0.079,0.03-0.391,0.161-0.443,0.437c-0.057,0.289,0.211,0.434,0.265,0.459c1.155,0.525,2.989,1.799,2.992,4.576l0.066,13.009
				c0,1.01-0.134,3.656-0.561,5.03c-0.424,1.327-1.517,2.549-1.81,2.847c-0.292,0.293-0.489,0.561-0.41,0.803
				c0.091,0.261,0.445,0.217,0.445,0.217l12.935-2.512L417.039,87.045z"/>
		</g>
	</g>
</g>
<g>
	<path fill="#2C110D" d="M319.853,185.022h-16.587v-82.933h24.287c10.307,0,15.402,5.095,15.402,15.402v23.339
		c0,10.309-5.095,15.402-15.402,15.402h-7.701V185.022z M323.407,116.306h-3.554v25.709h3.554c2.014,0,2.962-0.948,2.962-2.962
		v-19.785C326.369,117.254,325.421,116.306,323.407,116.306z"/>
	<path fill="#2C110D" d="M373.399,185.733h-10.663c-10.307,0-15.402-5.095-15.402-15.402V116.78
		c0-10.307,5.095-15.402,15.402-15.402h10.663c10.307,0,15.402,5.095,15.402,15.402v53.551
		C388.802,180.638,383.706,185.733,373.399,185.733z M369.252,115.595h-2.369c-2.015,0-2.962,0.947-2.962,2.962v49.997
		c0,2.014,0.947,2.961,2.962,2.961h2.369c2.014,0,2.962-0.947,2.962-2.961v-49.997C372.214,116.542,371.266,115.595,369.252,115.595
		z"/>
	<path fill="#2C110D" d="M420.311,185.733h-10.662c-10.307,0-15.402-5.095-15.402-15.402V116.78
		c0-10.307,5.095-15.402,15.402-15.402h10.662c10.307,0,15.402,5.095,15.402,15.402v53.551
		C435.713,180.638,430.618,185.733,420.311,185.733z M416.164,115.595h-2.369c-2.015,0-2.962,0.947-2.962,2.962v49.997
		c0,2.014,0.947,2.961,2.962,2.961h2.369c2.014,0,2.962-0.947,2.962-2.961v-49.997C419.126,116.542,418.178,115.595,416.164,115.595
		z"/>
	<path fill="#2C110D" d="M457.982,102.089v68.124h11.965v14.809h-28.552v-82.933H457.982z"/>
	<path fill="#2C110D" d="M515.317,135.499v-33.41h16.587v82.933h-16.587v-34.714h-8.292v34.714h-16.587v-82.933h16.587v33.41
		L515.317,135.499L515.317,135.499z"/>
	<path fill="#2C110D" d="M568.628,102.089v14.809h-14.216v18.601h13.625v14.809h-13.625v19.905h14.454v14.809h-31.041v-82.934
		H568.628z"/>
	<path fill="#2C110D" d="M614.473,156.47v28.552h-16.587v-28.434c0-2.014-0.947-2.962-2.962-2.962h-4.145v31.396h-16.587v-82.933
		h24.761c10.307,0,15.402,5.095,15.402,15.402v15.994c0,7.109-2.607,10.662-7.109,12.322
		C612.34,147.228,614.473,150.427,614.473,156.47z M594.806,116.542h-4.027v22.985h4.027c2.015,0,2.962-0.948,2.962-2.962v-17.061
		C597.768,117.491,596.821,116.542,594.806,116.542z"/>
	<path fill="#2C110D" d="M645.864,185.733h-10.662c-10.307,0-15.402-5.095-15.402-15.402V116.78
		c0-10.307,5.095-15.402,15.402-15.402h10.662c10.307,0,15.402,5.095,15.402,15.402v53.551
		C661.266,180.638,656.172,185.733,645.864,185.733z M641.718,115.595h-2.369c-2.015,0-2.962,0.947-2.962,2.962v49.997
		c0,2.014,0.947,2.961,2.962,2.961h2.369c2.014,0,2.962-0.947,2.962-2.961v-49.997C644.68,116.542,643.732,115.595,641.718,115.595z
		"/>
</g>
</svg>
