<svg xmlns="http://www.w3.org/2000/svg" width="32" height="32"><path d="M11.336 19.738l-5.688 5.688.922.922c1.27-1.273 3.832-3.836 5.684-5.688-.32-.289-.625-.594-.918-.922zm8.797-19.738c-6.539 0-11.86 5.32-11.86 11.863 0 1.566.32 3.051.871 4.418l-9.144 9.145 6.57 6.574 9.148-9.152c1.367.555 2.852.875 4.414.875 6.543 0 11.867-5.32 11.867-11.859.001-6.544-5.323-11.864-11.866-11.864zm0 19.727c-4.332 0-7.863-3.531-7.863-7.863 0-4.336 3.531-7.867 7.863-7.867 4.34 0 7.871 3.531 7.871 7.867 0 4.331-3.531 7.863-7.871 7.863z" fill="#4E4E50"/></svg>