<svg xmlns="http://www.w3.org/2000/svg" width="20" height="32"><path d="M9.996 4c1.605 0 3.113.625 4.246 1.76 1.133 1.131 1.758 2.638 1.758 4.24s-.625 3.109-1.73 4.213c-.168.166-2.238 2.225-4.273 5.441-2.02-3.211-4.082-5.262-4.238-5.414-1.134-1.131-1.759-2.638-1.759-4.24s.625-3.109 1.758-4.242 2.556-1.758 4.238-1.758m0-4c-2.555 0-5.113.977-7.066 2.93-3.906 3.904-3.906 10.236 0 14.141 0 0 7.066 6.93 7.066 14.93 0-8 7.074-14.93 7.074-14.93 3.906-3.904 3.906-10.236 0-14.141-1.953-1.953-4.511-2.93-7.074-2.93zm2.004 10c0 1.105-.895 2-2.004 2-1.185 0-1.996-.895-1.996-2s.811-2 1.996-2c1.109 0 2.004.895 2.004 2z" fill="#4E4E50"/></svg>