<svg xmlns="http://www.w3.org/2000/svg" width="27.994" height="31.922"><path d="M11 31.922c-2.939 0-5.701-1.148-7.777-3.227-2.078-2.078-3.223-4.836-3.223-7.777.002-2.938 1.145-5.699 3.223-7.775l11.136-10.895c2.992-2.994 8.277-3.006 11.297.016 3.117 3.121 3.117 8.195 0 11.312l-10.02 9.775c-1.93 1.93-5.102 1.934-7.051-.016-1.949-1.953-1.949-5.123 0-7.072l3.879-3.879 2.828 2.828-3.879 3.879c-.256.256-.293.553-.293.707s.037.451.293.709c.512.508.902.508 1.414 0l10.016-9.777c1.543-1.541 1.543-4.078-.016-5.639-1.512-1.512-4.145-1.512-5.656 0l-11.136 10.895c-1.306 1.307-2.035 3.063-2.035 4.932 0 1.871.729 3.629 2.051 4.949 2.645 2.648 7.254 2.648 9.898 0l5-5 2.828 2.828-5 5c-2.078 2.078-4.839 3.227-7.777 3.227z" fill="#4E4E50"/></svg>