<svg xmlns="http://www.w3.org/2000/svg" width="16" height="32"><path d="M9.6 30c0 1.102-.895 2-2 2s-2-.898-2-2c0-1.109.895-2 2-2s2 .891 2 2zm-1.924-4.023c-1.336 0-2.59-.523-3.535-1.469-.945-1.105-1.465-2.359-1.465-3.695s.52-2.59 1.465-3.371l6.688-6.688c.755-.758 1.171-1.762 1.171-2.828 0-1.07-.416-2.074-1.172-2.828-1.559-1.559-4.096-1.562-5.654 0-.758.754-1.174 1.757-1.174 2.828h-4c0-2.137.834-4.148 2.348-5.66 3.02-3.023 8.285-3.02 11.309.004 1.511 1.507 2.343 3.515 2.343 5.656 0 2.137-.832 4.145-2.344 5.656l-6.688 6.523c-.389.391-.389 1.023 0 1.414.391.391 1.023.391 1.414 0 .254-.258.293-.555.293-.711h4c0 1.336-.52 2.594-1.465 3.699-.944.946-2.198 1.47-3.534 1.47z" fill="#4E4E50"/></svg>