<svg xmlns="http://www.w3.org/2000/svg" width="32" height="28"><path d="M24 4c-.379 0-.738.061-1.102.111-1.394-2.465-3.972-4.111-6.898-4.111-2.988 0-5.566 1.666-6.941 4.1-.352-.047-.704-.1-1.059-.1-4.41 0-8 3.588-8 8s3.59 8 8 8h16c4.41 0 8-3.588 8-8s-3.59-8-8-8zm0 12h-16c-2.207 0-4-1.795-4-4 0-2.193 1.941-3.885 4.004-3.945.008.943.172 1.869.5 2.744l3.746-1.402c-.168-.444-.25-.915-.25-1.397 0-2.205 1.793-4 4-4 1.293 0 2.465.641 3.199 1.639-1.929 1.461-3.199 3.756-3.199 6.361h4c0-2.205 1.793-4 4-4s4 1.795 4 4-1.793 4-4 4zm-20.719 11.438c-.75.75-1.969.75-2.719 0s-.75-1.969 0-2.719l5.438-2.719s-1.969 4.688-2.719 5.438zm8.004 0c-.75.75-1.965.75-2.719 0-.75-.75-.75-1.969 0-2.719.754-.75 5.438-2.719 5.438-2.719s-1.965 4.688-2.719 5.438zm7.996 0c-.75.75-1.969.75-2.719 0s-.75-1.969 0-2.719l5.438-2.719s-1.969 4.688-2.719 5.438z" fill="#4E4E50"/></svg>