<svg xmlns="http://www.w3.org/2000/svg" width="392.853" height="318.573" viewBox="53.597 25.688 392.853 318.573">
    <path fill="#87CD4D" d="M303.364 108.607L193.45 55.705s-21.247-9.38-47.285-2.833c-2.32.583-.164 2.99-.164 2.99s3.8 6.576 14.29 14.405c5.16 3.852 24.9 14.482 47.5 25.104 24.32 11.43 51.84 22.94 65.19 28.59 0 0 4.03-1.25 6.82 0 .53 1.53.18 2.19.18 2.19"/>
    <path fill="#73AB47" d="M148.956 53.903s7.756 11.072 18.256 16.322 106.366 50.25 106.366 50.25 5.082-1.14 7.982 2.528-2.514.7-2.514.7l-6.97.604-97.366-44.86-21.056-14.637-8.54-10.905 3.842-.002z"/>
    <path fill="#C6D3DA" d="M211.595 68.268s-20.625-10.625-34.625-13.25"/>
    <path fill="#424244" d="M304.015 107.256l-109.96-52.923c-.887-.392-22.02-9.513-48.256-2.916-1.46.367-1.94 1.288-2.1 1.805-.46 1.485.6 2.957 1.08 3.522.61 1.013 4.68 7.314 14.6 14.725 4.99 3.72 24.22 14.19 47.76 25.26 22.31 10.49 46.92 20.87 61.62 27.08l4.12 1.74.52-.16c.86-.28 3.29-.78 5.12-.29.06.34.02.5.02.51 0 0 .01-.06.07-.17l2.64 1.41c.16-.29.61-1.4-.08-3.39l-.21-.61-.59-.27c-2.66-1.2-5.99-.56-7.33-.22l-3.15-1.33c-14.68-6.2-39.25-16.57-61.52-27.03C185 83.01 166 72.68 161.13 69.05c-10.06-7.52-13.846-13.9-13.88-13.96l-.18-.25c-.15-.17-.305-.4-.41-.59 25.116-6.24 45.92 2.7 46.08 2.77l109.92 52.9 1.305-2.71.05.046z"/>
    <path fill="#73AB47" d="M176.97 55.018s8.3 10.943 34.625 13.25c-15.61-7.38-19.133-8.363-19.133-8.363l-15.492-4.887z"/>
    <path fill="#424244" d="M204.287 63.525c-.885-.476-1.815-.987-2.797-1.478-1.945-1.016-4.11-1.914-6.265-2.83-1.082-.446-2.195-.825-3.284-1.208-1.09-.39-2.17-.74-3.21-1.08-2.14-.56-4.14-1.04-5.87-1.39-.87-.15-1.69-.22-2.4-.3-.71-.09-1.34-.13-1.85-.17-1.03-.08-1.61-.08-1.61-.08s.55.26 1.49.66c.95.4 2.3.94 3.92 1.53 1.59.72 3.46 1.47 5.47 2.24.99.43 2.02.86 3.07 1.28 1.05.44 2.13.81 3.19 1.27 1.07.43 2.14.87 3.2 1.27s2.11.8 3.12 1.2c1.01.39 2 .74 2.94 1.08.94.34 1.82.66 2.65.94.82.3 1.59.53 2.27.76.67.23 1.27.4 1.76.56.99.29 1.56.45 1.56.45s-.45-.38-1.29-.98c-.83-.6-2.05-1.44-3.56-2.34-.75-.45-1.56-.96-2.45-1.43l-.05.04z"/>
    <path fill="#73AB47" d="M277.954 120.65l8.676-14.32-5.068 16.674"/>
    <path fill="#00AEBC" d="M151.655 236.446l53.253-116.366s1.188-2.02 1.958-2.042c.77-.02 1.062 2.396 1.042 2.562-.02.168 1.736 7.738 9.375 11.375 2.188 1.043 1.5 4.334 1.5 4.334s-.062 2.95-3.542 4.54c-.78.35-2.08.66-3.27 1.64l.86 2.29s1.25 1.6 1.17 3-2.45 3.46-5.95 4.19c-1.52.31-3.73 4.91-3.73 4.91l-27.16 55.02"/>
    <path fill="#00AEBC" d="M208.906 184.947l8.48-36.42s.49-1.516-.884-2.994c-1.645-1.77-1.353-2.273-1.11-3.518.21-1.062 1.6-1.19 4.05-2.343 1.338-.628 1.338-2.088 1.338-2.088l1.17-4.46s0-1.564-2.397-2.064c-2.396-.5-8.964-4.043-10.522-11.948-1.56-7.906 3.48-13.22 3.48-13.22s.64-.75-.09-1.516c-.73-.767.44-2.767.44-2.767s10.78-18.72 16.85-27.07c0 0 10.31-12.62 14.75-12.75.69-.02.35 1.84.31 2.44L240.24 76s-.125.298-1.047.5c-.92.204-1.64 1.08-1.64 1.08l.03 3.06s-1.822.28-2.25 1.22l.24 3.406s-2.062.328-2.3 1.547c.235 3.172-1.15 3.172-1.15 3.172s-3.602.198-3.602 1.678v3.542s-.15.104-.13 1.25c0 0 .8 2.396 1.57 3.77.77 1.376 4.01 1.75 4.01 1.75s1.94.46.59 1.73-2.93 2.875 1.17 4.104c4.1 1.23 7.97 1.29 6.86 11.04-.69 6.02-4.34 9.24-4.34 9.24s.89.64.39 2.54c0 0 .01 1.56-.54 2.84-1.13 2.62-3.3 6.17-3.57 7.51l-8.09 28.49"/>
    <path fill="#008696" d="M170.916 215.4l31.797-63.084s1.46-2.935 4.515-3.342c3.36-.447 4.674-3.635 2.965-6.955 3.383 4.01 3.934 5.43 3.934 5.43l-6.897 5.7-4.796 7.53-24.453 49.55-7.06 5.16v.01z"/>
    <circle fill="#C6D3DA" cx="225.284" cy="115.018" r="2"/>
    <path fill="#00AEBC" d="M242.92 118.038s2.926.917 4.55-9.27c1.626-10.19 10-31.376 3-44.75 0 0-.25-.5-.77.937-.52 1.438-4.438 9.917-4.438 9.917s-.52 2.417.333 3.792c.854 1.375-1.604.75-1.75 1.812s.75 1.02.75 2.312-2.438 1.208-2.542 2.312 1.167.938.896 2.688c-.28 1.75-2.61.292-2.86 1.833-.25 1.55 1.06 1.09.89 2.65-.17 1.56-2.69.21-2.98 2.06-.29 1.86 1.5 1.38-.58 3.29s-3.5 1.33-3.5 4l.64 2.09-1.93 1.87 5.31 2.75 4.95 3.58v6.14"/>
    <path fill="#424244" d="M225.283 118.518c-1.93 0-3.5-1.57-3.5-3.5s1.57-3.5 3.5-3.5 3.5 1.57 3.5 3.5-1.57 3.5-3.5 3.5zm0-4c-.275 0-.5.226-.5.5 0 .275.225.5.5.5.274 0 .5-.225.5-.5s-.226-.5-.5-.5z"/>
    <path fill="#008696" d="M236.29 99.887s12.663 9.117 8.14 17.782c-2.36 4.52-.646.2-.646.2s-1.052-5.73-2.104-7.02c-1.05-1.29-1.976-4.57-5.838-6.62-3.86-2.05-.206-4.74.45-4.36m-26.102 42.14s-.228-1.71.522-2.85 3.5-.54 4.5-2.28 1.174-2.25.774-4.25 2.28.17 2.28.17l-1.3 6.28-4.997 3.4"/>
    <path fill="#008696" d="M242.283 105.83s2.306 1.725 2.866-.677c0 0 3.5-11.396 4.75-24.562.42-4.45.64-9.1.39-13.18-.23-3.64-.84-1.83-.84-1.83l2.16-.83 1.33 13-7.56 37.28-3.12-9.18.02-.02z"/>
    <path fill="#424244" d="M243.114 119.56c-.31 0-.535-.057-.644-.09l.898-2.863c-.223-.068-.32-.044-.324-.04.02-.006 1.772-.69 2.942-8.034.385-2.404 1.107-5.304 1.948-8.66 2.438-9.762 5.697-22.813 2.36-32.467-1.157 2.64-3.107 6.87-3.597 7.93-.133.763-.166 1.997.17 2.54.533.856.443 1.546.273 1.973-.3.76-.957 1.07-1.486 1.23.22.38.44.92.44 1.7 0 1.65-1.44 2.29-2.216 2.64h-.012c.37.48.766 1.27.562 2.58-.273 1.77-1.705 2.14-2.515 2.23.332.42.68 1.09.565 2.17-.206 1.92-1.99 2.15-2.66 2.24-.105.01-.236.03-.347.05 0 .08.03.13.11.26.84 1.48.19 2.52-1.13 3.74-.84.77-1.6.85-2.15 1.16-.86.49-.86 1.02-.86 1.02h-3c0-2 1.03-2.86 2.38-3.63.5-.29 1.02-.4 1.61-.94.17-.16.3-.19.39-.29-.2-.43-.42-1.04-.26-2.01.3-1.87 1.84-2.23 2.67-2.35-.36-.42-.77-1.13-.58-2.34.31-1.92 2.14-2.04 2.73-2.08l.14-.01v-.04l-.14-.15c-.29-.33-.89-.99-.78-2.13.13-1.4 1.36-1.95 2.1-2.28.1-.05.24-.11.35-.17l-.07-.1c-.26-.36-.74-1.03-.59-2.15.15-1.05.9-1.54 1.53-1.78-.54-1.72-.14-3.68-.09-3.93l.11-.31c1.08-2.35 3.98-8.67 4.39-9.8.23-.63.7-1.94 1.96-2.01.66-.02 1.27.32 1.56.91 5.65 10.78 1.83 26.08-.97 37.25-.82 3.29-1.53 6.13-1.89 8.4-.88 5.55-2.27 8.85-4.24 10.07-.61.38-1.17.48-1.58.48l-.052.08z"/>
    <path fill="#008696" d="M220.855 123.768s2.648 2.676 6.43 2.38c2.958-.232 8.558-1.497 7.75-9.13-1.483-13.976-7.366 6.51-7.366 6.51l-6.82.24z"/>
    <path fill="#424244" d="M225.283 122.643c-4.204 0-7.625-3.42-7.625-7.625s3.42-7.625 7.625-7.625 7.625 3.42 7.625 7.625-3.42 7.625-7.625 7.625zm0-12.25c-2.55 0-4.625 2.075-4.625 4.625s2.075 4.625 4.625 4.625 4.625-2.075 4.625-4.625-2.075-4.625-4.625-4.625z"/>
    <path fill="#424244" d="M225.814 125.268c-5.083 0-9.22-4.248-9.22-9.47s4.137-9.468 9.22-9.468 9.22 4.248 9.22 9.47-4.137 9.468-9.22 9.468zm0-15.938c-3.43 0-6.22 2.9-6.22 6.47s2.79 6.468 6.22 6.468c3.43 0 6.22-2.9 6.22-6.47s-2.79-6.468-6.22-6.468z"/>
    <path fill="#008696" d="M216.184 134.14s-9.823-6.566-11.222-13.36l1.904-2.74 4.22 8.05 6.84 4.532-1.742 3.52v-.002z"/>
    <path fill="#424244" d="M153.018 237.068l-2.73-1.248 53.286-116.436.04-.065c1.065-1.82 2.145-2.76 3.21-2.78.584-.04 1.103.22 1.51.67.742.82 1.017 2.42 1.06 3.2.1.42 1.74 6.97 8.53 10.2 2.517 1.2 2.664 4.21 2.347 5.89-.06.78-.58 3.96-4.4 5.7-.22.1-.48.2-.77.31-.41.15-.85.32-1.3.55l.37.98c.44.6 1.43 2.18 1.34 3.81-.14 2.33-3.28 4.77-7.15 5.57-.45.24-1.77 2.2-2.68 4.1l-27.18 55.04-2.68-1.33 27.15-55.01c.94-1.96 2.82-5.32 4.77-5.73 3.09-.64 4.68-2.3 4.77-2.82.03-.55-.49-1.51-.85-1.98l-.14-.18-1.31-3.51.82-.68c1.08-.89 2.19-1.31 3.01-1.62.22-.08.42-.16.59-.24 2.55-1.16 2.66-3.19 2.66-3.21l.03-.28c0-.01.38-2.52-.68-3.02-7.57-3.6-10.12-11.07-10.22-13.07h-.01c-.01 0-.01.3-.01.27-.06.09-.11.35-.17.44L153 237.08l.018-.012z"/>
    <path fill="#7FCBA2" d="M145.586 253.725c-3.32-2.73-5.93 1.105-5.93 1.105s-56.374-88-76.207-119.292c-5.17-8.144-10.8-37.375-7.5-37.833 5.28-.736 19.66 18.5 19.66 18.5l44.66 60.116 9.93 7.58 9.66 25.66 5.71 44.17h.012z"/>
    <path fill="#669B80" d="M115.37 169.768l22.01 73.22-2.667 2.917s4.573 7.433 5.125 7.933 2.542-1.683 3.25-1.683c1.417 0 2.665-2.867 2.47-1.616-.195 1.25-.312-3.86-.312-3.86l-3.953-1.52-21.763-71.31-4.16-4.09v.004z"/>
    <path fill="#DB2EA3" d="M146.45 248.352c-.43-2.7-4.916-2.396-4.916-2.396s-32.81-107.707-42.25-138c-9.583-30.75-2.773-36.02-.265-39.082.7-.856 2.32-1.574 3.23 1.3l2.47 6.313-3.28 3.438s-1.19 1.28.59 1.688c1.78.406 5.4.53 5.4.53l-3.69 4.25s-1.28 1.438.87 1.562l2.15.125-1.28 1.938s-.85 1.345.97 1.595l5.12.438-3.72 4.29s-1.31 1.28.44 1.44 2.72.41 2.72.41l-1.66 1.97s-.6 1.19 1.21 1.44 4.84.63 4.84.63l-3.47 4.22s-1.28 1.35.81 1.56c2.09.22 2.44.25 2.44.25l-1.75 2.19s-.47.88 1.09 1.06c1.56.19 5.06.85 5.06.85l-3.28 3.94s-1.6 1.75.93 1.91 2.12.22 2.12.22l-1.53 1.94s-1.25 1.22.59 1.41 5.12.69 5.12.69l-3.28 4.19s-1.1 1.81.81 1.78c1.9-.03 2.22.1 2.22.1l-1.5 1.97s-1.1 1.28 1.31 1.57c2.4.28 4.81.6 4.81.6l-3.6 4.22s-1.56 1.69 1.62 1.81l1.56.07-1.66 1.85s-1.16 1.44 1.43 1.66l4.5.38-3.34 4.31s-1.7 1.83.9 2.03l2.38.19-1.78 1.72s-1.19 1.6 1.03 1.81c2.22.22 5 .63 5 .63l-3.35 4.19s-1.28 1.69 1.13 1.85 1.78.22 1.78.22l-1.5 1.88s-1.25 1.32 1.1 1.5c2.34.19 4.81.69 4.81.69l-3.35 4.13s-1.19 1.91 1.06 2.07 1.85.25 1.85.25l-1.16 1.56s-1.25 1.87 1.03 2c2.28.12 4.84.44 4.84.44l-3.5 4.03s-1.31 2 1.28 2.1c2.6.1 1.69.19 1.69.19l-1.4 1.85s-.91 1.75 1.09 1.75 4.78.44 4.78.44l-3.53 4.1s-1.28 1.69 1.12 1.85 1.78.22 1.78.22l-1.5 1.88s-1.25 1.31 1.09 1.5c2.35.19 4.81.69 4.81.69l-3.35 4.12s-1.19 1.91 1.06 2.06 1.85.25 1.85.25l-1.16 1.56s-1.25 1.88 1.03 2c2.28.13 4.85.44 4.85.44l-3.5 4.03s-1.32 2 1.28 2.1c2.59.1 1.69.19 1.69.19l-1.41 1.85s-.91 1.75 1.09 1.75 4.78.44 4.78.44l-3.44 3.69s-1.31 2 1.28 2.09 1.69.19 1.69.19l-1.41 1.84s-.9 1.74 1.1 1.74 4.78.44 4.78.44"/>
    <g opacity=".5" fill="none" stroke="#669B80" stroke-miterlimit="10">
        <path d="M133.39 224.393l-1.39 2.182 1.722-1.098c-.11-.362-.22-.717-.33-1.084h-.002zm-3.18-10.423l-.692 1.085.857-.547c-.053-.18-.11-.358-.164-.54v.002zm-2.12-6.95l-2.57 4.035 3.184-2.03c-.204-.662-.408-1.332-.614-2.005zm-1.06-3.474l-3.512 5.51 4.348-2.772-.836-2.738z"/>
        <path d="M127.03 203.542l-5.512 3.513-3.517 5.518 5.52-3.518 3.52-5.51-.01-.003zm1.673 5.483l-3.185 2.03-3.518 5.518 5.518-3.52 1.634-2.56-.45-1.468zm.837 2.743l-2.02 1.287-3.52 5.52 5.52-3.52.692-1.086c-.22-.73-.447-1.47-.672-2.21v.004zm-.388-1.274l-1.634 2.56 2.02-1.286c-.126-.422-.256-.848-.386-1.274z"/>
        <path d="M127.867 206.283l-4.347 2.77-3.52 5.52 5.52-3.52 2.57-4.034-.223-.74zM124.79 196.2c-.09-.292-.18-.59-.272-.884l-4.113 2.623-3.52 5.51 5.52-3.52 2.384-3.74v.01zm-9.904 5.258l-3.517 5.52 5.51-3.52 3.52-5.52-5.518 3.52zm11.307-.658l-1.156.737-3.52 5.518 5.512-3.513c-.28-.907-.56-1.82-.84-2.742zm-9.307 2.658l-3.517 5.52 5.51-3.52 3.52-5.52-5.518 3.52zm9.084-3.385l-.614-2.015-2.95 1.88-3.52 5.52 6.15-3.92.934-1.465z"/>
        <path d="M118.886 205.458l-3.517 5.52 6.14-3.923 3.52-5.518-6.148 3.92zm4.84-12.728c-.014-.052-.03-.104-.045-.153l-5.27 3.363-3.52 5.52 5.52-3.52 3.32-5.21zm8.606 28.187l-2.33 3.655 2.885-1.84c-.183-.595-.37-1.202-.555-1.815zm-2.814-5.862l-3.518 5.52 5.212-3.323-.836-2.742-.858.545zm1.754 2.388l-3.27 5.13 4.047-2.58-.78-2.55z"/>
        <path d="M132.05 219.992l-4.05 2.58-3.517 5.52 5.518-3.52 2.33-3.654c-.09-.31-.18-.613-.28-.926zm.835 2.742l-2.885 1.84-3.518 5.517 5.518-3.51 1.39-2.18-.505-1.66v-.002zM72.13 146.402l1.265 1.986 2.996-4.7-4.26 2.714z"/>
        <path d="M81.91 140.168l-5.52 3.518-2.995 4.7c.072.116.146.23.22.347l4.777-3.047 3.518-5.518zm-2-2l-5.52 3.518-2.633 4.13.373.587 4.26-2.717 3.52-5.518z"/>
        <path d="M83.91 142.168l-5.52 3.518-3.36 5.27.066.105 5.294-3.37 3.52-5.52z"/>
        <path d="M73.614 148.732l1.417 2.225 3.36-5.27-4.77 3.045h-.002zm6.776-1.046l-5.293 3.375c.488.77.982 1.55 1.484 2.33l.3-.18 3.52-5.52h-.01zm-9.742-3.613c.363.573.733 1.153 1.11 1.743l2.633-4.13-3.74 2.387zm-1.482-2.33l.956 1.503 2.27-3.56-3.226 2.057zm4.744-9.575l-5.52 3.518-1.54 2.416c.274.43.552.864.834 1.31l2.707-1.726 3.52-5.518z"/>
        <path d="M77.91 136.168l-5.52 3.518-2.27 3.56c.176.276.35.548.527.828l3.743-2.388 3.52-5.518z"/>
        <path d="M75.91 134.168l-5.52 3.518-1.903 2.988c.222.35.45.71.68 1.068l3.225-2.057 3.518-5.517z"/>
        <path d="M67.684 139.412l.803 1.262 1.904-2.988-2.7 1.726h-.002zm10.382 16.308l.24.376.567-.892-.807.516zm5.94 9.312l.852 1.334 2.016-3.162-2.868 1.828zm6.384-7.346l-5.517 3.52-1.654 2.594.78 1.233 2.86-1.828 3.52-5.52h.01z"/>
        <path d="M82.52 162.704l.7 1.095 1.653-2.6-2.352 1.5zm9.87-3.018l-5.517 3.52-2.016 3.16c.21.332.422.662.634.994l3.39-2.155 3.52-5.52h-.01zm-5.413 10.002l1.157 1.812 2.74-4.296-3.897 2.484z"/>
        <path d="M85.493 167.36l1.004 1.573 2.377-3.73-3.38 2.157z"/>
        <path d="M94.39 161.686l-5.517 3.52-2.377 3.728.482.754 3.896-2.483 3.517-5.52zm-10-10l-5.517 3.52-.568.89c.41.646.826 1.296 1.245 1.952l1.323-.844 3.517-5.518zm-2-2l-5.517 3.52-.205.32 1.398 2.193.808-.52 3.517-5.52v.002z"/>
        <path d="M79.55 158.048l.394.616.93-1.46-1.324.844zm8.84-2.362l-5.517 3.52-1.292 2.025c.32.49.63.98.94 1.48l2.36-1.5 3.52-5.52h-.01z"/>
        <path d="M86.39 153.686l-5.517 3.52-.93 1.458c.36.567.726 1.138 1.092 1.713l1.838-1.172 3.518-5.52z"/>
        <path d="M81.036 160.376l.546.854 1.292-2.026-1.838 1.172zm4.874-16.208l5.517-3.518.224-.35-1.54-2.08-.68.43-3.52 5.518zm5.845-3.728l-.104-.14-.22.35.33-.21zm-3.845 5.728l5.498-3.505-1.653-2.222-.328.21-3.517 5.52zm2.195-7.948l-.217-.292-.46.722.677-.43zm-8.195 1.948l5.517-3.518.698-1.095-1.323-1.782-1.375.877-3.517 5.518z"/>
        <path d="M83.91 142.168l5.517-3.518.46-.722-1.433-1.932-1.027.654-3.517 5.518zm.48 9.518l5.52-3.518 3.504-5.496-.006-.01-5.498 3.506-3.52 5.518z"/>
        <path d="M88.454 135.996l-.33-.44-.697 1.094 1.027-.654zm-10.544.172l5.517-3.518 1.173-1.84-1.1-1.48-2.073 1.32-3.517 5.518zm-6-6l5.517-3.518 1.886-2.957-.768-1.03-3.118 1.987-3.517 5.518zm6.635-7.506l-.996-1.34-2.13 3.328 3.12-1.988zm1.652 2.223l-.884-1.192-1.886 2.957 2.77-1.765zm-12.287 1.283l5.517-3.518 2.36-3.7-.543-.732-3.817 2.432-3.517 5.518z"/>
        <path d="M73.91 132.168l5.517-3.518 1.648-2.584-.878-1.18-2.77 1.764-3.517 5.518zm-4-4l5.517-3.518 2.122-3.328-.66-.883-3.47 2.21-3.51 5.514zm16.892 5.605l-.44-.59-.935 1.467 1.375-.877z"/>
        <path d="M76.895 120.44l-1.108-1.49-2.36 3.7 3.468-2.21zm8.255 11.113l-.55-.742-1.173 1.84 1.723-1.093zm-5.24 6.615l5.517-3.518.936-1.466-1.212-1.63-1.72 1.096-3.52 5.518zm-4-4l5.517-3.518 1.41-2.212-.99-1.33-2.42 1.542-3.517 5.518z"/>
        <path d="M81.848 127.107l-.773-1.04-1.648 2.583 2.42-1.543zm1.652 2.223l-.663-.892-1.41 2.212 2.073-1.32zm27.54 37.065l-1.13 1.773 1.66-1.06-.53-.713zm.53.715l-1.66 1.058-3.52 5.518 5.52-3.518.892-1.4-1.232-1.658zm-1.65-2.223l-2.01 1.28-3.52 5.52 5.52-3.52 1.13-1.772-1.12-1.508zm4.646 6.253l-1.125 1.764 1.66-1.054-.53-.71z"/>
        <path d="M109.278 164.023l-1.368 2.145 2.01-1.28-.642-.865zm3.942 5.31l-1.31.835-3.988 6.254 5.52-3.518 1.124-1.765-1.346-1.81z"/>
        <path d="M112.802 168.768l-.892 1.4 1.31-.836-.418-.564zm-4.534-6.104l-2.358 1.504-3.52 5.518 5.52-3.518 1.368-2.145-1.01-1.36zm6.825 9.186l-1.652 1.054-3.51 5.518 5.52-3.518.89-1.392-1.243-1.662zm6.83 18.572l.92-.588c-.06-.193-.117-.387-.176-.58l-.745 1.168zm-2-2l2.083-1.328-.4-1.312-1.683 2.64z"/>
        <path d="M107.514 161.65l-1.604 2.518 2.358-1.504-.754-1.014zm-11.124 2.036l-5.517 3.52-2.74 4.295.33.52 4.41-2.81 3.518-5.52zm19.938 9.826l-.887 1.392 1.31-.83-.42-.562zm2.595 3.492l-.526-.71-.956.61-3.51 5.518 5.52-3.518.04-.068c-.19-.61-.37-1.22-.56-1.832h-.003z"/>
        <path d="M116.745 174.073l-1.304.83-3.51 5.52 5.52-3.52.65-1.02-1.35-1.81z"/>
        <path d="M118.09 175.884l-.65 1.02.957-.61-.307-.41zm1.35 3.02l-3.518 5.518 4.41-2.81-.84-2.742-.05.034h-.002z"/>
        <path d="M119.484 178.837l-.043.067.06-.034-.01-.033h-.002zm-23.574-24.67l4.102-2.614-1.31-1.764-2.792 4.373zm2 2l3.754-2.392-1.2-1.614-2.554 4.01zm-6-6l4.8-3.06-1.534-2.063-3.266 5.123zm2 2l4.45-2.837-1.42-1.913-3.03 4.75zm24.012 34.255l3.247-2.07-.63-2.043-2.63 4.11h.01zm-14.012-24.254l2.708-1.727-.866-1.16-1.842 2.89zm-4-4l3.405-2.17-1.09-1.464-2.315 3.634zm2 2l3.055-1.947-.975-1.31-2.08 3.26zm17.53 18.736l-5.518 3.518-3.517 5.517 5.517-3.52 3.518-5.52zm-17.035 1.036l-3.52 5.518 5.52-3.52 3.517-5.516-5.517 3.518zm5.505-13.772l-5.52 3.518-3.516 5.518 5.517-3.518 3.52-5.518zm-15.52-6.482l-3.516 5.518 5.517-3.518 3.52-5.518-5.52 3.518zm6.484 15.518l-3.518 5.52 5.518-3.52 3.517-5.518-5.512 3.518zm13.036-5.036l-5.52 3.518-3.985 6.253 5.517-3.52 3.988-6.256z"/>
        <path d="M100.874 177.204l-3.988 6.254 5.52-3.52 3.985-6.252-5.512 3.518z"/>
        <path d="M109.91 168.168l-5.52 3.518-3.516 5.518 5.517-3.518 3.52-5.518zm-4-4l-5.52 3.518-3.516 5.518 5.517-3.518 3.52-5.518zm-1.92-7.262l-.675-.908-3.405 2.17-3.52 5.518 5.52-3.518 2.08-3.262z"/>
        <path d="M107.514 161.65l-.896-1.21-2.708 1.728-3.52 5.518 5.52-3.518 1.604-2.518zm-5.288-7.116l-.562-.76-3.754 2.394-3.52 5.518 5.52-3.518 2.316-3.634zm-7.836 7.152l-3.516 5.518 5.517-3.518 3.52-5.518-5.52 3.518z"/>
        <path d="M98.39 165.686l-3.516 5.518 5.517-3.518 3.52-5.518-5.52 3.518z"/>
        <path d="M96.39 163.686l-3.516 5.518 5.517-3.518 3.52-5.518-5.52 3.518zm9.362-4.41l-.787-1.055-3.055 1.95-3.52 5.52 5.52-3.52 1.842-2.89zm-8.878 13.928l-3.518 5.52 5.518-3.52 3.517-5.518-5.512 3.518zm24.732 12.578c-.146-.476-.29-.952-.438-1.43l-3.247 2.07-3.51 5.52 5.52-3.52 1.69-2.64h-.01z"/>
        <path d="M112.405 189.94l-3.52 5.518 5.52-3.52 3.517-5.516-5.517 3.518z"/>
        <path d="M120.544 182.31l-.213-.698-4.4 2.81-3.52 5.52 5.52-3.52 2.62-4.113h-.002zm-6.14 9.63l-3.52 5.518 5.52-3.52 3.518-5.516-5.518 3.518zm-.964-19.036l-5.518 3.518-3.517 5.517 5.517-3.52 3.518-5.52zm9.227 16.35l-.66-2.16-2.084 1.33-3.518 5.52 5.518-3.52.744-1.17zm-12.262-1.314l-3.52 5.518 5.52-3.52 3.517-5.516-5.517 3.518z"/>
        <path d="M116.405 193.94l-3.52 5.518 5.52-3.52 3.517-5.516-5.517 3.518zm-.965-19.036l-5.518 3.518-3.517 5.517 5.517-3.52 3.518-5.52zm-9.035 9.036l-3.52 5.518 5.52-3.52 3.517-5.516-5.517 3.518zm-2-2l-3.52 5.518 5.52-3.52 3.517-5.516-5.517 3.518z"/>
        <path d="M122.843 189.835l-.922.588-3.51 5.52 5.28-3.364c-.27-.92-.55-1.83-.83-2.75h-.013zm-14.438-3.895l-3.52 5.518 5.52-3.52 3.517-5.516-5.517 3.518zm9.035-9.036l-5.518 3.518-3.517 5.517 5.517-3.52 3.518-5.52zm-29.05-21.218l-3.516 5.518 5.517-3.518 3.52-5.518-5.52 3.518z"/>
        <path d="M86.39 153.686l-3.516 5.518 5.517-3.518 3.52-5.518-5.52 3.518z"/>
        <path d="M96.94 147.417l-.23-.31-4.8 3.06-3.52 5.52 5.52-3.52 3.03-4.75z"/>
        <path d="M95.176 145.044l-.118-.157-5.148 3.28-3.52 5.52 5.52-3.52 3.266-5.123zm-4.786 12.642l-3.516 5.518 5.517-3.518 3.52-5.518-5.52 3.518z"/>
        <path d="M100.464 152.16l-.452-.607-4.102 2.615-3.52 5.518 5.52-3.518 2.554-4.008zm-1.762-2.37l-.34-.46-4.452 2.838-3.52 5.518 5.52-3.518 2.792-4.378zM65.91 124.168l-4.484 2.86c.306.936.618 1.83.937 2.678l.03-.02 3.517-5.518zm18.48 27.518l-3.516 5.518 5.517-3.518 3.52-5.518-5.52 3.518zm5.037-13.036l-5.517 3.518-3.52 5.518 5.52-3.518 3.517-5.518zm3.987 4.022l-3.504 5.496 5.148-3.28-1.644-2.216z"/>
        <path d="M80.39 147.686l-3.516 5.518 5.517-3.518 3.52-5.518-5.52 3.518z"/>
        <path d="M82.39 149.686l-3.516 5.518 5.517-3.518 3.52-5.518-5.52 3.518zm-6.48-15.518l-3.52 5.518 5.52-3.518 3.517-5.518-5.517 3.518zm4 4l-3.52 5.518 5.52-3.518 3.517-5.518-5.517 3.518zm-2-2l-3.52 5.518 5.52-3.518 3.517-5.518-5.517 3.518zm4 4l-3.52 5.518 5.52-3.518 3.517-5.518-5.517 3.518z"/>
        <path d="M91.427 140.65l-5.517 3.518-3.52 5.518 5.52-3.518 3.517-5.518zm28.978 57.29l4.113-2.624-.79-2.59-3.323 5.214zm2 2l2.95-1.882-.566-1.857-2.39 3.74zm-33.94-27.924c.435.68.87 1.364 1.31 2.05l3.1-4.86-4.41 2.81zm36.572 29.52l1.156-.736-.223-.727-.933 1.464zm-58.647-67.85l-1.172 1.84.986 1.555 2.188-1.39 3.52-5.52-5.52 3.52h-.002z"/>
        <path d="M69.91 128.168l-5.52 3.518-.718 1.13c.346.717.694 1.368 1.044 1.92l.01.014 1.666-1.063 3.518-5.52z"/>
        <path d="M64.724 134.75l.493.777 1.173-1.84-1.666 1.062zm-1.297-2.45c.08.18.163.345.244.515l.72-1.127-.96.613z"/>
        <path d="M67.91 126.168l-5.52 3.518-.022.04c.348.923.702 1.79 1.06 2.574l.965-.614 3.517-5.518z"/>
        <path d="M62.36 129.706c.003.006.006.012.008.02l.023-.04-.03.02zm9.55.462l-3.52 5.518 5.52-3.518 3.517-5.518-5.517 3.518zm2 2l-3.52 5.518 5.52-3.518 3.517-5.518-5.517 3.518zm-4-4l3.517-5.518-5.517 3.518-3.52 5.518 5.52-3.518zm-2-2l3.517-5.518-5.517 3.518-3.52 5.518 5.52-3.518zm4 4l3.517-5.518-5.517 3.518-3.52 5.518 5.52-3.518zm-5.06 7.934l1.54-2.416-2.187 1.396c.214.334.43.674.648 1.02zm44.12 69.128l.12.185.278-.438-.398.253zm3.916-5.772l-5.402 3.444 1.487 2.326.4-.252 3.52-5.518z"/>
        <path d="M116.886 203.458l-5.518 3.52-.28.437c.46.717.916 1.433 1.37 2.144l.91-.58 3.518-5.53v.004z"/>
        <path d="M112.46 209.557l.27.422.64-1.01-.91.58v.003zm5.945-13.617l-5.52 3.518-3.436 5.392c.01.02.02.035.03.053l5.4-3.443 3.52-5.52z"/>
        <path d="M107.996 202.577c.486.76.97 1.52 1.454 2.272l3.437-5.4-4.89 3.12v.003zm10.89 2.88l-5.518 3.52-.64 1c.408.64.814 1.273 1.22 1.905l1.42-.905 3.518-5.52zm6.632 5.598l-5.518 3.52-2.162 3.392.573.896 3.59-2.287 3.52-5.52z"/>
        <path d="M118.413 218.86l1.067 1.67 2.52-3.957-3.587 2.287zm1.487 2.328l1.22 1.903 2.88-4.51-4.1 2.62v-.01zm-5.952-9.306l.423.66 1-1.567-1.42.907zm7.44 11.632c.462.72.92 1.438 1.37 2.144l3.242-5.083-4.612 2.94z"/>
        <path d="M129.518 215.055l-5.518 3.52-2.88 4.52c.088.14.18.28.268.422l4.612-2.94 3.518-5.522z"/>
        <path d="M127.518 213.055l-5.518 3.52-2.52 3.956.42.66 4.1-2.61 3.518-5.52zm-11.113-19.115l-5.52 3.518-3.076 4.827.18.29 4.89-3.117 3.52-5.52v.002zm5.113 13.115l-6.15 3.922-.998 1.566c.356.56.712 1.113 1.065 1.666l2.565-1.64 3.52-5.52h-.002zm2 2l-5.518 3.52-1.803 2.826c.244.39.483.76.726 1.14l3.077-1.96 3.518-5.52z"/>
        <path d="M116.923 216.535l.915 1.43 2.162-3.392-3.077 1.962zm-1.488-2.325l.764 1.19 1.8-2.827-2.57 1.636zm-14.56-37.006l-5.52 3.52-.663 1.04 1.403 2.198.79-.504 3.99-6.254z"/>
        <path d="M94.41 181.325c.095.146.188.293.282.44l.664-1.043-.946.603zm7.995-1.385l-5.52 3.518-.555.872 1.252 1.96 1.304-.832 3.52-5.52v.002zm-3.53-4.736l-5.52 3.52-.304.475 1.36 2.12.95-.61 3.52-5.52v.01z"/>
        <path d="M96.095 183.962l.235.368.556-.872-.79.504zm1.488 2.328c.13.2.258.403.387.604l.916-1.438-1.303.833zm-4.66-7.292l.128.2.31-.476-.43.276h-.003zm5.467-13.312l-5.517 3.52-3.1 4.86.177.278 4.923-3.14 3.517-5.518z"/>
        <path d="M89.95 174.344c.487.76.974 1.523 1.463 2.29l3.46-5.43-4.923 3.14zm6.924-1.14l-5.437 3.466 1.486 2.327.433-.274 3.518-5.52z"/>
        <path d="M100.39 167.686l-5.517 3.52-3.46 5.427.023.038 5.437-3.46 3.518-5.52zm-1.32 20.93l.54.844 1.276-2.003-1.816 1.16zm13.335 1.324l-5.52 3.518-2.355 3.698.49.767 3.867-2.465 3.518-5.52v.002z"/>
        <path d="M103.533 195.598l.997 1.56 2.356-3.698-3.353 2.138z"/>
        <path d="M110.405 187.94l-5.52 3.518-1.996 3.133c.21.34.43.68.64 1.01l3.35-2.14 3.52-5.52zm-5.385 9.983l1.148 1.798 2.718-4.26-3.866 2.47v-.003z"/>
        <path d="M114.405 191.94l-5.52 3.518-2.717 4.263c.113.18.227.36.34.53l4.378-2.79 3.52-5.52zm-13.848-.997c.23.36.463.722.692 1.082l1.63-2.567-2.33 1.485h.003z"/>
        <path d="M106.405 183.94l-5.52 3.518-1.275 2.003.947 1.49 2.33-1.48 3.518-5.52v-.01zm-4.36 9.33l.843 1.32 1.997-3.133-2.84 1.813zm4.462 6.98l1.302 2.035 3.07-4.827-4.38 2.792h.003z"/>
        <path d="M108.405 185.94l-5.52 3.518-1.636 2.567c.26.416.53.83.79 1.244l2.84-1.82 3.52-5.52v.01zm-4-4l-5.52 3.518-.915 1.437 1.1 1.723 1.817-1.158 3.518-5.52zm26.867 35.503l-.06-.193-5.212 3.323-3.24 5.083.116.183 5.124-3.27 3.27-5.13h.002zm-3.272 5.13l-5.122 3.266 1.49 2.32.116-.08 3.516-5.51zm2 2l-5.517 3.518-.082.13 1.46 2.28.63-.4 3.52-5.52-.01-.003z"/>
        <path d="M124.367 228.165c.012.02.022.036.035.054l.082-.13-.117.07zm2.663-24.623v.004l.007-.01-.007.006zm-35.674-26.82l.08-.052-.023-.038-.057.09zm2.07-34.072l-.02.013.008.01.012-.023z"/>
    </g>
    <path fill="#A22070" d="M101.042 70.625s-4.907 3.26-2.273 19.598c1.16 7.208 35.36 118.92 44.82 149.433.17.565 16.09-15.772 16.24-15.263 1.24 3.994-13.41 21.096-13.41 21.096l-2.47.41-3.5-2.67-41.17-135.28-4.88-28.02s2.24-8.65 2.98-9.1c.74-.44 3.86-2.41 3.86-2.41l-.21 2.19.01.01z"/>
    <path fill="#669B80" d="M57.92 99.53s.842 11.824 2.792 18.687c3.68 12.95 5.42 15.975 10.197 23.793s67.38 104.81 67.38 104.81l-4.58-1.246L61.42 131.81l-5.034-18.688-.22-15.438 1.75 1.845h.004z"/>
    <path fill="#424244" d="M160.033 223.436l.663-.87c.502-.31.725-.845.708-1.325-.048-1.43-1.205-1.52-3.13-1.59l3.044-3.26c.378-.4.5-.99.32-1.51-.182-.52-.638-.9-1.186-.99-.107-.01-2.428-.38-4.42-.44l.662-.87c.502-.31.725-.84.708-1.32-.048-1.44-1.215-1.52-3.155-1.59l3.167-3.64c.363-.42.467-1 .268-1.52-.198-.52-.668-.88-1.22-.95-.1-.01-2.378-.29-4.577-.42l.822-1.11c.264-.3.412-.7.38-1.11-.104-1.32-1.182-1.46-2.975-1.59l3.053-3.76c.33-.4.424-.96.247-1.45-.178-.49-.6-.86-1.114-.96-.095-.02-2.152-.43-4.335-.65l.678-.84c.33-.29.54-.7.53-1.14-.02-1.35-1.07-1.51-2.82-1.64l3.01-3.49c.36-.41.46-.98.27-1.5-.19-.51-.63-.88-1.17-.96-.1-.02-2.43-.38-4.42-.45l.66-.87c.5-.31.73-.84.71-1.32-.05-1.44-1.21-1.52-3.15-1.59l3.17-3.65c.37-.42.47-1 .27-1.52-.19-.52-.66-.88-1.22-.95-.1-.01-2.37-.29-4.57-.42l.82-1.11c.27-.3.41-.7.38-1.11-.1-1.32-1.18-1.46-2.97-1.59l3.06-3.76c.33-.41.43-.96.25-1.45s-.6-.85-1.11-.96c-.1-.02-2.16-.43-4.34-.65l.68-.84c.33-.29.53-.7.53-1.14-.03-1.35-1.09-1.51-2.86-1.64l2.89-3.62c.34-.42.42-.98.23-1.48-.2-.5-.65-.86-1.18-.94-.1-.01-2.39-.35-4.48-.57l1.06-1.02c.42-.41.57-1.03.37-1.58-.2-.55-.71-.94-1.29-.99l-1.95-.16 3.08-3.96c.34-.44.41-1.02.19-1.52s-.7-.85-1.25-.89c0 0-1.76-.14-4.21-.35l.93-1.02c.39-.44.49-1.05.27-1.59s-.74-.89-1.32-.92l-1.54-.07 3.04-3.56c.35-.42.45-1 .26-1.52-.19-.51-.66-.88-1.2-.95 0 0-2.21-.28-4.52-.56l.9-1.17c.29-.37.38-.85.26-1.31-.13-.45-.46-.81-.89-.99-.16-.06-.48-.19-1.9-.2l2.77-3.54c.33-.42.41-.98.21-1.48-.19-.5-.64-.85-1.17-.93-.11-.02-2.27-.34-4.06-.57l.76-.96c.28-.29.44-.68.42-1.1-.06-1.31-.93-1.47-3-1.6l2.86-3.42c.34-.41.44-.97.26-1.47s-.61-.87-1.14-.97c-.12-.02-2.55-.48-4.27-.74l.76-.94c.35-.43.43-1.01.21-1.52-.21-.5-.69-.85-1.24-.9-.01 0-.28-.02-1.57-.16l2.81-3.42c.35-.42.44-1 .24-1.51s-.66-.86-1.21-.93c0 0-2.49-.31-4.3-.55l.86-1.03c.33-.39.44-.93.28-1.42s-.56-.86-1.06-.99c-.03-.01-.6-.15-1.62-.294l2.95-3.39c.37-.43.47-1.03.258-1.55-.21-.52-.7-.88-1.26-.93l-4.52-.38.84-1.27c.3-.45.33-1.02.09-1.5s-.72-.79-1.25-.826l-1.23-.07 2.94-3.38c.38-.44.47-1.05.24-1.58s-.74-.88-1.32-.9c-.81-.03-2.88-.14-4.33-.35l2.64-2.77c.4-.42.52-1.04.31-1.58l-2.45-6.27c-.71-2.18-1.88-2.84-2.74-3.005-1.3-.25-2.44.49-3.07 1.26-.14.17-.29.35-.45.54-4.58 5.3-7.7 13.8.45 39.943 3.676 11.796 10.96 35.54 18.46 60.057L76.9 115.39c-3.5-4.69-15.31-19.88-21.07-19.1-.44.06-1.24.322-1.74 1.4-2.198 4.74 3.38 31.16 8.174 38.722 19.604 30.93 75.644 118.41 76.21 119.29l1.226 1.915 1.275-1.88c.18-.265 1.047-1.274 2.02-1.415.547-.08 1.11.124 1.717.62l1.906-2.316c-1.582-1.31-3.07-1.41-4.04-1.28-1.047.15-1.92.63-2.59 1.144-7.704-12.03-57.046-89.08-75.19-117.7-4.732-7.47-9.276-31.44-8.114-35.53 2.39-1.535 24.8 27.225 17.81 17.88l44.493 59.9c10.68 34.926 20.99 68.786 21.178 69.39.21.665.83 1.105 1.54 1.06.826-.055 3.18.12 3.34 1.136l2.96-.47c-.42-2.66-3.134-3.53-5.29-3.66-3.44-11.285-33.093-108.605-41.93-136.948-8.77-28.16-3.55-34.19-1.04-37.09l.51-.6c.06-.08.126-.13.18-.17.097.11.276.38.46.96.01.03.02.06.035.09l2.12 5.42-2.64 2.76c-.18.195-1.08 1.25-.69 2.51.18.582.685 1.346 2.054 1.66.72.162 1.687.282 2.623.37l-1.69 1.95c-.56.623-1.01 1.64-.604 2.62.225.55.77 1.21 2.09 1.395-.21.403-.543 1.302-.106 2.24.26.55.855 1.25 2.32 1.45l2.19.19-1.75 2.014c-.342.353-1.18 1.364-.76 2.54.17.47.67 1.272 2.15 1.41-.05.07-.09.14-.13.21-.267.538-.403 1.39.014 2.18.29.54.92 1.22 2.35 1.418.64.087 1.42.19 2.16.286l-1.71 2.08c-.54.6-.98 1.55-.63 2.51.21.57.75 1.27 2.13 1.5l-.03.05c-.06.07-.11.15-.15.23-.25.47-.39 1.23-.01 1.95.39.74 1.15 1.18 2.25 1.31.61.08 1.55.23 2.44.38l-1.59 1.91c-.22.24-1.28 1.51-.73 2.87.23.56.76 1.22 2.03 1.46-.44.58-.74 1.37-.46 2.17.21.59.76 1.32 2.25 1.47.7.07 1.63.19 2.5.31l-1.68 2.15c-.03.05-.07.1-.1.15-.16.27-.94 1.68-.23 2.91.21.36.68.92 1.65 1.09-.31.53-.5 1.28-.21 2.02.36.93 1.29 1.48 2.74 1.65.7.08 1.4.17 2.05.25l-1.75 2.06c-.55.6-1.04 1.66-.62 2.69.36.85 1.13 1.26 1.85 1.45-.32.57-.51 1.36-.18 2.14.4.94 1.38 1.49 2.9 1.61.63.05 1.21.1 1.74.15l-1.61 2.09c-.31.35-1.25 1.58-.74 2.89.22.55.73 1.22 1.95 1.49-.27.5-.59 1.38-.18 2.3.27.61.92 1.36 2.51 1.52.75.08 1.57.17 2.32.27l-1.71 2.15c-.18.23-1.03 1.47-.45 2.75.22.49.7 1.07 1.72 1.34-.42.57-.69 1.38-.37 2.19.35.92 1.25 1.44 2.68 1.56.73.06 1.48.15 2.15.25l-1.72 2.13c-.04.05-.07.1-.11.15-.16.26-.94 1.63-.27 2.93.25.49.77 1.08 1.82 1.32-.27.56-.59 1.55-.11 2.51.3.6.98 1.33 2.55 1.41.63.04 1.29.09 1.9.14l-1.6 1.85c-.05.05-.09.11-.12.16-.18.27-1 1.64-.31 2.97.25.49.76 1.06 1.78 1.31-.15.3-.72 1.59-.02 2.73.32.54 1.02 1.18 2.45 1.18.56 0 1.2.04 1.81.1l-1.75 2.03c-.18.23-1.03 1.47-.44 2.75.22.49.7 1.07 1.72 1.35-.42.57-.69 1.38-.38 2.19.35.92 1.25 1.44 2.67 1.56.73.06 1.47.15 2.15.25l-1.72 2.13c-.04.05-.08.1-.11.15-.16.26-.94 1.63-.28 2.93.25.49.77 1.08 1.81 1.32-.27.56-.59 1.54-.11 2.5.3.6.98 1.33 2.55 1.41.63.04 1.29.09 1.9.14l-1.6 1.85c-.04.05-.08.11-.12.16-.17.26-1 1.64-.31 2.97.25.49.76 1.06 1.78 1.31-.15.3-.72 1.59-.02 2.74.33.54 1.02 1.19 2.46 1.19.52 0 1.1.03 1.67.08l-1.42 1.52c-.06.07-.11.13-.16.2-.17.27-1 1.65-.31 2.98.25.49.76 1.06 1.78 1.31-.15.3-.72 1.59-.02 2.74.33.54 1.02 1.18 2.46 1.18 1.86 0 4.52.42 4.55.42l.47-2.96c-.11-.03-2.43-.39-4.42-.45l-.163-.08z"/>
    <path fill="#008696" d="M233.802 81.59s-1.806-4.332 2.24-4.54 2.232 3.042 2.232 3.042l-4.455 1.755m2.39-4.797s-1.19-3.47 2.85-3.677 1.37 1.72 1.37 1.72l-4.11 1.957m-4.54 9.54s-1.81-4.332 2.24-4.54 2.23 3.042 2.23 3.042l-4.46 1.755m-3.01 4.743s-1.81-4.332 2.24-4.54 2.23 3.042 2.23 3.042l-4.46 1.755"/>
    <path fill="#008696" d="M226.545 96.062s-1.258-4.78 1.56-5.01c2.816-.23 1.555 3.357 1.555 3.357l-3.103 1.93"/>
    <path fill="#EAC412" d="M340.02 122.193s2.583 10.146 1.765 13.803c-.82 3.658.068 3.693 0 6.676-.07 2.982.16 8.285-32.32 37.75l-28.072 25.465-74.163 68.47s-25.016 27.55-47.32 7c-2.668-1.536-8.076-10.67-10.95-14.813"/>
    <path fill="#C7A814" d="M176.045 285.867c-6.875 0-13.292-2.62-18.98-7.826l1.014-1.1c9.1 8.34 19.71 9.72 31.54 4.11 8.9-4.23 15.17-11.02 15.23-11.08l75.02-68.83 28.38-25.58c32.23-29.06 32.36-34.61 32.42-37.28l.75-.08.75.12c-.07 3.32-.2 8.87-32.92 38.36l-28.38 25.59-74.98 68.78c-.22.24-6.48 7.03-15.65 11.38-4.89 2.32-9.66 3.48-14.23 3.48l.03-.04z"/>
    <path fill="#C7A814" d="M175.73 281.887c-6.78 0-13.054-2.61-18.666-7.77l1.016-1.105c5.634 5.18 11.938 7.668 18.774 7.348 14.77-.656 27.188-14.123 27.312-14.26l73.945-66.133 27.95-27.298c31.79-28.78 31.92-34.28 31.98-36.92l.75-.08.75.11c-.07 3.28-.19 8.78-32.44 37.98l-27.95 27.3-73.91 66.1c-.46.52-12.91 14.01-28.3 14.69-.4.02-.79.03-1.19.03l-.02.003z"/>
    <path fill="#424244" d="M178.125 290.47c-6.95 0-13.378-2.657-19.125-7.91-2.142-1.354-5.013-5.608-8.806-11.433-.923-1.417-1.772-2.72-2.472-3.73l2.466-1.708c.718 1.03 1.593 2.37 2.52 3.8 2.486 3.81 6.245 9.58 7.945 10.56l.27.19c5.5 5.06 11.657 7.48 18.3 7.19 14.52-.65 26.77-13.96 26.895-14.1l.093-.1 74.17-68.47 28.08-25.48c31.65-28.71 31.77-34.02 31.83-36.58v-.1c.03-1.01-.07-1.6-.17-2.23-.18-1.14-.35-2.21.21-4.74.61-2.71-1.06-10.38-1.75-13.11l2.91-.74c.28 1.07 2.65 10.6 1.78 14.5-.44 1.97-.33 2.65-.18 3.6.11.67.25 1.5.22 2.78-.07 3.52-.2 9.25-32.81 38.82l-28.09 25.48-74.11 68.42c-.99 1.08-13.49 14.34-28.93 15.03-.41.02-.82.03-1.23.03l-.01.03z"/>
    <path fill="#FDD311" d="M188.378 275.904s.5 3.916-4.25 5.25c-4.75 1.332-4.417 3.832-4.167 7.166s-2.16 8.584-8.58 6.75c-5.1-1.456-6.08-8.832-1.33-12 1.15-.766 3.16-1.485 2.75-3.04"/>
    <path fill="#424244" d="M173.88 296.95c-.865 0-1.834-.128-2.914-.437-2.847-.813-4.914-3.234-5.395-6.317-.52-3.322.88-6.53 3.65-8.373.25-.167.54-.333.84-.505.42-.24 1.2-.69 1.31-.938l2.89-.733c.63 2.36-1.54 3.604-2.7 4.27-.23.138-.46.27-.66.4-2.13 1.42-2.6 3.727-2.34 5.413.31 1.943 1.52 3.398 3.26 3.896 2.02.577 3.65.378 4.84-.59 1.42-1.155 1.95-3.196 1.84-4.604l-.02-.283c-.24-3.2-.52-6.82 5.28-8.44 3.27-.92 3.21-3.19 3.17-3.64l2.98-.36c.23 1.8-.59 5.55-5.33 6.88-3.43.96-3.34 2.15-3.1 5.32l.02.28c.16 2.07-.52 5.18-2.94 7.15-.97.8-2.48 1.59-4.63 1.59l-.05.02z"/>
    <path fill="#FFF" d="M175.962 290.32c0-1.748-1.418-3.166-3.167-3.166s-3.167 1.418-3.167 3.167 1.418 3.17 3.167 3.17 3.167-1.42 3.167-3.16"/>
    <path fill="#424244" d="M172.795 294.986c-2.573 0-4.667-2.092-4.667-4.666 0-2.572 2.094-4.666 4.667-4.666s4.667 2.094 4.667 4.666c0 2.575-2.093 4.666-4.667 4.666zm0-6.332c-.92 0-1.667.748-1.667 1.666 0 .92.748 1.666 1.667 1.666s1.667-.746 1.667-1.666c0-.918-.748-1.666-1.667-1.666z"/>
    <path fill="#424244" d="M175.878 322.07c-4.237 0-6.35-8.617-6.35-16.624s1.984-16.625 5.984-16.625v3c-1 .14-2.983 4.94-2.983 13.63s2.31 13.49 3.26 13.63c.94-.13 3.21-4.94 3.21-13.62 0-4.24-.89-8.93-1.74-11.49l2.86-.94c.95 2.88 1.91 7.83 1.91 12.43 0 8.01-1.93 16.63-6.17 16.63l.014-.02z"/>
    <path fill="#424244" d="M171.878 322.07c-4.237 0-6.167-8.617-6.167-16.624s1.93-16.625 6.17-16.625c.78 0 1.94.32 3.03 1.81l-2.42 1.77c-.38-.52-.6-.57-.6-.57-.94.14-3.16 4.94-3.16 13.63s2.23 13.49 3.17 13.63c.94-.14 3.17-4.94 3.17-13.62 0-3.26-.32-6.34-.93-8.9l2.92-.69c.67 2.78 1.02 6.1 1.02 9.6 0 8-1.92 16.62-6.16 16.62l-.04-.03z"/>
    <path fill="#008696" d="M222.292 171.686s8.742-32.77 10.136-35.035c0 0 4.462-4.32 3.413-8.44 2.4-.11 2.84 1.96 2.84 1.96l-.06.48-2.22 6.25-3.25 8.88-6.84 23.7-4.01 2.22m17.46-60.74s2.84 11.26-3.9 17.27l4.65-3.04 1.79-13.65-2.53-.57-.01-.01z"/>
    <path fill="#E85C30" d="M291.964 117.046l-11.393-25.58s-1.4-4.457 1.28-8.295c0 0-9.02 1.64-11.74-4.58s3.07-12.62 3.07-12.62-11.43 2.78-14.15-3.44 2.89-13.14 2.89-13.14-11.47 2.89-14.26-3.48c-2.8-6.38 5.56-14.91 5.56-14.91l-6.15.29s-.94-.18-1.11-.87c-.17-.7 1.26-1.28 1.26-1.28l9.61-1.84s1.79-.06 2.35 1.2c.49 1.11-.57 2.88-1.28 4.34-1.82 3.75-5.38 6.91-4.36 9.97 0 0 2.24.76 5.6.42 4.4-.44 10.32-1.78 11.49.89 2.06 4.7-7.08 12.29-5.8 15.19s14.57-3.38 16.58 1.2c2 4.58-6.91 12.17-5.4 15.61 1.5 3.44 14.35-3.91 16.69 2.06 1.5 3.85-6.23 11.24-4.59 14.98 0 0 .35 3.72 6.79 3.99s6.37 2.39 6.37 2.39l11.83 25.21"/>
    <path fill="#C5492A" d="M291.61 79.154s-10.188 3.518-15.104 2.736c-4.914-.78-5.365-4.85-5.365-4.85s2.97 3.098 5.74 3.778c1.8.443 12.54-.667 13.8-2.94 0 .002 1.47.073.93 1.276zm-11.49-16.72s-9.58 4.093-14.43 3.46-5.723-5.256-5.723-5.256 3.562 3.75 6.39 3.665 12.792-.792 13.626-3.242c0 0 .26 1.08.137 1.38v-.002zM269.435 46.02S258.85 49.814 254 49.18c-4.85-.632-5.407-5.595-5.407-5.595s3.3 3.75 6.13 3.75c2.694 0 13.18-.37 14.487-2.66-.002 0 .445.635.225 1.345z"/>
    <path fill="#C5492A" d="M256.458 44.678s-5.37.978-6.666-3.427c-.754-2.56 5.766-9.5 5.766-9.5s-4.418 6.2-3.742 8.57c1.3 4.57 3.87 4.3 4.642 4.37v-.01zm11.686 16.846s-3.78 1.444-5.766-3.085c-1.484-3.39 4.57-10.46 4.57-10.46s-3.088 8.14-2.21 10.65c.876 2.51 2.622 2.8 3.406 2.89zm11.718 16.988s-4.04 1.254-6.193-3.66c-1.61-3.67 3.64-8.108 3.64-8.108s-2.15 5.647-1.19 8.365c.96 2.71 2.92 3.28 3.74 3.4zm14.748 19.594s-6.793-.093-9.742-6.822c-2.205-5.03 2.023-8.46 2.023-8.46s.42 6.26 1.91 9.91c1.49 3.653 5.26 4.97 5.82 5.372h-.01zm-1.576 17.99s-4.95-10.703-5.156-12.297c-.203-1.6 1.186-3.05 3.45-2.45 2.267.6 9.108 4.19 9.644 3.96.535-.24 2.562 4.06 2.562 4.06l2.215 3.89 3.85 8.8-16.57-5.99v.022z"/>
    <path fill="#424244" d="M246.487 27.79c-1.525.668-2.29 1.793-2.008 2.963.29 1.21 1.41 1.832 2.29 1.997l.34.024 2.73-.127c-2.46 3.282-5.74 8.967-3.6 13.852 2.21 5.05 8.55 5.3 12.56 4.9-1.52 2.85-3.09 7.37-1.19 11.72 2.14 4.88 8.3 5.2 12.3 4.85-1.55 2.73-3.08 6.95-1.21 11.21 2.14 4.89 7.33 5.69 10.59 5.68-1.24 3.58-.23 6.88-.18 7.05l.06.15 11.39 25.57 2.74-1.22-11.35-25.49c-.14-.51-.96-3.99 1.09-6.92l2.09-2.99-3.59.65c-.08.01-7.89 1.33-10.11-3.72-2.31-5.27 2.75-10.96 2.81-11.02l3.26-3.61-4.73 1.14c-.1.02-10.28 2.33-12.43-2.59-2.32-5.3 2.63-11.53 2.68-11.6l2.8-3.48-4.34 1.08c-.11.03-10.31 2.42-12.53-2.63-1.95-4.45 3.14-11.08 5.27-13.25l2.66-2.73-3.71.17 3.71-.71c.31.02.76.14.84.3.09.4-.61 1.78-.94 2.44-.11.22-.22.44-.32.65-.54 1.11-1.27 2.21-1.98 3.27-1.67 2.49-3.39 5.05-2.46 7.82l.24.71.7.24c.1.03 2.58.85 6.23.48.76-.08 1.56-.18 2.38-.28 2.64-.34 7.06-.91 7.58.27.82 1.88-1.39 5.19-3.16 7.85-1.9 2.86-3.54 5.32-2.66 7.35 1.04 2.36 4.44 1.76 8.39 1.06 3.01-.53 7.55-1.34 8.2.13.76 1.73-1.13 4.78-2.8 7.46-1.86 3-3.61 5.83-2.6 8.15 1.13 2.58 4.57 1.92 8.2 1.22 4.3-.82 7.66-1.29 8.47.78.49 1.26-1.02 4.01-2.24 6.21-1.66 3-3.36 6.11-2.4 8.63.23 1.07 1.49 4.77 8.18 5.06 3.6.15 4.68.9 4.92 1.13v.07l11.98 25.53 2.72-1.27L302.64 99c-.21-1.12-1.46-3.21-7.77-3.48-4.92-.21-5.35-2.57-5.37-2.67l-.11-.42c-.53-1.2.99-3.95 2.2-6.17 1.677-3.04 3.407-6.184 2.405-8.75-1.78-4.555-7.58-3.44-11.82-2.63-1.638.31-4.376.84-4.94.45-.33-.805 1.28-3.4 2.455-5.29 2.06-3.31 4.39-7.07 3-10.246-1.59-3.63-6.84-2.7-11.46-1.88-1.72.3-4.26.75-5.12.54.07-.82 1.52-3 2.41-4.34 2.29-3.44 4.89-7.33 3.407-10.71-1.42-3.24-6.148-2.64-10.718-2.05-.79.1-1.56.2-2.3.272-1.81.18-3.27.01-4.12-.15.06-1.25 1.06-2.758 2.2-4.458.77-1.148 1.56-2.33 2.19-3.63l.3-.608c.8-1.59 1.71-3.394 1.01-4.99-.76-1.73-2.73-2.135-3.77-2.1l-.24.025-9.89 1.93-.16.07.053.075z"/>
    <path fill="#D9B40D" d="M172.295 282.32s5.196 1.004 8.25 0 7.75-6 7.75-6l-16.417 4.518.417 1.483z"/>
    <path fill="#424244" d="M173.88 296.95c-.865 0-1.834-.128-2.914-.437-2.847-.813-4.914-3.234-5.395-6.317-.52-3.322.88-6.53 3.65-8.373.25-.167.54-.333.84-.505.42-.24 1.2-.69 1.31-.938l2.89-.733c.63 2.36-1.54 3.604-2.7 4.27-.23.138-.46.27-.66.4-2.13 1.42-2.6 3.727-2.34 5.413.31 1.943 1.52 3.398 3.26 3.896 2.02.577 3.65.378 4.84-.59 1.42-1.155 1.95-3.196 1.84-4.604l-.02-.283c-.24-3.2-.52-6.82 5.28-8.44 3.27-.92 3.21-3.19 3.17-3.64l2.98-.36c.23 1.8-.59 5.55-5.33 6.88-3.43.96-3.34 2.15-3.1 5.32l.02.28c.16 2.07-.52 5.18-2.94 7.15-.97.8-2.48 1.59-4.63 1.59l-.05.02z"/>
    <path fill="#FDD311" d="M340.284 125.705c0-12.565-9.963-22.75-22.25-22.75-5.033 0-9.678 1.712-13.404 4.594-25.36 18.03-58.686 46.17-84.68 68.07-25.052 21.11-51.04 42.5-64.75 56.66-8.586 8.87-8.494 15.65-9.033 17.54h.003c-2.825 11.23 4.36 23.51 16.927 28.19 8.898 3.31 18.245 1.97 24.797-2.76 29.823-19.92 145.27-132.88 145.543-133.15 4.216-4.14 6.847-9.96 6.847-16.41v.01z"/>
    <path fill="#424244" d="M144.723 249.42c.07-.242.122-.58.194-1.004.472-2.78 1.577-9.29 9.204-17.17 11.86-12.25 32.51-29.59 54.37-47.952 3.5-2.933 7.01-5.878 10.5-8.82l1.44-1.214c26.02-21.918 58.39-49.195 83.34-66.934 4.11-3.175 9.06-4.87 14.28-4.87 13.1 0 23.75 10.878 23.75 24.25 0 6.653-2.59 12.86-7.3 17.48-1.15 1.135-116.1 113.518-145.76 133.323-4.3 3.11-9.86 4.84-15.6 4.84-3.57 0-7.12-.65-10.55-1.93-11.57-4.31-18.9-14.7-18.51-25.37l.67-4.64-.023.01zm2.9.773c-2.68 10.672 4.195 22.03 15.996 26.427 3.09 1.15 6.29 1.735 9.5 1.735 5.11 0 10.04-1.53 13.89-4.31 29.47-19.687 144.21-131.873 145.37-133.005 4.12-4.042 6.39-9.49 6.39-15.332 0-11.72-13.36-21.458-20.75-21.25-4.55.128-8.87 1.48-12.49 4.28-24.9 17.7-57.22 44.936-83.19 66.817l-1.45 1.217c-3.49 2.94-7 5.89-10.5 8.82-21.81 18.313-42.4 35.605-54.15 47.74-4.58 4.73-6.57 8.79-7.53 11.79l-1.13 5.077.04-.01z"/>
    <g fill="#D9B40D">
        <path opacity=".5" d="M150.19 241.614c1.214-1.944 2.82-4.062 5.01-6.326 13.708-14.167 39.697-34.558 64.75-55.667 25.994-21.9 59.317-50.03 84.678-68.07 3.354-2.59 6.357-6.58 10.812-6.88-.52-.04 2.36-.41 1.832-.41-4.94 0-11.797 4.39-15.428 7.22-24.72 17.7-57.16 45.33-82.465 66.82-24.39 20.72-49.7 40.72-63.02 54.63-3.25 3.4-5.2 6.47-6.42 9.08.06-.1.13-.2.19-.31l.04-.08v.02l.02-.022zm.006-3.016c-.018.028-.03.055-.048.084.014-.02.027-.045.042-.066l.006-.018z"/>
        <path opacity=".5" d="M150.196 238.598c-.018.028-.03.055-.048.084.014-.02.027-.045.042-.066l.006-.018zm168.12-134.35c-.507 0-2.933.415-3.43.45 11.34.82 19.976 7.964 20.095 19.757.07 6.332-2.96 11.748-7.06 15.812-.27.264-138.94 121.562-138.94 121.562-6.38 5-15.99 11.21-24.76 7.95-12.38-4.6-16.92-12.89-14.26-23.92 0 0 3.32-9.34 3.3-9.32-4.89 5.43-6.69 11.9-7.08 13.27h.01c-2.82 11.23 4.36 23.51 16.93 28.19 8.9 3.31 18.25 1.97 24.8-2.76 29.83-19.92 145.27-132.88 145.55-133.15 4.22-4.14 6.85-9.96 6.85-16.41 0-12.57-9.68-21.46-21.97-21.46l-.03.024z"/>
    </g>
    <g fill="#D9B40D">
        <path opacity=".5" d="M150.19 241.614c1.214-1.944 2.82-4.062 5.01-6.326 13.708-14.167 39.697-34.558 64.75-55.667 25.994-21.9 59.317-50.03 84.678-68.07 3.354-2.59 6.357-6.58 10.812-6.88-.52-.04 2.36-.41 1.832-.41-4.94 0-11.797 4.39-15.428 7.22-24.72 17.7-57.16 45.33-82.465 66.82-24.39 20.72-49.7 40.72-63.02 54.63-3.25 3.4-5.2 6.47-6.42 9.08.06-.1.13-.2.19-.31l.04-.08v.02l.02-.022zm.006-3.016c-.018.028-.03.055-.048.084.014-.02.027-.045.042-.066l.006-.018z"/>
        <path opacity=".5" d="M150.196 238.598c-.018.028-.03.055-.048.084.014-.02.027-.045.042-.066l.006-.018zm168.12-134.35c-.507 0-2.933.415-3.43.45 11.34.82 19.976 7.964 20.095 19.757.07 6.332-2.96 11.748-7.06 15.812-.27.264-136.95 124.137-136.95 124.137-6.38 5-20.35 11.002-29.12 7.75-12.38-4.592-14.54-15.252-11.88-26.282 0 0 3.32-9.334 3.3-9.313-4.89 5.43-5.24 12.27-5.63 13.63-2.82 11.23 3.43 21.74 16 26.42 8.9 3.31 17.72 3.38 24.27-1.36 29.82-19.92 145.27-132.88 145.54-133.15 4.22-4.14 7.84-13.6 6.58-19.93-2.34-11.84-9.41-17.95-21.7-17.95l-.01.024z"/>
    </g>
    <path fill="#424244" d="M176.634 261.402c-.528-.035-.95-.197-1.26-.486-.313-.288-.493-.62-.54-.996-.048-.375.04-.752.265-1.13.22-.38.6-.67 1.13-.87.27-.053.49-.117.68-.193.18-.078.45-.18.79-.303.31-.124.63-.3.96-.527.32-.23.6-.48.83-.754.47-.52.79-.98.94-1.377.14-.396.18-.757.09-1.082-.09-.324-.27-.648-.54-.975-.28-.33-.6-.68-.97-1.06-.33.61-.7 1.19-1.1 1.72-.4.54-.88 1.03-1.44 1.47-1.09.85-2.2 1.32-3.35 1.41-1.15.09-2.22-.09-3.22-.53-1-.45-1.88-1.11-2.64-1.99s-1.3-1.85-1.61-2.92c-.18-.63-.24-1.3-.19-2.02s.21-1.43.47-2.12.63-1.33 1.09-1.92c.46-.59 1.01-1.04 1.64-1.37.37-.19.74-.36 1.1-.53s.74-.3 1.13-.4c.06-.51.27-.94.65-1.31.37-.37.85-.52 1.44-.46.14.02.29.05.46.07.17.03.3.09.4.18 1.42 1.43 2.84 2.86 4.23 4.31 1.4 1.44 2.8 2.88 4.21 4.32.56.58 1.01 1.2 1.32 1.87.32.66.49 1.36.53 2.07.03.72-.08 1.44-.35 2.18-.27.73-.7 1.46-1.3 2.18-.32.36-.64.7-.96 1.02-.33.32-.7.61-1.1.88-.56.38-1.15.69-1.77.93s-1.26.45-1.92.64h-.16l.06.07zm-3.41-8.732c.93-.355 1.62-.854 2.07-1.492.45-.638.784-1.408 1.004-2.31l-3.146-3.213c-.813.03-1.498.168-2.06.41-.56.247-1.087.678-1.584 1.296-.05.16-.104.31-.162.44-.057.14-.117.28-.182.42.005.63.075 1.18.208 1.64s.34.87.62 1.22.624.65 1.03.9c.403.25.88.49 1.424.73.11.03.243.03.397.01.158-.02.284-.02.38-.01v-.04zm-1.35-18.508c-.43-.557-.6-1.107-.51-1.657.087-.548.31-.993.675-1.334.36-.34.81-.54 1.35-.59.54-.05 1.03.13 1.48.56.48.43.69.91.65 1.44s-.24 1-.58 1.4-.78.65-1.32.75c-.54.11-1.08-.04-1.61-.44l-.17-.11.03-.014zm14.194 8.622c.233.3.364.64.39 1.022.028.383-.028.732-.165 1.053-.138.31-.366.58-.686.78s-.702.29-1.147.25c-.25-.02-.484-.09-.7-.21s-.423-.26-.616-.43c-.192-.17-.375-.35-.545-.54-.18-.19-.33-.36-.48-.51-.8-.78-1.57-1.57-2.33-2.36s-1.54-1.58-2.33-2.36c-.32-.32-.66-.63-1.03-.92s-.67-.64-.9-1.05c-.17-.32-.24-.65-.23-1.01.01-.36.1-.68.26-.98.16-.29.39-.53.69-.72.29-.19.64-.25 1.05-.2.5.04.88.19 1.13.45l.94.96 1.34 1.38c.44.46.89.9 1.34 1.33.65.63 1.29 1.27 1.92 1.92l1.9 1.94.14.14.054.06zm24.3-57.497l-2.923-.68 8.515-36.54c.008-.037.16-.743-.557-1.515-1.74-1.873-1.882-2.916-1.54-4.545l.057-.28c.305-1.55 1.638-2.077 3.05-2.637.52-.204 1.13-.446 1.835-.776.446-.21.476-.727.476-.73l.05-.38 1.08-4.097c-.12-.183-.44-.433-1.15-.58-3.09-.646-10.02-4.704-11.69-13.127-1.48-7.534 2.45-12.878 3.58-14.22-1.09-1.482.04-3.667.42-4.33.44-.757 10.89-18.874 16.93-27.186 1.85-2.264 11.04-13.222 15.92-13.368.52-.023 1.02.188 1.38.577.75.81.62 2.08.51 3.102l-.03.337-.01.237-4.6 11.98c-.3.71-1.01 1.18-2.12 1.42-.14.03-.31.13-.45.24l.04 3.71-1.28.2c-.31.05-.69.17-.93.29l.28 4.12-1.35.21c-.35.06-.8.23-1.01.37.1 1.91-.14 3.09-.78 3.77-.32.35-1.11.56-1.55.59-.58.04-.95.22-1.95.39v4.64l-.31.09c.19.79.75 2.11 1.18 2.88.2.35 1.65.85 2.83.99l.22.03c.28.07 1.76.49 2.1 1.81.13.49.19 1.46-.89 2.47-.21.2-.69.66-.91.97.2.14.62.36 1.46.61.36.11.71.21 1.06.3 3.75 1.04 7.99 2.2 6.84 12.35-.53 4.72-2.74 7.87-3.99 9.31.2.62.28 1.44.03 2.51-.01.54-.11 1.96-.66 3.25-.5 1.17-1.18 2.46-1.83 3.72-.68 1.31-1.53 2.94-1.65 3.5l-.02.11-8.09 28.49-2.89-.82 8.08-28.45c.2-.93.86-2.22 1.91-4.23.63-1.21 1.28-2.45 1.74-3.52.35-.8.42-1.89.42-2.25l.05-.39c.15-.59.1-.92.06-1.05l-1.38-1.01 1.41-1.24c.03-.03 3.25-2.97 3.86-8.29.87-7.6-1.21-8.17-4.65-9.12-.37-.1-.75-.2-1.13-.32-1.36-.41-3.23-1.14-3.62-2.8-.3-1.29.43-2.35 1.2-3.16-1.24-.27-3.17-.92-3.96-2.32-.86-1.53-1.37-3.93-1.43-4.2l-.39-.28c-.01-.93.39-1.63.39-2.09v-2.72c0-1.84 2.13-2.77 3.91-3.08.03-.31.23-.84.17-1.66l.08-.2.08-.2c.25-1.27 1.32-1.98 2.22-2.35l-.16-2.59.16-.35c.42-.92 1.32-1.45 2.11-1.75l-.03-2.44.35-.42c.18-.21 1.12-1.29 2.48-1.59l.15-.04 3.87-11.1c.01-.07-.36-.15-.36-.24v-.01c-3 1.49-8.47 7.46-12.05 11.85-5.89 8.11-16.4 26.67-16.51 26.86-.22.38-.32.91-.37 1.19.89 1.11.73 2.48.02 3.31-.23.25-4.5 4.95-3.12 11.96 1.49 7.56 7.87 10.46 9.37 10.77 2.83.59 3.59 2.5 3.59 3.53l-.05.38-1.13 4.31c-.07.94-.59 2.47-2.19 3.22-.78.37-1.46.64-2 .85-.46.18-1.02.4-1.23.55l-.04.2c-.16.74-.18.84.8 1.89 1.52 1.63 1.5 3.5 1.24 4.4l-8.48 36.38-.12.043zM88.845 333.767c.938 0 3.683 2.02 7.075 2.02 3.03 0 4.4-1.083 4.4-3.25 0-6.35-14.435-2.6-14.435-15.52 0-7.22 5.125-11.693 13.28-11.693 2.384 0 10.683.505 10.683 4.55 0 .937-1.658 5.34-3.104 5.34-.72 0-2.886-1.516-6.135-1.516-2.46 0-3.9.794-3.9 2.6 0 5.27 14.44 2.525 14.44 15.374 0 7.578-5.42 12.56-13.5 12.56-6.28 0-12.63-1.66-12.63-5.124 0-1.447 2.31-5.342 3.82-5.342zm47.495-13.5v-2.385c0-2.74-1.658-4.114-5.63-4.114-5.267 0-8.37 2.312-9.238 2.312-1.516 0-3.753-4.26-3.753-5.772 0-2.453 5.77-4.98 13.78-4.98 11.4 0 15.52 5.053 15.52 12.053v13.58c0 7.44.86 8.95.86 10.47 0 1.73-6.28 2.31-8.09 2.31-2.31 0-2.46-3.03-2.89-4.98-.51.94-3.98 5.49-10.62 5.49-7.8 0-10.68-4.62-10.68-10.54s2.38-13.43 20.71-13.43l.03-.01zm-6.494 15.52c2.742 0 5.342-1.95 6.495-4.55v-3.97c-6.85 0-10.1 1.877-10.1 5.342 0 1.8 1.23 3.17 3.61 3.17v.003zm43.67-30.464c5.126 0 11.983 1.66 11.983 4.98 0 1.373-2.6 5.558-3.83 5.558-.29 0-.72-.21-1.3-.5-1.3-.65-3.25-1.59-6.28-1.59-5.78 0-8.16 3.61-8.16 10.98 0 7.44 2.23 11.05 7.72 11.05 3.39 0 5.7-1.01 7.07-1.66.58-.21 1.01-.43 1.3-.43 1.58 0 3.75 4.05 3.75 5.49 0 4.05-10.25 5.06-12.63 5.06-12.35 0-18.2-6.28-18.2-19.2-.01-12.85 5.62-19.71 18.55-19.71l.022-.023zm18.194-13.786c0-1.516 1.298-2.31 4.33-2.31h2.02c3.03 0 4.33.794 4.33 2.31v28.585l.29.07 8.734-13.065c.867-1.227 2.31-1.37 4.404-1.37h2.67c2.744 0 4.043.433 4.043 1.08 0 .363-.21.868-.65 1.446l-10.03 14.29 11.77 18.625c.36.65.58 1.08.58 1.516 0 .65-1.3 1.08-4.11 1.08h-3.03c-2.09 0-3.68-.286-4.33-1.37l-10.04-16.604-.29.074v15.59c0 1.52-1.29 2.312-4.33 2.312h-2.02c-3.03 0-4.33-.792-4.33-2.312v-49.947h-.01zm79.297 52.115v-.873c1.428-.11 2.512-.28 3.254-.52.74-.24 1.11-.78 1.11-1.63v-20.25c0-3.07-.54-5.52-1.63-7.35-1.09-1.83-3.02-2.74-5.78-2.74-1.76 0-3.22.46-4.39 1.39-1.17.93-2.39 2.1-3.67 3.53v25.64c0 .37.13.69.4.95s.61.46 1.03.59c.43.13.89.24 1.39.31.51.08.99.14 1.47.2v.71h-15.57v-.87c1.43-.11 2.57-.28 3.42-.52.85-.24 1.27-.78 1.27-1.63v-20.3c0-3.13-.54-5.57-1.63-7.35-1.08-1.77-3-2.66-5.75-2.66-1.74 0-3.17.37-4.28 1.11s-2.35 1.85-3.73 3.33v26.04c.1.53.29.92.56 1.15.26.24.59.41.99.52.39.11.83.17 1.31.2.48.02.98.09 1.51.2v.79h-15.41v-.8c1.22-.1 2.26-.34 3.14-.71s1.31-.98 1.31-1.82v-27.15c0-.42-.04-.74-.12-.95-.08-.21-.3-.45-.67-.71l-1.67-.91c-.63-.34-1.27-.65-1.91-.91v-.63l10.41-3.73h.48v8.57l.16.08c.53-.96 1.21-1.95 2.06-2.98.85-1.04 1.82-1.96 2.93-2.78 1.11-.82 2.31-1.51 3.6-2.07 1.3-.56 2.65-.83 4.08-.83 2.53 0 4.58.83 6.13 2.5 1.55 1.67 2.52 3.9 2.89 6.71h.24c.48-.96 1.14-1.98 1.98-3.06.85-1.08 1.83-2.09 2.94-3.02 1.11-.93 2.34-1.68 3.69-2.27 1.35-.58 2.74-.87 4.17-.87 3.07 0 5.39 1.11 6.95 3.33s2.35 5.08 2.35 8.57v23.66c0 .37.16.69.48.95.32.27.7.46 1.15.59.45.13.94.24 1.47.31.53.08 1.04.15 1.51.2v.71h-15.56l-.06.05zm49.545-8.138c-.74 1.457-1.746 2.793-3.018 4.01-1.27 1.22-2.79 2.225-4.566 3.02-1.773.793-3.746 1.19-5.914 1.19-2.7 0-5.162-.505-7.385-1.51-2.23-1.007-4.12-2.424-5.68-4.25-1.56-1.825-2.77-3.97-3.62-6.43-.85-2.463-1.27-5.07-1.27-7.82 0-2.225.39-4.434 1.19-6.63.79-2.197 1.91-4.172 3.37-5.918 1.45-1.746 3.23-3.162 5.32-4.248 2.09-1.082 4.4-1.627 6.94-1.627 2.06 0 4.01.27 5.83.8 1.83.53 3.41 1.34 4.77 2.43 1.35 1.09 2.44 2.45 3.29 4.09.84 1.65 1.35 3.58 1.51 5.8h-25.48c0 .43-.03.91-.08 1.47-.06.56-.08 1.13-.08 1.71 0 2.23.31 4.36.95 6.39.64 2.04 1.56 3.84 2.78 5.4 1.21 1.56 2.75 2.79 4.6 3.69s3.99 1.35 6.43 1.35c2.64 0 4.96-.67 6.94-2.02 1.98-1.35 3.29-3 3.93-4.96l.64.16c-.21 1.16-.69 2.47-1.43 3.93l.03-.022zm-9.092-26.76c-1.35-1.4-3.162-2.104-5.44-2.104-1.478 0-2.815.438-4.01 1.31-1.19.874-2.222 1.894-3.095 3.058-.875 1.164-1.55 2.342-2.027 3.533-.475 1.2-.766 2.11-.87 2.74h3.253c.96 0 1.9-.01 2.82-.04.93-.02 1.9-.05 2.9-.08 1.01-.02 2.12-.04 3.34-.04.8 0 1.54-.02 2.23-.07s1.3-.18 1.83-.39c.37-.42.65-.82.84-1.19.18-.37.28-.92.28-1.67.01-1.96-.67-3.64-2.02-5.04l-.03-.012zm38.75 28.666c-.822 1.508-1.92 2.74-3.297 3.693-1.377.95-2.95 1.64-4.725 2.062-1.77.427-3.64.638-5.6.638-2.328 0-4.525-.21-6.588-.638-2.066-.423-3.973-1.03-5.717-1.825v-10.48h.633c.422 1.27.95 2.607 1.582 4.01.63 1.403 1.396 2.7 2.293 3.89.9 1.192 1.98 2.173 3.25 2.94 1.27.768 2.77 1.148 4.51 1.148 2.53 0 4.55-.726 6.05-2.183s2.26-3.694 2.26-6.71c0-1.64-.51-3.004-1.54-4.09-1.02-1.083-2.44-1.812-4.23-2.184-1.42-.26-2.79-.55-4.11-.87-1.31-.31-2.5-.66-3.56-1.03-2-.69-3.62-1.88-4.86-3.57s-1.86-3.73-1.86-6.11c0-1.64.35-3.12 1.04-4.44s1.61-2.46 2.78-3.41c1.16-.95 2.51-1.68 4.05-2.18 1.54-.5 3.18-.75 4.93-.75 2.22 0 4.18.2 5.88.6s3.31.89 4.85 1.47l.96 9.85-.64.16c-.74-1.58-1.48-3.05-2.22-4.4s-1.56-2.51-2.46-3.49c-.9-.98-1.92-1.74-3.06-2.27-1.14-.52-2.45-.79-3.93-.79-.9 0-1.79.16-2.66.48s-1.64.78-2.3 1.39c-.66.61-1.2 1.38-1.63 2.31-.42.93-.63 2-.63 3.22 0 1.96.56 3.37 1.67 4.21 1.11.85 2.52 1.48 4.21 1.91 1.17.27 2.44.55 3.81.84s2.57.57 3.58.84c2.38.59 4.41 1.8 6.07 3.65 1.67 1.86 2.5 4.13 2.5 6.83.01 2.06-.4 3.85-1.22 5.36l-.07-.08zm30.332 0c-.822 1.508-1.92 2.74-3.297 3.693-1.377.95-2.95 1.64-4.725 2.062-1.773.427-3.64.638-5.6.638-2.33 0-4.527-.21-6.59-.638-2.064-.423-3.973-1.03-5.717-1.825v-10.48h.635c.42 1.27.95 2.607 1.58 4.01.633 1.403 1.396 2.7 2.293 3.89.9 1.192 1.98 2.173 3.25 2.94 1.27.768 2.77 1.148 4.51 1.148 2.53 0 4.55-.726 6.05-2.183s2.26-3.694 2.26-6.71c0-1.64-.51-3.004-1.54-4.09-1.02-1.083-2.44-1.812-4.23-2.184-1.42-.26-2.79-.55-4.11-.87-1.32-.31-2.5-.66-3.56-1.03-2-.69-3.62-1.88-4.86-3.57s-1.86-3.73-1.86-6.11c0-1.64.35-3.12 1.04-4.44s1.62-2.46 2.78-3.41 2.51-1.68 4.05-2.18c1.53-.5 3.18-.75 4.92-.75 2.22 0 4.18.2 5.88.6s3.31.89 4.85 1.47l.96 9.85-.63.16c-.74-1.58-1.48-3.05-2.22-4.4s-1.56-2.51-2.46-3.49c-.89-.98-1.91-1.74-3.05-2.27-1.14-.52-2.45-.79-3.93-.79-.9 0-1.79.16-2.66.48s-1.64.78-2.3 1.39c-.66.61-1.21 1.38-1.63 2.31-.43.93-.63 2-.63 3.22 0 1.96.56 3.37 1.67 4.21 1.11.85 2.52 1.48 4.21 1.91 1.17.27 2.44.55 3.81.84s2.57.57 3.58.84c2.39.59 4.41 1.8 6.08 3.65 1.67 1.86 2.5 4.13 2.5 6.83.01 2.06-.4 3.85-1.22 5.36l-.084-.08zm35.213-1.906c-.742 1.457-1.746 2.793-3.018 4.01-1.27 1.22-2.795 2.225-4.564 3.02-1.775.793-3.746 1.19-5.918 1.19-2.7 0-5.16-.505-7.383-1.51-2.227-1.007-4.117-2.424-5.678-4.25-1.562-1.825-2.768-3.97-3.613-6.43-.85-2.463-1.27-5.07-1.27-7.82 0-2.225.4-4.434 1.19-6.63.8-2.197 1.92-4.172 3.38-5.918s3.23-3.162 5.32-4.248c2.09-1.082 4.41-1.627 6.95-1.627 2.07 0 4.02.27 5.84.8 1.83.53 3.42 1.34 4.77 2.43 1.35 1.09 2.45 2.45 3.3 4.09.85 1.65 1.35 3.58 1.51 5.8h-25.49c0 .43-.02.91-.08 1.47-.05.56-.08 1.13-.08 1.71 0 2.23.32 4.36.96 6.39.64 2.04 1.56 3.84 2.78 5.4s2.76 2.79 4.61 3.69c1.85.9 4 1.35 6.43 1.35 2.65 0 4.97-.67 6.95-2.02 1.99-1.35 3.3-3 3.93-4.96l.64.16c-.21 1.16-.68 2.47-1.43 3.93l-.03-.022zm-9.09-26.76c-1.354-1.4-3.166-2.104-5.44-2.104-1.48 0-2.82.438-4.01 1.31-1.19.874-2.224 1.894-3.097 3.058s-1.55 2.342-2.025 3.533c-.477 1.2-.768 2.11-.875 2.74h3.258c.95 0 1.893-.01 2.816-.04.926-.02 1.893-.05 2.898-.08 1.004-.02 2.115-.04 3.334-.04.795 0 1.535-.02 2.225-.07.68-.05 1.29-.18 1.82-.39.37-.42.65-.82.83-1.19s.27-.92.27-1.67c0-1.96-.67-3.64-2.02-5.04l.01-.012zm38.787 3.654c-.69.768-1.482 1.15-2.385 1.15-.846 0-1.52-.146-2.02-.438-.505-.29-.942-.623-1.313-.992-.37-.37-.768-.703-1.19-.993-.42-.288-1.005-.438-1.745-.438-.64 0-1.26.226-1.87.677-.61.45-1.18 1.02-1.71 1.706-.53.688-1.01 1.47-1.43 2.343-.43.874-.8 1.706-1.11 2.5v22.868c.15.48.5.85 1.03 1.12s1.12.45 1.78.56 1.35.18 2.06.2c.71.03 1.33.1 1.86.2v.8h-17.78v-.79c1.22-.1 2.26-.34 3.14-.71.87-.36 1.3-.97 1.3-1.82V313.5c0-.424-.04-.74-.12-.953-.08-.21-.31-.45-.67-.715-.48-.26-1.04-.59-1.67-.99-.64-.393-1.27-.723-1.91-.99v-.48l10.4-4.05h.47l-.16 11.04h.16c.26-.64.69-1.56 1.27-2.78s1.32-2.45 2.22-3.69c.9-1.243 1.99-2.32 3.26-3.22 1.27-.9 2.72-1.35 4.36-1.35 1.33 0 2.45.4 3.38 1.19.92.797 1.39 1.8 1.39 3.02-.01 1.173-.35 2.14-1.04 2.907l.04-.036z"/>
    <path fill="none" stroke="#FFF" stroke-width=".75" stroke-miterlimit="10" d="M165.258 305.475s1.012 10.61 2.125 13.186"/>
    <path fill="none" stroke="#FFF" stroke-width=".75" stroke-linecap="round" stroke-miterlimit="10" d="M169.143 305.446s.387 7.854 1.334 10.48m3.406-1.75s3.667-.318 7.208 1.975m-7.2-11.19s4.84.08 8.79 1.75"/>
</svg>
