<svg xmlns="http://www.w3.org/2000/svg" width="32" height="32"><path d="M28 24c-.973 0-1.832.391-2.523.965l-6.098-4.352c.387-.797.621-1.672.621-2.613 0-1.293-.422-2.488-1.117-3.465l7.133-7.137c.593.348 1.246.602 1.984.602 2.211 0 4-1.789 4-4s-1.789-4-4-4-4 1.789-4 4c0 .738.254 1.391.602 1.984l-7.133 7.137c-.985-.703-2.172-1.121-3.469-1.121-2.289 0-4.258 1.301-5.27 3.191l-4.816-1.609c-.195-.898-.957-1.582-1.914-1.582-1.105 0-2 .895-2 2s.895 2 2 2c.504 0 .953-.203 1.305-.512l4.789 1.598c-.047.301-.094.602-.094.914 0 3.312 2.688 6 6 6 1.648 0 3.145-.668 4.23-1.746l6.059 4.324c-.172.445-.289.918-.289 1.422 0 2.207 1.789 4 4 4s4-1.793 4-4-1.789-4-4-4z" fill="#4E4E50"/></svg>