<svg xmlns="http://www.w3.org/2000/svg" width="32" height="32"><g fill="#4E4E50"><path d="M16 12c2.203 0 4 1.795 4 4s-1.797 4-4 4-4-1.795-4-4 1.797-4 4-4m0-4c-4.418 0-8 3.582-8 8s3.582 8 8 8 8-3.582 8-8-3.582-8-8-8z"/><circle cx="16" cy="2" r="2"/><circle cx="6" cy="6" r="2"/><path d="M2 13.998c1.105 0 2 .895 2 2 0 1.107-.895 2-2 2s-2-.893-2-2c0-1.105.895-2 2-2z"/><circle cx="6" cy="26" r="2"/><path d="M14 30c0-1.109.895-2 2-2 1.109 0 2 .891 2 2 0 1.102-.891 2-2 2-1.105 0-2-.898-2-2zm10.594-2.586c-.781-.781-.781-2.047 0-2.828.785-.781 2.047-.781 2.828 0s.785 2.047 0 2.828c-.781.781-2.047.781-2.828 0zm5.402-9.416c-1.101 0-1.996-.894-1.996-1.998 0-1.109.891-2 2-2 1.102 0 2 .893 2 1.998 0 1.107-.898 2.002-2.004 2zm-2.574-10.582c-.781.779-2.047.779-2.828 0-.781-.785-.781-2.047 0-2.83.781-.779 2.047-.781 2.828.002.781.781.781 2.049 0 2.828z"/></g></svg>