<svg xmlns="http://www.w3.org/2000/svg" width="31.996" height="32"><g fill="#4E4E50"><path d="M16 8c-4.422 0-8 3.582-8 8s3.578 8 8 8c4.414 0 8-3.582 8-8s-3.586-8-8-8zm2-6c0 1.105-.898 2-2 2-1.109 0-2-.895-2-2s.891-2 2-2c1.102 0 2 .895 2 2z"/><circle cx="6" cy="6" r="2"/><path d="M2 13.998c1.102 0 2 .895 2 2 0 1.107-.898 2-2 2-1.109 0-2-.893-2-2 0-1.105.891-2 2-2z"/><circle cx="6" cy="26" r="2"/><path d="M14 30c0-1.109.891-2 2-2s2 .891 2 2c0 1.105-.891 2-2 2s-2-.895-2-2zm10.594-2.586c-.781-.781-.781-2.047 0-2.828s2.047-.781 2.828 0c.789.781.789 2.047 0 2.828-.781.781-2.047.781-2.828 0zm5.402-9.416c-1.098 0-1.996-.894-1.996-1.998 0-1.109.898-2 2.008-2 1.098 0 2 .893 1.988 1.998.012 1.107-.891 2.002-2 2zm-2.574-10.582c-.781.779-2.047.779-2.828 0-.781-.785-.781-2.047 0-2.83.781-.779 2.047-.781 2.828.002.789.781.789 2.049 0 2.828z"/></g></svg>