<?xml version="1.0" encoding="utf-8"?>
<!-- Generator: Adobe Illustrator 17.0.0, SVG Export Plug-In . SVG Version: 6.00 Build 0)  -->
<!DOCTYPE svg PUBLIC "-//W3C//DTD SVG 1.1//EN" "http://www.w3.org/Graphics/SVG/1.1/DTD/svg11.dtd">
<svg version="1.1" id="Ebene_1" xmlns="http://www.w3.org/2000/svg" xmlns:xlink="http://www.w3.org/1999/xlink" x="0px" y="0px"
	 width="50px" height="50px" viewBox="0 0 50 50" enable-background="new 0 0 50 50" xml:space="preserve">
<path fill="#FFFFFF" d="M49.909,9.361v31.193c0,2.582-0.912,4.785-2.747,6.614c-1.829,1.829-4.033,2.747-6.609,2.747H9.356
	c-2.577,0-4.78-0.917-6.609-2.747C0.912,45.338,0,43.135,0,40.553V9.361c0-2.582,0.912-4.785,2.747-6.614
	C4.576,0.917,6.779,0,9.356,0h31.197c2.577,0,4.78,0.917,6.609,2.747C48.997,4.576,49.909,6.779,49.909,9.361 M41.592,15.664
	c-1.213,0.539-2.523,0.907-3.931,1.106c1.47-0.869,2.48-2.135,3.023-3.804c-1.412,0.825-2.863,1.378-4.353,1.66
	c-1.325-1.432-2.984-2.145-4.974-2.145c-1.888,0-3.494,0.665-4.828,1.994c-1.33,1.334-1.999,2.941-1.999,4.828
	c0,0.626,0.058,1.145,0.165,1.558c-2.795-0.15-5.416-0.854-7.866-2.111c-2.446-1.257-4.527-2.936-6.236-5.037
	c-0.631,1.082-0.946,2.232-0.946,3.445c0,2.47,0.99,4.367,2.96,5.682c-1.019-0.019-2.101-0.301-3.251-0.84v0.063
	c0,1.626,0.543,3.072,1.626,4.338c1.082,1.267,2.417,2.053,3.999,2.354c-0.631,0.175-1.184,0.262-1.66,0.262
	c-0.281,0-0.704-0.044-1.267-0.131c0.456,1.364,1.262,2.494,2.421,3.382c1.16,0.888,2.475,1.344,3.95,1.364
	c-2.514,1.946-5.343,2.926-8.482,2.926c-0.563,0-1.106-0.034-1.626-0.097c3.208,2.033,6.692,3.052,10.462,3.052
	c2.426,0,4.702-0.383,6.828-1.155c2.121-0.767,3.94-1.795,5.459-3.086c1.514-1.291,2.819-2.771,3.911-4.45
	c1.097-1.679,1.907-3.436,2.441-5.265c0.529-1.829,0.796-3.654,0.796-5.474c0-0.393-0.015-0.684-0.034-0.883
	C39.544,18.231,40.684,17.052,41.592,15.664"/>
</svg>
