<?xml version="1.0" encoding="utf-8"?>
<!-- Generator: Adobe Illustrator 16.0.0, SVG Export Plug-In . SVG Version: 6.00 Build 0)  -->
<!DOCTYPE svg PUBLIC "-//W3C//DTD SVG 1.1//EN" "http://www.w3.org/Graphics/SVG/1.1/DTD/svg11.dtd">
<svg version="1.1" id="Ebene_1" xmlns="http://www.w3.org/2000/svg" xmlns:xlink="http://www.w3.org/1999/xlink" x="0px" y="0px"
	 width="720px" height="370px" viewBox="-110 0 720 370" enable-background="new -110 0 720 370" xml:space="preserve">
<g>
	<path fill="#87CD4D" d="M303.364,108.607L193.449,55.705c0,0-21.246-9.38-47.284-2.833c-2.32,0.583-0.164,2.989-0.164,2.989
		s3.8,6.577,14.281,14.406c5.156,3.852,24.902,14.482,47.5,25.104c24.314,11.429,51.833,22.937,65.188,28.583
		c0,0,4.031-1.25,6.812,0c0.531,1.531,0.18,2.191,0.18,2.191"/>
	<path fill="#73AB47" d="M148.956,53.903c0,0,7.756,11.072,18.256,16.322s106.366,50.251,106.366,50.251s5.082-1.141,7.982,2.527
		s-2.514,0.699-2.514,0.699l-6.971,0.605L174.71,79.446L153.654,64.81l-8.539-10.905L148.956,53.903L148.956,53.903z"/>
	<path fill="#C6D3DA" d="M211.595,68.268c0,0-20.625-10.625-34.625-13.25"/>
	<path fill="#424244" d="M304.015,107.256L194.055,54.333c-0.887-0.392-22.021-9.513-48.256-2.916
		c-1.458,0.367-1.94,1.288-2.1,1.805c-0.454,1.485,0.604,2.957,1.082,3.522c0.616,1.013,4.683,7.314,14.604,14.725
		c4.989,3.726,24.218,14.193,47.761,25.26c22.316,10.491,46.921,20.875,61.621,27.08l4.125,1.741l0.523-0.161
		c0.865-0.271,3.295-0.772,5.127-0.285c0.059,0.345,0.023,0.506,0.023,0.508c0-0.002,0.014-0.062,0.07-0.17l2.646,1.414
		c0.156-0.291,0.607-1.396-0.084-3.392l-0.211-0.61l-0.59-0.267c-2.654-1.194-5.99-0.553-7.324-0.217l-3.143-1.326
		c-14.68-6.195-39.25-16.565-61.513-27.03c-23.369-10.985-42.371-21.312-47.24-24.948c-10.061-7.515-13.845-13.894-13.88-13.955
		l-0.177-0.245c-0.148-0.168-0.301-0.395-0.405-0.587c25.115-6.24,45.919,2.707,46.081,2.777l109.917,52.903L304.015,107.256z"/>
	<path fill="#73AB47" d="M176.97,55.018c0,0,8.3,10.943,34.625,13.25c-15.609-7.38-19.133-8.363-19.133-8.363L176.97,55.018z"/>
	<path fill="#424244" d="M204.287,63.525c-0.885-0.476-1.815-0.987-2.797-1.478c-1.945-1.016-4.111-1.914-6.265-2.831
		c-1.082-0.445-2.195-0.824-3.284-1.207c-1.09-0.384-2.17-0.736-3.217-1.071c-2.142-0.555-4.145-1.039-5.873-1.383
		c-0.873-0.147-1.692-0.218-2.408-0.295c-0.715-0.082-1.344-0.123-1.857-0.162c-1.028-0.075-1.615-0.081-1.615-0.081
		s0.542,0.266,1.49,0.665c0.948,0.405,2.299,0.94,3.917,1.53c1.591,0.716,3.461,1.468,5.469,2.238
		c0.993,0.429,2.021,0.865,3.073,1.283c1.045,0.438,2.131,0.813,3.192,1.267c1.067,0.434,2.134,0.871,3.194,1.274
		c1.062,0.405,2.107,0.801,3.115,1.199c1.008,0.397,2.001,0.742,2.938,1.08c0.935,0.344,1.82,0.668,2.647,0.948
		c0.818,0.298,1.591,0.531,2.266,0.757c0.671,0.233,1.271,0.407,1.762,0.559c0.987,0.297,1.562,0.449,1.562,0.449
		s-0.455-0.383-1.295-0.979c-0.839-0.6-2.052-1.44-3.562-2.336C205.985,64.5,205.176,63.99,204.287,63.525z"/>
	<polygon fill="#73AB47" points="277.954,120.65 286.63,106.33 281.562,123.004 	"/>
</g>
<path fill="#00AEBC" d="M151.655,236.446l53.253-116.366c0,0,1.188-2.021,1.958-2.042c0.771-0.021,1.062,2.396,1.042,2.562
	c-0.021,0.168,1.736,7.738,9.375,11.375c2.188,1.043,1.5,4.334,1.5,4.334s-0.062,2.957-3.542,4.541
	c-0.78,0.355-2.083,0.668-3.271,1.646l0.854,2.292c0,0,1.25,1.604,1.167,3s-2.449,3.466-5.958,4.188
	c-1.521,0.312-3.729,4.916-3.729,4.916L177.157,211.9"/>
<path fill="#00AEBC" d="M208.906,184.947l8.481-36.42c0,0,0.49-1.516-0.885-2.994c-1.645-1.77-1.353-2.273-1.109-3.518
	c0.208-1.062,1.599-1.191,4.05-2.343c1.337-0.628,1.337-2.088,1.337-2.088l1.169-4.461c0,0,0.001-1.563-2.396-2.063
	c-2.396-0.5-8.964-4.043-10.522-11.948c-1.561-7.906,3.472-13.22,3.472-13.22s0.642-0.75-0.094-1.516
	c-0.735-0.767,0.438-2.767,0.438-2.767s10.781-18.719,16.845-27.062c0,0,10.307-12.617,14.75-12.75
	c0.688-0.021,0.344,1.844,0.312,2.438l-4.516,11.767c0,0-0.125,0.297-1.047,0.5c-0.923,0.203-1.642,1.078-1.642,1.078l0.031,3.062
	c0,0-1.828,0.281-2.25,1.219c0.234,3.406,0.234,3.406,0.234,3.406s-2.062,0.328-2.298,1.547c0.234,3.172-1.149,3.172-1.149,3.172
	s-3.604,0.198-3.604,1.678c0,1.479,0,3.542,0,3.542s-0.156,0.104-0.136,1.25c0,0,0.797,2.396,1.567,3.771
	c0.77,1.375,4.013,1.75,4.013,1.75s1.944,0.458,0.59,1.729c-1.354,1.271-2.934,2.875,1.17,4.104
	c4.104,1.229,7.97,1.295,6.856,11.042c-0.688,6.021-4.343,9.245-4.343,9.245s0.886,0.642,0.386,2.547c0,0,0.012,1.562-0.541,2.845
	c-1.131,2.62-3.303,6.173-3.575,7.516l-8.092,28.495"/>
<path fill="#008696" d="M170.916,215.4l31.797-63.084c0,0,1.46-2.935,4.515-3.342c3.36-0.447,4.674-3.635,2.965-6.955
	c3.383,4.018,3.934,5.436,3.934,5.436l-6.897,5.699l-4.796,7.531l-24.453,49.549L170.916,215.4z"/>
<circle fill="#C6D3DA" cx="225.284" cy="115.018" r="2"/>
<path fill="#00AEBC" d="M242.92,118.038c0,0,2.926,0.917,4.551-9.271c1.625-10.188,10-31.375,3-44.75c0,0-0.25-0.5-0.771,0.938
	c-0.52,1.438-4.438,9.917-4.438,9.917s-0.521,2.417,0.333,3.792c0.854,1.375-1.604,0.75-1.75,1.812
	c-0.146,1.062,0.75,1.021,0.75,2.312c0,1.292-2.438,1.208-2.542,2.312c-0.104,1.104,1.167,0.938,0.896,2.688
	c-0.271,1.75-2.604,0.292-2.854,1.833c-0.25,1.542,1.062,1.083,0.896,2.646c-0.167,1.562-2.688,0.208-2.979,2.062
	c-0.292,1.854,1.5,1.375-0.583,3.292s-3.5,1.322-3.5,4l0.647,2.083l-1.928,1.865l5.314,2.75l4.952,3.583L242.92,118.038"/>
<path fill="#424244" d="M225.283,118.518c-1.93,0-3.5-1.569-3.5-3.5c0-1.93,1.57-3.5,3.5-3.5s3.5,1.57,3.5,3.5
	C228.783,116.948,227.212,118.518,225.283,118.518z M225.283,114.518c-0.275,0-0.5,0.226-0.5,0.5c0,0.275,0.225,0.5,0.5,0.5
	c0.274,0,0.5-0.225,0.5-0.5C225.783,114.743,225.557,114.518,225.283,114.518z"/>
<path fill="#008696" d="M236.291,99.887c0,0,12.662,9.117,8.139,17.782c-2.361,4.526-0.646,0.207-0.646,0.207
	s-1.052-5.724-2.104-7.015c-1.051-1.29-1.976-4.563-5.838-6.614C231.981,102.195,235.636,99.507,236.291,99.887"/>
<path fill="#008696" d="M210.191,142.02c0,0-0.229-1.711,0.521-2.851c0.75-1.139,3.5-0.535,4.5-2.274
	c1-1.74,1.174-2.248,0.774-4.244s2.279,0.164,2.279,0.164l-1.298,6.279l-4.998,3.403"/>
<path fill="#008696" d="M242.283,105.829c0,0,2.306,1.726,2.866-0.676c0,0,3.504-11.396,4.75-24.562
	c0.422-4.452,0.648-9.109,0.398-13.187c-0.225-3.639-0.834-1.834-0.834-1.834l2.166-0.833l1.334,13l-7.559,37.279L242.283,105.829z"
	/>
<path fill="#424244" d="M243.114,119.561c-0.311,0-0.535-0.058-0.644-0.09l0.898-2.864c-0.223-0.068-0.32-0.044-0.324-0.041
	c0.019-0.005,1.772-0.689,2.942-8.033c0.385-2.404,1.107-5.304,1.948-8.66c2.438-9.762,5.697-22.813,2.361-32.467
	c-1.158,2.64-3.108,6.871-3.598,7.931c-0.133,0.762-0.166,1.996,0.17,2.538c0.533,0.857,0.443,1.547,0.273,1.974
	c-0.301,0.763-0.957,1.07-1.486,1.238c0.221,0.379,0.439,0.926,0.439,1.704c0,1.651-1.44,2.293-2.215,2.638
	c-0.004,0.001-0.008,0.003-0.012,0.005c0.37,0.487,0.766,1.271,0.562,2.586c-0.273,1.774-1.705,2.139-2.515,2.234
	c0.332,0.419,0.681,1.092,0.565,2.175c-0.206,1.929-1.989,2.155-2.661,2.241c-0.104,0.013-0.235,0.03-0.346,0.049
	c-0.002,0.088,0.025,0.136,0.103,0.269c0.837,1.477,0.187,2.526-1.134,3.741c-0.842,0.773-1.601,0.847-2.154,1.162
	c-0.861,0.49-0.861,1.018-0.861,1.018h-3c0-2,1.031-2.858,2.379-3.625c0.499-0.284,1.017-0.399,1.605-0.941
	c0.17-0.156,0.294-0.189,0.384-0.284c-0.207-0.428-0.419-1.038-0.267-2.003c0.294-1.865,1.838-2.226,2.663-2.35
	c-0.36-0.421-0.775-1.123-0.579-2.332c0.311-1.918,2.133-2.042,2.731-2.084c0.041-0.003,0.09-0.004,0.14-0.007
	c-0.002-0.027-0.005-0.037-0.005-0.037c-0.013-0.018-0.086-0.098-0.14-0.157c-0.288-0.322-0.889-0.99-0.781-2.125
	c0.132-1.397,1.363-1.946,2.101-2.274c0.105-0.047,0.241-0.106,0.357-0.165c-0.019-0.026-0.042-0.059-0.07-0.099
	c-0.261-0.358-0.743-1.025-0.589-2.149c0.146-1.05,0.898-1.535,1.529-1.783c-0.539-1.723-0.147-3.677-0.094-3.934l0.105-0.312
	c1.082-2.343,3.979-8.668,4.389-9.798c0.229-0.629,0.699-1.936,1.957-2.009c0.66-0.022,1.271,0.319,1.564,0.911
	c5.645,10.784,1.824,26.082-0.967,37.251c-0.82,3.29-1.529,6.13-1.895,8.406c-0.887,5.558-2.272,8.851-4.241,10.069
	C244.086,119.459,243.526,119.561,243.114,119.561z"/>
<path fill="#008696" d="M220.855,123.768c0,0,2.648,2.676,6.429,2.379c2.959-0.231,8.559-1.496,7.75-9.129
	c-1.482-13.976-7.365,6.51-7.365,6.51L220.855,123.768z"/>
<path fill="#424244" d="M225.283,122.643c-4.204,0-7.625-3.421-7.625-7.625s3.421-7.625,7.625-7.625s7.625,3.421,7.625,7.625
	S229.487,122.643,225.283,122.643z M225.283,110.393c-2.55,0-4.625,2.075-4.625,4.625s2.075,4.625,4.625,4.625
	s4.625-2.075,4.625-4.625S227.833,110.393,225.283,110.393z"/>
<path fill="#424244" d="M225.814,125.268c-5.083,0-9.22-4.248-9.22-9.469s4.137-9.469,9.22-9.469s9.219,4.248,9.219,9.469
	S230.897,125.268,225.814,125.268z M225.814,109.33c-3.43,0-6.22,2.901-6.22,6.469s2.79,6.469,6.22,6.469
	c3.429,0,6.219-2.901,6.219-6.469S229.243,109.33,225.814,109.33z"/>
<path fill="#008696" d="M216.184,134.141c0,0-9.823-6.567-11.222-13.361l1.904-2.741l4.221,8.051l6.84,4.532L216.184,134.141z"/>
<path fill="#424244" d="M153.018,237.068l-2.729-1.248l53.285-116.436l0.039-0.065c1.066-1.815,2.146-2.752,3.21-2.78
	c0.585-0.034,1.104,0.224,1.51,0.675c0.743,0.822,1.018,2.427,1.062,3.205c0.098,0.423,1.739,6.97,8.53,10.202
	c2.516,1.197,2.663,4.216,2.346,5.891c-0.069,0.779-0.584,3.963-4.409,5.704c-0.225,0.103-0.485,0.202-0.774,0.312
	c-0.413,0.156-0.857,0.324-1.299,0.558l0.366,0.979c0.433,0.604,1.43,2.185,1.333,3.812c-0.141,2.328-3.282,4.773-7.154,5.568
	c-0.45,0.238-1.769,2.203-2.678,4.097l-27.155,55.021l-2.688-1.328l27.146-55.006c0.938-1.955,2.814-5.319,4.771-5.723
	c3.089-0.634,4.681-2.294,4.765-2.816c0.032-0.547-0.492-1.508-0.857-1.982l-0.137-0.18l-1.311-3.508l0.824-0.68
	c1.078-0.89,2.196-1.312,3.014-1.619c0.22-0.082,0.42-0.156,0.591-0.234c2.55-1.16,2.663-3.188,2.663-3.207l0.031-0.275
	c0.003-0.016,0.379-2.523-0.678-3.025c-7.572-3.607-10.118-11.074-10.22-13.074h-0.007c-0.002,0-0.004,0.296-0.008,0.263
	c-0.058,0.087-0.112,0.351-0.164,0.437L153.018,237.068z"/>
<path fill="#7FCBA2" d="M145.586,253.725c-3.321-2.73-5.929,1.105-5.929,1.105s-56.375-88-76.208-119.292
	c-5.162-8.144-10.792-37.375-7.5-37.833c5.282-0.736,19.667,18.5,19.667,18.5l44.667,60.116l9.928,7.573l9.667,25.662
	L145.586,253.725z"/>
<path fill="#669B80" d="M115.369,169.768l22.01,73.221l-2.666,2.916c0,0,4.573,7.433,5.125,7.933s2.542-1.683,3.25-1.683
	c1.417,0,2.665-2.867,2.47-1.616c-0.195,1.252-0.312-3.86-0.312-3.86l-3.953-1.516l-21.763-71.311L115.369,169.768z"/>
<path fill="#DB2EA3" d="M146.451,248.352c-0.43-2.699-4.917-2.396-4.917-2.396s-32.81-107.707-42.25-138
	c-9.583-30.75-2.773-36.021-0.265-39.082c0.701-0.856,2.326-1.574,3.233,1.301l2.469,6.312l-3.28,3.438c0,0-1.188,1.281,0.594,1.688
	c1.782,0.406,5.406,0.53,5.406,0.53l-3.688,4.25c0,0-1.281,1.438,0.875,1.562s2.156,0.125,2.156,0.125l-1.281,1.938
	c0,0-0.844,1.345,0.969,1.595l5.125,0.438l-3.719,4.281c0,0-1.312,1.281,0.438,1.438c1.75,0.157,2.719,0.406,2.719,0.406
	l-1.656,1.969c0,0-0.594,1.188,1.219,1.438c1.813,0.25,4.845,0.625,4.845,0.625l-3.47,4.219c0,0-1.28,1.344,0.812,1.562
	c2.093,0.218,2.438,0.25,2.438,0.25l-1.75,2.188c0,0-0.469,0.875,1.095,1.062c1.562,0.187,5.062,0.844,5.062,0.844l-3.281,3.938
	c0,0-1.594,1.75,0.938,1.906s2.125,0.219,2.125,0.219l-1.531,1.938c0,0-1.25,1.219,0.594,1.406c1.845,0.188,5.125,0.688,5.125,0.688
	l-3.28,4.188c0,0-1.095,1.812,0.812,1.78c1.906-0.03,2.219,0.095,2.219,0.095l-1.5,1.969c0,0-1.094,1.281,1.312,1.562
	c2.406,0.281,4.812,0.595,4.812,0.595l-3.594,4.219c0,0-1.56,1.685,1.625,1.812c1.562,0.062,1.562,0.062,1.562,0.062l0,0
	l-1.656,1.844c0,0-1.156,1.438,1.438,1.656c2.595,0.219,4.5,0.375,4.5,0.375l-3.344,4.312c0,0-1.695,1.826,0.906,2.031
	c2.375,0.188,2.375,0.188,2.375,0.188l-1.781,1.719c0,0-1.188,1.594,1.031,1.812c2.219,0.218,5,0.625,5,0.625l-3.344,4.188
	c0,0-1.281,1.688,1.125,1.844c2.405,0.156,1.78,0.219,1.78,0.219l-1.5,1.875c0,0-1.25,1.312,1.095,1.5
	c2.344,0.188,4.812,0.688,4.812,0.688l-3.344,4.125c0,0-1.188,1.906,1.062,2.062c2.25,0.156,1.845,0.25,1.845,0.25l-1.156,1.562
	c0,0-1.25,1.875,1.031,2c2.28,0.125,4.844,0.438,4.844,0.438l-3.5,4.031c0,0-1.312,2,1.281,2.094
	c2.593,0.095,1.688,0.188,1.688,0.188l-1.406,1.845c0,0-0.905,1.75,1.095,1.75s4.78,0.438,4.78,0.438l0,0l-3.53,4.094
	c0,0-1.281,1.688,1.125,1.846c2.405,0.154,1.78,0.219,1.78,0.219l-1.5,1.875c0,0-1.25,1.312,1.095,1.5
	c2.344,0.188,4.812,0.688,4.812,0.688l-3.344,4.125c0,0-1.188,1.906,1.062,2.062s1.845,0.25,1.845,0.25l-1.156,1.562
	c0,0-1.25,1.875,1.031,2c2.28,0.125,4.844,0.438,4.844,0.438l-3.5,4.031c0,0-1.312,2,1.281,2.094
	c2.593,0.094,1.688,0.188,1.688,0.188l-1.406,1.844c0,0-0.905,1.75,1.095,1.75s4.78,0.438,4.78,0.438l-3.438,3.688
	c0,0-1.312,2,1.281,2.094c2.593,0.094,1.688,0.188,1.688,0.188l-1.406,1.844c0,0-0.905,1.75,1.095,1.75s4.78,0.438,4.78,0.438"/>
<g opacity="0.5">
	<path fill="none" stroke="#669B80" stroke-miterlimit="10" d="M133.391,224.393l-1.39,2.182l1.721-1.098
		C133.612,225.115,133.503,224.76,133.391,224.393z"/>
	<path fill="none" stroke="#669B80" stroke-miterlimit="10" d="M130.211,213.969l-0.693,1.086l0.857-0.547
		C130.322,214.328,130.266,214.15,130.211,213.969z"/>
	<path fill="none" stroke="#669B80" stroke-miterlimit="10" d="M128.091,207.02l-2.572,4.035l3.185-2.029
		C128.5,208.363,128.296,207.693,128.091,207.02z"/>
	<path fill="none" stroke="#669B80" stroke-miterlimit="10" d="M127.031,203.546l-3.513,5.509l4.348-2.771
		C127.59,205.379,127.312,204.467,127.031,203.546z"/>
	<polygon fill="none" stroke="#669B80" stroke-miterlimit="10" points="127.03,203.542 121.518,207.055 118.001,212.573 
		123.518,209.055 127.031,203.546 	"/>
	<path fill="none" stroke="#669B80" stroke-miterlimit="10" d="M128.703,209.025l-3.185,2.029L122,216.573l5.518-3.519l1.634-2.562
		C129.002,210.007,128.854,209.518,128.703,209.025z"/>
	<path fill="none" stroke="#669B80" stroke-miterlimit="10" d="M129.54,211.768l-2.021,1.287l-3.518,5.52l5.518-3.52l0.693-1.086
		C129.991,213.243,129.765,212.507,129.54,211.768z"/>
	<path fill="none" stroke="#669B80" stroke-miterlimit="10" d="M129.152,210.494l-1.634,2.561l2.021-1.287
		C129.412,211.346,129.282,210.92,129.152,210.494z"/>
	<path fill="none" stroke="#669B80" stroke-miterlimit="10" d="M127.867,206.283l-4.347,2.771l-3.519,5.519l5.519-3.519l2.571-4.035
		C128.016,206.775,127.942,206.53,127.867,206.283z"/>
	<path fill="none" stroke="#669B80" stroke-miterlimit="10" d="M124.789,196.201c-0.089-0.293-0.18-0.59-0.271-0.885l-4.113,2.623
		l-3.519,5.519l5.519-3.519L124.789,196.201z"/>
	<polygon fill="none" stroke="#669B80" stroke-miterlimit="10" points="114.886,201.458 111.369,206.977 116.886,203.458 
		120.405,197.939 	"/>
	<path fill="none" stroke="#669B80" stroke-miterlimit="10" d="M126.193,200.8l-1.156,0.737l-3.519,5.518l5.511-3.513
		C126.752,202.635,126.473,201.721,126.193,200.8z"/>
	<polygon fill="none" stroke="#669B80" stroke-miterlimit="10" points="116.886,203.458 113.369,208.977 118.886,205.458 
		122.405,199.939 	"/>
	<path fill="none" stroke="#669B80" stroke-miterlimit="10" d="M125.97,200.073c-0.204-0.668-0.408-1.341-0.614-2.015l-2.951,1.881
		l-3.519,5.519l6.151-3.921L125.97,200.073z"/>
	<polygon fill="none" stroke="#669B80" stroke-miterlimit="10" points="118.886,205.458 115.369,210.977 121.518,207.055 
		125.037,201.537 	"/>
	<path fill="none" stroke="#669B80" stroke-miterlimit="10" d="M123.727,192.729c-0.015-0.051-0.03-0.103-0.046-0.152l-5.276,3.363
		l-3.519,5.519l5.519-3.519L123.727,192.729z"/>
	<path fill="none" stroke="#669B80" stroke-miterlimit="10" d="M132.332,220.917l-2.33,3.655l2.885-1.84
		C132.704,222.137,132.518,221.53,132.332,220.917z"/>
	<path fill="none" stroke="#669B80" stroke-miterlimit="10" d="M129.518,215.055l-3.518,5.52l5.212-3.323
		c-0.274-0.899-0.553-1.813-0.836-2.742L129.518,215.055z"/>
	<path fill="none" stroke="#669B80" stroke-miterlimit="10" d="M131.272,217.443l-3.271,5.13l4.048-2.581
		C131.794,219.156,131.535,218.307,131.272,217.443z"/>
	<path fill="none" stroke="#669B80" stroke-miterlimit="10" d="M132.049,219.992l-4.048,2.581l-3.518,5.518l5.518-3.518l2.33-3.655
		C132.238,220.609,132.145,220.305,132.049,219.992z"/>
	<path fill="none" stroke="#669B80" stroke-miterlimit="10" d="M132.885,222.734L130,224.573l-3.518,5.518l5.518-3.518l1.39-2.181
		C133.225,223.85,133.055,223.292,132.885,222.734z"/>
	<path fill="none" stroke="#669B80" stroke-miterlimit="10" d="M72.13,146.402c0.415,0.652,0.836,1.313,1.265,1.986l2.996-4.701
		L72.13,146.402z"/>
	<path fill="none" stroke="#669B80" stroke-miterlimit="10" d="M81.91,140.168l-5.519,3.518l-2.996,4.701
		c0.072,0.115,0.146,0.229,0.22,0.346l4.777-3.047L81.91,140.168z"/>
	<path fill="none" stroke="#669B80" stroke-miterlimit="10" d="M79.91,138.168l-5.519,3.518l-2.634,4.131
		c0.123,0.193,0.249,0.392,0.373,0.586l4.261-2.717L79.91,138.168z"/>
	<path fill="none" stroke="#669B80" stroke-miterlimit="10" d="M83.91,142.168l-5.519,3.518l-3.36,5.271
		c0.021,0.035,0.044,0.068,0.065,0.104l5.294-3.375L83.91,142.168z"/>
	<path fill="none" stroke="#669B80" stroke-miterlimit="10" d="M73.614,148.732c0.466,0.73,0.937,1.472,1.417,2.225l3.36-5.271
		L73.614,148.732z"/>
	<path fill="none" stroke="#669B80" stroke-miterlimit="10" d="M80.391,147.686l-5.294,3.375c0.488,0.767,0.982,1.543,1.484,2.33
		l0.292-0.187L80.391,147.686z"/>
	<path fill="none" stroke="#669B80" stroke-miterlimit="10" d="M70.648,144.073c0.363,0.573,0.733,1.153,1.109,1.743l2.634-4.131
		L70.648,144.073z"/>
	<path fill="none" stroke="#669B80" stroke-miterlimit="10" d="M69.166,141.743c0.313,0.493,0.633,0.995,0.956,1.503l2.27-3.561
		L69.166,141.743z"/>
	<path fill="none" stroke="#669B80" stroke-miterlimit="10" d="M73.91,132.168l-5.519,3.518l-1.54,2.416
		c0.273,0.43,0.551,0.864,0.833,1.311l2.707-1.727L73.91,132.168z"/>
	<path fill="none" stroke="#669B80" stroke-miterlimit="10" d="M77.91,136.168l-5.519,3.518l-2.27,3.561
		c0.175,0.275,0.348,0.547,0.526,0.827l3.743-2.388L77.91,136.168z"/>
	<path fill="none" stroke="#669B80" stroke-miterlimit="10" d="M75.91,134.168l-5.519,3.518l-1.904,2.988
		c0.222,0.35,0.451,0.711,0.679,1.068l3.226-2.057L75.91,134.168z"/>
	<path fill="none" stroke="#669B80" stroke-miterlimit="10" d="M67.684,139.412c0.265,0.416,0.529,0.833,0.803,1.262l1.904-2.988
		L67.684,139.412z"/>
	<path fill="none" stroke="#669B80" stroke-miterlimit="10" d="M78.066,155.719c0.079,0.125,0.159,0.252,0.239,0.377l0.568-0.892
		L78.066,155.719z"/>
	<path fill="none" stroke="#669B80" stroke-miterlimit="10" d="M84.006,165.032c0.283,0.442,0.566,0.888,0.852,1.334l2.016-3.162
		L84.006,165.032z"/>
	<path fill="none" stroke="#669B80" stroke-miterlimit="10" d="M90.391,157.686l-5.518,3.519l-1.654,2.595
		c0.262,0.409,0.524,0.821,0.787,1.233l2.867-1.828L90.391,157.686z"/>
	<path fill="none" stroke="#669B80" stroke-miterlimit="10" d="M82.521,162.704c0.231,0.364,0.464,0.728,0.698,1.095l1.654-2.595
		L82.521,162.704z"/>
	<path fill="none" stroke="#669B80" stroke-miterlimit="10" d="M92.391,159.686l-5.518,3.519l-2.016,3.162
		c0.211,0.331,0.422,0.661,0.634,0.993l3.381-2.155L92.391,159.686z"/>
	<path fill="none" stroke="#669B80" stroke-miterlimit="10" d="M86.977,169.688c0.385,0.602,0.771,1.207,1.157,1.812l2.739-4.296
		L86.977,169.688z"/>
	<path fill="none" stroke="#669B80" stroke-miterlimit="10" d="M85.493,167.359c0.333,0.522,0.668,1.048,1.004,1.574l2.377-3.729
		L85.493,167.359z"/>
	<path fill="none" stroke="#669B80" stroke-miterlimit="10" d="M94.391,161.686l-5.518,3.519l-2.377,3.729
		c0.161,0.252,0.321,0.502,0.482,0.754l3.896-2.483L94.391,161.686z"/>
	<path fill="none" stroke="#669B80" stroke-miterlimit="10" d="M84.391,151.686l-5.518,3.519l-0.568,0.892
		c0.411,0.645,0.826,1.295,1.245,1.951l1.323-0.844L84.391,151.686z"/>
	<path fill="none" stroke="#669B80" stroke-miterlimit="10" d="M82.391,149.686l-5.518,3.519l-0.205,0.321
		c0.46,0.723,0.927,1.455,1.398,2.193l0.808-0.515L82.391,149.686z"/>
	<path fill="none" stroke="#669B80" stroke-miterlimit="10" d="M79.55,158.048c0.131,0.205,0.262,0.41,0.394,0.616l0.93-1.459
		L79.55,158.048z"/>
	<path fill="none" stroke="#669B80" stroke-miterlimit="10" d="M88.391,155.686l-5.518,3.519l-1.292,2.026
		c0.311,0.488,0.625,0.98,0.94,1.474l2.353-1.5L88.391,155.686z"/>
	<path fill="none" stroke="#669B80" stroke-miterlimit="10" d="M86.391,153.686l-5.518,3.519l-0.93,1.459
		c0.36,0.567,0.726,1.138,1.092,1.713l1.838-1.172L86.391,153.686z"/>
	<path fill="none" stroke="#669B80" stroke-miterlimit="10" d="M81.036,160.376c0.182,0.285,0.363,0.567,0.546,0.854l1.292-2.026
		L81.036,160.376z"/>
	<polygon fill="none" stroke="#669B80" stroke-miterlimit="10" points="85.91,144.168 91.427,140.65 91.651,140.3 90.105,138.219 
		89.427,138.65 	"/>
	<polygon fill="none" stroke="#669B80" stroke-miterlimit="10" points="91.755,140.441 91.651,140.3 91.427,140.65 	"/>
	<polygon fill="none" stroke="#669B80" stroke-miterlimit="10" points="87.91,146.168 93.408,142.663 91.755,140.441 91.427,140.65 
			"/>
	<polygon fill="none" stroke="#669B80" stroke-miterlimit="10" points="90.105,138.219 89.888,137.928 89.427,138.65 	"/>
	<polygon fill="none" stroke="#669B80" stroke-miterlimit="10" points="81.91,140.168 87.427,136.65 88.125,135.555 86.802,133.773 
		85.427,134.65 	"/>
	<polygon fill="none" stroke="#669B80" stroke-miterlimit="10" points="83.91,142.168 89.427,138.65 89.888,137.928 88.454,135.996 
		87.427,136.65 	"/>
	<polygon fill="none" stroke="#669B80" stroke-miterlimit="10" points="84.391,151.686 89.91,148.168 93.414,142.672 
		93.408,142.663 87.91,146.168 	"/>
	<polygon fill="none" stroke="#669B80" stroke-miterlimit="10" points="88.454,135.996 88.125,135.555 87.427,136.65 	"/>
	<polygon fill="none" stroke="#669B80" stroke-miterlimit="10" points="77.91,136.168 83.427,132.65 84.6,130.811 83.5,129.329 
		81.427,130.65 	"/>
	<polygon fill="none" stroke="#669B80" stroke-miterlimit="10" points="71.91,130.168 77.427,126.65 79.313,123.693 78.545,122.662 
		75.427,124.65 	"/>
	<polygon fill="none" stroke="#669B80" stroke-miterlimit="10" points="78.545,122.662 77.549,121.322 75.427,124.65 	"/>
	<polygon fill="none" stroke="#669B80" stroke-miterlimit="10" points="80.197,124.885 79.313,123.693 77.427,126.65 	"/>
	<polygon fill="none" stroke="#669B80" stroke-miterlimit="10" points="67.91,126.168 73.427,122.65 75.787,118.949 75.244,118.218 
		71.427,120.65 	"/>
	<polygon fill="none" stroke="#669B80" stroke-miterlimit="10" points="73.91,132.168 79.427,128.65 81.075,126.066 80.197,124.885 
		77.427,126.65 	"/>
	<polygon fill="none" stroke="#669B80" stroke-miterlimit="10" points="69.91,128.168 75.427,124.65 77.549,121.322 76.895,120.439 
		73.427,122.65 	"/>
	<polygon fill="none" stroke="#669B80" stroke-miterlimit="10" points="86.802,133.773 86.363,133.184 85.427,134.65 	"/>
	<polygon fill="none" stroke="#669B80" stroke-miterlimit="10" points="76.895,120.439 75.787,118.949 73.427,122.65 	"/>
	<polygon fill="none" stroke="#669B80" stroke-miterlimit="10" points="85.151,131.553 84.6,130.811 83.427,132.65 	"/>
	<polygon fill="none" stroke="#669B80" stroke-miterlimit="10" points="79.91,138.168 85.427,134.65 86.363,133.184 85.151,131.553 
		83.427,132.65 	"/>
	<polygon fill="none" stroke="#669B80" stroke-miterlimit="10" points="75.91,134.168 81.427,130.65 82.837,128.438 81.848,127.107 
		79.427,128.65 	"/>
	<polygon fill="none" stroke="#669B80" stroke-miterlimit="10" points="81.848,127.107 81.075,126.066 79.427,128.65 	"/>
	<polygon fill="none" stroke="#669B80" stroke-miterlimit="10" points="83.5,129.329 82.837,128.438 81.427,130.65 	"/>
	<polygon fill="none" stroke="#669B80" stroke-miterlimit="10" points="111.041,166.395 109.91,168.168 111.571,167.109 	"/>
	<polygon fill="none" stroke="#669B80" stroke-miterlimit="10" points="111.571,167.109 109.91,168.168 106.391,173.686 
		111.91,170.168 112.802,168.768 	"/>
	<polygon fill="none" stroke="#669B80" stroke-miterlimit="10" points="109.919,164.887 107.91,166.168 104.391,171.686 
		109.91,168.168 111.041,166.395 	"/>
	<polygon fill="none" stroke="#669B80" stroke-miterlimit="10" points="114.566,171.139 113.441,172.904 115.093,171.85 	"/>
	<polygon fill="none" stroke="#669B80" stroke-miterlimit="10" points="109.278,164.023 107.91,166.168 109.919,164.887 	"/>
	<polygon fill="none" stroke="#669B80" stroke-miterlimit="10" points="113.221,169.332 111.91,170.168 107.922,176.422 
		113.441,172.904 114.566,171.139 	"/>
	<polygon fill="none" stroke="#669B80" stroke-miterlimit="10" points="112.802,168.768 111.91,170.168 113.221,169.332 	"/>
	<polygon fill="none" stroke="#669B80" stroke-miterlimit="10" points="108.268,162.664 105.91,164.168 102.391,169.686 
		107.91,166.168 109.278,164.023 	"/>
	<polygon fill="none" stroke="#669B80" stroke-miterlimit="10" points="115.093,171.85 113.441,172.904 109.922,178.422 
		115.441,174.904 116.328,173.512 	"/>
	<path fill="none" stroke="#669B80" stroke-miterlimit="10" d="M121.922,190.422l0.922-0.588c-0.059-0.193-0.118-0.387-0.177-0.58
		L121.922,190.422z"/>
	<path fill="none" stroke="#669B80" stroke-miterlimit="10" d="M119.922,188.422l2.084-1.328c-0.133-0.437-0.267-0.875-0.4-1.312
		L119.922,188.422z"/>
	<polygon fill="none" stroke="#669B80" stroke-miterlimit="10" points="107.514,161.65 105.91,164.168 108.268,162.664 	"/>
	<path fill="none" stroke="#669B80" stroke-miterlimit="10" d="M96.391,163.686l-5.518,3.519l-2.739,4.296
		c0.11,0.172,0.22,0.344,0.329,0.516l4.409-2.811L96.391,163.686z"/>
	<polygon fill="none" stroke="#669B80" stroke-miterlimit="10" points="116.328,173.512 115.441,174.904 116.745,174.073 	"/>
	<path fill="none" stroke="#669B80" stroke-miterlimit="10" d="M118.923,177.004l-0.526-0.709l-0.956,0.609l-3.519,5.518
		l5.519-3.518l0.043-0.068C119.296,178.227,119.111,177.616,118.923,177.004z"/>
	<polygon fill="none" stroke="#669B80" stroke-miterlimit="10" points="116.745,174.073 115.441,174.904 111.922,180.422 
		117.441,176.904 118.09,175.884 	"/>
	<polygon fill="none" stroke="#669B80" stroke-miterlimit="10" points="118.09,175.884 117.441,176.904 118.397,176.295 	"/>
	<path fill="none" stroke="#669B80" stroke-miterlimit="10" d="M119.441,178.904l-3.519,5.518l4.409-2.811
		c-0.279-0.912-0.558-1.826-0.838-2.741L119.441,178.904z"/>
	<path fill="none" stroke="#669B80" stroke-miterlimit="10" d="M119.484,178.837l-0.043,0.067l0.053-0.034
		C119.491,178.859,119.487,178.848,119.484,178.837z"/>
	<polygon fill="none" stroke="#669B80" stroke-miterlimit="10" points="95.91,154.168 100.012,151.553 98.702,149.789 	"/>
	<polygon fill="none" stroke="#669B80" stroke-miterlimit="10" points="97.91,156.168 101.664,153.775 100.464,152.161 	"/>
	<polygon fill="none" stroke="#669B80" stroke-miterlimit="10" points="91.91,150.168 96.709,147.107 95.176,145.044 	"/>
	<polygon fill="none" stroke="#669B80" stroke-miterlimit="10" points="93.91,152.168 98.361,149.33 96.939,147.417 	"/>
	<path fill="none" stroke="#669B80" stroke-miterlimit="10" d="M117.922,186.422l3.247-2.07c-0.208-0.68-0.416-1.36-0.624-2.043
		L117.922,186.422z"/>
	<polygon fill="none" stroke="#669B80" stroke-miterlimit="10" points="103.91,162.168 106.618,160.441 105.752,159.277 	"/>
	<polygon fill="none" stroke="#669B80" stroke-miterlimit="10" points="99.91,158.168 103.315,155.998 102.226,154.534 	"/>
	<polygon fill="none" stroke="#669B80" stroke-miterlimit="10" points="101.91,160.168 104.965,158.221 103.99,156.906 	"/>
	<polygon fill="none" stroke="#669B80" stroke-miterlimit="10" points="119.441,178.904 113.922,182.422 110.405,187.939 
		115.922,184.422 	"/>
	<polygon fill="none" stroke="#669B80" stroke-miterlimit="10" points="102.405,179.939 98.886,185.458 104.405,181.939 
		107.922,176.422 	"/>
	<polygon fill="none" stroke="#669B80" stroke-miterlimit="10" points="107.91,166.168 102.391,169.686 98.874,175.204 
		104.391,171.686 	"/>
	<polygon fill="none" stroke="#669B80" stroke-miterlimit="10" points="92.391,159.686 88.874,165.204 94.391,161.686 
		97.91,156.168 	"/>
	<polygon fill="none" stroke="#669B80" stroke-miterlimit="10" points="98.874,175.204 95.356,180.723 100.874,177.204 
		104.391,171.686 	"/>
	<polygon fill="none" stroke="#669B80" stroke-miterlimit="10" points="111.91,170.168 106.391,173.686 102.405,179.939 
		107.922,176.422 	"/>
	<polygon fill="none" stroke="#669B80" stroke-miterlimit="10" points="100.874,177.204 96.886,183.458 102.405,179.939 
		106.391,173.686 	"/>
	<polygon fill="none" stroke="#669B80" stroke-miterlimit="10" points="109.91,168.168 104.391,171.686 100.874,177.204 
		106.391,173.686 	"/>
	<polygon fill="none" stroke="#669B80" stroke-miterlimit="10" points="105.91,164.168 100.391,167.686 96.874,173.204 
		102.391,169.686 	"/>
	<polygon fill="none" stroke="#669B80" stroke-miterlimit="10" points="103.99,156.906 103.315,155.998 99.91,158.168 
		96.391,163.686 101.91,160.168 	"/>
	<polygon fill="none" stroke="#669B80" stroke-miterlimit="10" points="107.514,161.65 106.618,160.441 103.91,162.168 
		100.391,167.686 105.91,164.168 	"/>
	<polygon fill="none" stroke="#669B80" stroke-miterlimit="10" points="102.226,154.534 101.664,153.775 97.91,156.168 
		94.391,161.686 99.91,158.168 	"/>
	<polygon fill="none" stroke="#669B80" stroke-miterlimit="10" points="94.391,161.686 90.874,167.204 96.391,163.686 
		99.91,158.168 	"/>
	<polygon fill="none" stroke="#669B80" stroke-miterlimit="10" points="98.391,165.686 94.874,171.204 100.391,167.686 
		103.91,162.168 	"/>
	<polygon fill="none" stroke="#669B80" stroke-miterlimit="10" points="96.391,163.686 92.874,169.204 98.391,165.686 
		101.91,160.168 	"/>
	<polygon fill="none" stroke="#669B80" stroke-miterlimit="10" points="105.752,159.277 104.965,158.221 101.91,160.168 
		98.391,165.686 103.91,162.168 	"/>
	<polygon fill="none" stroke="#669B80" stroke-miterlimit="10" points="96.874,173.204 93.356,178.723 98.874,175.204 
		102.391,169.686 	"/>
	<path fill="none" stroke="#669B80" stroke-miterlimit="10" d="M121.606,185.782c-0.146-0.476-0.291-0.952-0.438-1.429l-3.247,2.069
		l-3.518,5.519l5.518-3.519L121.606,185.782z"/>
	<polygon fill="none" stroke="#669B80" stroke-miterlimit="10" points="112.405,189.939 108.886,195.458 114.405,191.939 
		117.922,186.422 	"/>
	<path fill="none" stroke="#669B80" stroke-miterlimit="10" d="M120.544,182.309c-0.071-0.231-0.142-0.465-0.213-0.697l-4.409,2.811
		l-3.518,5.518l5.518-3.518L120.544,182.309z"/>
	<polygon fill="none" stroke="#669B80" stroke-miterlimit="10" points="114.405,191.939 110.886,197.458 116.405,193.939 
		119.922,188.422 	"/>
	<polygon fill="none" stroke="#669B80" stroke-miterlimit="10" points="113.441,172.904 107.922,176.422 104.405,181.939 
		109.922,178.422 	"/>
	<path fill="none" stroke="#669B80" stroke-miterlimit="10" d="M122.667,189.255c-0.219-0.719-0.439-1.438-0.66-2.161l-2.084,1.329
		l-3.518,5.519l5.518-3.519L122.667,189.255z"/>
	<polygon fill="none" stroke="#669B80" stroke-miterlimit="10" points="110.405,187.939 106.886,193.458 112.405,189.939 
		115.922,184.422 	"/>
	<polygon fill="none" stroke="#669B80" stroke-miterlimit="10" points="116.405,193.939 112.886,199.458 118.405,195.939 
		121.922,190.422 	"/>
	<polygon fill="none" stroke="#669B80" stroke-miterlimit="10" points="115.441,174.904 109.922,178.422 106.405,183.939 
		111.922,180.422 	"/>
	<polygon fill="none" stroke="#669B80" stroke-miterlimit="10" points="106.405,183.939 102.886,189.458 108.405,185.939 
		111.922,180.422 	"/>
	<polygon fill="none" stroke="#669B80" stroke-miterlimit="10" points="104.405,181.939 100.886,187.458 106.405,183.939 
		109.922,178.422 	"/>
	<path fill="none" stroke="#669B80" stroke-miterlimit="10" d="M122.843,189.835l-0.922,0.588l-3.518,5.519l5.276-3.363
		C123.404,191.666,123.125,190.753,122.843,189.835z"/>
	<polygon fill="none" stroke="#669B80" stroke-miterlimit="10" points="108.405,185.939 104.886,191.458 110.405,187.939 
		113.922,182.422 	"/>
	<polygon fill="none" stroke="#669B80" stroke-miterlimit="10" points="117.441,176.904 111.922,180.422 108.405,185.939 
		113.922,182.422 	"/>
	<polygon fill="none" stroke="#669B80" stroke-miterlimit="10" points="88.391,155.686 84.874,161.204 90.391,157.686 
		93.91,152.168 	"/>
	<polygon fill="none" stroke="#669B80" stroke-miterlimit="10" points="86.391,153.686 82.874,159.204 88.391,155.686 
		91.91,150.168 	"/>
	<polygon fill="none" stroke="#669B80" stroke-miterlimit="10" points="96.939,147.417 96.709,147.107 91.91,150.168 
		88.391,155.686 93.91,152.168 	"/>
	<polygon fill="none" stroke="#669B80" stroke-miterlimit="10" points="95.176,145.044 95.058,144.887 89.91,148.168 
		86.391,153.686 91.91,150.168 	"/>
	<polygon fill="none" stroke="#669B80" stroke-miterlimit="10" points="90.391,157.686 86.874,163.204 92.391,159.686 
		95.91,154.168 	"/>
	<polygon fill="none" stroke="#669B80" stroke-miterlimit="10" points="100.464,152.161 100.012,151.553 95.91,154.168 
		92.391,159.686 97.91,156.168 	"/>
	<polygon fill="none" stroke="#669B80" stroke-miterlimit="10" points="98.702,149.789 98.361,149.33 93.91,152.168 90.391,157.686 
		95.91,154.168 	"/>
	<path fill="none" stroke="#669B80" stroke-miterlimit="10" d="M65.91,124.168l-4.484,2.859c0.306,0.937,0.618,1.832,0.937,2.679
		l0.03-0.021L65.91,124.168z"/>
	<polygon fill="none" stroke="#669B80" stroke-miterlimit="10" points="84.391,151.686 80.874,157.204 86.391,153.686 
		89.91,148.168 	"/>
	<polygon fill="none" stroke="#669B80" stroke-miterlimit="10" points="89.427,138.65 83.91,142.168 80.391,147.686 85.91,144.168 	
		"/>
	<polygon fill="none" stroke="#669B80" stroke-miterlimit="10" points="93.414,142.672 89.91,148.168 95.058,144.887 	"/>
	<polygon fill="none" stroke="#669B80" stroke-miterlimit="10" points="80.391,147.686 76.874,153.204 82.391,149.686 
		85.91,144.168 	"/>
	<polygon fill="none" stroke="#669B80" stroke-miterlimit="10" points="82.391,149.686 78.874,155.204 84.391,151.686 
		87.91,146.168 	"/>
	<polygon fill="none" stroke="#669B80" stroke-miterlimit="10" points="75.91,134.168 72.391,139.686 77.91,136.168 81.427,130.65 	
		"/>
	<polygon fill="none" stroke="#669B80" stroke-miterlimit="10" points="79.91,138.168 76.391,143.686 81.91,140.168 85.427,134.65 	
		"/>
	<polygon fill="none" stroke="#669B80" stroke-miterlimit="10" points="77.91,136.168 74.391,141.686 79.91,138.168 83.427,132.65 	
		"/>
	<polygon fill="none" stroke="#669B80" stroke-miterlimit="10" points="81.91,140.168 78.391,145.686 83.91,142.168 87.427,136.65 	
		"/>
	<polygon fill="none" stroke="#669B80" stroke-miterlimit="10" points="91.427,140.65 85.91,144.168 82.391,149.686 87.91,146.168 	
		"/>
	<path fill="none" stroke="#669B80" stroke-miterlimit="10" d="M120.405,197.939l4.113-2.623c-0.263-0.859-0.525-1.721-0.791-2.59
		L120.405,197.939z"/>
	<path fill="none" stroke="#669B80" stroke-miterlimit="10" d="M122.405,199.939l2.951-1.881c-0.189-0.617-0.377-1.233-0.567-1.857
		L122.405,199.939z"/>
	<path fill="none" stroke="#669B80" stroke-miterlimit="10" d="M88.464,172.016c0.436,0.68,0.871,1.364,1.311,2.051l3.1-4.862
		L88.464,172.016z"/>
	<path fill="none" stroke="#669B80" stroke-miterlimit="10" d="M125.037,201.537l1.156-0.737c-0.074-0.243-0.148-0.483-0.223-0.727
		L125.037,201.537z"/>
	<path fill="none" stroke="#669B80" stroke-miterlimit="10" d="M66.391,133.686l-1.173,1.84c0.32,0.506,0.648,1.022,0.986,1.555
		l2.188-1.395l3.519-5.519L66.391,133.686z"/>
	<path fill="none" stroke="#669B80" stroke-miterlimit="10" d="M69.91,128.168l-5.519,3.518l-0.719,1.129
		c0.346,0.718,0.694,1.369,1.044,1.92c0.003,0.005,0.006,0.01,0.009,0.015l1.667-1.063L69.91,128.168z"/>
	<path fill="none" stroke="#669B80" stroke-miterlimit="10" d="M64.724,134.749c0.16,0.253,0.328,0.519,0.493,0.778l1.173-1.84
		L64.724,134.749z"/>
	<path fill="none" stroke="#669B80" stroke-miterlimit="10" d="M63.427,132.301c0.081,0.178,0.163,0.344,0.244,0.514l0.719-1.127
		L63.427,132.301z"/>
	<path fill="none" stroke="#669B80" stroke-miterlimit="10" d="M67.91,126.168l-5.519,3.518l-0.023,0.039
		c0.348,0.924,0.702,1.791,1.061,2.575l0.964-0.614L67.91,126.168z"/>
	<path fill="none" stroke="#669B80" stroke-miterlimit="10" d="M62.361,129.706c0.002,0.006,0.005,0.012,0.007,0.019l0.023-0.039
		L62.361,129.706z"/>
	<polygon fill="none" stroke="#669B80" stroke-miterlimit="10" points="71.91,130.168 68.391,135.686 73.91,132.168 77.427,126.65 	
		"/>
	<polygon fill="none" stroke="#669B80" stroke-miterlimit="10" points="73.91,132.168 70.391,137.686 75.91,134.168 79.427,128.65 	
		"/>
	<polygon fill="none" stroke="#669B80" stroke-miterlimit="10" points="69.91,128.168 73.427,122.65 67.91,126.168 64.391,131.686 	
		"/>
	<polygon fill="none" stroke="#669B80" stroke-miterlimit="10" points="67.91,126.168 71.427,120.65 65.91,124.168 62.391,129.686 	
		"/>
	<polygon fill="none" stroke="#669B80" stroke-miterlimit="10" points="71.91,130.168 75.427,124.65 69.91,128.168 66.391,133.686 	
		"/>
	<path fill="none" stroke="#669B80" stroke-miterlimit="10" d="M66.851,138.102l1.54-2.416l-2.188,1.396
		C66.417,137.416,66.632,137.756,66.851,138.102z"/>
	<path fill="none" stroke="#669B80" stroke-miterlimit="10" d="M110.971,207.23c0.039,0.062,0.079,0.123,0.118,0.185l0.279-0.438
		L110.971,207.23z"/>
	<path fill="none" stroke="#669B80" stroke-miterlimit="10" d="M114.886,201.458l-5.402,3.444c0.498,0.779,0.993,1.555,1.487,2.326
		l0.397-0.252L114.886,201.458z"/>
	<path fill="none" stroke="#669B80" stroke-miterlimit="10" d="M116.886,203.458l-5.518,3.519l-0.279,0.438
		c0.459,0.717,0.915,1.433,1.37,2.144l0.909-0.58L116.886,203.458z"/>
	<path fill="none" stroke="#669B80" stroke-miterlimit="10" d="M112.459,209.557c0.09,0.142,0.18,0.281,0.271,0.422l0.639-1.002
		L112.459,209.557z"/>
	<path fill="none" stroke="#669B80" stroke-miterlimit="10" d="M118.405,195.939l-5.519,3.519l-3.437,5.392
		c0.011,0.02,0.022,0.035,0.034,0.053l5.402-3.443L118.405,195.939z"/>
	<path fill="none" stroke="#669B80" stroke-miterlimit="10" d="M107.996,202.577c0.486,0.761,0.971,1.519,1.454,2.272l3.437-5.393
		L107.996,202.577z"/>
	<path fill="none" stroke="#669B80" stroke-miterlimit="10" d="M118.886,205.458l-5.518,3.519l-0.639,1.002
		c0.407,0.639,0.813,1.271,1.218,1.903l1.421-0.905L118.886,205.458z"/>
	<path fill="none" stroke="#669B80" stroke-miterlimit="10" d="M125.518,211.055l-5.518,3.52l-2.162,3.392
		c0.192,0.302,0.383,0.599,0.573,0.896l3.589-2.287L125.518,211.055z"/>
	<path fill="none" stroke="#669B80" stroke-miterlimit="10" d="M118.413,218.861c0.358,0.56,0.714,1.115,1.067,1.668l2.521-3.956
		L118.413,218.861z"/>
	<path fill="none" stroke="#669B80" stroke-miterlimit="10" d="M119.901,221.188c0.409,0.641,0.815,1.274,1.219,1.903l2.881-4.519
		L119.901,221.188z"/>
	<path fill="none" stroke="#669B80" stroke-miterlimit="10" d="M113.948,211.882c0.141,0.22,0.282,0.441,0.423,0.66l0.999-1.567
		L113.948,211.882z"/>
	<path fill="none" stroke="#669B80" stroke-miterlimit="10" d="M121.388,223.514c0.462,0.721,0.92,1.438,1.371,2.144l3.241-5.083
		L121.388,223.514z"/>
	<path fill="none" stroke="#669B80" stroke-miterlimit="10" d="M129.518,215.055l-5.518,3.52l-2.881,4.52
		c0.089,0.141,0.18,0.281,0.269,0.422l4.612-2.94L129.518,215.055z"/>
	<path fill="none" stroke="#669B80" stroke-miterlimit="10" d="M127.518,213.055l-5.518,3.52l-2.521,3.956
		c0.141,0.22,0.281,0.438,0.421,0.657l4.101-2.612L127.518,213.055z"/>
	<path fill="none" stroke="#669B80" stroke-miterlimit="10" d="M116.405,193.939l-5.519,3.519l-3.077,4.827
		c0.062,0.097,0.124,0.193,0.187,0.291l4.891-3.118L116.405,193.939z"/>
	<path fill="none" stroke="#669B80" stroke-miterlimit="10" d="M121.518,207.055l-6.149,3.922l-0.999,1.566
		c0.356,0.559,0.712,1.113,1.065,1.666l2.566-1.636L121.518,207.055z"/>
	<path fill="none" stroke="#669B80" stroke-miterlimit="10" d="M123.518,209.055l-5.518,3.52l-1.803,2.826
		c0.244,0.383,0.483,0.758,0.726,1.136l3.077-1.962L123.518,209.055z"/>
	<path fill="none" stroke="#669B80" stroke-miterlimit="10" d="M116.923,216.535c0.307,0.479,0.612,0.956,0.915,1.43l2.162-3.392
		L116.923,216.535z"/>
	<path fill="none" stroke="#669B80" stroke-miterlimit="10" d="M115.435,214.209c0.256,0.398,0.511,0.797,0.764,1.191l1.803-2.827
		L115.435,214.209z"/>
	<path fill="none" stroke="#669B80" stroke-miterlimit="10" d="M100.874,177.204l-5.518,3.519l-0.664,1.041
		c0.467,0.732,0.936,1.465,1.403,2.198l0.791-0.504L100.874,177.204z"/>
	<path fill="none" stroke="#669B80" stroke-miterlimit="10" d="M94.411,181.325c0.094,0.146,0.187,0.293,0.281,0.44l0.664-1.043
		L94.411,181.325z"/>
	<path fill="none" stroke="#669B80" stroke-miterlimit="10" d="M102.405,179.939l-5.519,3.519l-0.556,0.872
		c0.417,0.652,0.834,1.307,1.252,1.959l1.304-0.831L102.405,179.939z"/>
	<path fill="none" stroke="#669B80" stroke-miterlimit="10" d="M98.874,175.204l-5.518,3.519l-0.305,0.476
		c0.452,0.707,0.905,1.416,1.358,2.126l0.945-0.604L98.874,175.204z"/>
	<path fill="none" stroke="#669B80" stroke-miterlimit="10" d="M96.095,183.962c0.078,0.122,0.157,0.245,0.235,0.368l0.556-0.872
		L96.095,183.962z"/>
	<path fill="none" stroke="#669B80" stroke-miterlimit="10" d="M97.583,186.289c0.129,0.202,0.258,0.404,0.387,0.605l0.916-1.438
		L97.583,186.289z"/>
	<path fill="none" stroke="#669B80" stroke-miterlimit="10" d="M92.923,178.998c0.043,0.066,0.086,0.134,0.128,0.201l0.305-0.477
		L92.923,178.998z"/>
	<path fill="none" stroke="#669B80" stroke-miterlimit="10" d="M98.391,165.686l-5.518,3.519l-3.1,4.862
		c0.059,0.092,0.117,0.184,0.177,0.277l4.923-3.14L98.391,165.686z"/>
	<path fill="none" stroke="#669B80" stroke-miterlimit="10" d="M89.951,174.344c0.486,0.76,0.973,1.523,1.462,2.289l3.461-5.428
		L89.951,174.344z"/>
	<path fill="none" stroke="#669B80" stroke-miterlimit="10" d="M96.874,173.204l-5.437,3.466c0.493,0.773,0.989,1.549,1.486,2.327
		l0.433-0.274L96.874,173.204z"/>
	<path fill="none" stroke="#669B80" stroke-miterlimit="10" d="M100.391,167.686l-5.518,3.519l-3.461,5.428
		c0.008,0.013,0.016,0.025,0.024,0.038l5.437-3.466L100.391,167.686z"/>
	<path fill="none" stroke="#669B80" stroke-miterlimit="10" d="M99.07,188.616c0.18,0.28,0.359,0.563,0.54,0.844l1.276-2.003
		L99.07,188.616z"/>
	<path fill="none" stroke="#669B80" stroke-miterlimit="10" d="M112.405,189.939l-5.519,3.519l-2.356,3.698
		c0.164,0.256,0.327,0.512,0.491,0.767l3.866-2.465L112.405,189.939z"/>
	<path fill="none" stroke="#669B80" stroke-miterlimit="10" d="M103.533,195.598c0.333,0.521,0.665,1.039,0.997,1.56l2.356-3.698
		L103.533,195.598z"/>
	<path fill="none" stroke="#669B80" stroke-miterlimit="10" d="M110.405,187.939l-5.519,3.519l-1.997,3.133
		c0.216,0.335,0.43,0.671,0.644,1.007l3.354-2.14L110.405,187.939z"/>
	<path fill="none" stroke="#669B80" stroke-miterlimit="10" d="M105.02,197.923c0.384,0.601,0.767,1.2,1.148,1.798l2.718-4.264
		L105.02,197.923z"/>
	<path fill="none" stroke="#669B80" stroke-miterlimit="10" d="M114.405,191.939l-5.519,3.519l-2.718,4.263
		c0.113,0.178,0.227,0.354,0.339,0.529l4.379-2.792L114.405,191.939z"/>
	<path fill="none" stroke="#669B80" stroke-miterlimit="10" d="M100.557,190.943c0.231,0.361,0.463,0.722,0.692,1.082l1.637-2.567
		L100.557,190.943z"/>
	<path fill="none" stroke="#669B80" stroke-miterlimit="10" d="M106.405,183.939l-5.519,3.519l-1.276,2.003
		c0.315,0.494,0.632,0.988,0.947,1.482l2.329-1.485L106.405,183.939z"/>
	<path fill="none" stroke="#669B80" stroke-miterlimit="10" d="M102.044,193.27c0.282,0.44,0.563,0.881,0.844,1.32l1.997-3.133
		L102.044,193.27z"/>
	<path fill="none" stroke="#669B80" stroke-miterlimit="10" d="M106.507,200.25c0.436,0.68,0.869,1.359,1.302,2.035l3.077-4.827
		L106.507,200.25z"/>
	<path fill="none" stroke="#669B80" stroke-miterlimit="10" d="M108.405,185.939l-5.519,3.519l-1.637,2.567
		c0.265,0.416,0.53,0.83,0.795,1.244l2.842-1.812L108.405,185.939z"/>
	<path fill="none" stroke="#669B80" stroke-miterlimit="10" d="M104.405,181.939l-5.519,3.519l-0.916,1.437
		c0.366,0.574,0.733,1.147,1.101,1.723l1.816-1.158L104.405,181.939z"/>
	<path fill="none" stroke="#669B80" stroke-miterlimit="10" d="M131.272,217.443c-0.021-0.065-0.039-0.129-0.06-0.193L126,220.573
		l-3.241,5.083c0.04,0.062,0.078,0.121,0.117,0.183l5.123-3.266L131.272,217.443z"/>
	<path fill="none" stroke="#669B80" stroke-miterlimit="10" d="M128.001,222.573l-5.123,3.266c0.504,0.787,0.999,1.562,1.489,2.326
		l0.117-0.074L128.001,222.573z"/>
	<path fill="none" stroke="#669B80" stroke-miterlimit="10" d="M130.001,224.573l-5.518,3.518l-0.082,0.13
		c0.491,0.77,0.977,1.526,1.454,2.271l0.628-0.4L130.001,224.573z"/>
	<path fill="none" stroke="#669B80" stroke-miterlimit="10" d="M124.367,228.165c0.012,0.019,0.022,0.036,0.035,0.054l0.082-0.129
		L124.367,228.165z"/>
	<polygon fill="none" stroke="#669B80" stroke-miterlimit="10" points="127.03,203.542 127.031,203.546 127.037,203.537 	"/>
	<path fill="none" stroke="#669B80" stroke-miterlimit="10" d="M91.356,176.723l0.081-0.053c-0.009-0.013-0.017-0.025-0.024-0.038
		L91.356,176.723z"/>
	<polygon fill="none" stroke="#669B80" stroke-miterlimit="10" points="93.427,142.65 93.408,142.663 93.414,142.672 	"/>
</g>
<path fill="#A22070" d="M101.042,70.625c0,0-4.907,3.26-2.273,19.598c1.162,7.208,35.367,118.92,44.821,149.433
	c0.175,0.565,16.09-15.772,16.248-15.263c1.238,3.994-13.407,21.096-13.407,21.096l-2.468,0.416l-3.5-2.668L99.284,107.955
	l-4.873-28.016c0,0,2.244-8.648,2.98-9.093c0.737-0.444,3.858-2.414,3.858-2.414L101.042,70.625z"/>
<path fill="#669B80" d="M57.92,99.529c0,0,0.842,11.825,2.792,18.688c3.679,12.951,5.419,15.975,10.197,23.793
	s67.386,104.811,67.386,104.811l-4.574-1.247L61.424,131.811l-5.034-18.689l-0.22-15.438L57.92,99.529z"/>
<path fill="#424244" d="M160.033,223.436l0.663-0.869c0.502-0.312,0.725-0.846,0.708-1.326c-0.048-1.439-1.205-1.52-3.13-1.59
	l3.044-3.266c0.378-0.406,0.501-0.988,0.319-1.513c-0.181-0.524-0.637-0.906-1.185-0.992c-0.107-0.018-2.428-0.379-4.421-0.444
	l0.663-0.869c0.502-0.312,0.725-0.846,0.708-1.326c-0.048-1.445-1.215-1.521-3.155-1.592l3.167-3.646
	c0.363-0.419,0.467-1.004,0.268-1.521c-0.198-0.52-0.668-0.883-1.219-0.95c-0.102-0.013-2.379-0.288-4.578-0.425l0.822-1.11
	c0.264-0.301,0.412-0.699,0.38-1.112c-0.104-1.32-1.182-1.462-2.975-1.59l3.053-3.767c0.33-0.407,0.424-0.958,0.247-1.451
	c-0.178-0.494-0.601-0.858-1.114-0.963c-0.095-0.021-2.152-0.435-4.335-0.653l0.678-0.847c0.324-0.287,0.533-0.699,0.526-1.144
	c-0.023-1.349-1.068-1.517-2.822-1.638l3.011-3.489c0.354-0.412,0.46-0.984,0.271-1.496c-0.188-0.512-0.637-0.881-1.175-0.965
	c-0.107-0.019-2.428-0.38-4.421-0.445l0.663-0.869c0.502-0.312,0.725-0.846,0.708-1.327c-0.049-1.445-1.216-1.521-3.155-1.591
	l3.167-3.646c0.363-0.419,0.467-1.004,0.268-1.521c-0.198-0.519-0.668-0.883-1.219-0.95c-0.102-0.013-2.379-0.288-4.578-0.425
	l0.822-1.11c0.264-0.301,0.412-0.699,0.38-1.112c-0.104-1.32-1.182-1.462-2.975-1.59l3.053-3.767
	c0.33-0.407,0.424-0.958,0.247-1.451c-0.178-0.494-0.602-0.858-1.114-0.963c-0.095-0.021-2.153-0.435-4.335-0.653l0.678-0.847
	c0.324-0.287,0.533-0.699,0.526-1.144c-0.024-1.356-1.082-1.518-2.858-1.64l2.896-3.625c0.336-0.419,0.421-0.985,0.224-1.485
	c-0.196-0.5-0.646-0.855-1.179-0.935c-0.105-0.017-2.39-0.349-4.482-0.572l1.059-1.021c0.424-0.409,0.568-1.03,0.37-1.586
	c-0.199-0.555-0.706-0.942-1.294-0.988l-1.943-0.153l3.073-3.964c0.337-0.436,0.409-1.02,0.188-1.523
	c-0.221-0.502-0.702-0.846-1.251-0.891c0,0-1.766-0.145-4.21-0.351l0.923-1.027c0.389-0.433,0.492-1.05,0.267-1.585
	c-0.227-0.536-0.741-0.893-1.322-0.916l-1.545-0.062l3.033-3.561c0.356-0.419,0.456-0.999,0.258-1.513
	c-0.198-0.513-0.661-0.877-1.206-0.947c0,0-2.21-0.287-4.517-0.56l0.892-1.17c0.284-0.373,0.377-0.856,0.253-1.309
	c-0.125-0.451-0.454-0.818-0.89-0.992c-0.162-0.065-0.475-0.189-1.899-0.205l2.773-3.541c0.329-0.418,0.409-0.981,0.214-1.478
	c-0.196-0.496-0.643-0.851-1.169-0.931c-0.11-0.018-2.268-0.344-4.066-0.567l0.761-0.963c0.272-0.289,0.435-0.682,0.415-1.099
	c-0.06-1.31-0.933-1.465-3.002-1.601l2.852-3.422c0.341-0.408,0.438-0.967,0.259-1.468s-0.611-0.868-1.135-0.968
	c-0.121-0.021-2.549-0.477-4.27-0.734l0.757-0.946c0.346-0.432,0.426-1.017,0.209-1.524c-0.216-0.507-0.692-0.855-1.242-0.906
	c-0.016-0.001-0.283-0.026-1.575-0.16l2.814-3.424c0.349-0.422,0.438-1,0.235-1.51c-0.203-0.508-0.666-0.864-1.209-0.933
	c0,0-2.496-0.309-4.306-0.552l0.861-1.025c0.332-0.395,0.438-0.932,0.281-1.422c-0.157-0.491-0.555-0.867-1.054-0.996
	c-0.032-0.008-0.604-0.154-1.627-0.296l2.946-3.392c0.37-0.427,0.471-1.024,0.258-1.547c-0.212-0.523-0.699-0.884-1.263-0.932
	l-4.523-0.384l0.835-1.263c0.296-0.447,0.33-1.02,0.09-1.499s-0.719-0.794-1.254-0.826l-1.235-0.071l2.938-3.386
	c0.379-0.438,0.474-1.052,0.242-1.582c-0.23-0.53-0.745-0.88-1.323-0.9c-0.806-0.027-2.879-0.139-4.329-0.352l2.644-2.771
	c0.402-0.422,0.524-1.039,0.312-1.582l-2.45-6.268c-0.703-2.183-1.876-2.841-2.738-3.007c-1.3-0.253-2.437,0.484-3.068,1.258
	c-0.14,0.17-0.292,0.347-0.455,0.535c-4.583,5.297-7.7,13.802,0.446,39.944c3.677,11.794,10.96,35.538,18.458,60.055l-39.491-53.15
	c-3.499-4.678-15.312-19.868-21.075-19.087c-0.436,0.062-1.239,0.323-1.736,1.398c-2.195,4.742,3.382,31.161,8.177,38.725
	c19.607,30.938,75.647,118.416,76.213,119.297l1.226,1.914l1.277-1.879c0.179-0.264,1.046-1.273,2.021-1.414
	c0.545-0.08,1.109,0.125,1.715,0.623l1.904-2.318c-1.588-1.305-3.076-1.411-4.046-1.272c-1.046,0.149-1.92,0.631-2.587,1.146
	c-7.706-12.03-57.048-89.078-75.19-117.701c-4.734-7.471-9.278-31.439-8.116-35.531c2.394-1.521,24.803,27.24,17.812,17.896
	l44.508,59.902c10.676,34.925,20.991,68.785,21.175,69.39c0.202,0.664,0.825,1.104,1.532,1.06c0.825-0.056,3.178,0.12,3.339,1.135
	l2.963-0.471c-0.424-2.662-3.136-3.528-5.288-3.659c-3.438-11.285-33.096-108.605-41.93-136.948
	c-8.771-28.152-3.552-34.188-1.042-37.088c0.182-0.21,0.353-0.407,0.507-0.596c0.062-0.075,0.128-0.131,0.183-0.167
	c0.096,0.112,0.275,0.385,0.46,0.967c0.01,0.032,0.021,0.063,0.034,0.095l2.119,5.422l-2.637,2.763
	c-0.184,0.197-1.08,1.251-0.692,2.509c0.183,0.585,0.685,1.349,2.054,1.661c0.72,0.164,1.688,0.284,2.624,0.372l-1.691,1.948
	c-0.557,0.625-1.008,1.642-0.603,2.619c0.228,0.55,0.775,1.212,2.095,1.398c-0.207,0.405-0.543,1.304-0.106,2.24
	c0.259,0.553,0.857,1.253,2.325,1.453l2.187,0.188l-1.75,2.015c-0.346,0.354-1.182,1.365-0.763,2.539
	c0.167,0.47,0.668,1.275,2.147,1.414c-0.049,0.067-0.092,0.138-0.129,0.211c-0.268,0.534-0.404,1.387,0.013,2.178
	c0.284,0.538,0.92,1.221,2.343,1.416c0.634,0.088,1.414,0.19,2.163,0.287l-1.713,2.083c-0.544,0.597-0.983,1.553-0.633,2.507
	c0.21,0.57,0.751,1.273,2.129,1.497l-0.037,0.048c-0.058,0.071-0.107,0.147-0.15,0.229c-0.251,0.469-0.388,1.227-0.013,1.946
	c0.384,0.737,1.142,1.181,2.249,1.312c0.61,0.073,1.544,0.225,2.438,0.377l-1.587,1.905c-0.22,0.24-1.283,1.51-0.729,2.876
	c0.226,0.554,0.76,1.217,2.025,1.457c-0.442,0.575-0.74,1.367-0.461,2.166c0.205,0.588,0.762,1.32,2.248,1.473
	c0.702,0.07,1.629,0.19,2.497,0.31l-1.684,2.147c-0.037,0.049-0.072,0.099-0.104,0.149c-0.163,0.271-0.941,1.683-0.234,2.91
	c0.208,0.36,0.68,0.921,1.655,1.094c-0.312,0.532-0.498,1.274-0.208,2.015c0.363,0.928,1.286,1.482,2.741,1.653
	c0.7,0.082,1.402,0.166,2.044,0.245l-1.752,2.059c-0.553,0.597-1.045,1.658-0.619,2.688c0.353,0.854,1.123,1.257,1.851,1.452
	c-0.323,0.565-0.514,1.362-0.182,2.137c0.402,0.942,1.377,1.485,2.894,1.613c0.628,0.053,1.216,0.103,1.746,0.146l-1.616,2.084
	c-0.309,0.353-1.255,1.577-0.74,2.894c0.216,0.553,0.729,1.216,1.951,1.489c-0.27,0.498-0.593,1.384-0.185,2.306
	c0.268,0.604,0.92,1.36,2.51,1.519c0.75,0.072,1.57,0.17,2.323,0.264l-1.714,2.147c-0.178,0.234-1.033,1.466-0.445,2.753
	c0.225,0.49,0.701,1.067,1.721,1.346c-0.416,0.568-0.686,1.373-0.375,2.188c0.352,0.918,1.252,1.439,2.676,1.555
	c0.728,0.06,1.473,0.149,2.146,0.246l-1.725,2.127c-0.039,0.049-0.075,0.1-0.108,0.151c-0.162,0.261-0.939,1.631-0.275,2.931
	c0.251,0.492,0.766,1.078,1.815,1.321c-0.271,0.56-0.592,1.546-0.112,2.505c0.299,0.596,0.981,1.323,2.546,1.409
	c0.63,0.034,1.283,0.084,1.898,0.137l-1.605,1.851c-0.044,0.052-0.084,0.104-0.121,0.16c-0.173,0.264-0.998,1.642-0.312,2.971
	c0.252,0.486,0.76,1.054,1.784,1.312c-0.151,0.301-0.72,1.586-0.021,2.734c0.327,0.539,1.021,1.182,2.459,1.182
	c0.561,0,1.193,0.038,1.808,0.092l-1.752,2.033c-0.178,0.233-1.033,1.465-0.445,2.752c0.225,0.49,0.701,1.067,1.721,1.346
	c-0.416,0.568-0.686,1.373-0.375,2.188c0.352,0.918,1.252,1.438,2.676,1.556c0.728,0.06,1.473,0.148,2.146,0.246l-1.725,2.127
	c-0.039,0.049-0.075,0.1-0.108,0.15c-0.162,0.262-0.939,1.631-0.275,2.932c0.251,0.491,0.766,1.078,1.815,1.32
	c-0.271,0.561-0.592,1.546-0.112,2.505c0.299,0.597,0.981,1.323,2.546,1.409c0.63,0.034,1.283,0.084,1.898,0.139l-1.605,1.851
	c-0.044,0.051-0.084,0.104-0.121,0.159c-0.173,0.264-0.998,1.642-0.312,2.971c0.252,0.486,0.76,1.054,1.784,1.312
	c-0.151,0.301-0.72,1.586-0.021,2.733c0.327,0.539,1.021,1.183,2.459,1.183c0.518,0,1.098,0.031,1.667,0.08l-1.422,1.521
	c-0.058,0.062-0.109,0.129-0.155,0.197c-0.173,0.265-0.998,1.643-0.312,2.972c0.252,0.485,0.76,1.054,1.784,1.312
	c-0.151,0.301-0.72,1.586-0.021,2.734c0.327,0.539,1.021,1.182,2.459,1.182c1.855,0,4.521,0.416,4.549,0.42l0.466-2.963
	C164.346,223.861,162.026,223.501,160.033,223.436z"/>
<path fill="#008696" d="M233.802,81.589c0,0-1.806-4.331,2.239-4.539s2.233,3.042,2.233,3.042l-4.455,1.755"/>
<path fill="#008696" d="M236.21,77.05c0,0-1.188-3.469,2.858-3.677s1.375,1.719,1.375,1.719l-4.104,1.958"/>
<path fill="#008696" d="M231.802,86.589c0,0-1.806-4.331,2.239-4.539s2.233,3.042,2.233,3.042l-4.455,1.755"/>
<path fill="#008696" d="M228.802,91.589c0,0-1.806-4.331,2.239-4.539s2.233,3.042,2.233,3.042l-4.455,1.755"/>
<path fill="#008696" d="M226.545,96.062c0,0-1.258-4.78,1.56-5.011c2.816-0.229,1.555,3.358,1.555,3.358l-3.103,1.938"/>
<path fill="#EAC412" d="M340.019,122.193c0,0,2.584,10.146,1.766,13.803c-0.82,3.658,0.068,3.693,0,6.676
	c-0.07,2.982,0.16,8.285-32.32,37.75l-28.072,25.465l-74.163,68.469c0,0-25.016,27.55-47.321,7
	c-2.667-1.535-8.075-10.668-10.95-14.812"/>
<g>
	<path fill="#C7A814" d="M176.045,285.867c-6.875,0-13.292-2.62-18.979-7.826l1.013-1.107c9.104,8.336,19.719,9.717,31.549,4.104
		c8.905-4.229,15.169-11.018,15.231-11.085l75.024-68.829l28.387-25.586c32.238-29.061,32.363-34.615,32.424-37.284l0.752-0.082
		l0.748,0.116c-0.072,3.316-0.197,8.87-32.92,38.363l-28.381,25.584l-74.974,68.777c-0.216,0.239-6.479,7.029-15.648,11.383
		C185.379,284.712,180.611,285.867,176.045,285.867z"/>
</g>
<g>
	<path fill="#C7A814" d="M175.729,281.887c-6.779,0-13.053-2.609-18.665-7.771l1.016-1.104c5.634,5.18,11.938,7.668,18.774,7.348
		c14.771-0.656,27.188-14.123,27.312-14.26l73.945-66.133l27.945-27.298c31.791-28.78,31.914-34.276,31.977-36.918l0.752-0.081
		l0.748,0.114c-0.074,3.284-0.197,8.782-32.447,37.978l-27.949,27.299l-73.916,66.103c-0.468,0.521-12.91,14.009-28.299,14.694
		C176.523,281.878,176.125,281.887,175.729,281.887z"/>
</g>
<path fill="#424244" d="M178.125,290.471c-6.95,0-13.378-2.658-19.125-7.91c-2.142-1.355-5.013-5.609-8.806-11.434
	c-0.923-1.417-1.772-2.721-2.472-3.729l2.466-1.709c0.718,1.033,1.593,2.377,2.52,3.8c2.486,3.817,6.245,9.587,7.945,10.565
	l0.269,0.196c5.502,5.067,11.658,7.483,18.301,7.192c14.52-0.647,26.771-13.963,26.895-14.098l0.093-0.095l74.164-68.469
	l28.082-25.474c31.65-28.711,31.77-34.022,31.826-36.576l0.002-0.1c0.023-1.01-0.072-1.604-0.176-2.234
	c-0.184-1.133-0.355-2.203,0.211-4.734c0.607-2.71-1.061-10.379-1.754-13.105l2.906-0.74c0.275,1.074,2.648,10.606,1.775,14.502
	c-0.441,1.967-0.33,2.65-0.18,3.599c0.109,0.667,0.244,1.498,0.215,2.784c-0.078,3.52-0.207,9.249-32.812,38.826l-28.07,25.465
	l-74.107,68.417c-0.994,1.081-13.496,14.338-28.935,15.026C178.945,290.461,178.534,290.471,178.125,290.471z"/>
<g>
	<path fill="#FDD311" d="M188.378,275.904c0,0,0.5,3.916-4.25,5.25c-4.75,1.332-4.417,3.832-4.167,7.166s-2.167,8.584-8.583,6.75
		c-5.098-1.456-6.083-8.832-1.333-12c1.149-0.766,3.16-1.485,2.75-3.041"/>
	<path fill="#424244" d="M173.881,296.95c-0.866,0-1.835-0.128-2.915-0.437c-2.847-0.813-4.914-3.234-5.395-6.317
		c-0.52-3.322,0.877-6.53,3.642-8.373c0.25-0.167,0.537-0.333,0.834-0.505c0.42-0.24,1.201-0.689,1.312-0.938l2.887-0.733
		c0.623,2.36-1.541,3.604-2.703,4.271c-0.236,0.137-0.465,0.268-0.665,0.398c-2.128,1.42-2.604,3.728-2.342,5.414
		c0.303,1.943,1.52,3.398,3.255,3.896c2.019,0.577,3.644,0.378,4.831-0.59c1.418-1.155,1.95-3.196,1.845-4.604l-0.021-0.283
		c-0.244-3.193-0.521-6.813,5.277-8.44c3.265-0.916,3.209-3.188,3.165-3.636l2.979-0.359c0.229,1.799-0.589,5.553-5.333,6.885
		c-3.43,0.963-3.34,2.149-3.098,5.323l0.021,0.286c0.155,2.069-0.522,5.186-2.941,7.155
		C177.541,296.16,176.03,296.95,173.881,296.95z"/>
</g>
<path fill="none" stroke="#424244" stroke-width="3" stroke-miterlimit="10" d="M179.06,292.38"/>
<g>
	<path fill="none" stroke="#424244" stroke-width="3" stroke-miterlimit="10" d="M177.573,294.202"/>
</g>
<path fill="none" stroke="#424244" stroke-miterlimit="10" d="M172.696,289.509"/>
<g>
	<path fill="#FFFFFF" d="M175.962,290.321c0-1.749-1.418-3.167-3.167-3.167s-3.167,1.418-3.167,3.167s1.418,3.167,3.167,3.167
		S175.962,292.07,175.962,290.321"/>
	<path fill="#424244" d="M172.795,294.986c-2.573,0-4.667-2.092-4.667-4.666c0-2.572,2.094-4.666,4.667-4.666
		s4.667,2.094,4.667,4.666C177.462,292.895,175.369,294.986,172.795,294.986z M172.795,288.654c-0.919,0-1.667,0.748-1.667,1.666
		c0,0.92,0.748,1.666,1.667,1.666s1.667-0.746,1.667-1.666C174.462,289.402,173.714,288.654,172.795,288.654z"/>
</g>
<g>
	<path fill="#424244" d="M175.878,322.071c-4.237,0-6.349-8.618-6.349-16.625s1.983-16.625,5.983-16.625v3
		c-1,0.138-2.983,4.94-2.983,13.625c0,8.684,2.312,13.485,3.261,13.625c0.942-0.138,3.21-4.939,3.21-13.625
		c0-4.242-0.888-8.929-1.735-11.488l2.86-0.94c0.95,2.873,1.915,7.83,1.915,12.431C182.041,313.453,180.117,322.071,175.878,322.071
		z"/>
</g>
<g>
	<path fill="#424244" d="M171.878,322.071c-4.237,0-6.167-8.618-6.167-16.625s1.93-16.625,6.167-16.625
		c0.781,0,1.941,0.312,3.028,1.805l-2.424,1.769c-0.378-0.52-0.605-0.571-0.607-0.571c-0.942,0.138-3.164,4.938-3.164,13.625
		c0,8.684,2.222,13.485,3.169,13.625c0.942-0.14,3.164-4.938,3.164-13.625c0-3.265-0.322-6.341-0.932-8.896l2.918-0.695
		c0.663,2.781,1.014,6.099,1.014,9.593C178.045,313.453,176.117,322.071,171.878,322.071z"/>
</g>
<path fill="#008696" d="M222.292,171.686c0,0,8.742-32.771,10.136-35.035c0,0,4.462-4.326,3.413-8.443
	c2.393-0.111,2.837,1.961,2.837,1.961l-0.062,0.475l-2.22,6.25l-3.252,8.875l-6.843,23.699L222.292,171.686"/>
<path fill="#008696" d="M239.751,110.941c0,0,2.836,11.252-3.909,17.266c4.65-3.039,4.65-3.039,4.65-3.039l1.791-13.651
	L239.751,110.941z"/>
<g>
	<path fill="#E85C30" d="M291.964,117.046l-11.393-25.579c0,0-1.408-4.458,1.277-8.296c0,0-9.021,1.633-11.746-4.588
		c-2.727-6.221,3.064-12.625,3.064-12.625s-11.43,2.78-14.154-3.441c-2.727-6.221,2.887-13.138,2.887-13.138
		s-11.473,2.889-14.266-3.484c-2.794-6.373,5.566-14.904,5.566-14.904l-6.151,0.284c0,0-0.943-0.178-1.113-0.877
		c-0.17-0.698,1.26-1.279,1.26-1.279l9.61-1.847c0,0,1.793-0.058,2.346,1.201c0.484,1.107-0.574,2.876-1.283,4.338
		c-1.818,3.749-5.387,6.91-4.365,9.966c0,0,2.234,0.757,5.594,0.414c4.402-0.447,10.32-1.781,11.486,0.881
		c2.057,4.693-7.078,12.29-5.807,15.191s14.574-3.385,16.582,1.194c2.006,4.58-6.904,12.17-5.398,15.604
		c1.504,3.435,14.352-3.918,16.688,2.059c1.502,3.845-6.223,11.233-4.584,14.974c0,0,0.354,3.712,6.795,3.982
		c6.441,0.27,6.371,2.394,6.371,2.394l11.824,25.207"/>
	<path fill="#C5492A" d="M291.61,79.154c0,0-10.188,3.518-15.104,2.736c-4.914-0.781-5.365-4.851-5.365-4.851
		s2.963,3.099,5.738,3.779c1.801,0.443,12.541-0.667,13.801-2.94C290.681,77.88,292.142,77.951,291.61,79.154z"/>
	<path fill="#C5492A" d="M280.12,62.435c0,0-9.58,4.092-14.43,3.459s-5.723-5.256-5.723-5.256s3.562,3.75,6.391,3.665
		s12.791-0.792,13.625-3.242C279.983,61.061,280.243,62.134,280.12,62.435z"/>
	<path fill="#C5492A" d="M269.435,46.02c0,0-10.586,3.794-15.434,3.161c-4.85-0.633-5.408-5.596-5.408-5.596
		s3.301,3.749,6.131,3.749c2.693,0,13.178-0.37,14.486-2.658C269.208,44.676,269.655,45.31,269.435,46.02z"/>
	<path fill="#C5492A" d="M256.458,44.678c0,0-5.369,0.978-6.666-3.427c-0.754-2.563,5.766-9.502,5.766-9.502
		s-4.418,6.193-3.742,8.566C253.116,44.887,255.687,44.611,256.458,44.678z"/>
	<path fill="#C5492A" d="M268.144,61.524c0,0-3.781,1.444-5.766-3.085c-1.484-3.386,4.57-10.454,4.57-10.454
		s-3.088,8.139-2.211,10.648C265.614,61.145,267.36,61.432,268.144,61.524z"/>
	<path fill="#C5492A" d="M279.862,78.512c0,0-4.041,1.254-6.193-3.659c-1.609-3.672,3.643-8.109,3.643-8.109
		s-2.15,5.647-1.188,8.365C277.083,77.828,279.048,78.396,279.862,78.512z"/>
	<path fill="#C5492A" d="M294.61,98.106c0,0-6.793-0.093-9.742-6.822c-2.205-5.031,2.023-8.461,2.023-8.461s0.42,6.262,1.906,9.912
		C290.282,96.387,294.052,97.704,294.61,98.106z"/>
	<path fill="#C5492A" d="M293.034,116.096c0,0-4.951-10.703-5.156-12.297c-0.203-1.594,1.186-3.045,3.451-2.445
		c2.266,0.601,9.107,4.197,9.643,3.963c0.535-0.233,2.562,4.064,2.562,4.064l2.215,3.896l3.857,8.806L293.034,116.096z"/>
	<path fill="#424244" d="M246.487,27.79c-1.525,0.668-2.291,1.793-2.008,2.963c0.294,1.209,1.418,1.832,2.291,1.997l0.348,0.024
		l2.735-0.127c-2.458,3.282-5.735,8.967-3.594,13.852c2.217,5.055,8.557,5.307,12.565,4.904c-1.518,2.857-3.09,7.368-1.186,11.718
		c2.139,4.88,8.301,5.207,12.297,4.853c-1.549,2.728-3.074,6.949-1.205,11.212c2.143,4.892,7.33,5.697,10.586,5.686
		c-1.238,3.579-0.229,6.879-0.176,7.049l0.061,0.158l11.393,25.578l2.742-1.221l-11.35-25.482c-0.139-0.509-0.959-3.989,1.092-6.921
		l2.09-2.985l-3.586,0.649c-0.074,0.013-7.891,1.336-10.104-3.715c-2.311-5.27,2.752-10.96,2.805-11.017l3.258-3.604l-4.725,1.141
		c-0.102,0.024-10.275,2.327-12.43-2.585c-2.32-5.295,2.629-11.531,2.68-11.593l2.805-3.48l-4.336,1.081
		c-0.104,0.026-10.312,2.421-12.525-2.631c-1.952-4.453,3.141-11.078,5.266-13.254l2.662-2.725l-3.705,0.171l3.709-0.712
		c0.314,0.019,0.766,0.137,0.838,0.303c0.088,0.396-0.605,1.775-0.939,2.438c-0.109,0.218-0.217,0.434-0.318,0.643
		c-0.541,1.113-1.275,2.212-1.984,3.273c-1.662,2.484-3.381,5.052-2.455,7.822l0.236,0.707l0.707,0.238
		c0.104,0.034,2.584,0.855,6.227,0.485c0.758-0.077,1.561-0.18,2.377-0.285c2.643-0.339,7.064-0.906,7.584,0.275
		c0.82,1.877-1.383,5.187-3.154,7.847c-1.9,2.854-3.543,5.317-2.654,7.346c1.037,2.366,4.443,1.763,8.387,1.063
		c3.008-0.533,7.553-1.339,8.195,0.131c0.762,1.732-1.129,4.775-2.797,7.46c-1.857,2.997-3.615,5.827-2.6,8.145
		c1.131,2.581,4.564,1.923,8.199,1.226c4.301-0.824,7.656-1.29,8.465,0.776c0.49,1.258-1.021,4.005-2.234,6.212
		c-1.656,3.006-3.365,6.113-2.398,8.638c0.227,1.072,1.488,4.778,8.18,5.059c3.6,0.15,4.678,0.9,4.926,1.133l-0.002,0.072
		l11.979,25.534l2.717-1.273l-11.723-24.986c-0.209-1.123-1.459-3.212-7.77-3.478c-4.922-0.206-5.355-2.568-5.369-2.669
		l-0.115-0.417c-0.525-1.202,0.988-3.955,2.205-6.167c1.674-3.041,3.404-6.186,2.402-8.751c-1.781-4.556-7.586-3.442-11.824-2.631
		c-1.637,0.313-4.375,0.84-4.938,0.451c-0.33-0.806,1.277-3.399,2.455-5.293c2.057-3.313,4.387-7.069,2.994-10.247
		c-1.592-3.631-6.84-2.701-11.469-1.88c-1.723,0.305-4.264,0.756-5.119,0.54c0.064-0.812,1.518-2.995,2.408-4.332
		c2.289-3.438,4.885-7.335,3.404-10.714c-1.422-3.24-6.145-2.633-10.715-2.047c-0.787,0.102-1.564,0.201-2.297,0.276
		c-1.811,0.184-3.264,0.015-4.119-0.146c0.057-1.248,1.064-2.756,2.201-4.456c0.768-1.146,1.561-2.332,2.191-3.632l0.299-0.604
		c0.801-1.59,1.709-3.392,1.008-4.991c-0.756-1.729-2.725-2.133-3.768-2.099l-0.236,0.026l-9.889,1.929
		C246.583,27.749,246.534,27.769,246.487,27.79z"/>
</g>
<path fill="#D9B40D" d="M172.295,282.321c0,0,5.196,1.003,8.25,0s7.75-6,7.75-6l-16.417,4.517L172.295,282.321z"/>
<g>
	<path fill="#424244" d="M173.881,296.95c-0.866,0-1.835-0.128-2.915-0.437c-2.847-0.813-4.914-3.234-5.395-6.317
		c-0.52-3.322,0.877-6.53,3.642-8.373c0.25-0.167,0.537-0.333,0.834-0.505c0.42-0.24,1.201-0.689,1.312-0.938l2.887-0.733
		c0.623,2.36-1.541,3.604-2.703,4.271c-0.236,0.137-0.465,0.268-0.665,0.398c-2.128,1.42-2.604,3.728-2.342,5.414
		c0.303,1.943,1.52,3.398,3.255,3.896c2.019,0.577,3.644,0.378,4.831-0.59c1.418-1.155,1.95-3.196,1.845-4.604l-0.021-0.283
		c-0.244-3.193-0.521-6.813,5.277-8.44c3.265-0.916,3.209-3.188,3.165-3.636l2.979-0.359c0.229,1.799-0.589,5.553-5.333,6.885
		c-3.43,0.963-3.34,2.149-3.098,5.323l0.021,0.286c0.155,2.069-0.522,5.186-2.941,7.155
		C177.541,296.16,176.03,296.95,173.881,296.95z"/>
</g>
<g>
	<path fill="#FDD311" d="M340.284,125.705c0-12.565-9.963-22.75-22.25-22.75c-5.033,0-9.678,1.712-13.404,4.594
		c-25.361,18.033-58.686,46.172-84.679,68.073c-25.053,21.108-51.042,42.5-64.75,56.667c-8.587,8.874-8.495,15.656-9.034,17.544
		l0.003-0.002c-2.825,11.237,4.361,23.517,16.927,28.196c8.898,3.312,18.245,1.974,24.797-2.762l0,0
		c29.823-19.918,145.27-132.879,145.543-133.148C337.653,137.977,340.284,132.156,340.284,125.705z"/>
	<g>
		<path fill="#424244" d="M144.723,249.42c0.069-0.242,0.122-0.581,0.194-1.004c0.472-2.779,1.577-9.289,9.204-17.171
			c11.852-12.248,32.505-29.59,54.37-47.951c3.491-2.933,7.001-5.878,10.491-8.819l1.441-1.215
			c26.014-21.918,58.389-49.195,83.334-66.934c4.105-3.175,9.059-4.871,14.273-4.871c13.096,0,23.75,10.879,23.75,24.25
			c0,6.654-2.594,12.861-7.299,17.48c-1.158,1.136-116.105,113.519-145.761,133.324c-4.305,3.113-9.86,4.846-15.599,4.846
			c0,0,0,0-0.001,0c-3.572,0-7.123-0.646-10.554-1.926c-11.574-4.31-18.897-14.701-18.513-25.371L144.723,249.42z M147.624,250.193
			c-2.682,10.672,4.194,22.031,15.995,26.427c3.094,1.151,6.293,1.735,9.507,1.735h0.001c5.111,0,10.043-1.529,13.887-4.31
			c29.473-19.687,144.216-131.873,145.373-133.004c4.125-4.049,6.398-9.496,6.398-15.339c0-11.719-13.357-21.458-20.75-21.25
			c-4.545,0.128-8.865,1.479-12.488,4.279c-24.893,17.701-57.215,44.937-83.187,66.818l-1.442,1.217
			c-3.492,2.94-7.003,5.89-10.495,8.821c-21.805,18.312-42.399,35.604-54.144,47.739c-4.576,4.729-6.565,8.789-7.523,11.79
			L147.624,250.193z"/>
	</g>
	<g>
		<path opacity="0.5" fill="#D9B40D" enable-background="new    " d="M150.19,241.614c1.214-1.944,2.819-4.062,5.01-6.326
			c13.708-14.167,39.697-34.558,64.75-55.667c25.994-21.9,59.317-50.039,84.678-68.073c3.354-2.593,6.357-6.581,10.812-6.886
			c-0.52-0.038,2.361-0.417,1.832-0.417c-4.941,0-11.797,4.388-15.428,7.218c-24.721,17.701-57.161,45.322-82.465,66.82
			c-24.389,20.72-49.691,40.718-63.011,54.624c-3.252,3.396-5.202,6.471-6.414,9.079c0.061-0.1,0.128-0.204,0.192-0.307
			c0.017-0.027,0.03-0.056,0.048-0.082C150.194,241.604,150.193,241.609,150.19,241.614z"/>
		<path opacity="0.5" fill="#D9B40D" enable-background="new    " d="M150.196,238.598c-0.018,0.028-0.031,0.055-0.048,0.084
			c0.014-0.021,0.027-0.045,0.042-0.066C150.193,238.609,150.194,238.604,150.196,238.598z"/>
		<path opacity="0.5" fill="#D9B40D" enable-background="new    " d="M150.196,238.598c-0.018,0.028-0.031,0.055-0.048,0.084
			c0.014-0.021,0.027-0.045,0.042-0.066C150.193,238.609,150.194,238.604,150.196,238.598z"/>
		<path opacity="0.5" fill="#D9B40D" enable-background="new    " d="M318.315,104.247c-0.506,0-2.932,0.416-3.43,0.45
			c11.34,0.822,19.977,7.965,20.096,19.758c0.064,6.332-2.961,11.748-7.061,15.812c-0.27,0.264-138.939,121.562-138.939,121.562
			c-6.386,5-15.992,11.21-24.762,7.958c-12.384-4.593-16.926-12.886-14.265-23.917c0,0,3.315-9.334,3.297-9.314
			c-4.895,5.43-6.697,11.906-7.087,13.275l0.003-0.002c-2.825,11.236,4.361,23.518,16.927,28.195
			c8.898,3.312,18.245,1.975,24.797-2.762l0,0c29.823-19.918,145.269-132.88,145.542-133.147c4.219-4.14,6.852-9.96,6.852-16.411
			C340.284,113.141,330.604,104.247,318.315,104.247z"/>
	</g>
	<g>
		<path opacity="0.5" fill="#D9B40D" enable-background="new    " d="M150.19,241.614c1.214-1.944,2.819-4.062,5.01-6.326
			c13.708-14.167,39.697-34.558,64.75-55.667c25.994-21.9,59.317-50.039,84.678-68.073c3.354-2.593,6.357-6.581,10.812-6.886
			c-0.52-0.038,2.361-0.417,1.832-0.417c-4.941,0-11.797,4.388-15.428,7.218c-24.721,17.701-57.161,45.322-82.465,66.82
			c-24.389,20.72-49.691,40.718-63.011,54.624c-3.252,3.396-5.202,6.471-6.414,9.079c0.061-0.1,0.128-0.204,0.192-0.307
			c0.017-0.027,0.03-0.056,0.048-0.082C150.194,241.604,150.193,241.609,150.19,241.614z"/>
		<path opacity="0.5" fill="#D9B40D" enable-background="new    " d="M150.196,238.598c-0.018,0.028-0.031,0.055-0.048,0.084
			c0.014-0.021,0.027-0.045,0.042-0.066C150.193,238.609,150.194,238.604,150.196,238.598z"/>
		<path opacity="0.5" fill="#D9B40D" enable-background="new    " d="M150.196,238.598c-0.018,0.028-0.031,0.055-0.048,0.084
			c0.014-0.021,0.027-0.045,0.042-0.066C150.193,238.609,150.194,238.604,150.196,238.598z"/>
		<path opacity="0.5" fill="#D9B40D" enable-background="new    " d="M318.315,104.247c-0.506,0-2.932,0.416-3.43,0.45
			c11.34,0.822,19.977,7.965,20.096,19.758c0.064,6.332-2.961,11.748-7.061,15.812c-0.27,0.264-136.958,124.137-136.958,124.137
			c-6.385,5-20.354,11.002-29.125,7.75c-12.384-4.592-14.543-15.252-11.881-26.282c0,0,3.315-9.334,3.297-9.313
			c-4.895,5.431-5.239,12.27-5.63,13.637l0,0c-2.825,11.236,3.43,21.746,15.995,26.427c8.897,3.312,17.722,3.379,24.272-1.356l0,0
			c29.823-19.918,145.27-132.879,145.543-133.147c4.219-4.14,7.84-13.595,6.584-19.923
			C337.671,110.361,330.604,104.247,318.315,104.247z"/>
	</g>
</g>
<g>
	<path fill="#424244" d="M176.634,261.402c-0.528-0.035-0.95-0.197-1.261-0.486c-0.312-0.288-0.492-0.62-0.539-0.996
		c-0.048-0.375,0.04-0.752,0.265-1.131c0.226-0.378,0.603-0.668,1.132-0.87c0.269-0.052,0.495-0.116,0.682-0.192
		c0.186-0.078,0.45-0.179,0.793-0.303c0.315-0.124,0.636-0.3,0.964-0.527c0.328-0.229,0.604-0.479,0.83-0.754
		c0.477-0.521,0.791-0.979,0.94-1.377c0.148-0.396,0.18-0.757,0.095-1.082c-0.086-0.324-0.267-0.648-0.54-0.975
		c-0.275-0.325-0.597-0.676-0.966-1.053c-0.33,0.613-0.695,1.188-1.098,1.727c-0.401,0.539-0.882,1.028-1.438,1.469
		c-1.084,0.851-2.199,1.321-3.343,1.412c-1.146,0.092-2.219-0.084-3.22-0.529c-1.001-0.442-1.882-1.104-2.641-1.983
		s-1.297-1.851-1.612-2.914c-0.173-0.622-0.235-1.293-0.186-2.015c0.049-0.721,0.206-1.43,0.47-2.122
		c0.264-0.694,0.627-1.332,1.087-1.915c0.46-0.582,1.008-1.04,1.643-1.371c0.374-0.182,0.74-0.355,1.1-0.521
		c0.359-0.168,0.737-0.302,1.135-0.399c0.058-0.505,0.275-0.942,0.653-1.313c0.378-0.369,0.859-0.522,1.442-0.462
		c0.138,0.023,0.294,0.05,0.467,0.077c0.173,0.029,0.306,0.09,0.397,0.184c1.427,1.429,2.838,2.861,4.236,4.304
		c1.397,1.442,2.802,2.884,4.213,4.325c0.567,0.578,1.009,1.201,1.327,1.867c0.317,0.664,0.494,1.356,0.529,2.074
		c0.034,0.719-0.081,1.445-0.349,2.182c-0.267,0.735-0.701,1.463-1.302,2.186c-0.315,0.359-0.635,0.701-0.961,1.021
		c-0.326,0.318-0.693,0.61-1.1,0.879c-0.555,0.383-1.143,0.694-1.765,0.935s-1.26,0.456-1.914,0.647L176.634,261.402z
		 M173.224,252.67c0.93-0.355,1.619-0.854,2.069-1.492c0.45-0.638,0.785-1.408,1.005-2.31l-3.146-3.213
		c-0.813,0.03-1.498,0.168-2.059,0.411c-0.56,0.246-1.088,0.677-1.585,1.295c-0.051,0.156-0.104,0.302-0.162,0.436
		c-0.057,0.135-0.117,0.273-0.182,0.415c0.005,0.628,0.075,1.175,0.208,1.638s0.341,0.866,0.621,1.213s0.623,0.645,1.028,0.894
		c0.404,0.251,0.88,0.491,1.425,0.724c0.11,0.022,0.243,0.024,0.397,0.006C173.001,252.665,173.127,252.66,173.224,252.67z"/>
	<path fill="#424244" d="M171.874,234.162c-0.429-0.557-0.599-1.107-0.511-1.657c0.088-0.548,0.312-0.993,0.676-1.334
		c0.363-0.342,0.813-0.54,1.356-0.596c0.54-0.056,1.036,0.132,1.486,0.562c0.479,0.43,0.695,0.91,0.65,1.442
		s-0.236,0.997-0.574,1.394s-0.775,0.646-1.313,0.75c-0.536,0.104-1.073-0.043-1.608-0.443L171.874,234.162z M186.068,242.784
		c0.233,0.299,0.364,0.639,0.391,1.022c0.027,0.383-0.029,0.732-0.166,1.053c-0.138,0.318-0.366,0.582-0.686,0.789
		c-0.32,0.207-0.702,0.293-1.147,0.252c-0.251-0.019-0.484-0.086-0.701-0.203s-0.422-0.26-0.615-0.428
		c-0.192-0.166-0.375-0.346-0.545-0.535c-0.171-0.188-0.327-0.357-0.474-0.506c-0.793-0.779-1.569-1.563-2.326-2.354
		c-0.758-0.788-1.533-1.572-2.326-2.354c-0.316-0.322-0.658-0.629-1.025-0.916c-0.367-0.284-0.665-0.635-0.894-1.045
		c-0.163-0.313-0.237-0.648-0.224-1.006c0.014-0.355,0.103-0.682,0.266-0.975c0.164-0.292,0.396-0.531,0.692-0.717
		c0.297-0.187,0.646-0.252,1.049-0.196c0.501,0.038,0.88,0.187,1.137,0.45c0.258,0.263,0.571,0.583,0.94,0.96
		c0.449,0.458,0.896,0.916,1.345,1.374c0.449,0.458,0.898,0.902,1.349,1.332c0.647,0.632,1.289,1.271,1.922,1.918
		s1.266,1.293,1.899,1.939L186.068,242.784z"/>
</g>
<path fill="#424244" d="M210.367,185.287l-2.922-0.68l8.515-36.541c0.008-0.036,0.159-0.742-0.557-1.514
	c-1.74-1.873-1.882-2.916-1.541-4.545l0.058-0.281c0.305-1.549,1.638-2.076,3.049-2.636c0.52-0.204,1.131-0.446,1.836-0.776
	c0.446-0.211,0.476-0.727,0.476-0.73l0.049-0.38l1.073-4.097c-0.118-0.183-0.445-0.433-1.154-0.58
	c-3.096-0.646-10.027-4.704-11.688-13.127c-1.485-7.534,2.447-12.878,3.571-14.22c-1.088-1.482,0.033-3.667,0.422-4.33
	c0.437-0.757,10.886-18.874,16.924-27.186c1.847-2.264,11.04-13.222,15.92-13.368c0.52-0.023,1.021,0.188,1.38,0.577
	c0.75,0.809,0.615,2.081,0.508,3.102c-0.016,0.135-0.027,0.252-0.031,0.337l-0.014,0.237l-4.602,11.987
	c-0.301,0.716-1.01,1.182-2.124,1.427c-0.142,0.031-0.31,0.134-0.457,0.246l0.038,3.714l-1.285,0.198
	c-0.312,0.051-0.69,0.173-0.937,0.292l0.283,4.117l-1.355,0.216c-0.353,0.06-0.803,0.23-1.01,0.374
	c0.101,1.917-0.143,3.089-0.777,3.771c-0.324,0.352-1.114,0.562-1.552,0.588c-0.58,0.043-0.947,0.227-1.947,0.397v4.634
	l-0.313,0.091c0.19,0.792,0.744,2.111,1.179,2.887c0.204,0.354,1.649,0.848,2.825,0.994l0.219,0.032
	c0.286,0.07,1.757,0.488,2.104,1.811c0.128,0.487,0.192,1.457-0.888,2.47c-0.208,0.195-0.691,0.654-0.91,0.964
	c0.196,0.135,0.618,0.359,1.455,0.61c0.357,0.105,0.716,0.205,1.066,0.302c3.746,1.031,7.992,2.2,6.833,12.346
	c-0.538,4.717-2.748,7.869-3.993,9.31c0.197,0.614,0.277,1.438,0.028,2.508c-0.017,0.537-0.11,1.961-0.664,3.244
	c-0.504,1.169-1.181,2.465-1.835,3.719c-0.685,1.31-1.534,2.938-1.648,3.5l-0.025,0.112l-8.094,28.495l-2.887-0.82l8.08-28.446
	c0.205-0.927,0.866-2.221,1.914-4.229c0.63-1.206,1.28-2.452,1.741-3.52c0.346-0.804,0.421-1.894,0.421-2.246l0.049-0.385
	c0.154-0.586,0.104-0.923,0.059-1.049l-1.386-1.007l1.407-1.237c0.026-0.023,3.244-2.964,3.854-8.289
	c0.866-7.595-1.21-8.167-4.647-9.114c-0.372-0.103-0.75-0.206-1.129-0.319c-1.367-0.409-3.229-1.146-3.619-2.801
	c-0.304-1.291,0.43-2.351,1.199-3.159c-1.246-0.276-3.176-0.919-3.965-2.327c-0.859-1.534-1.368-3.935-1.425-4.203l-0.389-0.275
	c-0.017-0.931,0.386-1.629,0.386-2.093V91.66c0-1.836,2.122-2.768,3.908-3.074c0.033-0.316,0.231-0.839,0.17-1.665l0.075-0.198
	l0.083-0.195c0.244-1.272,1.316-1.978,2.214-2.354l-0.167-2.589l0.16-0.343c0.417-0.926,1.318-1.454,2.109-1.75l-0.024-2.446
	l0.347-0.422c0.176-0.213,1.118-1.291,2.478-1.591c0.058-0.014,0.106-0.025,0.148-0.037l3.867-11.102
	c0.007-0.072-0.368-0.151-0.368-0.235c0-0.004,0-0.01,0-0.015c-3,1.498-8.476,7.467-12.056,11.85
	c-5.894,8.115-16.401,26.675-16.509,26.861c-0.221,0.381-0.326,0.908-0.372,1.189c0.89,1.114,0.727,2.485,0.016,3.318
	c-0.23,0.248-4.499,4.944-3.115,11.954c1.49,7.56,7.873,10.458,9.37,10.771c2.834,0.592,3.596,2.499,3.595,3.533l-0.046,0.379
	l-1.127,4.311c-0.072,0.937-0.592,2.467-2.19,3.217c-0.78,0.365-1.461,0.636-2.006,0.853c-0.458,0.181-1.016,0.401-1.233,0.543
	l-0.041,0.198c-0.154,0.74-0.175,0.837,0.802,1.889c1.517,1.631,1.499,3.498,1.237,4.402L210.367,185.287z"/>
<g>
	<path fill="#424244" d="M88.845,333.766c0.938,0,3.683,2.021,7.075,2.021c3.031,0,4.401-1.083,4.401-3.25
		c0-6.352-14.436-2.6-14.436-15.52c0-7.219,5.125-11.693,13.281-11.693c2.383,0,10.682,0.505,10.682,4.549
		c0,0.938-1.658,5.341-3.104,5.341c-0.721,0-2.886-1.516-6.135-1.516c-2.453,0-3.898,0.794-3.898,2.599
		c0,5.27,14.438,2.526,14.438,15.375c0,7.578-5.414,12.561-13.497,12.561c-6.281,0-12.632-1.66-12.632-5.125
		C85.02,337.661,87.33,333.766,88.845,333.766z"/>
	<path fill="#424244" d="M136.341,320.266v-2.384c0-2.741-1.659-4.114-5.63-4.114c-5.268,0-8.372,2.312-9.239,2.312
		c-1.516,0-3.753-4.259-3.753-5.772c0-2.453,5.773-4.981,13.786-4.981c11.406,0,15.521,5.054,15.521,12.054v13.572
		c0,7.435,0.864,8.949,0.864,10.466c0,1.731-6.278,2.31-8.083,2.31c-2.31,0-2.456-3.031-2.888-4.98
		c-0.505,0.938-3.971,5.486-10.612,5.486c-7.794,0-10.682-4.621-10.682-10.539C115.625,327.771,118.008,320.266,136.341,320.266z
		 M129.846,335.786c2.742,0,5.342-1.95,6.495-4.55v-3.969c-6.856,0-10.104,1.877-10.104,5.342
		C126.238,334.414,127.463,335.786,129.846,335.786z"/>
	<path fill="#424244" d="M173.517,305.323c5.125,0,11.982,1.661,11.982,4.981c0,1.372-2.597,5.557-3.825,5.557
		c-0.289,0-0.721-0.215-1.299-0.504c-1.299-0.649-3.247-1.588-6.279-1.588c-5.775,0-8.155,3.607-8.155,10.974
		c0,7.435,2.236,11.044,7.724,11.044c3.391,0,5.701-1.01,7.073-1.661c0.578-0.216,1.01-0.433,1.299-0.433
		c1.588,0,3.753,4.043,3.753,5.483c0,4.046-10.25,5.056-12.63,5.056c-12.343,0-18.192-6.281-18.192-19.2
		C154.965,312.182,160.595,305.323,173.517,305.323z"/>
	<path fill="#424244" d="M191.709,291.537c0-1.516,1.299-2.311,4.331-2.311h2.021c3.03,0,4.33,0.795,4.33,2.311v28.585l0.289,0.069
		l8.734-13.064c0.867-1.227,2.31-1.37,4.404-1.37h2.669c2.745,0,4.044,0.433,4.044,1.081c0,0.362-0.219,0.867-0.651,1.445
		l-10.034,14.291l11.766,18.624c0.361,0.649,0.578,1.081,0.578,1.516c0,0.649-1.3,1.081-4.114,1.081h-3.031
		c-2.094,0-3.682-0.287-4.331-1.37L202.68,325.82l-0.289,0.074v15.59c0,1.52-1.299,2.312-4.33,2.312h-2.021
		c-3.031,0-4.331-0.792-4.331-2.312L191.709,291.537L191.709,291.537z"/>
	<path fill="#424244" d="M271.007,343.652v-0.873c1.428-0.106,2.512-0.277,3.254-0.516c0.74-0.24,1.109-0.779,1.109-1.627v-20.248
		c0-3.07-0.545-5.521-1.635-7.347c-1.094-1.826-3.02-2.739-5.787-2.739c-1.758,0-3.219,0.465-4.391,1.391
		c-1.17,0.927-2.395,2.104-3.67,3.533v25.646c0,0.371,0.133,0.688,0.396,0.954s0.605,0.463,1.031,0.594
		c0.424,0.136,0.887,0.24,1.391,0.317c0.504,0.078,0.992,0.146,1.469,0.199v0.715h-15.562v-0.875
		c1.43-0.105,2.568-0.276,3.414-0.516c0.846-0.24,1.271-0.779,1.271-1.627v-20.328c0-3.123-0.543-5.57-1.629-7.346
		c-1.086-1.771-3.006-2.66-5.758-2.66c-1.745,0-3.174,0.371-4.285,1.111c-1.114,0.743-2.357,1.854-3.734,3.337v26.043
		c0.106,0.531,0.291,0.914,0.558,1.151c0.263,0.24,0.594,0.41,0.992,0.517c0.396,0.108,0.834,0.175,1.311,0.2
		c0.478,0.025,0.979,0.092,1.509,0.197v0.793h-15.404v-0.793c1.217-0.106,2.263-0.344,3.137-0.715
		c0.874-0.369,1.311-0.979,1.311-1.826V313.16c0-0.424-0.04-0.74-0.12-0.954c-0.079-0.209-0.305-0.448-0.674-0.714
		c-0.477-0.264-1.034-0.568-1.668-0.912c-0.634-0.346-1.271-0.648-1.906-0.914v-0.634l10.403-3.733h0.478v8.576l0.156,0.08
		c0.526-0.954,1.212-1.945,2.057-2.977c0.844-1.035,1.82-1.961,2.928-2.78c1.107-0.82,2.307-1.509,3.601-2.065
		c1.292-0.555,2.651-0.834,4.075-0.834c2.529,0,4.576,0.834,6.131,2.504c1.557,1.668,2.52,3.904,2.889,6.709h0.24
		c0.475-0.953,1.137-1.972,1.982-3.058c0.848-1.083,1.826-2.089,2.939-3.017c1.111-0.927,2.342-1.681,3.691-2.265
		c1.352-0.58,2.74-0.873,4.17-0.873c3.068,0,5.385,1.113,6.947,3.336c1.561,2.224,2.344,5.08,2.344,8.574v23.662
		c0,0.371,0.156,0.688,0.477,0.954c0.316,0.267,0.699,0.463,1.15,0.594c0.449,0.135,0.938,0.24,1.469,0.316
		c0.529,0.08,1.033,0.148,1.51,0.199v0.715h-15.566v0.002H271.007z"/>
	<path fill="#424244" d="M320.552,335.514c-0.74,1.457-1.746,2.793-3.018,4.01c-1.27,1.219-2.791,2.225-4.566,3.019
		c-1.773,0.794-3.746,1.19-5.914,1.19c-2.699,0-5.162-0.504-7.385-1.51c-2.225-1.006-4.117-2.423-5.678-4.248
		c-1.562-1.826-2.766-3.971-3.613-6.431c-0.846-2.463-1.27-5.069-1.27-7.821c0-2.224,0.396-4.433,1.191-6.629
		c0.793-2.197,1.916-4.172,3.373-5.918c1.455-1.746,3.229-3.162,5.32-4.248c2.092-1.082,4.404-1.627,6.947-1.627
		c2.062,0,4.01,0.266,5.834,0.793c1.828,0.531,3.414,1.34,4.768,2.424c1.348,1.086,2.445,2.447,3.293,4.088
		c0.846,1.644,1.352,3.574,1.51,5.799h-25.488c0,0.425-0.025,0.912-0.08,1.469c-0.053,0.559-0.078,1.126-0.078,1.708
		c0,2.224,0.316,4.354,0.951,6.392c0.637,2.041,1.562,3.84,2.781,5.399c1.217,1.562,2.752,2.792,4.605,3.69
		c1.852,0.902,3.994,1.353,6.432,1.353c2.645,0,4.963-0.677,6.947-2.024c1.982-1.351,3.295-3.004,3.93-4.965l0.637,0.16
		C321.769,332.748,321.294,334.059,320.552,335.514z M311.46,308.754c-1.35-1.4-3.162-2.104-5.439-2.104
		c-1.479,0-2.816,0.438-4.01,1.31c-1.191,0.874-2.223,1.894-3.096,3.058c-0.875,1.164-1.549,2.342-2.027,3.533
		c-0.475,1.191-0.766,2.105-0.871,2.74c1.217,0,2.303,0,3.254,0c0.953,0,1.893-0.012,2.82-0.04c0.926-0.026,1.891-0.052,2.895-0.08
		c1.008-0.026,2.117-0.04,3.336-0.04c0.795,0,1.535-0.025,2.225-0.078c0.686-0.052,1.295-0.186,1.826-0.396
		c0.369-0.425,0.646-0.82,0.834-1.191c0.184-0.37,0.275-0.926,0.275-1.668C313.485,311.839,312.812,310.159,311.46,308.754z"/>
	<path fill="#424244" d="M350.21,337.419c-0.822,1.509-1.92,2.74-3.297,3.694c-1.377,0.951-2.951,1.64-4.725,2.062
		c-1.771,0.427-3.639,0.638-5.6,0.638c-2.328,0-4.525-0.211-6.588-0.638c-2.066-0.423-3.973-1.03-5.717-1.825v-10.481h0.633
		c0.422,1.271,0.949,2.608,1.582,4.011c0.631,1.403,1.396,2.7,2.293,3.891c0.895,1.191,1.979,2.172,3.242,2.938
		c1.268,0.769,2.768,1.149,4.51,1.149c2.527,0,4.543-0.726,6.047-2.183s2.256-3.694,2.256-6.711c0-1.64-0.514-3.003-1.543-4.089
		c-1.027-1.083-2.438-1.812-4.23-2.184c-1.426-0.267-2.797-0.558-4.113-0.873c-1.318-0.317-2.502-0.66-3.559-1.032
		c-2.004-0.688-3.629-1.88-4.863-3.574c-1.24-1.694-1.859-3.731-1.859-6.114c0-1.64,0.344-3.123,1.033-4.445
		c0.686-1.322,1.613-2.463,2.779-3.413c1.162-0.954,2.512-1.681,4.049-2.187c1.535-0.501,3.178-0.754,4.924-0.754
		c2.223,0,4.18,0.2,5.877,0.598c1.691,0.396,3.305,0.886,4.842,1.47l0.955,9.846l-0.637,0.16c-0.744-1.588-1.484-3.058-2.225-4.408
		c-0.742-1.35-1.562-2.512-2.463-3.491c-0.898-0.979-1.918-1.734-3.057-2.266c-1.137-0.525-2.449-0.792-3.93-0.792
		c-0.902,0-1.787,0.155-2.66,0.476c-0.873,0.316-1.643,0.781-2.303,1.391c-0.662,0.609-1.205,1.378-1.629,2.304
		c-0.426,0.926-0.635,1.997-0.635,3.215c0,1.96,0.557,3.363,1.666,4.208c1.111,0.848,2.516,1.482,4.209,1.906
		c1.164,0.266,2.436,0.543,3.812,0.834s2.566,0.568,3.572,0.834c2.385,0.583,4.406,1.8,6.074,3.652c1.668,1.854,2.5,4.129,2.5,6.828
		C351.438,334.125,351.03,335.91,350.21,337.419z"/>
	<path fill="#424244" d="M380.542,337.419c-0.822,1.509-1.92,2.74-3.297,3.694c-1.377,0.951-2.951,1.64-4.725,2.062
		c-1.773,0.427-3.641,0.638-5.6,0.638c-2.33,0-4.527-0.211-6.59-0.638c-2.064-0.423-3.973-1.03-5.717-1.825v-10.481h0.635
		c0.42,1.271,0.949,2.608,1.58,4.011c0.633,1.403,1.396,2.7,2.293,3.891c0.895,1.191,1.979,2.172,3.244,2.938
		c1.266,0.769,2.768,1.149,4.508,1.149c2.527,0,4.545-0.726,6.049-2.183s2.256-3.694,2.256-6.711c0-1.64-0.516-3.003-1.545-4.089
		c-1.027-1.083-2.438-1.812-4.23-2.184c-1.426-0.267-2.795-0.558-4.111-0.873c-1.318-0.317-2.504-0.66-3.561-1.032
		c-2.004-0.688-3.627-1.88-4.861-3.574c-1.242-1.694-1.859-3.731-1.859-6.114c0-1.64,0.342-3.123,1.031-4.445
		c0.686-1.322,1.615-2.463,2.781-3.413c1.16-0.954,2.512-1.681,4.049-2.187c1.533-0.501,3.176-0.754,4.922-0.754
		c2.223,0,4.18,0.2,5.877,0.598c1.693,0.396,3.307,0.886,4.844,1.47l0.953,9.846l-0.637,0.16c-0.742-1.588-1.482-3.058-2.225-4.408
		c-0.74-1.35-1.561-2.512-2.463-3.491c-0.898-0.979-1.916-1.734-3.057-2.266c-1.137-0.525-2.447-0.792-3.928-0.792
		c-0.902,0-1.789,0.155-2.66,0.476c-0.875,0.316-1.645,0.781-2.303,1.391c-0.664,0.609-1.205,1.378-1.631,2.304
		c-0.424,0.926-0.633,1.997-0.633,3.215c0,1.96,0.557,3.363,1.666,4.208c1.111,0.848,2.516,1.482,4.207,1.906
		c1.166,0.266,2.436,0.543,3.812,0.834s2.566,0.568,3.572,0.834c2.385,0.583,4.406,1.8,6.074,3.652c1.668,1.854,2.5,4.129,2.5,6.828
		C381.771,334.125,381.362,335.91,380.542,337.419z"/>
	<path fill="#424244" d="M415.755,335.514c-0.742,1.457-1.746,2.793-3.018,4.01c-1.271,1.219-2.795,2.225-4.564,3.019
		c-1.775,0.794-3.746,1.19-5.918,1.19c-2.699,0-5.16-0.504-7.383-1.51c-2.227-1.006-4.117-2.423-5.678-4.248
		c-1.562-1.826-2.768-3.971-3.613-6.431c-0.85-2.463-1.271-5.069-1.271-7.821c0-2.224,0.398-4.433,1.191-6.629
		c0.795-2.197,1.918-4.172,3.375-5.918s3.229-3.162,5.318-4.248c2.092-1.082,4.408-1.627,6.947-1.627
		c2.066,0,4.012,0.266,5.838,0.793c1.826,0.531,3.414,1.34,4.764,2.424c1.352,1.086,2.447,2.447,3.297,4.088
		c0.846,1.644,1.35,3.574,1.51,5.799h-25.488c0,0.425-0.027,0.912-0.08,1.469c-0.055,0.559-0.08,1.126-0.08,1.708
		c0,2.224,0.316,4.354,0.953,6.392c0.637,2.041,1.562,3.84,2.777,5.399c1.217,1.562,2.752,2.792,4.607,3.69
		c1.852,0.902,3.994,1.353,6.43,1.353c2.646,0,4.963-0.677,6.949-2.024c1.984-1.351,3.297-3.004,3.93-4.965l0.635,0.16
		C416.974,332.748,416.497,334.059,415.755,335.514z M406.665,308.754c-1.354-1.4-3.166-2.104-5.441-2.104
		c-1.48,0-2.82,0.438-4.01,1.31c-1.189,0.874-2.223,1.894-3.096,3.058s-1.551,2.342-2.025,3.533
		c-0.477,1.191-0.768,2.105-0.875,2.74c1.217,0,2.303,0,3.258,0c0.951,0,1.893-0.012,2.816-0.04c0.926-0.026,1.893-0.052,2.898-0.08
		c1.004-0.026,2.115-0.04,3.334-0.04c0.795,0,1.535-0.025,2.225-0.078c0.688-0.052,1.297-0.186,1.826-0.396
		c0.369-0.425,0.648-0.82,0.834-1.191c0.186-0.37,0.275-0.926,0.275-1.668C408.687,311.839,408.013,310.159,406.665,308.754z"/>
	<path fill="#424244" d="M445.452,312.408c-0.689,0.768-1.482,1.15-2.385,1.15c-0.846,0-1.52-0.146-2.021-0.438
		c-0.504-0.291-0.941-0.623-1.312-0.992c-0.369-0.371-0.768-0.703-1.189-0.993c-0.422-0.288-1.006-0.438-1.746-0.438
		c-0.637,0-1.258,0.226-1.865,0.677c-0.611,0.449-1.18,1.021-1.709,1.706c-0.529,0.688-1.006,1.469-1.428,2.343
		c-0.426,0.874-0.795,1.706-1.111,2.5v22.868c0.156,0.478,0.502,0.849,1.031,1.114s1.123,0.447,1.787,0.555
		c0.662,0.107,1.35,0.175,2.062,0.2c0.717,0.024,1.338,0.092,1.867,0.196v0.793h-17.787v-0.793c1.219-0.105,2.266-0.344,3.139-0.715
		c0.873-0.369,1.309-0.979,1.309-1.826v-26.838c0-0.424-0.039-0.739-0.119-0.953c-0.078-0.211-0.305-0.449-0.674-0.717
		c-0.479-0.263-1.033-0.594-1.666-0.992c-0.637-0.396-1.271-0.726-1.906-0.99v-0.479l10.4-4.051h0.477l-0.16,11.039h0.16
		c0.264-0.637,0.688-1.562,1.271-2.779c0.58-1.218,1.322-2.449,2.223-3.691c0.9-1.245,1.986-2.317,3.254-3.219
		c1.271-0.898,2.727-1.351,4.367-1.351c1.324,0,2.449,0.397,3.375,1.19c0.926,0.795,1.389,1.801,1.389,3.018
		C446.483,310.674,446.142,311.643,445.452,312.408z"/>
</g>
<path fill="none" stroke="#FFFFFF" stroke-width="0.75" stroke-miterlimit="10" d="M165.258,305.475c0,0,1.012,10.611,2.125,13.186"
	/>
<path fill="none" stroke="#FFFFFF" stroke-width="0.75" stroke-linecap="round" stroke-miterlimit="10" d="M169.143,305.446
	c0,0,0.387,7.854,1.334,10.479"/>
<path fill="none" stroke="#FFFFFF" stroke-width="0.75" stroke-linecap="round" stroke-miterlimit="10" d="M173.883,314.176
	c0,0,3.667-0.318,7.208,1.975"/>
<path fill="none" stroke="#FFFFFF" stroke-width="0.75" stroke-linecap="round" stroke-miterlimit="10" d="M173.884,304.96
	c0,0,4.835,0.078,8.783,1.745"/>
</svg>
