<?xml version="1.0" encoding="utf-8"?>
<!-- Generator: Adobe Illustrator 16.0.0, SVG Export Plug-In . SVG Version: 6.00 Build 0)  -->
<!DOCTYPE svg PUBLIC "-//W3C//DTD SVG 1.1//EN" "http://www.w3.org/Graphics/SVG/1.1/DTD/svg11.dtd">
<svg version="1.1" id="Ebene_1" xmlns="http://www.w3.org/2000/svg" xmlns:xlink="http://www.w3.org/1999/xlink" x="0px" y="0px"
	 width="500px" height="370px" viewBox="0 69.5 500 370" enable-background="new 0 69.5 500 370" xml:space="preserve">
<g>
	<path fill="#87CD4D" d="M304.605,174.651l-109.915-52.903c0,0-21.246-9.38-47.284-2.833c-2.32,0.583-0.164,2.99-0.164,2.99
		s3.8,6.577,14.281,14.406c5.156,3.851,24.903,14.482,47.5,25.104c24.315,11.429,51.832,22.937,65.188,28.583
		c0,0,4.031-1.25,6.812,0c0.531,1.531,0.179,2.192,0.179,2.192"/>
	<path fill="#73AB47" d="M150.197,119.947c0,0,7.756,11.072,18.256,16.322s106.365,50.25,106.365,50.25s5.082-1.14,7.982,2.528
		c2.901,3.668-2.513,0.699-2.513,0.699l-6.97,0.606l-97.365-44.863l-21.057-14.636l-8.539-10.906L150.197,119.947L150.197,119.947z"
		/>
	<path fill="#C6D3DA" d="M212.837,134.311c0,0-20.625-10.625-34.625-13.25"/>
	<path fill="#424244" d="M305.256,173.299l-109.959-52.923c-0.887-0.391-22.021-9.512-48.256-2.916
		c-1.458,0.367-1.941,1.288-2.1,1.805c-0.454,1.485,0.604,2.957,1.082,3.522c0.616,1.013,4.683,7.315,14.604,14.725
		c4.989,3.726,24.217,14.193,47.76,25.26c22.317,10.491,46.921,20.875,61.621,27.08l4.125,1.741l0.523-0.162
		c0.865-0.27,3.294-0.772,5.126-0.285c0.06,0.345,0.024,0.506,0.024,0.508c0-0.001,0.014-0.061,0.071-0.17l2.646,1.414
		c0.156-0.291,0.608-1.395-0.084-3.391l-0.211-0.611l-0.59-0.266c-2.654-1.194-5.99-0.553-7.324-0.217l-3.142-1.326
		c-14.68-6.195-39.249-16.565-61.513-27.03c-23.369-10.985-42.371-21.312-47.24-24.948c-10.061-7.515-13.845-13.894-13.88-13.955
		l-0.177-0.246c-0.148-0.168-0.301-0.394-0.405-0.586c25.115-6.241,45.919,2.707,46.081,2.777l109.916,52.903L305.256,173.299z"/>
	<path fill="#73AB47" d="M178.212,121.061c0,0,8.299,10.943,34.625,13.25c-15.61-7.38-19.133-8.364-19.133-8.364L178.212,121.061z"
		/>
	<path fill="#424244" d="M205.528,129.569c-0.885-0.476-1.815-0.988-2.797-1.478c-1.945-1.016-4.111-1.914-6.264-2.831
		c-1.082-0.445-2.196-0.824-3.285-1.207c-1.089-0.384-2.17-0.736-3.216-1.071c-2.142-0.555-4.145-1.039-5.873-1.383
		c-0.874-0.148-1.693-0.218-2.409-0.295c-0.715-0.082-1.343-0.123-1.857-0.162c-1.028-0.075-1.615-0.081-1.615-0.081
		s0.542,0.265,1.49,0.665c0.948,0.405,2.299,0.94,3.917,1.53c1.591,0.716,3.461,1.468,5.469,2.238
		c0.993,0.429,2.02,0.866,3.073,1.284c1.045,0.438,2.131,0.813,3.192,1.266c1.068,0.434,2.134,0.871,3.195,1.275
		c1.061,0.405,2.107,0.8,3.115,1.199c1.008,0.397,2.001,0.742,2.938,1.08c0.935,0.344,1.821,0.668,2.648,0.948
		c0.818,0.298,1.591,0.531,2.265,0.757c0.671,0.233,1.271,0.407,1.762,0.559c0.987,0.296,1.562,0.449,1.562,0.449
		s-0.455-0.383-1.295-0.979c-0.839-0.599-2.052-1.44-3.562-2.336C207.226,130.543,206.418,130.033,205.528,129.569z"/>
	<polygon fill="#73AB47" points="279.195,186.694 287.87,172.373 282.802,189.047 	"/>
</g>
<path fill="#00AEBC" d="M152.896,302.489l53.253-116.366c0,0,1.188-2.021,1.958-2.042c0.771-0.021,1.062,2.396,1.042,2.562
	c-0.021,0.167,1.737,7.738,9.375,11.375c2.188,1.042,1.5,4.333,1.5,4.333s-0.062,2.958-3.542,4.542
	c-0.78,0.355-2.083,0.667-3.271,1.646l0.854,2.292c0,0,1.25,1.604,1.167,3s-2.449,3.466-5.958,4.188
	c-1.521,0.312-3.729,4.917-3.729,4.917l-27.147,55.007"/>
<path fill="#00AEBC" d="M210.147,250.99l8.482-36.419c0,0,0.49-1.516-0.885-2.995c-1.645-1.77-1.353-2.274-1.109-3.518
	c0.208-1.062,1.598-1.191,4.049-2.342c1.337-0.628,1.337-2.088,1.337-2.088l1.169-4.461c0,0,0.001-1.564-2.395-2.064
	s-8.964-4.042-10.523-11.948c-1.56-7.906,3.472-13.219,3.472-13.219s0.641-0.75-0.094-1.516c-0.735-0.766,0.438-2.766,0.438-2.766
	s10.781-18.719,16.844-27.063c0,0,10.307-12.617,14.75-12.75c0.688-0.021,0.344,1.844,0.312,2.438l-4.516,11.766
	c0,0-0.125,0.297-1.047,0.5c-0.922,0.203-1.641,1.078-1.641,1.078l0.031,3.062c0,0-1.828,0.281-2.25,1.219
	c0.234,3.406,0.234,3.406,0.234,3.406s-2.062,0.328-2.297,1.547c0.234,3.172-1.15,3.172-1.15,3.172s-3.603,0.198-3.603,1.677
	s0,3.542,0,3.542s-0.157,0.104-0.136,1.25c0,0,0.797,2.396,1.567,3.771s4.013,1.75,4.013,1.75s1.944,0.458,0.59,1.729
	s-2.934,2.875,1.17,4.104s7.969,1.295,6.856,11.042c-0.688,6.021-4.343,9.245-4.343,9.245s0.886,0.641,0.386,2.547
	c0,0,0.012,1.561-0.541,2.844c-1.131,2.621-3.303,6.173-3.575,7.516l-8.092,28.495"/>
<path fill="#008696" d="M172.157,281.443l31.797-63.083c0,0,1.46-2.935,4.515-3.342c3.36-0.447,4.673-3.635,2.964-6.956
	c3.383,4.018,3.934,5.436,3.934,5.436l-6.898,5.699l-4.795,7.532l-24.454,49.549L172.157,281.443z"/>
<circle fill="#C6D3DA" cx="226.525" cy="181.061" r="2"/>
<path fill="#00AEBC" d="M244.162,184.081c0,0,2.926,0.917,4.551-9.271s10-31.375,3-44.75c0,0-0.25-0.5-0.771,0.938
	c-0.521,1.438-4.438,9.917-4.438,9.917s-0.521,2.417,0.333,3.792s-1.604,0.75-1.75,1.812s0.75,1.021,0.75,2.312
	c0,1.292-2.438,1.208-2.542,2.312s1.167,0.938,0.896,2.688s-2.604,0.292-2.854,1.833c-0.25,1.542,1.062,1.083,0.896,2.646
	c-0.167,1.562-2.688,0.208-2.979,2.062c-0.292,1.854,1.5,1.375-0.583,3.292s-3.5,1.323-3.5,4l0.647,2.083l-1.928,1.866l5.315,2.75
	l4.952,3.583L244.162,184.081"/>
<path fill="#424244" d="M226.524,184.561c-1.93,0-3.5-1.57-3.5-3.5s1.57-3.5,3.5-3.5c1.93,0,3.5,1.57,3.5,3.5
	S228.454,184.561,226.524,184.561z M226.524,180.561c-0.275,0-0.5,0.225-0.5,0.5s0.225,0.5,0.5,0.5s0.5-0.225,0.5-0.5
	S226.799,180.561,226.524,180.561z"/>
<path fill="#008696" d="M237.532,165.93c0,0,12.661,9.117,8.139,17.782c-2.362,4.527-0.646,0.207-0.646,0.207
	s-1.052-5.723-2.103-7.014c-1.051-1.291-1.976-4.564-5.838-6.615S236.878,165.55,237.532,165.93"/>
<path fill="#008696" d="M211.432,208.063c0,0-0.229-1.712,0.521-2.851c0.75-1.139,3.5-0.535,4.5-2.275s1.174-2.247,0.774-4.243
	c-0.399-1.997,2.28,0.164,2.28,0.164l-1.298,6.278l-4.998,3.404"/>
<path fill="#008696" d="M243.524,171.872c0,0,2.306,1.726,2.867-0.675c0,0,3.503-11.396,4.75-24.562
	c0.422-4.452,0.647-9.109,0.397-13.187c-0.224-3.638-0.834-1.834-0.834-1.834l2.167-0.833l1.333,13l-7.557,37.28L243.524,171.872z"
	/>
<path fill="#424244" d="M244.355,185.603c-0.31,0-0.535-0.057-0.643-0.09l0.898-2.863c-0.223-0.069-0.32-0.044-0.324-0.041
	c0.018-0.005,1.772-0.69,2.943-8.034c0.384-2.404,1.107-5.303,1.946-8.66c2.438-9.761,5.697-22.813,2.361-32.467
	c-1.158,2.64-3.107,6.872-3.596,7.931c-0.133,0.762-0.167,1.996,0.169,2.538c0.533,0.858,0.443,1.547,0.274,1.974
	c-0.302,0.763-0.957,1.07-1.486,1.238c0.219,0.379,0.438,0.926,0.438,1.704c0,1.652-1.44,2.293-2.214,2.638
	c-0.004,0.001-0.008,0.003-0.012,0.005c0.37,0.487,0.766,1.27,0.562,2.586c-0.274,1.774-1.705,2.138-2.515,2.234
	c0.332,0.419,0.681,1.092,0.565,2.175c-0.206,1.929-1.989,2.155-2.661,2.241c-0.103,0.013-0.235,0.03-0.345,0.049
	c-0.002,0.088,0.025,0.136,0.102,0.269c0.837,1.476,0.187,2.526-1.134,3.741c-0.841,0.773-1.6,0.846-2.154,1.162
	c-0.861,0.49-0.861,1.017-0.861,1.017h-3c0-2,1.031-2.858,2.379-3.625c0.499-0.284,1.016-0.399,1.605-0.941
	c0.17-0.156,0.294-0.189,0.384-0.284c-0.207-0.428-0.419-1.038-0.267-2.003c0.294-1.865,1.838-2.226,2.663-2.35
	c-0.36-0.421-0.775-1.123-0.579-2.332c0.311-1.918,2.133-2.042,2.732-2.084c0.041-0.003,0.09-0.004,0.139-0.007
	c-0.002-0.027-0.005-0.037-0.005-0.037c-0.012-0.017-0.085-0.097-0.139-0.157c-0.288-0.322-0.889-0.99-0.781-2.125
	c0.131-1.397,1.363-1.946,2.1-2.274c0.106-0.047,0.241-0.107,0.358-0.165c-0.019-0.027-0.042-0.059-0.071-0.099
	c-0.26-0.358-0.743-1.025-0.589-2.149c0.146-1.05,0.899-1.536,1.53-1.784c-0.539-1.722-0.148-3.676-0.094-3.933l0.105-0.313
	c1.082-2.342,3.979-8.668,4.389-9.798c0.228-0.628,0.7-1.935,1.958-2.008c0.66-0.023,1.27,0.319,1.564,0.911
	c5.645,10.784,1.823,26.082-0.967,37.251c-0.82,3.29-1.53,6.13-1.894,8.406c-0.887,5.558-2.273,8.851-4.241,10.069
	C245.328,185.502,244.767,185.603,244.355,185.603z"/>
<path fill="#008696" d="M222.096,189.811c0,0,2.649,2.675,6.429,2.379c2.959-0.232,8.559-1.496,7.75-9.129
	c-1.482-13.976-7.365,6.509-7.365,6.509L222.096,189.811z"/>
<path fill="#424244" d="M226.524,188.686c-4.204,0-7.625-3.421-7.625-7.625s3.421-7.625,7.625-7.625s7.625,3.421,7.625,7.625
	S230.728,188.686,226.524,188.686z M226.524,176.436c-2.55,0-4.625,2.075-4.625,4.625c0,2.55,2.075,4.625,4.625,4.625
	c2.55,0,4.625-2.075,4.625-4.625C231.149,178.511,229.074,176.436,226.524,176.436z"/>
<path fill="#424244" d="M227.055,191.311c-5.083,0-9.219-4.248-9.219-9.469c0-5.221,4.136-9.469,9.219-9.469
	s9.219,4.248,9.219,9.469C236.274,187.063,232.138,191.311,227.055,191.311z M227.055,175.373c-3.429,0-6.219,2.902-6.219,6.469
	c0,3.567,2.79,6.469,6.219,6.469c3.429,0,6.219-2.902,6.219-6.469C233.274,178.275,230.484,175.373,227.055,175.373z"/>
<path fill="#008696" d="M217.426,200.183c0,0-9.824-6.567-11.222-13.361l1.904-2.741l4.221,8.051l6.84,4.532L217.426,200.183z"/>
<path fill="#424244" d="M154.26,303.111l-2.729-1.247l53.285-116.436l0.039-0.065c1.067-1.816,2.147-2.752,3.21-2.781
	c0.585-0.034,1.104,0.224,1.51,0.675c0.743,0.822,1.018,2.427,1.062,3.205c0.098,0.423,1.74,6.969,8.531,10.202
	c2.515,1.197,2.663,4.216,2.345,5.891c-0.069,0.779-0.584,3.963-4.409,5.704c-0.224,0.103-0.485,0.202-0.774,0.312
	c-0.413,0.155-0.858,0.323-1.299,0.557l0.366,0.98c0.433,0.604,1.43,2.184,1.333,3.812c-0.14,2.328-3.282,4.773-7.154,5.568
	c-0.45,0.239-1.769,2.204-2.678,4.097l-27.155,55.021l-2.689-1.328l27.147-55.006c0.937-1.955,2.814-5.32,4.771-5.723
	c3.089-0.634,4.681-2.294,4.765-2.817c0.032-0.546-0.492-1.508-0.857-1.982l-0.137-0.179l-1.311-3.508l0.825-0.68
	c1.078-0.89,2.196-1.312,3.013-1.619c0.22-0.083,0.42-0.157,0.591-0.235c2.55-1.16,2.663-3.188,2.663-3.207l0.031-0.275
	c0.003-0.015,0.379-2.524-0.677-3.026c-7.573-3.607-10.118-11.073-10.22-13.073h-0.007c-0.002,0-0.004,0.295-0.008,0.262
	c-0.057,0.087-0.112,0.35-0.164,0.436L154.26,303.111z"/>
<path fill="#7FCBA2" d="M146.828,319.768c-3.321-2.731-5.929,1.105-5.929,1.105s-56.375-88-76.208-119.292
	c-5.162-8.144-10.792-37.375-7.5-37.833c5.282-0.736,19.667,18.5,19.667,18.5l44.667,60.116l9.928,7.573l9.667,25.663
	L146.828,319.768z"/>
<path fill="#669B80" d="M116.61,235.81l22.01,73.221l-2.666,2.916c0,0,4.573,7.433,5.125,7.933c0.552,0.5,2.542-1.683,3.25-1.683
	c1.417,0,2.665-2.867,2.47-1.616c-0.196,1.252-0.312-3.86-0.312-3.86l-3.953-1.516l-21.763-71.311L116.61,235.81z"/>
<path fill="#DB2EA3" d="M147.692,314.395c-0.43-2.699-4.917-2.396-4.917-2.396s-32.809-107.707-42.25-138
	c-9.583-30.75-2.773-36.02-0.264-39.082c0.701-0.856,2.326-1.574,3.233,1.301l2.469,6.312l-3.281,3.438c0,0-1.188,1.281,0.594,1.688
	c1.782,0.407,5.406,0.531,5.406,0.531l-3.688,4.25c0,0-1.281,1.438,0.875,1.562c2.156,0.124,2.156,0.125,2.156,0.125l-1.281,1.938
	c0,0-0.844,1.344,0.969,1.594l5.125,0.438l-3.719,4.281c0,0-1.312,1.281,0.438,1.438c1.75,0.157,2.719,0.406,2.719,0.406
	l-1.656,1.969c0,0-0.594,1.188,1.219,1.438s4.844,0.625,4.844,0.625l-3.469,4.219c0,0-1.281,1.344,0.812,1.562
	c2.093,0.218,2.438,0.25,2.438,0.25l-1.75,2.188c0,0-0.469,0.875,1.094,1.062c1.563,0.187,5.062,0.844,5.062,0.844l-3.281,3.938
	c0,0-1.594,1.75,0.938,1.906c2.532,0.156,2.125,0.219,2.125,0.219l-1.531,1.938c0,0-1.25,1.219,0.594,1.406
	c1.844,0.187,5.125,0.688,5.125,0.688l-3.281,4.188c0,0-1.094,1.812,0.812,1.781c1.906-0.031,2.219,0.094,2.219,0.094l-1.5,1.969
	c0,0-1.094,1.281,1.312,1.562c2.406,0.281,4.812,0.594,4.812,0.594l-3.594,4.219c0,0-1.56,1.685,1.625,1.812
	c1.562,0.062,1.562,0.062,1.562,0.062l0,0l-1.656,1.844c0,0-1.156,1.438,1.438,1.656c2.594,0.218,4.5,0.375,4.5,0.375l-3.344,4.312
	c0,0-1.695,1.826,0.906,2.031c2.375,0.188,2.375,0.188,2.375,0.188l-1.781,1.719c0,0-1.188,1.594,1.031,1.812
	c2.219,0.218,5,0.625,5,0.625l-3.344,4.188c0,0-1.281,1.688,1.125,1.844c2.406,0.156,1.781,0.219,1.781,0.219l-1.5,1.875
	c0,0-1.25,1.312,1.094,1.5c2.344,0.188,4.812,0.688,4.812,0.688l-3.344,4.125c0,0-1.188,1.906,1.062,2.062s1.844,0.25,1.844,0.25
	l-1.156,1.562c0,0-1.25,1.875,1.031,2c2.281,0.125,4.844,0.438,4.844,0.438l-3.5,4.031c0,0-1.312,2,1.281,2.094
	c2.593,0.094,1.688,0.188,1.688,0.188l-1.406,1.844c0,0-0.906,1.75,1.094,1.75s4.781,0.438,4.781,0.438l0,0l-3.531,4.094
	c0,0-1.281,1.688,1.125,1.845c2.406,0.155,1.781,0.219,1.781,0.219l-1.5,1.875c0,0-1.25,1.312,1.094,1.5
	c2.344,0.188,4.812,0.688,4.812,0.688l-3.344,4.125c0,0-1.188,1.906,1.062,2.062s1.844,0.25,1.844,0.25l-1.156,1.562
	c0,0-1.25,1.875,1.031,2c2.281,0.125,4.844,0.438,4.844,0.438l-3.5,4.031c0,0-1.312,2,1.281,2.094
	c2.593,0.094,1.688,0.188,1.688,0.188l-1.406,1.844c0,0-0.906,1.75,1.094,1.75s4.781,0.438,4.781,0.438l-3.438,3.688
	c0,0-1.312,2,1.281,2.094c2.593,0.094,1.688,0.188,1.688,0.188l-1.406,1.844c0,0-0.906,1.75,1.094,1.75s4.781,0.438,4.781,0.438"/>
<g opacity="0.5">
	<path fill="none" stroke="#669B80" stroke-miterlimit="10" d="M134.633,290.436l-1.39,2.181l1.721-1.097
		C134.853,291.158,134.745,290.803,134.633,290.436z"/>
	<path fill="none" stroke="#669B80" stroke-miterlimit="10" d="M131.453,280.012l-0.693,1.086l0.857-0.547
		C131.563,280.371,131.508,280.193,131.453,280.012z"/>
	<path fill="none" stroke="#669B80" stroke-miterlimit="10" d="M129.333,273.062l-2.572,4.035l3.184-2.029
		C129.742,274.406,129.538,273.736,129.333,273.062z"/>
	<path fill="none" stroke="#669B80" stroke-miterlimit="10" d="M128.272,269.589l-3.512,5.509l4.347-2.772
		C128.832,271.422,128.553,270.51,128.272,269.589z"/>
	<polygon fill="none" stroke="#669B80" stroke-miterlimit="10" points="128.271,269.585 122.76,273.098 119.243,278.616 
		124.76,275.098 128.272,269.589 	"/>
	<path fill="none" stroke="#669B80" stroke-miterlimit="10" d="M129.944,275.068l-3.184,2.029l-3.518,5.519l5.518-3.519l1.633-2.561
		C130.244,276.05,130.095,275.561,129.944,275.068z"/>
	<path fill="none" stroke="#669B80" stroke-miterlimit="10" d="M130.781,277.811l-2.021,1.287l-3.518,5.519l5.518-3.519l0.693-1.086
		C131.232,279.286,131.007,278.55,130.781,277.811z"/>
	<path fill="none" stroke="#669B80" stroke-miterlimit="10" d="M130.393,276.537l-1.633,2.561l2.021-1.287
		C130.653,277.389,130.523,276.963,130.393,276.537z"/>
	<path fill="none" stroke="#669B80" stroke-miterlimit="10" d="M129.108,272.326l-4.347,2.771l-3.518,5.519l5.518-3.519l2.572-4.035
		C129.258,272.818,129.183,272.573,129.108,272.326z"/>
	<path fill="none" stroke="#669B80" stroke-miterlimit="10" d="M126.03,262.244c-0.089-0.293-0.18-0.59-0.27-0.885l-4.114,2.623
		l-3.518,5.519l5.518-3.519L126.03,262.244z"/>
	<polygon fill="none" stroke="#669B80" stroke-miterlimit="10" points="116.128,267.501 112.61,273.02 118.128,269.501 
		121.646,263.982 	"/>
	<path fill="none" stroke="#669B80" stroke-miterlimit="10" d="M127.434,266.843l-1.156,0.737l-3.518,5.518l5.51-3.513
		C127.994,268.678,127.715,267.764,127.434,266.843z"/>
	<polygon fill="none" stroke="#669B80" stroke-miterlimit="10" points="118.128,269.501 114.61,275.02 120.128,271.501 
		123.646,265.982 	"/>
	<path fill="none" stroke="#669B80" stroke-miterlimit="10" d="M127.212,266.116c-0.204-0.668-0.409-1.341-0.615-2.015l-2.951,1.881
		l-3.518,5.519l6.151-3.921L127.212,266.116z"/>
	<polygon fill="none" stroke="#669B80" stroke-miterlimit="10" points="120.128,271.501 116.61,277.02 122.76,273.098 
		126.278,267.58 	"/>
	<path fill="none" stroke="#669B80" stroke-miterlimit="10" d="M124.969,258.771c-0.015-0.051-0.031-0.102-0.046-0.152l-5.277,3.363
		l-3.518,5.519l5.518-3.519L124.969,258.771z"/>
	<path fill="none" stroke="#669B80" stroke-miterlimit="10" d="M133.573,286.96l-2.33,3.655l2.885-1.84
		C133.945,288.18,133.76,287.573,133.573,286.96z"/>
	<path fill="none" stroke="#669B80" stroke-miterlimit="10" d="M130.76,281.098l-3.518,5.519l5.212-3.323
		c-0.275-0.9-0.553-1.814-0.836-2.742L130.76,281.098z"/>
	<path fill="none" stroke="#669B80" stroke-miterlimit="10" d="M132.513,283.486l-3.271,5.13l4.048-2.581
		C133.036,285.199,132.776,284.35,132.513,283.486z"/>
	<path fill="none" stroke="#669B80" stroke-miterlimit="10" d="M133.291,286.035l-4.048,2.581l-3.518,5.518l5.518-3.518l2.33-3.655
		C133.479,286.652,133.386,286.348,133.291,286.035z"/>
	<path fill="none" stroke="#669B80" stroke-miterlimit="10" d="M134.127,288.777l-2.885,1.839l-3.518,5.518l5.518-3.518l1.39-2.181
		C134.467,289.893,134.297,289.335,134.127,288.777z"/>
	<path fill="none" stroke="#669B80" stroke-miterlimit="10" d="M73.372,212.446c0.415,0.652,0.836,1.313,1.264,1.985l2.997-4.701
		L73.372,212.446z"/>
	<path fill="none" stroke="#669B80" stroke-miterlimit="10" d="M83.151,206.211l-5.518,3.518l-2.997,4.701
		c0.073,0.115,0.146,0.229,0.22,0.345l4.778-3.046L83.151,206.211z"/>
	<path fill="none" stroke="#669B80" stroke-miterlimit="10" d="M81.151,204.211l-5.518,3.518l-2.634,4.131
		c0.123,0.193,0.249,0.391,0.373,0.585l4.261-2.717L81.151,204.211z"/>
	<path fill="none" stroke="#669B80" stroke-miterlimit="10" d="M85.151,208.211l-5.518,3.518L76.272,217
		c0.022,0.035,0.044,0.069,0.066,0.104l5.294-3.375L85.151,208.211z"/>
	<path fill="none" stroke="#669B80" stroke-miterlimit="10" d="M74.855,214.775c0.466,0.731,0.937,1.472,1.417,2.225l3.361-5.271
		L74.855,214.775z"/>
	<path fill="none" stroke="#669B80" stroke-miterlimit="10" d="M81.633,213.729l-5.294,3.375c0.488,0.766,0.982,1.542,1.484,2.329
		l0.292-0.186L81.633,213.729z"/>
	<path fill="none" stroke="#669B80" stroke-miterlimit="10" d="M71.889,210.116c0.364,0.573,0.734,1.154,1.11,1.744l2.634-4.131
		L71.889,210.116z"/>
	<path fill="none" stroke="#669B80" stroke-miterlimit="10" d="M70.407,207.786c0.313,0.493,0.633,0.995,0.956,1.503l2.27-3.56
		L70.407,207.786z"/>
	<path fill="none" stroke="#669B80" stroke-miterlimit="10" d="M75.151,198.211l-5.518,3.518l-1.54,2.415
		c0.273,0.43,0.55,0.865,0.833,1.311l2.707-1.726L75.151,198.211z"/>
	<path fill="none" stroke="#669B80" stroke-miterlimit="10" d="M79.151,202.211l-5.518,3.518l-2.27,3.56
		c0.175,0.275,0.348,0.547,0.526,0.827l3.744-2.387L79.151,202.211z"/>
	<path fill="none" stroke="#669B80" stroke-miterlimit="10" d="M77.151,200.211l-5.518,3.518l-1.905,2.988
		c0.222,0.35,0.451,0.71,0.679,1.068l3.226-2.057L77.151,200.211z"/>
	<path fill="none" stroke="#669B80" stroke-miterlimit="10" d="M68.926,205.455c0.264,0.416,0.529,0.833,0.802,1.262l1.905-2.988
		L68.926,205.455z"/>
	<path fill="none" stroke="#669B80" stroke-miterlimit="10" d="M79.307,221.762c0.079,0.125,0.16,0.251,0.24,0.376l0.568-0.891
		L79.307,221.762z"/>
	<path fill="none" stroke="#669B80" stroke-miterlimit="10" d="M85.248,231.075c0.283,0.443,0.566,0.888,0.851,1.334l2.016-3.162
		L85.248,231.075z"/>
	<path fill="none" stroke="#669B80" stroke-miterlimit="10" d="M91.633,223.729l-5.518,3.518l-1.654,2.595
		c0.261,0.409,0.524,0.821,0.787,1.233l2.867-1.828L91.633,223.729z"/>
	<path fill="none" stroke="#669B80" stroke-miterlimit="10" d="M83.762,228.747c0.232,0.364,0.464,0.728,0.699,1.095l1.654-2.595
		L83.762,228.747z"/>
	<path fill="none" stroke="#669B80" stroke-miterlimit="10" d="M93.633,225.729l-5.518,3.518l-2.016,3.162
		c0.211,0.331,0.422,0.662,0.634,0.994l3.381-2.156L93.633,225.729z"/>
	<path fill="none" stroke="#669B80" stroke-miterlimit="10" d="M88.219,235.731c0.384,0.601,0.77,1.206,1.157,1.812l2.739-4.296
		L88.219,235.731z"/>
	<path fill="none" stroke="#669B80" stroke-miterlimit="10" d="M86.734,233.403c0.333,0.522,0.668,1.047,1.004,1.573l2.377-3.729
		L86.734,233.403z"/>
	<path fill="none" stroke="#669B80" stroke-miterlimit="10" d="M95.633,227.729l-5.518,3.518l-2.377,3.729
		c0.161,0.252,0.321,0.502,0.482,0.755l3.896-2.484L95.633,227.729z"/>
	<path fill="none" stroke="#669B80" stroke-miterlimit="10" d="M85.633,217.729l-5.518,3.518l-0.568,0.891
		c0.411,0.645,0.826,1.296,1.245,1.952l1.323-0.844L85.633,217.729z"/>
	<path fill="none" stroke="#669B80" stroke-miterlimit="10" d="M83.633,215.729l-5.518,3.518l-0.205,0.322
		c0.46,0.722,0.927,1.454,1.398,2.193l0.808-0.515L83.633,215.729z"/>
	<path fill="none" stroke="#669B80" stroke-miterlimit="10" d="M80.792,224.091c0.131,0.205,0.261,0.41,0.393,0.616l0.93-1.459
		L80.792,224.091z"/>
	<path fill="none" stroke="#669B80" stroke-miterlimit="10" d="M89.633,221.729l-5.518,3.518l-1.292,2.027
		c0.311,0.488,0.625,0.98,0.94,1.473l2.353-1.5L89.633,221.729z"/>
	<path fill="none" stroke="#669B80" stroke-miterlimit="10" d="M87.633,219.729l-5.518,3.518l-0.93,1.459
		c0.361,0.567,0.726,1.138,1.092,1.713l1.838-1.172L87.633,219.729z"/>
	<path fill="none" stroke="#669B80" stroke-miterlimit="10" d="M82.277,226.419c0.182,0.285,0.363,0.568,0.546,0.855l1.292-2.027
		L82.277,226.419z"/>
	<polygon fill="none" stroke="#669B80" stroke-miterlimit="10" points="87.151,210.211 92.669,206.694 92.892,206.343 
		91.346,204.262 90.669,204.694 	"/>
	<polygon fill="none" stroke="#669B80" stroke-miterlimit="10" points="92.997,206.484 92.892,206.343 92.669,206.694 	"/>
	<polygon fill="none" stroke="#669B80" stroke-miterlimit="10" points="89.151,212.211 94.649,208.706 92.997,206.484 
		92.669,206.694 	"/>
	<polygon fill="none" stroke="#669B80" stroke-miterlimit="10" points="91.346,204.262 91.13,203.971 90.669,204.694 	"/>
	<polygon fill="none" stroke="#669B80" stroke-miterlimit="10" points="83.151,206.211 88.669,202.694 89.367,201.598 
		88.044,199.817 86.669,200.694 	"/>
	<polygon fill="none" stroke="#669B80" stroke-miterlimit="10" points="85.151,208.211 90.669,204.694 91.13,203.971 
		89.695,202.039 88.669,202.694 	"/>
	<polygon fill="none" stroke="#669B80" stroke-miterlimit="10" points="85.633,217.729 91.151,214.211 94.655,208.715 
		94.649,208.706 89.151,212.211 	"/>
	<polygon fill="none" stroke="#669B80" stroke-miterlimit="10" points="89.695,202.039 89.367,201.598 88.669,202.694 	"/>
	<polygon fill="none" stroke="#669B80" stroke-miterlimit="10" points="79.151,202.211 84.669,198.694 85.842,196.854 
		84.741,195.372 82.669,196.694 	"/>
	<polygon fill="none" stroke="#669B80" stroke-miterlimit="10" points="73.151,196.211 78.669,192.694 80.554,189.737 
		79.787,188.705 76.669,190.694 	"/>
	<polygon fill="none" stroke="#669B80" stroke-miterlimit="10" points="79.787,188.705 78.791,187.365 76.669,190.694 	"/>
	<polygon fill="none" stroke="#669B80" stroke-miterlimit="10" points="81.438,190.928 80.554,189.737 78.669,192.694 	"/>
	<polygon fill="none" stroke="#669B80" stroke-miterlimit="10" points="69.151,192.211 74.669,188.694 77.028,184.992 
		76.485,184.261 72.669,186.694 	"/>
	<polygon fill="none" stroke="#669B80" stroke-miterlimit="10" points="75.151,198.211 80.669,194.694 82.316,192.109 
		81.438,190.928 78.669,192.694 	"/>
	<polygon fill="none" stroke="#669B80" stroke-miterlimit="10" points="71.151,194.211 76.669,190.694 78.791,187.365 
		78.136,186.483 74.669,188.694 	"/>
	<polygon fill="none" stroke="#669B80" stroke-miterlimit="10" points="88.044,199.817 87.604,199.226 86.669,200.694 	"/>
	<polygon fill="none" stroke="#669B80" stroke-miterlimit="10" points="78.136,186.483 77.028,184.992 74.669,188.694 	"/>
	<polygon fill="none" stroke="#669B80" stroke-miterlimit="10" points="86.392,197.595 85.842,196.854 84.669,198.694 	"/>
	<polygon fill="none" stroke="#669B80" stroke-miterlimit="10" points="81.151,204.211 86.669,200.694 87.604,199.226 
		86.392,197.595 84.669,198.694 	"/>
	<polygon fill="none" stroke="#669B80" stroke-miterlimit="10" points="77.151,200.211 82.669,196.694 84.079,194.481 83.09,193.15 
		80.669,194.694 	"/>
	<polygon fill="none" stroke="#669B80" stroke-miterlimit="10" points="83.09,193.15 82.316,192.109 80.669,194.694 	"/>
	<polygon fill="none" stroke="#669B80" stroke-miterlimit="10" points="84.741,195.372 84.079,194.481 82.669,196.694 	"/>
	<polygon fill="none" stroke="#669B80" stroke-miterlimit="10" points="112.282,232.438 111.151,234.211 112.812,233.152 	"/>
	<polygon fill="none" stroke="#669B80" stroke-miterlimit="10" points="112.812,233.152 111.151,234.211 107.633,239.729 
		113.151,236.211 114.044,234.81 	"/>
	<polygon fill="none" stroke="#669B80" stroke-miterlimit="10" points="111.161,230.93 109.151,232.211 105.633,237.729 
		111.151,234.211 112.282,232.438 	"/>
	<polygon fill="none" stroke="#669B80" stroke-miterlimit="10" points="115.807,237.182 114.682,238.947 116.335,237.893 	"/>
	<polygon fill="none" stroke="#669B80" stroke-miterlimit="10" points="110.519,230.066 109.151,232.211 111.161,230.93 	"/>
	<polygon fill="none" stroke="#669B80" stroke-miterlimit="10" points="114.463,235.375 113.151,236.211 109.164,242.465 
		114.682,238.947 115.807,237.182 	"/>
	<polygon fill="none" stroke="#669B80" stroke-miterlimit="10" points="114.044,234.81 113.151,236.211 114.463,235.375 	"/>
	<polygon fill="none" stroke="#669B80" stroke-miterlimit="10" points="109.51,228.707 107.151,230.211 103.633,235.729 
		109.151,232.211 110.519,230.066 	"/>
	<polygon fill="none" stroke="#669B80" stroke-miterlimit="10" points="116.335,237.893 114.682,238.947 111.164,244.465 
		116.682,240.947 117.569,239.555 	"/>
	<path fill="none" stroke="#669B80" stroke-miterlimit="10" d="M123.164,256.465l0.922-0.588c-0.059-0.193-0.118-0.387-0.177-0.58
		L123.164,256.465z"/>
	<path fill="none" stroke="#669B80" stroke-miterlimit="10" d="M121.164,254.465l2.084-1.328c-0.133-0.437-0.267-0.875-0.401-1.312
		L121.164,254.465z"/>
	<polygon fill="none" stroke="#669B80" stroke-miterlimit="10" points="108.756,227.693 107.151,230.211 109.51,228.707 	"/>
	<path fill="none" stroke="#669B80" stroke-miterlimit="10" d="M97.633,229.729l-5.518,3.518l-2.739,4.296
		c0.11,0.172,0.219,0.343,0.329,0.516l4.409-2.811L97.633,229.729z"/>
	<polygon fill="none" stroke="#669B80" stroke-miterlimit="10" points="117.569,239.555 116.682,240.947 117.986,240.116 	"/>
	<path fill="none" stroke="#669B80" stroke-miterlimit="10" d="M120.165,243.047l-0.527-0.709l-0.956,0.609l-3.518,5.518
		l5.518-3.518l0.043-0.068C120.538,244.269,120.352,243.659,120.165,243.047z"/>
	<polygon fill="none" stroke="#669B80" stroke-miterlimit="10" points="117.986,240.116 116.682,240.947 113.164,246.465 
		118.682,242.947 119.332,241.927 	"/>
	<polygon fill="none" stroke="#669B80" stroke-miterlimit="10" points="119.332,241.927 118.682,242.947 119.638,242.338 	"/>
	<path fill="none" stroke="#669B80" stroke-miterlimit="10" d="M120.682,244.947l-3.518,5.518l4.409-2.811
		c-0.279-0.912-0.558-1.826-0.838-2.741L120.682,244.947z"/>
	<path fill="none" stroke="#669B80" stroke-miterlimit="10" d="M120.725,244.88l-0.043,0.067l0.053-0.034
		C120.732,244.902,120.728,244.891,120.725,244.88z"/>
	<polygon fill="none" stroke="#669B80" stroke-miterlimit="10" points="97.151,220.211 101.254,217.596 99.943,215.832 	"/>
	<polygon fill="none" stroke="#669B80" stroke-miterlimit="10" points="99.151,222.211 102.905,219.818 101.706,218.204 	"/>
	<polygon fill="none" stroke="#669B80" stroke-miterlimit="10" points="93.151,216.211 97.951,213.151 96.418,211.087 	"/>
	<polygon fill="none" stroke="#669B80" stroke-miterlimit="10" points="95.151,218.211 99.602,215.373 98.18,213.46 	"/>
	<path fill="none" stroke="#669B80" stroke-miterlimit="10" d="M119.164,252.465l3.247-2.07c-0.208-0.68-0.416-1.361-0.624-2.043
		L119.164,252.465z"/>
	<polygon fill="none" stroke="#669B80" stroke-miterlimit="10" points="105.151,228.211 107.859,226.485 106.994,225.321 	"/>
	<polygon fill="none" stroke="#669B80" stroke-miterlimit="10" points="101.151,224.211 104.556,222.041 103.468,220.577 	"/>
	<polygon fill="none" stroke="#669B80" stroke-miterlimit="10" points="103.151,226.211 106.207,224.263 105.231,222.949 	"/>
	<polygon fill="none" stroke="#669B80" stroke-miterlimit="10" points="120.682,244.947 115.164,248.465 111.646,253.982 
		117.164,250.465 	"/>
	<polygon fill="none" stroke="#669B80" stroke-miterlimit="10" points="103.646,245.983 100.128,251.501 105.646,247.983 
		109.164,242.465 	"/>
	<polygon fill="none" stroke="#669B80" stroke-miterlimit="10" points="109.151,232.211 103.633,235.729 100.115,241.247 
		105.633,237.729 	"/>
	<polygon fill="none" stroke="#669B80" stroke-miterlimit="10" points="93.633,225.729 90.115,231.247 95.633,227.729 
		99.151,222.211 	"/>
	<polygon fill="none" stroke="#669B80" stroke-miterlimit="10" points="100.115,241.247 96.597,246.765 102.115,243.247 
		105.633,237.729 	"/>
	<polygon fill="none" stroke="#669B80" stroke-miterlimit="10" points="113.151,236.211 107.633,239.729 103.646,245.983 
		109.164,242.465 	"/>
	<polygon fill="none" stroke="#669B80" stroke-miterlimit="10" points="102.115,243.247 98.128,249.501 103.646,245.983 
		107.633,239.729 	"/>
	<polygon fill="none" stroke="#669B80" stroke-miterlimit="10" points="111.151,234.211 105.633,237.729 102.115,243.247 
		107.633,239.729 	"/>
	<polygon fill="none" stroke="#669B80" stroke-miterlimit="10" points="107.151,230.211 101.633,233.729 98.115,239.247 
		103.633,235.729 	"/>
	<polygon fill="none" stroke="#669B80" stroke-miterlimit="10" points="105.231,222.949 104.556,222.041 101.151,224.211 
		97.633,229.729 103.151,226.211 	"/>
	<polygon fill="none" stroke="#669B80" stroke-miterlimit="10" points="108.756,227.693 107.859,226.485 105.151,228.211 
		101.633,233.729 107.151,230.211 	"/>
	<polygon fill="none" stroke="#669B80" stroke-miterlimit="10" points="103.468,220.577 102.905,219.818 99.151,222.211 
		95.633,227.729 101.151,224.211 	"/>
	<polygon fill="none" stroke="#669B80" stroke-miterlimit="10" points="95.633,227.729 92.115,233.247 97.633,229.729 
		101.151,224.211 	"/>
	<polygon fill="none" stroke="#669B80" stroke-miterlimit="10" points="99.633,231.729 96.115,237.247 101.633,233.729 
		105.151,228.211 	"/>
	<polygon fill="none" stroke="#669B80" stroke-miterlimit="10" points="97.633,229.729 94.115,235.247 99.633,231.729 
		103.151,226.211 	"/>
	<polygon fill="none" stroke="#669B80" stroke-miterlimit="10" points="106.994,225.321 106.207,224.263 103.151,226.211 
		99.633,231.729 105.151,228.211 	"/>
	<polygon fill="none" stroke="#669B80" stroke-miterlimit="10" points="98.115,239.247 94.597,244.765 100.115,241.247 
		103.633,235.729 	"/>
	<path fill="none" stroke="#669B80" stroke-miterlimit="10" d="M122.847,251.825c-0.145-0.476-0.291-0.952-0.437-1.429l-3.247,2.07
		l-3.518,5.519l5.518-3.519L122.847,251.825z"/>
	<polygon fill="none" stroke="#669B80" stroke-miterlimit="10" points="113.646,255.982 110.128,261.501 115.646,257.982 
		119.164,252.465 	"/>
	<path fill="none" stroke="#669B80" stroke-miterlimit="10" d="M121.786,248.352c-0.071-0.232-0.142-0.465-0.213-0.698l-4.409,2.811
		l-3.518,5.518l5.518-3.518L121.786,248.352z"/>
	<polygon fill="none" stroke="#669B80" stroke-miterlimit="10" points="115.646,257.982 112.128,263.501 117.646,259.982 
		121.164,254.465 	"/>
	<polygon fill="none" stroke="#669B80" stroke-miterlimit="10" points="114.682,238.947 109.164,242.465 105.646,247.983 
		111.164,244.465 	"/>
	<path fill="none" stroke="#669B80" stroke-miterlimit="10" d="M123.908,255.298c-0.219-0.719-0.439-1.438-0.66-2.161l-2.084,1.329
		l-3.518,5.519l5.518-3.519L123.908,255.298z"/>
	<polygon fill="none" stroke="#669B80" stroke-miterlimit="10" points="111.646,253.982 108.128,259.501 113.646,255.982 
		117.164,250.465 	"/>
	<polygon fill="none" stroke="#669B80" stroke-miterlimit="10" points="117.646,259.982 114.128,265.501 119.646,261.982 
		123.164,256.465 	"/>
	<polygon fill="none" stroke="#669B80" stroke-miterlimit="10" points="116.682,240.947 111.164,244.465 107.646,249.983 
		113.164,246.465 	"/>
	<polygon fill="none" stroke="#669B80" stroke-miterlimit="10" points="107.646,249.983 104.128,255.501 109.646,251.982 
		113.164,246.465 	"/>
	<polygon fill="none" stroke="#669B80" stroke-miterlimit="10" points="105.646,247.983 102.128,253.501 107.646,249.983 
		111.164,244.465 	"/>
	<path fill="none" stroke="#669B80" stroke-miterlimit="10" d="M124.085,255.878l-0.922,0.588l-3.518,5.519l5.277-3.364
		C124.645,257.709,124.366,256.796,124.085,255.878z"/>
	<polygon fill="none" stroke="#669B80" stroke-miterlimit="10" points="109.646,251.982 106.128,257.501 111.646,253.982 
		115.164,248.465 	"/>
	<polygon fill="none" stroke="#669B80" stroke-miterlimit="10" points="118.682,242.947 113.164,246.465 109.646,251.982 
		115.164,248.465 	"/>
	<polygon fill="none" stroke="#669B80" stroke-miterlimit="10" points="89.633,221.729 86.115,227.247 91.633,223.729 
		95.151,218.211 	"/>
	<polygon fill="none" stroke="#669B80" stroke-miterlimit="10" points="87.633,219.729 84.115,225.247 89.633,221.729 
		93.151,216.211 	"/>
	<polygon fill="none" stroke="#669B80" stroke-miterlimit="10" points="98.18,213.46 97.951,213.151 93.151,216.211 89.633,221.729 
		95.151,218.211 	"/>
	<polygon fill="none" stroke="#669B80" stroke-miterlimit="10" points="96.418,211.087 96.3,210.929 91.151,214.211 87.633,219.729 
		93.151,216.211 	"/>
	<polygon fill="none" stroke="#669B80" stroke-miterlimit="10" points="91.633,223.729 88.115,229.247 93.633,225.729 
		97.151,220.211 	"/>
	<polygon fill="none" stroke="#669B80" stroke-miterlimit="10" points="101.706,218.204 101.254,217.596 97.151,220.211 
		93.633,225.729 99.151,222.211 	"/>
	<polygon fill="none" stroke="#669B80" stroke-miterlimit="10" points="99.943,215.832 99.602,215.373 95.151,218.211 
		91.633,223.729 97.151,220.211 	"/>
	<path fill="none" stroke="#669B80" stroke-miterlimit="10" d="M67.151,190.211l-4.484,2.859c0.305,0.937,0.618,1.832,0.936,2.679
		l0.031-0.02L67.151,190.211z"/>
	<polygon fill="none" stroke="#669B80" stroke-miterlimit="10" points="85.633,217.729 82.115,223.247 87.633,219.729 
		91.151,214.211 	"/>
	<polygon fill="none" stroke="#669B80" stroke-miterlimit="10" points="90.669,204.694 85.151,208.211 81.633,213.729 
		87.151,210.211 	"/>
	<polygon fill="none" stroke="#669B80" stroke-miterlimit="10" points="94.655,208.715 91.151,214.211 96.3,210.929 	"/>
	<polygon fill="none" stroke="#669B80" stroke-miterlimit="10" points="81.633,213.729 78.115,219.247 83.633,215.729 
		87.151,210.211 	"/>
	<polygon fill="none" stroke="#669B80" stroke-miterlimit="10" points="83.633,215.729 80.115,221.247 85.633,217.729 
		89.151,212.211 	"/>
	<polygon fill="none" stroke="#669B80" stroke-miterlimit="10" points="77.151,200.211 73.633,205.729 79.151,202.211 
		82.669,196.694 	"/>
	<polygon fill="none" stroke="#669B80" stroke-miterlimit="10" points="81.151,204.211 77.633,209.729 83.151,206.211 
		86.669,200.694 	"/>
	<polygon fill="none" stroke="#669B80" stroke-miterlimit="10" points="79.151,202.211 75.633,207.729 81.151,204.211 
		84.669,198.694 	"/>
	<polygon fill="none" stroke="#669B80" stroke-miterlimit="10" points="83.151,206.211 79.633,211.729 85.151,208.211 
		88.669,202.694 	"/>
	<polygon fill="none" stroke="#669B80" stroke-miterlimit="10" points="92.669,206.694 87.151,210.211 83.633,215.729 
		89.151,212.211 	"/>
	<path fill="none" stroke="#669B80" stroke-miterlimit="10" d="M121.646,263.982l4.114-2.623c-0.263-0.859-0.526-1.721-0.791-2.59
		L121.646,263.982z"/>
	<path fill="none" stroke="#669B80" stroke-miterlimit="10" d="M123.646,265.982l2.951-1.881c-0.189-0.617-0.377-1.233-0.567-1.857
		L123.646,265.982z"/>
	<path fill="none" stroke="#669B80" stroke-miterlimit="10" d="M89.706,238.058c0.435,0.681,0.871,1.365,1.31,2.051l3.1-4.862
		L89.706,238.058z"/>
	<path fill="none" stroke="#669B80" stroke-miterlimit="10" d="M126.278,267.58l1.156-0.737c-0.074-0.243-0.148-0.483-0.222-0.727
		L126.278,267.58z"/>
	<path fill="none" stroke="#669B80" stroke-miterlimit="10" d="M67.633,199.729l-1.173,1.84c0.32,0.505,0.648,1.022,0.986,1.554
		l2.188-1.395l3.518-5.518L67.633,199.729z"/>
	<path fill="none" stroke="#669B80" stroke-miterlimit="10" d="M71.151,194.211l-5.518,3.518l-0.719,1.128
		c0.346,0.718,0.694,1.369,1.044,1.921c0.003,0.004,0.006,0.009,0.009,0.014l1.667-1.063L71.151,194.211z"/>
	<path fill="none" stroke="#669B80" stroke-miterlimit="10" d="M65.966,200.792c0.16,0.253,0.328,0.518,0.493,0.778l1.173-1.84
		L65.966,200.792z"/>
	<path fill="none" stroke="#669B80" stroke-miterlimit="10" d="M64.669,198.344c0.081,0.177,0.163,0.344,0.244,0.514l0.719-1.128
		L64.669,198.344z"/>
	<path fill="none" stroke="#669B80" stroke-miterlimit="10" d="M69.151,192.211l-5.518,3.518l-0.024,0.038
		c0.348,0.925,0.702,1.792,1.061,2.576l0.964-0.614L69.151,192.211z"/>
	<path fill="none" stroke="#669B80" stroke-miterlimit="10" d="M63.602,195.749c0.002,0.006,0.005,0.012,0.007,0.018l0.024-0.038
		L63.602,195.749z"/>
	<polygon fill="none" stroke="#669B80" stroke-miterlimit="10" points="73.151,196.211 69.633,201.729 75.151,198.211 
		78.669,192.694 	"/>
	<polygon fill="none" stroke="#669B80" stroke-miterlimit="10" points="75.151,198.211 71.633,203.729 77.151,200.211 
		80.669,194.694 	"/>
	<polygon fill="none" stroke="#669B80" stroke-miterlimit="10" points="71.151,194.211 74.669,188.694 69.151,192.211 
		65.633,197.729 	"/>
	<polygon fill="none" stroke="#669B80" stroke-miterlimit="10" points="69.151,192.211 72.669,186.694 67.151,190.211 
		63.633,195.729 	"/>
	<polygon fill="none" stroke="#669B80" stroke-miterlimit="10" points="73.151,196.211 76.669,190.694 71.151,194.211 
		67.633,199.729 	"/>
	<path fill="none" stroke="#669B80" stroke-miterlimit="10" d="M68.093,204.144l1.54-2.415l-2.188,1.395
		C67.658,203.459,67.874,203.799,68.093,204.144z"/>
	<path fill="none" stroke="#669B80" stroke-miterlimit="10" d="M112.213,273.273c0.039,0.062,0.079,0.123,0.118,0.185l0.279-0.438
		L112.213,273.273z"/>
	<path fill="none" stroke="#669B80" stroke-miterlimit="10" d="M116.128,267.501l-5.403,3.444c0.498,0.779,0.994,1.555,1.488,2.326
		l0.397-0.252L116.128,267.501z"/>
	<path fill="none" stroke="#669B80" stroke-miterlimit="10" d="M118.128,269.501l-5.518,3.519l-0.279,0.438
		c0.459,0.717,0.915,1.432,1.37,2.143l0.909-0.58L118.128,269.501z"/>
	<path fill="none" stroke="#669B80" stroke-miterlimit="10" d="M113.701,275.6c0.09,0.141,0.18,0.281,0.27,0.422l0.639-1.002
		L113.701,275.6z"/>
	<path fill="none" stroke="#669B80" stroke-miterlimit="10" d="M119.646,261.982l-5.518,3.519l-3.437,5.392
		c0.011,0.019,0.023,0.035,0.034,0.053l5.403-3.444L119.646,261.982z"/>
	<path fill="none" stroke="#669B80" stroke-miterlimit="10" d="M109.237,268.62c0.486,0.761,0.971,1.519,1.454,2.272l3.437-5.392
		L109.237,268.62z"/>
	<path fill="none" stroke="#669B80" stroke-miterlimit="10" d="M120.128,271.501l-5.518,3.519l-0.639,1.002
		c0.408,0.638,0.814,1.271,1.218,1.903l1.421-0.905L120.128,271.501z"/>
	<path fill="none" stroke="#669B80" stroke-miterlimit="10" d="M126.76,277.098l-5.518,3.519l-2.162,3.392
		c0.192,0.301,0.383,0.598,0.573,0.896l3.589-2.288L126.76,277.098z"/>
	<path fill="none" stroke="#669B80" stroke-miterlimit="10" d="M119.654,284.904c0.358,0.56,0.714,1.115,1.067,1.668l2.522-3.956
		L119.654,284.904z"/>
	<path fill="none" stroke="#669B80" stroke-miterlimit="10" d="M121.142,287.23c0.41,0.641,0.816,1.275,1.219,1.904l2.881-4.519
		L121.142,287.23z"/>
	<path fill="none" stroke="#669B80" stroke-miterlimit="10" d="M115.189,277.925c0.141,0.22,0.282,0.441,0.423,0.66l0.999-1.567
		L115.189,277.925z"/>
	<path fill="none" stroke="#669B80" stroke-miterlimit="10" d="M122.63,289.557c0.462,0.721,0.92,1.437,1.371,2.143l3.241-5.083
		L122.63,289.557z"/>
	<path fill="none" stroke="#669B80" stroke-miterlimit="10" d="M130.76,281.098l-5.518,3.519l-2.881,4.519
		c0.089,0.141,0.18,0.282,0.269,0.422l4.612-2.94L130.76,281.098z"/>
	<path fill="none" stroke="#669B80" stroke-miterlimit="10" d="M128.76,279.098l-5.518,3.519l-2.522,3.956
		c0.141,0.22,0.282,0.439,0.421,0.658l4.101-2.613L128.76,279.098z"/>
	<path fill="none" stroke="#669B80" stroke-miterlimit="10" d="M117.646,259.982l-5.518,3.519l-3.077,4.827
		c0.062,0.097,0.124,0.193,0.186,0.291l4.891-3.118L117.646,259.982z"/>
	<path fill="none" stroke="#669B80" stroke-miterlimit="10" d="M122.76,273.098l-6.15,3.922l-0.999,1.566
		c0.357,0.559,0.712,1.113,1.066,1.666l2.566-1.636L122.76,273.098z"/>
	<path fill="none" stroke="#669B80" stroke-miterlimit="10" d="M124.76,275.098l-5.518,3.519l-1.803,2.827
		c0.244,0.382,0.484,0.757,0.726,1.135l3.077-1.962L124.76,275.098z"/>
	<path fill="none" stroke="#669B80" stroke-miterlimit="10" d="M118.165,282.578c0.306,0.479,0.612,0.956,0.915,1.43l2.162-3.392
		L118.165,282.578z"/>
	<path fill="none" stroke="#669B80" stroke-miterlimit="10" d="M116.677,280.252c0.255,0.398,0.51,0.797,0.763,1.191l1.803-2.827
		L116.677,280.252z"/>
	<path fill="none" stroke="#669B80" stroke-miterlimit="10" d="M102.115,243.247l-5.518,3.518l-0.664,1.042
		c0.467,0.732,0.936,1.464,1.404,2.198l0.791-0.504L102.115,243.247z"/>
	<path fill="none" stroke="#669B80" stroke-miterlimit="10" d="M95.652,247.368c0.094,0.146,0.187,0.293,0.281,0.44l0.664-1.042
		L95.652,247.368z"/>
	<path fill="none" stroke="#669B80" stroke-miterlimit="10" d="M103.646,245.983l-5.518,3.518l-0.556,0.872
		c0.417,0.652,0.834,1.307,1.252,1.959l1.304-0.831L103.646,245.983z"/>
	<path fill="none" stroke="#669B80" stroke-miterlimit="10" d="M100.115,241.247l-5.518,3.518l-0.304,0.476
		c0.452,0.707,0.905,1.416,1.358,2.126l0.945-0.603L100.115,241.247z"/>
	<path fill="none" stroke="#669B80" stroke-miterlimit="10" d="M97.337,250.005c0.078,0.122,0.157,0.245,0.235,0.368l0.556-0.872
		L97.337,250.005z"/>
	<path fill="none" stroke="#669B80" stroke-miterlimit="10" d="M98.824,252.332c0.129,0.202,0.258,0.404,0.387,0.605l0.916-1.437
		L98.824,252.332z"/>
	<path fill="none" stroke="#669B80" stroke-miterlimit="10" d="M94.165,245.041c0.043,0.067,0.086,0.134,0.128,0.201l0.304-0.476
		L94.165,245.041z"/>
	<path fill="none" stroke="#669B80" stroke-miterlimit="10" d="M99.633,231.729l-5.518,3.518l-3.1,4.862
		c0.059,0.092,0.118,0.184,0.177,0.277l4.923-3.139L99.633,231.729z"/>
	<path fill="none" stroke="#669B80" stroke-miterlimit="10" d="M91.192,240.386c0.486,0.761,0.973,1.524,1.462,2.29l3.461-5.428
		L91.192,240.386z"/>
	<path fill="none" stroke="#669B80" stroke-miterlimit="10" d="M98.115,239.247l-5.437,3.466c0.494,0.774,0.99,1.549,1.487,2.327
		l0.432-0.275L98.115,239.247z"/>
	<path fill="none" stroke="#669B80" stroke-miterlimit="10" d="M101.633,233.729l-5.518,3.518l-3.461,5.428
		c0.008,0.013,0.016,0.025,0.024,0.038l5.437-3.466L101.633,233.729z"/>
	<path fill="none" stroke="#669B80" stroke-miterlimit="10" d="M100.311,254.659c0.18,0.28,0.36,0.563,0.54,0.844l1.277-2.003
		L100.311,254.659z"/>
	<path fill="none" stroke="#669B80" stroke-miterlimit="10" d="M113.646,255.982l-5.518,3.519l-2.357,3.698
		c0.164,0.256,0.327,0.512,0.491,0.767l3.867-2.465L113.646,255.982z"/>
	<path fill="none" stroke="#669B80" stroke-miterlimit="10" d="M104.774,261.641c0.333,0.52,0.665,1.039,0.997,1.559l2.357-3.698
		L104.774,261.641z"/>
	<path fill="none" stroke="#669B80" stroke-miterlimit="10" d="M111.646,253.982l-5.518,3.519l-1.997,3.133
		c0.215,0.335,0.429,0.671,0.643,1.007l3.354-2.14L111.646,253.982z"/>
	<path fill="none" stroke="#669B80" stroke-miterlimit="10" d="M106.261,263.966c0.384,0.601,0.767,1.2,1.149,1.798l2.718-4.264
		L106.261,263.966z"/>
	<path fill="none" stroke="#669B80" stroke-miterlimit="10" d="M115.646,257.982l-5.518,3.519l-2.718,4.263
		c0.113,0.178,0.226,0.354,0.339,0.529l4.379-2.792L115.646,257.982z"/>
	<path fill="none" stroke="#669B80" stroke-miterlimit="10" d="M101.799,256.986c0.231,0.361,0.462,0.722,0.692,1.082l1.637-2.567
		L101.799,256.986z"/>
	<path fill="none" stroke="#669B80" stroke-miterlimit="10" d="M107.646,249.983l-5.518,3.518l-1.277,2.003
		c0.316,0.494,0.632,0.988,0.948,1.482l2.329-1.485L107.646,249.983z"/>
	<path fill="none" stroke="#669B80" stroke-miterlimit="10" d="M103.286,259.312c0.282,0.441,0.563,0.881,0.844,1.321l1.997-3.133
		L103.286,259.312z"/>
	<path fill="none" stroke="#669B80" stroke-miterlimit="10" d="M107.749,266.293c0.435,0.68,0.869,1.359,1.302,2.035l3.077-4.827
		L107.749,266.293z"/>
	<path fill="none" stroke="#669B80" stroke-miterlimit="10" d="M109.646,251.982l-5.518,3.519l-1.637,2.567
		c0.265,0.416,0.53,0.83,0.795,1.244l2.842-1.812L109.646,251.982z"/>
	<path fill="none" stroke="#669B80" stroke-miterlimit="10" d="M105.646,247.983l-5.518,3.518l-0.916,1.437
		c0.366,0.574,0.733,1.147,1.1,1.722l1.817-1.158L105.646,247.983z"/>
	<path fill="none" stroke="#669B80" stroke-miterlimit="10" d="M132.513,283.486c-0.02-0.065-0.039-0.129-0.059-0.193l-5.212,3.323
		l-3.241,5.083c0.04,0.062,0.078,0.121,0.117,0.183l5.123-3.266L132.513,283.486z"/>
	<path fill="none" stroke="#669B80" stroke-miterlimit="10" d="M129.243,288.616l-5.123,3.266c0.504,0.787,0.999,1.562,1.489,2.326
		l0.117-0.074L129.243,288.616z"/>
	<path fill="none" stroke="#669B80" stroke-miterlimit="10" d="M131.243,290.616l-5.518,3.518l-0.082,0.13
		c0.492,0.769,0.977,1.526,1.454,2.271l0.628-0.4L131.243,290.616z"/>
	<path fill="none" stroke="#669B80" stroke-miterlimit="10" d="M125.608,294.208c0.012,0.019,0.023,0.036,0.035,0.054l0.082-0.129
		L125.608,294.208z"/>
	<polygon fill="none" stroke="#669B80" stroke-miterlimit="10" points="128.271,269.585 128.272,269.589 128.278,269.58 	"/>
	<path fill="none" stroke="#669B80" stroke-miterlimit="10" d="M92.597,242.765l0.081-0.052c-0.008-0.013-0.016-0.025-0.024-0.038
		L92.597,242.765z"/>
	<polygon fill="none" stroke="#669B80" stroke-miterlimit="10" points="94.669,208.694 94.649,208.706 94.655,208.715 	"/>
</g>
<path fill="#A22070" d="M102.283,136.668c0,0-4.907,3.26-2.273,19.598c1.162,7.208,35.367,118.919,44.821,149.432
	c0.175,0.565,16.09-15.772,16.248-15.263c1.238,3.994-13.407,21.096-13.407,21.096l-2.468,0.416l-3.5-2.668l-41.179-135.281
	l-4.873-28.015c0,0,2.244-8.649,2.981-9.093c0.737-0.444,3.858-2.414,3.858-2.414L102.283,136.668z"/>
<path fill="#669B80" d="M59.162,165.572c0,0,0.842,11.826,2.792,18.688c3.679,12.951,5.419,15.975,10.197,23.793
	c4.778,7.818,67.386,104.81,67.386,104.81l-4.574-1.247L62.666,197.853l-5.034-18.689l-0.22-15.437L59.162,165.572z"/>
<path fill="#424244" d="M161.274,289.479l0.663-0.869c0.502-0.312,0.725-0.846,0.708-1.327c-0.048-1.439-1.205-1.519-3.13-1.589
	l3.044-3.266c0.378-0.406,0.501-0.988,0.32-1.513c-0.181-0.524-0.637-0.906-1.185-0.992c-0.107-0.018-2.428-0.379-4.421-0.444
	l0.663-0.869c0.502-0.312,0.725-0.846,0.708-1.327c-0.048-1.445-1.215-1.521-3.155-1.591l3.167-3.646
	c0.363-0.419,0.467-1.004,0.268-1.521c-0.199-0.519-0.668-0.883-1.219-0.95c-0.102-0.013-2.379-0.288-4.578-0.425l0.822-1.11
	c0.264-0.301,0.412-0.699,0.38-1.112c-0.104-1.32-1.182-1.462-2.975-1.59l3.053-3.767c0.33-0.407,0.424-0.958,0.247-1.451
	c-0.178-0.494-0.601-0.858-1.114-0.963c-0.095-0.021-2.153-0.435-4.335-0.653l0.678-0.847c0.324-0.287,0.533-0.699,0.526-1.144
	c-0.023-1.348-1.068-1.516-2.822-1.637l3.01-3.49c0.355-0.412,0.46-0.984,0.272-1.496c-0.188-0.511-0.637-0.881-1.175-0.965
	c-0.107-0.018-2.428-0.379-4.421-0.445l0.663-0.869c0.502-0.312,0.725-0.845,0.708-1.327c-0.048-1.445-1.215-1.52-3.155-1.59
	l3.167-3.647c0.363-0.419,0.467-1.004,0.268-1.521c-0.199-0.519-0.668-0.884-1.219-0.951c-0.102-0.012-2.379-0.288-4.578-0.425
	l0.822-1.11c0.264-0.301,0.412-0.699,0.38-1.113c-0.104-1.32-1.182-1.461-2.975-1.589l3.053-3.767
	c0.33-0.407,0.424-0.958,0.247-1.451c-0.178-0.494-0.601-0.859-1.114-0.963c-0.095-0.02-2.153-0.434-4.335-0.653l0.678-0.847
	c0.324-0.287,0.533-0.699,0.526-1.143c-0.024-1.357-1.082-1.518-2.858-1.64l2.895-3.625c0.336-0.419,0.421-0.986,0.224-1.486
	c-0.197-0.5-0.647-0.855-1.179-0.934c-0.105-0.016-2.39-0.348-4.482-0.572l1.058-1.021c0.424-0.409,0.569-1.03,0.37-1.586
	c-0.199-0.555-0.706-0.942-1.294-0.988l-1.943-0.153l3.073-3.964c0.337-0.435,0.409-1.02,0.188-1.523s-0.702-0.846-1.251-0.891
	c0,0-1.766-0.145-4.21-0.351l0.923-1.027c0.388-0.432,0.492-1.05,0.266-1.585c-0.226-0.536-0.741-0.893-1.322-0.916l-1.545-0.062
	l3.033-3.561c0.357-0.419,0.456-0.999,0.258-1.513c-0.198-0.513-0.661-0.877-1.206-0.947c0,0-2.21-0.287-4.517-0.56l0.892-1.169
	c0.284-0.373,0.377-0.857,0.253-1.309c-0.125-0.452-0.454-0.819-0.89-0.993c-0.162-0.065-0.474-0.189-1.899-0.205l2.773-3.54
	c0.329-0.419,0.41-0.982,0.214-1.478s-0.642-0.85-1.169-0.93c-0.11-0.018-2.267-0.345-4.066-0.568l0.761-0.963
	c0.272-0.289,0.434-0.681,0.415-1.098c-0.06-1.31-0.933-1.465-3.002-1.601l2.851-3.422c0.341-0.408,0.439-0.967,0.259-1.468
	c-0.18-0.501-0.611-0.868-1.135-0.967c-0.121-0.022-2.549-0.477-4.269-0.735l0.757-0.946c0.345-0.432,0.425-1.017,0.209-1.524
	c-0.216-0.507-0.693-0.856-1.243-0.907c-0.015-0.001-0.283-0.026-1.575-0.16l2.815-3.424c0.348-0.422,0.438-1,0.235-1.509
	c-0.203-0.508-0.666-0.865-1.209-0.933c0,0-2.496-0.309-4.306-0.552l0.862-1.025c0.332-0.395,0.438-0.932,0.281-1.422
	c-0.157-0.491-0.555-0.867-1.054-0.996c-0.032-0.008-0.604-0.154-1.627-0.296l2.947-3.392c0.37-0.426,0.47-1.024,0.257-1.547
	c-0.212-0.523-0.699-0.883-1.262-0.931l-4.524-0.384l0.835-1.263c0.296-0.447,0.33-1.019,0.09-1.499
	c-0.24-0.479-0.719-0.794-1.254-0.826l-1.235-0.071l2.938-3.386c0.379-0.437,0.474-1.052,0.242-1.582
	c-0.23-0.53-0.745-0.88-1.323-0.9c-0.805-0.028-2.879-0.139-4.329-0.352l2.644-2.77c0.402-0.422,0.524-1.039,0.312-1.582
	l-2.45-6.268c-0.703-2.183-1.876-2.841-2.738-3.007c-1.3-0.253-2.437,0.485-3.069,1.258c-0.139,0.17-0.292,0.347-0.455,0.535
	c-4.583,5.297-7.7,13.802,0.447,39.944c3.676,11.794,10.959,35.538,18.458,60.055l-39.492-53.15
	c-3.499-4.678-15.312-19.868-21.075-19.087c-0.435,0.061-1.239,0.323-1.736,1.398c-2.196,4.742,3.382,31.161,8.177,38.724
	c19.607,30.938,75.647,118.417,76.212,119.298l1.226,1.914l1.277-1.879c0.179-0.264,1.046-1.273,2.022-1.414
	c0.545-0.08,1.109,0.125,1.715,0.623l1.904-2.318c-1.588-1.305-3.076-1.412-4.046-1.273c-1.046,0.15-1.92,0.631-2.587,1.146
	c-7.706-12.031-57.048-89.078-75.19-117.702c-4.735-7.471-9.279-31.439-8.116-35.531c2.393-1.52,24.802,27.24,17.812,17.896
	l44.508,59.902c10.676,34.924,20.991,68.785,21.175,69.389c0.202,0.664,0.825,1.104,1.532,1.06c0.825-0.056,3.178,0.12,3.339,1.135
	l2.963-0.471c-0.424-2.662-3.136-3.528-5.288-3.659c-3.438-11.285-33.096-108.605-41.93-136.948
	c-8.772-28.152-3.552-34.188-1.042-37.088c0.182-0.21,0.352-0.407,0.507-0.596c0.062-0.075,0.128-0.131,0.182-0.167
	c0.096,0.113,0.276,0.385,0.46,0.967c0.01,0.032,0.021,0.064,0.034,0.095l2.12,5.422l-2.637,2.762
	c-0.184,0.198-1.08,1.251-0.692,2.509c0.182,0.585,0.684,1.349,2.053,1.661c0.72,0.164,1.689,0.285,2.624,0.372l-1.691,1.949
	c-0.557,0.625-1.008,1.641-0.603,2.619c0.228,0.55,0.776,1.212,2.095,1.398c-0.207,0.406-0.543,1.304-0.106,2.24
	c0.258,0.553,0.857,1.253,2.325,1.454l2.186,0.187l-1.75,2.015c-0.345,0.353-1.181,1.365-0.762,2.539
	c0.167,0.47,0.668,1.275,2.147,1.414c-0.049,0.067-0.092,0.138-0.129,0.211c-0.267,0.534-0.404,1.387,0.013,2.178
	c0.284,0.538,0.92,1.22,2.343,1.416c0.633,0.087,1.414,0.19,2.163,0.287l-1.713,2.083c-0.544,0.596-0.984,1.552-0.633,2.507
	c0.21,0.57,0.751,1.273,2.129,1.497l-0.037,0.047c-0.058,0.072-0.108,0.148-0.151,0.229c-0.251,0.469-0.387,1.227-0.012,1.946
	c0.384,0.738,1.141,1.181,2.249,1.313c0.61,0.073,1.544,0.224,2.438,0.377l-1.587,1.905c-0.219,0.24-1.283,1.51-0.729,2.876
	c0.225,0.554,0.76,1.217,2.025,1.457c-0.442,0.575-0.74,1.367-0.461,2.166c0.205,0.588,0.762,1.32,2.248,1.472
	c0.702,0.071,1.629,0.191,2.497,0.31l-1.683,2.148c-0.037,0.048-0.072,0.098-0.104,0.149c-0.163,0.271-0.941,1.682-0.234,2.91
	c0.208,0.361,0.68,0.921,1.655,1.094c-0.312,0.532-0.498,1.274-0.208,2.015c0.363,0.927,1.286,1.482,2.741,1.653
	c0.701,0.082,1.403,0.166,2.044,0.245l-1.752,2.059c-0.552,0.596-1.045,1.657-0.619,2.687c0.353,0.853,1.123,1.257,1.851,1.452
	c-0.323,0.566-0.514,1.363-0.182,2.137c0.403,0.942,1.377,1.485,2.894,1.613c0.628,0.053,1.216,0.102,1.746,0.146l-1.616,2.084
	c-0.309,0.352-1.255,1.577-0.741,2.893c0.216,0.553,0.73,1.216,1.952,1.489c-0.27,0.499-0.593,1.384-0.185,2.306
	c0.268,0.605,0.92,1.36,2.51,1.518c0.75,0.073,1.57,0.17,2.323,0.265l-1.714,2.147c-0.178,0.234-1.033,1.465-0.445,2.753
	c0.224,0.49,0.701,1.067,1.721,1.345c-0.416,0.569-0.686,1.373-0.375,2.188c0.351,0.918,1.251,1.44,2.675,1.555
	c0.728,0.059,1.473,0.149,2.147,0.245l-1.725,2.128c-0.039,0.048-0.075,0.099-0.108,0.151c-0.162,0.261-0.94,1.631-0.276,2.931
	c0.251,0.492,0.766,1.078,1.816,1.321c-0.271,0.559-0.592,1.546-0.112,2.505c0.298,0.596,0.981,1.323,2.545,1.409
	c0.63,0.034,1.284,0.084,1.899,0.137l-1.606,1.851c-0.044,0.051-0.084,0.104-0.121,0.16c-0.173,0.263-0.998,1.641-0.312,2.97
	c0.252,0.486,0.76,1.054,1.784,1.312c-0.151,0.301-0.72,1.587-0.021,2.735c0.328,0.539,1.021,1.182,2.459,1.182
	c0.561,0,1.194,0.038,1.808,0.092l-1.752,2.033c-0.178,0.233-1.033,1.465-0.445,2.752c0.224,0.49,0.701,1.067,1.721,1.346
	c-0.416,0.568-0.686,1.373-0.375,2.188c0.351,0.918,1.251,1.439,2.675,1.555c0.728,0.06,1.473,0.149,2.147,0.246l-1.725,2.127
	c-0.039,0.049-0.075,0.1-0.108,0.151c-0.162,0.261-0.94,1.631-0.276,2.931c0.251,0.492,0.766,1.078,1.816,1.321
	c-0.271,0.56-0.592,1.546-0.112,2.505c0.298,0.596,0.981,1.323,2.545,1.409c0.63,0.034,1.284,0.084,1.899,0.138l-1.606,1.851
	c-0.044,0.051-0.084,0.104-0.121,0.159c-0.173,0.264-0.998,1.642-0.312,2.971c0.252,0.486,0.76,1.054,1.784,1.312
	c-0.151,0.301-0.72,1.586-0.021,2.734c0.328,0.539,1.021,1.182,2.459,1.182c0.518,0,1.098,0.032,1.667,0.08l-1.421,1.522
	c-0.058,0.062-0.11,0.129-0.156,0.198c-0.173,0.264-0.998,1.642-0.312,2.971c0.252,0.486,0.76,1.054,1.784,1.312
	c-0.151,0.301-0.72,1.586-0.021,2.734c0.328,0.539,1.021,1.182,2.459,1.182c1.856,0,4.521,0.416,4.549,0.42l0.466-2.963
	C165.588,289.904,163.267,289.544,161.274,289.479z"/>
<path fill="#008696" d="M235.044,147.632c0,0-1.806-4.331,2.239-4.539c4.045-0.208,2.233,3.042,2.233,3.042l-4.455,1.755"/>
<path fill="#008696" d="M237.452,143.093c0,0-1.188-3.469,2.858-3.677s1.375,1.719,1.375,1.719l-4.104,1.958"/>
<path fill="#008696" d="M233.044,152.632c0,0-1.806-4.331,2.239-4.539c4.045-0.208,2.233,3.042,2.233,3.042l-4.455,1.755"/>
<path fill="#008696" d="M230.044,157.632c0,0-1.806-4.331,2.239-4.539c4.045-0.208,2.233,3.042,2.233,3.042l-4.455,1.755"/>
<path fill="#008696" d="M227.787,162.105c0,0-1.258-4.781,1.559-5.011c2.817-0.229,1.555,3.358,1.555,3.358l-3.102,1.938"/>
<path fill="#EAC412" d="M341.26,188.236c0,0,2.584,10.146,1.765,13.803c-0.82,3.658,0.069,3.694,0,6.676
	c-0.07,2.982,0.16,8.285-32.32,37.75l-28.072,25.465l-74.163,68.469c0,0-25.015,27.549-47.321,7
	c-2.667-1.535-8.075-10.668-10.95-14.812"/>
<g>
	<path fill="#C7A814" d="M177.287,351.91c-6.875,0-13.292-2.62-18.979-7.826l1.013-1.107c9.105,8.336,19.719,9.717,31.549,4.103
		c8.905-4.228,15.169-11.017,15.231-11.085l75.024-68.829l28.386-25.586c32.239-29.061,32.364-34.615,32.425-37.284l0.752-0.082
		l0.747,0.116c-0.073,3.317-0.198,8.87-32.92,38.364l-28.381,25.583l-74.973,68.777c-0.216,0.24-6.48,7.03-15.649,11.383
		C186.621,350.755,181.852,351.91,177.287,351.91z"/>
</g>
<g>
	<path fill="#C7A814" d="M176.97,347.93c-6.779,0-13.052-2.609-18.665-7.771l1.016-1.104c5.634,5.18,11.939,7.668,18.774,7.348
		c14.771-0.657,27.188-14.123,27.312-14.26l73.944-66.133l27.945-27.298c31.792-28.781,31.915-34.277,31.976-36.918l0.752-0.081
		l0.748,0.114c-0.074,3.285-0.197,8.782-32.447,37.977l-27.948,27.299l-73.915,66.103c-0.468,0.521-12.911,14.009-28.299,14.694
		C177.764,347.921,177.366,347.93,176.97,347.93z"/>
</g>
<path fill="#424244" d="M179.367,356.514c-6.95,0-13.378-2.658-19.125-7.91c-2.142-1.356-5.013-5.61-8.806-11.434
	c-0.923-1.417-1.772-2.721-2.471-3.729l2.465-1.709c0.718,1.033,1.593,2.377,2.52,3.8c2.486,3.817,6.245,9.587,7.945,10.565
	l0.269,0.197c5.502,5.068,11.658,7.484,18.301,7.193c14.519-0.648,26.771-13.963,26.894-14.098l0.093-0.095l74.163-68.469
	l28.082-25.474c31.65-28.711,31.77-34.022,31.826-36.575l0.002-0.1c0.023-1.01-0.072-1.604-0.175-2.234
	c-0.185-1.133-0.356-2.203,0.21-4.735c0.608-2.71-1.06-10.379-1.754-13.105l2.907-0.74c0.274,1.074,2.647,10.606,1.774,14.501
	c-0.441,1.967-0.33,2.651-0.178,3.599c0.108,0.667,0.243,1.498,0.214,2.784c-0.079,3.52-0.207,9.249-32.812,38.826l-28.071,25.465
	l-74.106,68.417c-0.994,1.081-13.496,14.338-28.935,15.026C180.186,356.504,179.775,356.514,179.367,356.514z"/>
<g>
	<path fill="#FDD311" d="M189.62,341.947c0,0,0.5,3.916-4.25,5.25c-4.75,1.332-4.417,3.832-4.167,7.166s-2.167,8.584-8.583,6.75
		c-5.098-1.456-6.083-8.832-1.333-12c1.149-0.766,3.16-1.485,2.75-3.041"/>
	<path fill="#424244" d="M175.123,362.993c-0.866,0-1.835-0.128-2.915-0.437c-2.847-0.813-4.914-3.234-5.395-6.317
		c-0.519-3.322,0.877-6.53,3.642-8.373c0.25-0.167,0.537-0.333,0.834-0.505c0.42-0.24,1.201-0.689,1.312-0.938l2.887-0.734
		c0.623,2.361-1.541,3.604-2.703,4.272c-0.236,0.136-0.465,0.267-0.665,0.399c-2.128,1.419-2.605,3.727-2.342,5.414
		c0.303,1.943,1.52,3.398,3.255,3.896c2.019,0.577,3.644,0.378,4.831-0.59c1.418-1.155,1.95-3.196,1.845-4.604l-0.021-0.283
		c-0.244-3.193-0.52-6.813,5.278-8.44c3.264-0.916,3.209-3.188,3.165-3.636l2.978-0.359c0.23,1.799-0.589,5.553-5.333,6.885
		c-3.43,0.963-3.34,2.149-3.098,5.323l0.021,0.286c0.155,2.069-0.522,5.186-2.941,7.155
		C178.782,362.203,177.271,362.993,175.123,362.993z"/>
</g>
<path fill="none" stroke="#424244" stroke-width="3" stroke-miterlimit="10" d="M180.302,358.423"/>
<g>
	<path fill="none" stroke="#424244" stroke-width="3" stroke-miterlimit="10" d="M178.814,360.245"/>
</g>
<path fill="none" stroke="#424244" stroke-miterlimit="10" d="M173.937,355.552"/>
<g>
	<path fill="#FFFFFF" d="M177.204,356.364c0-1.749-1.418-3.167-3.167-3.167s-3.167,1.418-3.167,3.167s1.418,3.167,3.167,3.167
		S177.204,358.113,177.204,356.364"/>
	<path fill="#424244" d="M174.037,361.029c-2.573,0-4.667-2.092-4.667-4.665s2.094-4.667,4.667-4.667
		c2.573,0,4.667,2.094,4.667,4.667S176.61,361.029,174.037,361.029z M174.037,354.697c-0.919,0-1.667,0.748-1.667,1.666
		c0,0.92,0.748,1.666,1.667,1.666s1.667-0.746,1.667-1.666C175.704,355.445,174.956,354.697,174.037,354.697z"/>
</g>
<g>
	<path fill="#424244" d="M177.12,388.114c-4.237,0-6.349-8.618-6.349-16.625s1.984-16.625,5.984-16.625v3
		c-1,0.138-2.984,4.94-2.984,13.625c0,8.684,2.313,13.485,3.261,13.625c0.942-0.138,3.21-4.939,3.21-13.625
		c0-4.242-0.888-8.929-1.735-11.488l2.86-0.94c0.95,2.873,1.915,7.83,1.915,12.43C183.282,379.496,181.358,388.114,177.12,388.114z"
		/>
</g>
<g>
	<path fill="#424244" d="M173.12,388.114c-4.237,0-6.167-8.618-6.167-16.625s1.93-16.625,6.167-16.625
		c0.781,0,1.941,0.312,3.028,1.805l-2.424,1.769c-0.378-0.52-0.605-0.572-0.607-0.572c-0.942,0.138-3.164,4.939-3.164,13.625
		c0,8.684,2.222,13.486,3.169,13.625c0.942-0.139,3.164-4.939,3.164-13.625c0-3.264-0.322-6.34-0.932-8.896l2.918-0.695
		c0.663,2.781,1.014,6.099,1.014,9.593C179.287,379.496,177.358,388.114,173.12,388.114z"/>
</g>
<path fill="#008696" d="M223.534,237.729c0,0,8.742-32.771,10.136-35.036c0,0,4.462-4.326,3.413-8.443
	c2.392-0.111,2.837,1.961,2.837,1.961l-0.062,0.474l-2.22,6.251l-3.252,8.874l-6.842,23.7L223.534,237.729"/>
<path fill="#008696" d="M240.993,176.985c0,0,2.836,11.251-3.909,17.265c4.65-3.039,4.65-3.039,4.65-3.039l1.791-13.651
	L240.993,176.985z"/>
<g>
	<path fill="#E85C30" d="M293.204,183.089l-11.392-25.579c0,0-1.407-4.458,1.277-8.296c0,0-9.02,1.633-11.746-4.588
		c-2.726-6.221,3.065-12.625,3.065-12.625s-11.429,2.78-14.155-3.441s2.887-13.138,2.887-13.138s-11.473,2.889-14.266-3.484
		s5.568-14.905,5.568-14.905l-6.152,0.285c0,0-0.943-0.178-1.112-0.877c-0.17-0.699,1.259-1.28,1.259-1.28l9.609-1.846
		c0,0,1.794-0.058,2.346,1.201c0.485,1.107-0.574,2.876-1.283,4.338c-1.818,3.749-5.387,6.91-4.366,9.966
		c0,0,2.235,0.756,5.595,0.414c4.402-0.448,10.319-1.782,11.486,0.88c2.057,4.694-7.078,12.291-5.807,15.192
		c1.271,2.901,14.574-3.385,16.582,1.194c2.006,4.58-6.904,12.17-5.399,15.604s14.353-3.918,16.688,2.058
		c1.502,3.845-6.223,11.234-4.584,14.974c0,0,0.354,3.712,6.795,3.982c6.442,0.27,6.372,2.394,6.372,2.394l11.824,25.207"/>
	<path fill="#C5492A" d="M292.852,145.197c0,0-10.189,3.518-15.104,2.737c-4.914-0.781-5.366-4.851-5.366-4.851
		s2.964,3.099,5.738,3.78c1.801,0.443,12.542-0.667,13.801-2.941C291.921,143.923,293.382,143.994,292.852,145.197z"/>
	<path fill="#C5492A" d="M281.361,128.478c0,0-9.58,4.092-14.43,3.459c-4.849-0.633-5.722-5.256-5.722-5.256s3.562,3.75,6.39,3.665
		c2.828-0.085,12.791-0.792,13.625-3.242C281.225,127.104,281.484,128.177,281.361,128.478z"/>
	<path fill="#C5492A" d="M270.676,112.063c0,0-10.586,3.794-15.435,3.161c-4.849-0.633-5.408-5.596-5.408-5.596
		s3.301,3.749,6.131,3.749c2.694,0,13.179-0.37,14.486-2.658C270.449,110.719,270.896,111.353,270.676,112.063z"/>
	<path fill="#C5492A" d="M257.698,110.721c0,0-5.369,0.977-6.665-3.427c-0.754-2.563,5.766-9.502,5.766-9.502
		s-4.419,6.194-3.742,8.567C254.357,110.93,256.927,110.655,257.698,110.721z"/>
	<path fill="#C5492A" d="M269.384,127.568c0,0-3.78,1.444-5.766-3.085c-1.484-3.386,4.571-10.454,4.571-10.454
		s-3.088,8.138-2.211,10.648C266.855,127.188,268.602,127.475,269.384,127.568z"/>
	<path fill="#C5492A" d="M281.104,144.555c0,0-4.041,1.254-6.194-3.659c-1.609-3.672,3.642-8.11,3.642-8.11s-2.15,5.648-1.188,8.366
		C278.324,143.871,280.288,144.439,281.104,144.555z"/>
	<path fill="#C5492A" d="M295.852,164.15c0,0-6.793-0.093-9.742-6.823c-2.205-5.031,2.023-8.461,2.023-8.461s0.42,6.262,1.905,9.913
		C291.523,162.43,295.292,163.747,295.852,164.15z"/>
	<path fill="#C5492A" d="M294.275,182.139c0,0-4.952-10.703-5.156-12.297c-0.204-1.594,1.186-3.045,3.451-2.445
		c2.265,0.6,9.107,4.197,9.642,3.963s2.562,4.064,2.562,4.064l2.215,3.897l3.858,8.805L294.275,182.139z"/>
	<path fill="#424244" d="M247.728,93.833c-1.525,0.668-2.291,1.793-2.008,2.963c0.294,1.209,1.418,1.832,2.292,1.997l0.348,0.025
		l2.733-0.127c-2.457,3.282-5.734,8.966-3.593,13.851c2.216,5.055,8.557,5.307,12.564,4.905c-1.518,2.857-3.09,7.368-1.186,11.717
		c2.139,4.88,8.301,5.207,12.297,4.853c-1.548,2.727-3.074,6.949-1.205,11.212c2.143,4.891,7.33,5.697,10.586,5.685
		c-1.238,3.579-0.229,6.879-0.175,7.049l0.06,0.158l11.393,25.578l2.741-1.22l-11.349-25.483c-0.138-0.508-0.959-3.989,1.092-6.921
		l2.09-2.985l-3.586,0.649c-0.075,0.013-7.891,1.336-10.104-3.714c-2.31-5.27,2.752-10.96,2.805-11.017l3.258-3.604l-4.725,1.14
		c-0.102,0.025-10.275,2.327-12.429-2.585c-2.321-5.295,2.629-11.531,2.679-11.593l2.805-3.48l-4.336,1.081
		c-0.104,0.026-10.312,2.421-12.526-2.631c-1.951-4.453,3.142-11.078,5.267-13.254l2.661-2.724l-3.704,0.171l3.709-0.712
		c0.313,0.018,0.764,0.136,0.838,0.302c0.088,0.397-0.606,1.776-0.94,2.439c-0.109,0.218-0.218,0.433-0.319,0.642
		c-0.541,1.114-1.275,2.212-1.984,3.274c-1.662,2.484-3.381,5.052-2.455,7.822l0.236,0.707l0.707,0.238
		c0.104,0.035,2.584,0.856,6.227,0.486c0.758-0.077,1.561-0.18,2.377-0.285c2.643-0.339,7.064-0.907,7.583,0.275
		c0.821,1.877-1.382,5.187-3.154,7.847c-1.899,2.853-3.542,5.317-2.653,7.345c1.037,2.367,4.442,1.763,8.385,1.064
		c3.009-0.533,7.554-1.339,8.197,0.131c0.76,1.732-1.13,4.775-2.797,7.46c-1.859,2.997-3.615,5.827-2.601,8.144
		c1.131,2.581,4.565,1.923,8.2,1.226c4.301-0.824,7.656-1.29,8.464,0.776c0.491,1.258-1.021,4.005-2.234,6.212
		c-1.655,3.006-3.364,6.113-2.397,8.638c0.226,1.072,1.488,4.778,8.179,5.058c3.599,0.151,4.677,0.901,4.926,1.133l-0.002,0.072
		l11.978,25.534l2.716-1.273l-11.721-24.986c-0.209-1.123-1.459-3.212-7.771-3.478c-4.922-0.206-5.354-2.568-5.369-2.669
		l-0.114-0.417c-0.526-1.202,0.988-3.955,2.205-6.167c1.673-3.041,3.404-6.185,2.401-8.751c-1.781-4.555-7.585-3.442-11.823-2.63
		c-1.637,0.313-4.376,0.839-4.938,0.451c-0.33-0.806,1.278-3.4,2.455-5.293c2.056-3.314,4.387-7.07,2.994-10.247
		c-1.591-3.631-6.839-2.701-11.468-1.88c-1.724,0.305-4.265,0.756-5.12,0.54c0.065-0.813,1.518-2.995,2.408-4.332
		c2.29-3.438,4.886-7.335,3.404-10.714c-1.42-3.24-6.144-2.633-10.713-2.047c-0.789,0.102-1.565,0.201-2.297,0.276
		c-1.812,0.184-3.264,0.015-4.119-0.146c0.055-1.248,1.063-2.756,2.201-4.456c0.767-1.147,1.56-2.332,2.19-3.632l0.3-0.603
		c0.801-1.59,1.709-3.392,1.008-4.992c-0.757-1.728-2.726-2.132-3.769-2.098l-0.235,0.026l-9.89,1.929
		C247.823,93.792,247.776,93.812,247.728,93.833z"/>
</g>
<path fill="#D9B40D" d="M173.537,348.364c0,0,5.196,1.003,8.25,0c3.054-1.003,7.75-6,7.75-6l-16.417,4.517L173.537,348.364z"/>
<g>
	<path fill="#424244" d="M175.123,362.993c-0.866,0-1.835-0.128-2.915-0.437c-2.847-0.813-4.914-3.234-5.395-6.317
		c-0.519-3.322,0.877-6.53,3.642-8.373c0.25-0.167,0.537-0.333,0.834-0.505c0.42-0.24,1.201-0.689,1.312-0.938l2.887-0.734
		c0.623,2.361-1.541,3.604-2.703,4.272c-0.236,0.136-0.465,0.267-0.665,0.399c-2.128,1.419-2.605,3.727-2.342,5.414
		c0.303,1.943,1.52,3.398,3.255,3.896c2.019,0.577,3.644,0.378,4.831-0.59c1.418-1.155,1.95-3.196,1.845-4.604l-0.021-0.283
		c-0.244-3.193-0.52-6.813,5.278-8.44c3.264-0.916,3.209-3.188,3.165-3.636l2.978-0.359c0.23,1.799-0.589,5.553-5.333,6.885
		c-3.43,0.963-3.34,2.149-3.098,5.323l0.021,0.286c0.155,2.069-0.522,5.186-2.941,7.155
		C178.782,362.203,177.271,362.993,175.123,362.993z"/>
</g>
<g>
	<path fill="#FDD311" d="M341.525,191.748c0-12.565-9.963-22.75-22.25-22.75c-5.034,0-9.678,1.712-13.405,4.594
		c-25.361,18.033-58.684,46.171-84.678,68.073c-25.053,21.108-51.042,42.5-64.75,56.667c-8.587,8.874-8.495,15.656-9.034,17.544
		l0.003-0.002c-2.825,11.237,4.361,23.517,16.927,28.196c8.898,3.312,18.245,1.974,24.797-2.762l0,0
		c29.823-19.918,145.268-132.879,145.542-133.148C338.894,204.019,341.525,198.199,341.525,191.748z"/>
	<g>
		<path fill="#424244" d="M145.965,315.463c0.069-0.242,0.122-0.581,0.194-1.004c0.472-2.779,1.577-9.289,9.204-17.171
			c11.852-12.248,32.505-29.59,54.37-47.951c3.491-2.932,7.001-5.878,10.491-8.819l1.442-1.215
			c26.014-21.918,58.389-49.196,83.334-66.934c4.105-3.174,9.058-4.871,14.273-4.871c13.096,0,23.75,10.879,23.75,24.25
			c0,6.654-2.593,12.862-7.299,17.481c-1.158,1.135-116.104,113.518-145.76,133.324c-4.305,3.113-9.861,4.846-15.599,4.846
			c0,0,0,0-0.001,0c-3.572,0-7.123-0.647-10.554-1.926c-11.574-4.31-18.897-14.701-18.512-25.371L145.965,315.463z M148.865,316.236
			c-2.682,10.672,4.194,22.031,15.995,26.427c3.094,1.151,6.293,1.735,9.507,1.735h0.001c5.111,0,10.043-1.529,13.887-4.309
			c29.472-19.686,144.216-131.873,145.372-133.004c4.125-4.049,6.397-9.496,6.397-15.339c0-11.718-13.356-21.458-20.75-21.25
			c-4.544,0.128-8.864,1.48-12.487,4.28c-24.893,17.701-57.215,44.936-83.187,66.818l-1.442,1.216
			c-3.492,2.941-7.003,5.89-10.495,8.822c-21.805,18.311-42.4,35.604-54.144,47.739c-4.576,4.729-6.565,8.789-7.523,11.79
			L148.865,316.236z"/>
	</g>
	<g>
		<path opacity="0.5" fill="#D9B40D" enable-background="new    " d="M151.431,307.657c1.214-1.944,2.82-4.062,5.01-6.326
			c13.708-14.167,39.697-34.558,64.75-55.667c25.995-21.901,59.317-50.039,84.678-68.073c3.354-2.593,6.358-6.581,10.812-6.886
			c-0.519-0.038,2.362-0.417,1.833-0.417c-4.942,0-11.797,4.388-15.429,7.218c-24.721,17.701-57.159,45.322-82.464,66.82
			c-24.389,20.72-49.692,40.718-63.011,54.624c-3.252,3.396-5.202,6.471-6.414,9.079c0.061-0.1,0.128-0.204,0.192-0.307
			c0.017-0.027,0.031-0.055,0.048-0.082C151.435,307.646,151.434,307.652,151.431,307.657z"/>
		<path opacity="0.5" fill="#D9B40D" enable-background="new    " d="M151.437,304.641c-0.017,0.028-0.031,0.055-0.048,0.084
			c0.014-0.022,0.028-0.045,0.042-0.067C151.434,304.652,151.435,304.646,151.437,304.641z"/>
		<path opacity="0.5" fill="#D9B40D" enable-background="new    " d="M151.437,304.641c-0.017,0.028-0.031,0.055-0.048,0.084
			c0.014-0.022,0.028-0.045,0.042-0.067C151.434,304.652,151.435,304.646,151.437,304.641z"/>
		<path opacity="0.5" fill="#D9B40D" enable-background="new    " d="M319.557,170.29c-0.506,0-2.933,0.416-3.431,0.45
			c11.34,0.823,19.978,7.965,20.097,19.758c0.064,6.332-2.961,11.748-7.062,15.812c-0.268,0.264-138.938,121.563-138.938,121.563
			c-6.385,5-15.992,11.21-24.761,7.958c-12.384-4.593-16.926-12.886-14.265-23.917c0,0,3.315-9.334,3.297-9.314
			c-4.895,5.43-6.697,11.906-7.087,13.275l0.003-0.002c-2.825,11.236,4.361,23.518,16.927,28.195
			c8.898,3.313,18.245,1.975,24.797-2.762l0,0c29.823-19.918,145.268-132.879,145.542-133.147c4.219-4.14,6.85-9.96,6.85-16.411
			C341.525,179.184,331.845,170.29,319.557,170.29z"/>
	</g>
	<g>
		<path opacity="0.5" fill="#D9B40D" enable-background="new    " d="M151.431,307.657c1.214-1.944,2.82-4.062,5.01-6.326
			c13.708-14.167,39.697-34.558,64.75-55.667c25.995-21.901,59.317-50.039,84.678-68.073c3.354-2.593,6.358-6.581,10.812-6.886
			c-0.519-0.038,2.362-0.417,1.833-0.417c-4.942,0-11.797,4.388-15.429,7.218c-24.721,17.701-57.159,45.322-82.464,66.82
			c-24.389,20.72-49.692,40.718-63.011,54.624c-3.252,3.396-5.202,6.471-6.414,9.079c0.061-0.1,0.128-0.204,0.192-0.307
			c0.017-0.027,0.031-0.055,0.048-0.082C151.435,307.646,151.434,307.652,151.431,307.657z"/>
		<path opacity="0.5" fill="#D9B40D" enable-background="new    " d="M151.437,304.641c-0.017,0.028-0.031,0.055-0.048,0.084
			c0.014-0.022,0.028-0.045,0.042-0.067C151.434,304.652,151.435,304.646,151.437,304.641z"/>
		<path opacity="0.5" fill="#D9B40D" enable-background="new    " d="M151.437,304.641c-0.017,0.028-0.031,0.055-0.048,0.084
			c0.014-0.022,0.028-0.045,0.042-0.067C151.434,304.652,151.435,304.646,151.437,304.641z"/>
		<path opacity="0.5" fill="#D9B40D" enable-background="new    " d="M319.557,170.29c-0.506,0-2.933,0.416-3.431,0.45
			c11.34,0.823,19.978,7.965,20.097,19.758c0.064,6.332-2.961,11.748-7.062,15.812c-0.268,0.264-136.957,124.137-136.957,124.137
			c-6.385,5-20.355,11.002-29.125,7.75c-12.384-4.592-14.543-15.252-11.881-26.282c0,0,3.315-9.334,3.297-9.313
			c-4.895,5.43-5.239,12.269-5.63,13.637l0,0c-2.825,11.236,3.43,21.746,15.995,26.426c8.898,3.312,17.722,3.379,24.273-1.357l0,0
			c29.823-19.918,145.268-132.879,145.542-133.147c4.219-4.14,7.841-13.595,6.585-19.923
			C338.912,176.405,331.845,170.29,319.557,170.29z"/>
	</g>
</g>
<g>
	<path fill="#424244" d="M177.876,327.445c-0.529-0.035-0.95-0.197-1.261-0.486c-0.312-0.288-0.492-0.62-0.539-0.996
		c-0.048-0.375,0.04-0.752,0.265-1.131c0.225-0.378,0.602-0.668,1.131-0.87c0.269-0.052,0.496-0.116,0.682-0.192
		c0.186-0.078,0.45-0.179,0.793-0.303c0.315-0.124,0.636-0.3,0.964-0.527c0.328-0.229,0.604-0.48,0.83-0.754
		c0.477-0.521,0.791-0.979,0.94-1.377c0.149-0.396,0.18-0.757,0.095-1.082c-0.086-0.324-0.266-0.649-0.54-0.975
		c-0.275-0.325-0.597-0.676-0.966-1.053c-0.33,0.613-0.695,1.188-1.097,1.727c-0.402,0.539-0.882,1.028-1.438,1.469
		c-1.084,0.85-2.199,1.321-3.343,1.412c-1.145,0.092-2.218-0.084-3.219-0.529c-1.001-0.443-1.882-1.105-2.641-1.984
		c-0.759-0.879-1.297-1.85-1.612-2.914c-0.173-0.622-0.236-1.293-0.186-2.014c0.049-0.721,0.206-1.43,0.47-2.123
		c0.264-0.694,0.627-1.332,1.087-1.915c0.46-0.582,1.008-1.04,1.642-1.371c0.374-0.181,0.741-0.356,1.1-0.522
		c0.359-0.168,0.737-0.301,1.135-0.399c0.057-0.505,0.275-0.942,0.653-1.313c0.378-0.369,0.859-0.523,1.442-0.462
		c0.138,0.023,0.294,0.05,0.467,0.077c0.173,0.029,0.306,0.09,0.398,0.184c1.426,1.428,2.838,2.861,4.236,4.303
		c1.397,1.443,2.802,2.884,4.213,4.326c0.567,0.578,1.009,1.201,1.327,1.867c0.317,0.664,0.494,1.356,0.529,2.074
		c0.035,0.719-0.081,1.445-0.348,2.182c-0.267,0.735-0.701,1.463-1.302,2.185c-0.315,0.36-0.635,0.701-0.961,1.021
		c-0.326,0.319-0.693,0.611-1.1,0.879c-0.554,0.383-1.142,0.695-1.764,0.935s-1.26,0.456-1.914,0.647L177.876,327.445z
		 M174.466,318.713c0.929-0.355,1.619-0.854,2.069-1.492c0.45-0.638,0.785-1.408,1.005-2.31l-3.146-3.213
		c-0.813,0.03-1.498,0.168-2.058,0.411c-0.56,0.246-1.088,0.677-1.585,1.295c-0.051,0.156-0.105,0.302-0.162,0.436
		c-0.057,0.135-0.118,0.273-0.182,0.415c0.005,0.628,0.075,1.175,0.208,1.638c0.133,0.463,0.341,0.866,0.621,1.213
		c0.28,0.346,0.623,0.644,1.028,0.893c0.405,0.251,0.88,0.491,1.425,0.723c0.111,0.023,0.243,0.025,0.398,0.006
		C174.243,318.708,174.369,318.703,174.466,318.713z"/>
	<path fill="#424244" d="M173.115,300.205c-0.429-0.557-0.599-1.107-0.511-1.657c0.088-0.548,0.313-0.993,0.676-1.334
		c0.363-0.342,0.814-0.54,1.356-0.596c0.541-0.056,1.037,0.132,1.487,0.562c0.478,0.43,0.695,0.91,0.65,1.442
		s-0.236,0.997-0.574,1.394c-0.338,0.396-0.775,0.646-1.313,0.75c-0.537,0.104-1.074-0.043-1.609-0.443L173.115,300.205z
		 M187.309,308.827c0.234,0.299,0.365,0.639,0.391,1.022c0.027,0.383-0.029,0.733-0.166,1.053c-0.138,0.318-0.366,0.582-0.686,0.789
		c-0.32,0.207-0.702,0.293-1.147,0.252c-0.251-0.018-0.484-0.086-0.701-0.203s-0.422-0.26-0.615-0.428
		c-0.193-0.166-0.375-0.345-0.545-0.535c-0.171-0.188-0.328-0.357-0.474-0.506c-0.793-0.779-1.569-1.563-2.326-2.353
		c-0.758-0.788-1.533-1.573-2.326-2.353c-0.317-0.323-0.659-0.629-1.026-0.916c-0.367-0.285-0.665-0.635-0.893-1.045
		c-0.163-0.314-0.238-0.649-0.224-1.006c0.014-0.356,0.103-0.682,0.266-0.975c0.164-0.292,0.395-0.531,0.692-0.717
		c0.297-0.186,0.647-0.251,1.049-0.196c0.501,0.038,0.88,0.187,1.137,0.45c0.257,0.263,0.571,0.583,0.94,0.96
		c0.449,0.458,0.897,0.916,1.345,1.374c0.449,0.458,0.898,0.902,1.348,1.332c0.648,0.632,1.289,1.271,1.922,1.918
		s1.266,1.293,1.9,1.939L187.309,308.827z"/>
</g>
<path fill="#424244" d="M211.608,251.33l-2.922-0.68l8.515-36.541c0.008-0.036,0.159-0.742-0.557-1.513
	c-1.74-1.873-1.882-2.916-1.541-4.545l0.058-0.282c0.305-1.549,1.638-2.076,3.049-2.635c0.519-0.205,1.131-0.446,1.836-0.777
	c0.446-0.21,0.475-0.726,0.475-0.73l0.049-0.38l1.073-4.097c-0.118-0.182-0.445-0.432-1.154-0.579
	c-3.096-0.646-10.027-4.705-11.688-13.127c-1.486-7.535,2.447-12.878,3.571-14.22c-1.088-1.483,0.033-3.667,0.422-4.33
	c0.436-0.757,10.885-18.874,16.924-27.186c1.846-2.263,11.04-13.221,15.919-13.368c0.52-0.023,1.021,0.189,1.38,0.577
	c0.75,0.809,0.615,2.081,0.508,3.102c-0.015,0.135-0.028,0.252-0.032,0.337l-0.013,0.237l-4.601,11.987
	c-0.301,0.716-1.01,1.182-2.124,1.427c-0.142,0.031-0.31,0.134-0.457,0.246l0.038,3.714l-1.285,0.198
	c-0.312,0.051-0.691,0.173-0.937,0.292l0.283,4.117l-1.355,0.216c-0.353,0.06-0.803,0.231-1.01,0.374
	c0.101,1.917-0.143,3.089-0.777,3.772c-0.325,0.351-1.115,0.562-1.552,0.588c-0.58,0.043-0.947,0.226-1.947,0.397v4.634
	l-0.314,0.091c0.191,0.792,0.744,2.111,1.179,2.886c0.204,0.355,1.649,0.848,2.825,0.995l0.219,0.032
	c0.286,0.07,1.757,0.488,2.103,1.81c0.128,0.488,0.193,1.457-0.887,2.47c-0.208,0.195-0.692,0.654-0.911,0.964
	c0.197,0.135,0.619,0.359,1.456,0.61c0.357,0.106,0.715,0.205,1.066,0.302c3.746,1.031,7.992,2.2,6.833,12.346
	c-0.538,4.716-2.748,7.869-3.993,9.309c0.197,0.614,0.277,1.438,0.028,2.508c-0.016,0.537-0.11,1.961-0.664,3.244
	c-0.504,1.169-1.181,2.465-1.835,3.719c-0.684,1.31-1.534,2.938-1.648,3.5l-0.026,0.112l-8.093,28.495l-2.887-0.82l8.08-28.447
	c0.205-0.926,0.866-2.22,1.914-4.228c0.63-1.206,1.28-2.452,1.741-3.52c0.346-0.803,0.421-1.893,0.421-2.245l0.049-0.386
	c0.154-0.585,0.104-0.922,0.058-1.048l-1.385-1.007l1.407-1.237c0.026-0.024,3.244-2.964,3.853-8.289
	c0.867-7.595-1.209-8.167-4.647-9.114c-0.372-0.103-0.75-0.206-1.129-0.32c-1.367-0.409-3.229-1.145-3.619-2.8
	c-0.304-1.291,0.43-2.351,1.199-3.16c-1.246-0.276-3.176-0.919-3.965-2.327c-0.859-1.534-1.368-3.934-1.424-4.203l-0.389-0.275
	c-0.017-0.931,0.386-1.629,0.386-2.093v-2.726c0-1.836,2.122-2.767,3.908-3.074c0.033-0.316,0.231-0.839,0.17-1.665l0.075-0.198
	l0.083-0.195c0.244-1.273,1.316-1.978,2.214-2.354l-0.167-2.589l0.16-0.343c0.417-0.925,1.318-1.454,2.109-1.75l-0.024-2.446
	l0.347-0.422c0.175-0.213,1.118-1.291,2.477-1.591c0.058-0.013,0.107-0.025,0.149-0.037l3.867-11.101
	c0.007-0.073-0.368-0.152-0.368-0.236c0-0.004,0-0.009,0-0.014c-3,1.498-8.476,7.467-12.056,11.849
	c-5.894,8.116-16.401,26.675-16.509,26.862c-0.221,0.381-0.326,0.908-0.372,1.189c0.89,1.114,0.727,2.485,0.016,3.318
	c-0.231,0.249-4.499,4.945-3.116,11.955c1.491,7.559,7.874,10.457,9.371,10.77c2.834,0.592,3.595,2.499,3.594,3.533l-0.046,0.379
	l-1.127,4.31c-0.072,0.937-0.591,2.467-2.19,3.217c-0.78,0.366-1.461,0.636-2.006,0.853c-0.458,0.181-1.015,0.401-1.233,0.543
	l-0.041,0.198c-0.155,0.741-0.175,0.837,0.802,1.889c1.516,1.631,1.499,3.498,1.237,4.402L211.608,251.33z"/>
<g>
	<path fill="#424244" d="M90.087,399.809c0.938,0,3.682,2.021,7.075,2.021c3.031,0,4.401-1.083,4.401-3.25
		c0-6.351-14.435-2.599-14.435-15.519c0-7.219,5.125-11.694,13.281-11.694c2.383,0,10.682,0.505,10.682,4.549
		c0,0.938-1.659,5.341-3.104,5.341c-0.721,0-2.886-1.516-6.135-1.516c-2.453,0-3.898,0.794-3.898,2.599
		c0,5.269,14.437,2.526,14.437,15.375c0,7.578-5.414,12.56-13.497,12.56c-6.281,0-12.632-1.66-12.632-5.125
		C86.261,403.704,88.571,399.809,90.087,399.809z"/>
	<path fill="#424244" d="M137.583,386.309v-2.384c0-2.741-1.659-4.114-5.63-4.114c-5.268,0-8.372,2.311-9.239,2.311
		c-1.516,0-3.753-4.258-3.753-5.773c0-2.453,5.773-4.981,13.786-4.981c11.406,0,15.52,5.054,15.52,12.054v13.572
		c0,7.435,0.865,8.949,0.865,10.466c0,1.731-6.279,2.31-8.083,2.31c-2.31,0-2.456-3.031-2.888-4.981
		c-0.505,0.938-3.971,5.487-10.612,5.487c-7.794,0-10.682-4.621-10.682-10.539C116.867,393.814,119.25,386.309,137.583,386.309z
		 M131.088,401.829c2.742,0,5.341-1.95,6.495-4.55v-3.969c-6.857,0-10.104,1.877-10.104,5.342
		C127.479,400.457,128.705,401.829,131.088,401.829z"/>
	<path fill="#424244" d="M174.759,371.366c5.125,0,11.982,1.661,11.982,4.981c0,1.373-2.597,5.557-3.825,5.557
		c-0.289,0-0.721-0.215-1.299-0.504c-1.299-0.649-3.247-1.588-6.279-1.588c-5.776,0-8.156,3.608-8.156,10.974
		c0,7.435,2.237,11.044,7.724,11.044c3.391,0,5.701-1.01,7.073-1.661c0.578-0.216,1.01-0.433,1.299-0.433
		c1.588,0,3.753,4.043,3.753,5.484c0,4.045-10.25,5.055-12.63,5.055c-12.343,0-18.192-6.281-18.192-19.2
		C156.207,378.225,161.837,371.366,174.759,371.366z"/>
	<path fill="#424244" d="M192.951,357.58c0-1.516,1.299-2.311,4.331-2.311h2.021c3.031,0,4.331,0.795,4.331,2.311v28.585
		l0.289,0.069l8.734-13.064c0.867-1.227,2.31-1.37,4.404-1.37h2.669c2.745,0,4.044,0.433,4.044,1.081
		c0,0.362-0.219,0.867-0.651,1.445l-10.034,14.291l11.765,18.624c0.362,0.649,0.578,1.081,0.578,1.516
		c0,0.649-1.299,1.081-4.114,1.081h-3.031c-2.094,0-3.682-0.287-4.331-1.37l-10.034-16.604l-0.289,0.074v15.59
		c0,1.519-1.299,2.311-4.331,2.311h-2.021c-3.031,0-4.331-0.792-4.331-2.311L192.951,357.58L192.951,357.58z"/>
	<path fill="#424244" d="M272.247,409.695v-0.873c1.429-0.106,2.512-0.277,3.254-0.516c0.74-0.24,1.11-0.779,1.11-1.627v-20.248
		c0-3.07-0.545-5.521-1.635-7.346c-1.093-1.826-3.019-2.74-5.787-2.74c-1.758,0-3.219,0.465-4.39,1.391
		c-1.17,0.927-2.394,2.104-3.67,3.533v25.647c0,0.371,0.132,0.688,0.397,0.954c0.263,0.266,0.605,0.463,1.031,0.594
		c0.424,0.135,0.887,0.24,1.39,0.317c0.503,0.079,0.993,0.147,1.469,0.2v0.714h-15.563v-0.874c1.429-0.106,2.568-0.277,3.414-0.516
		c0.846-0.24,1.271-0.779,1.271-1.627v-20.328c0-3.123-0.543-5.571-1.628-7.346c-1.086-1.771-3.005-2.66-5.757-2.66
		c-1.746,0-3.175,0.371-4.286,1.111c-1.114,0.743-2.357,1.854-3.734,3.337v26.043c0.106,0.531,0.291,0.914,0.557,1.151
		c0.263,0.24,0.594,0.41,0.992,0.517c0.397,0.108,0.834,0.175,1.311,0.2s0.978,0.092,1.509,0.197v0.794h-15.405v-0.794
		c1.217-0.106,2.263-0.344,3.137-0.715c0.874-0.369,1.311-0.979,1.311-1.825v-27.157c0-0.423-0.04-0.74-0.12-0.954
		c-0.08-0.209-0.305-0.448-0.674-0.714c-0.477-0.264-1.034-0.568-1.668-0.912c-0.634-0.345-1.271-0.648-1.906-0.914v-0.634
		l10.403-3.733h0.477v8.576l0.157,0.08c0.526-0.954,1.212-1.945,2.056-2.977c0.844-1.034,1.821-1.961,2.928-2.78
		c1.107-0.82,2.307-1.509,3.6-2.065c1.292-0.555,2.651-0.834,4.075-0.834c2.53,0,4.575,0.834,6.131,2.504
		c1.556,1.668,2.519,3.904,2.888,6.709h0.24c0.475-0.953,1.137-1.972,1.983-3.058c0.848-1.083,1.827-2.089,2.94-3.017
		c1.11-0.926,2.342-1.68,3.691-2.264c1.352-0.58,2.74-0.873,4.169-0.873c3.069,0,5.386,1.113,6.948,3.336
		c1.56,2.224,2.343,5.08,2.343,8.574v23.662c0,0.371,0.157,0.689,0.478,0.954c0.316,0.267,0.699,0.463,1.15,0.594
		c0.449,0.134,0.938,0.24,1.469,0.317c0.529,0.08,1.032,0.148,1.51,0.199v0.715h-15.567V409.695z"/>
	<path fill="#424244" d="M321.792,401.557c-0.74,1.457-1.746,2.793-3.017,4.01c-1.27,1.218-2.792,2.224-4.566,3.018
		s-3.746,1.191-5.914,1.191c-2.7,0-5.162-0.504-7.385-1.51c-2.224-1.006-4.117-2.423-5.678-4.248
		c-1.562-1.826-2.766-3.971-3.613-6.431c-0.846-2.463-1.27-5.069-1.27-7.821c0-2.224,0.397-4.433,1.191-6.629
		c0.794-2.197,1.917-4.172,3.374-5.918c1.455-1.746,3.229-3.162,5.32-4.248c2.091-1.082,4.405-1.627,6.947-1.627
		c2.063,0,4.01,0.266,5.835,0.793c1.828,0.531,3.414,1.34,4.766,2.424c1.349,1.086,2.447,2.447,3.294,4.088
		c0.846,1.643,1.351,3.574,1.509,5.798h-25.488c0,0.425-0.025,0.913-0.08,1.469c-0.052,0.558-0.078,1.126-0.078,1.708
		c0,2.223,0.317,4.354,0.952,6.391c0.635,2.041,1.561,3.84,2.78,5.4c1.217,1.562,2.752,2.792,4.606,3.691
		c1.852,0.902,3.995,1.352,6.431,1.352c2.646,0,4.963-0.677,6.948-2.025c1.982-1.35,3.294-3.004,3.929-4.964l0.637,0.16
		C323.01,398.791,322.535,400.102,321.792,401.557z M312.701,374.797c-1.35-1.4-3.163-2.104-5.44-2.104
		c-1.479,0-2.816,0.438-4.009,1.31c-1.191,0.874-2.223,1.894-3.097,3.058s-1.549,2.342-2.026,3.533
		c-0.475,1.191-0.766,2.105-0.872,2.74c1.217,0,2.303,0,3.254,0c0.954,0,1.893-0.012,2.82-0.04c0.926-0.026,1.892-0.052,2.896-0.08
		c1.007-0.026,2.117-0.04,3.335-0.04c0.794,0,1.536-0.025,2.225-0.078c0.686-0.052,1.295-0.186,1.826-0.396
		c0.369-0.424,0.646-0.82,0.834-1.191c0.183-0.371,0.276-0.926,0.276-1.668C314.727,377.882,314.052,376.202,312.701,374.797z"/>
	<path fill="#424244" d="M351.451,403.462c-0.822,1.509-1.92,2.74-3.297,3.694c-1.377,0.951-2.951,1.64-4.724,2.062
		c-1.773,0.426-3.64,0.637-5.6,0.637c-2.329,0-4.526-0.211-6.589-0.637c-2.065-0.423-3.971-1.031-5.717-1.826v-10.481h0.634
		c0.421,1.271,0.949,2.608,1.581,4.011c0.632,1.403,1.397,2.7,2.293,3.891c0.895,1.191,1.979,2.172,3.243,2.938
		c1.267,0.768,2.768,1.15,4.509,1.15c2.528,0,4.544-0.726,6.048-2.183s2.256-3.694,2.256-6.711c0-1.64-0.515-3.003-1.544-4.089
		c-1.027-1.083-2.438-1.812-4.231-2.184c-1.425-0.266-2.795-0.557-4.112-0.873c-1.318-0.317-2.503-0.66-3.559-1.032
		c-2.004-0.688-3.628-1.88-4.863-3.574c-1.241-1.694-1.859-3.731-1.859-6.114c0-1.64,0.343-3.123,1.032-4.445
		c0.686-1.323,1.614-2.463,2.78-3.414c1.162-0.954,2.512-1.68,4.049-2.186c1.534-0.501,3.177-0.754,4.923-0.754
		c2.223,0,4.18,0.2,5.877,0.598c1.692,0.396,3.306,0.885,4.843,1.469l0.954,9.846l-0.637,0.16c-0.743-1.588-1.483-3.057-2.224-4.408
		c-0.742-1.35-1.562-2.512-2.463-3.492c-0.899-0.979-1.917-1.734-3.057-2.265c-1.137-0.526-2.448-0.792-3.929-0.792
		c-0.902,0-1.788,0.156-2.66,0.475c-0.874,0.317-1.643,0.782-2.303,1.391c-0.663,0.609-1.205,1.378-1.628,2.304
		c-0.426,0.926-0.635,1.997-0.635,3.215c0,1.96,0.556,3.363,1.666,4.208c1.111,0.848,2.515,1.482,4.208,1.906
		c1.165,0.266,2.435,0.543,3.812,0.834s2.567,0.568,3.574,0.834c2.383,0.583,4.405,1.8,6.073,3.652c1.668,1.854,2.5,4.129,2.5,6.828
		C352.68,400.168,352.271,401.953,351.451,403.462z"/>
	<path fill="#424244" d="M381.782,403.462c-0.822,1.509-1.92,2.74-3.297,3.694c-1.377,0.951-2.951,1.64-4.724,2.062
		c-1.773,0.426-3.64,0.637-5.6,0.637c-2.329,0-4.526-0.211-6.589-0.637c-2.065-0.423-3.972-1.031-5.717-1.826v-10.481h0.634
		c0.421,1.271,0.949,2.608,1.581,4.011c0.632,1.403,1.397,2.7,2.293,3.891c0.895,1.191,1.979,2.172,3.243,2.938
		c1.267,0.768,2.768,1.15,4.509,1.15c2.528,0,4.544-0.726,6.048-2.183s2.256-3.694,2.256-6.711c0-1.64-0.515-3.003-1.544-4.089
		c-1.027-1.083-2.438-1.812-4.231-2.184c-1.425-0.266-2.795-0.557-4.112-0.873c-1.318-0.317-2.503-0.66-3.559-1.032
		c-2.004-0.688-3.628-1.88-4.863-3.574c-1.241-1.694-1.859-3.731-1.859-6.114c0-1.64,0.343-3.123,1.032-4.445
		c0.686-1.323,1.614-2.463,2.78-3.414c1.162-0.954,2.512-1.68,4.049-2.186c1.534-0.501,3.177-0.754,4.923-0.754
		c2.223,0,4.18,0.2,5.877,0.598c1.692,0.396,3.306,0.885,4.843,1.469l0.954,9.846l-0.637,0.16c-0.743-1.588-1.483-3.057-2.224-4.408
		c-0.742-1.35-1.562-2.512-2.463-3.492c-0.899-0.979-1.917-1.734-3.057-2.265c-1.137-0.526-2.448-0.792-3.929-0.792
		c-0.902,0-1.788,0.156-2.66,0.475c-0.874,0.317-1.643,0.782-2.303,1.391c-0.663,0.609-1.205,1.378-1.629,2.304
		c-0.425,0.926-0.634,1.997-0.634,3.215c0,1.96,0.556,3.363,1.666,4.208c1.111,0.848,2.515,1.482,4.208,1.906
		c1.165,0.266,2.435,0.543,3.812,0.834s2.567,0.568,3.573,0.834c2.384,0.583,4.406,1.8,6.074,3.652c1.668,1.854,2.5,4.129,2.5,6.828
		C383.011,400.168,382.603,401.953,381.782,403.462z"/>
	<path fill="#424244" d="M416.996,401.557c-0.743,1.457-1.746,2.793-3.018,4.01c-1.271,1.218-2.794,2.224-4.565,3.018
		c-1.774,0.794-3.746,1.191-5.917,1.191c-2.7,0-5.16-0.504-7.383-1.51c-2.226-1.006-4.117-2.423-5.678-4.248
		c-1.562-1.826-2.768-3.971-3.613-6.431c-0.849-2.463-1.271-5.069-1.271-7.821c0-2.224,0.397-4.433,1.191-6.629
		c0.794-2.197,1.917-4.172,3.374-5.918s3.229-3.162,5.319-4.248c2.092-1.082,4.408-1.627,6.948-1.627
		c2.065,0,4.011,0.266,5.837,0.793c1.826,0.531,3.414,1.34,4.764,2.424c1.351,1.086,2.447,2.447,3.297,4.088
		c0.846,1.643,1.349,3.574,1.509,5.798h-25.488c0,0.425-0.027,0.913-0.08,1.469c-0.054,0.558-0.08,1.126-0.08,1.708
		c0,2.223,0.317,4.354,0.954,6.391c0.635,2.041,1.561,3.84,2.777,5.4c1.217,1.562,2.752,2.792,4.606,3.691
		c1.852,0.902,3.996,1.352,6.431,1.352c2.647,0,4.963-0.677,6.948-2.025c1.985-1.35,3.297-3.004,3.931-4.964l0.634,0.16
		C418.214,398.791,417.737,400.102,416.996,401.557z M407.905,374.797c-1.352-1.4-3.165-2.104-5.44-2.104
		c-1.482,0-2.82,0.438-4.011,1.31c-1.189,0.874-2.223,1.894-3.095,3.058c-0.874,1.164-1.55,2.342-2.026,3.533
		s-0.768,2.105-0.874,2.74c1.217,0,2.303,0,3.257,0c0.952,0,1.893-0.012,2.817-0.04c0.926-0.026,1.892-0.052,2.899-0.08
		c1.003-0.026,2.115-0.04,3.334-0.04c0.794,0,1.534-0.025,2.224-0.078c0.688-0.052,1.297-0.186,1.826-0.396
		c0.37-0.424,0.648-0.82,0.834-1.191s0.276-0.926,0.276-1.668C409.928,377.882,409.254,376.202,407.905,374.797z"/>
	<path fill="#424244" d="M446.693,378.451c-0.689,0.768-1.483,1.15-2.384,1.15c-0.846,0-1.52-0.146-2.022-0.437
		c-0.505-0.291-0.942-0.623-1.312-0.992c-0.37-0.371-0.768-0.703-1.19-0.993c-0.423-0.289-1.006-0.438-1.746-0.438
		c-0.637,0-1.259,0.226-1.866,0.677c-0.611,0.449-1.18,1.021-1.708,1.706c-0.529,0.689-1.006,1.469-1.429,2.343
		c-0.425,0.874-0.794,1.706-1.111,2.5v22.868c0.157,0.477,0.503,0.848,1.032,1.114c0.529,0.266,1.123,0.448,1.786,0.555
		c0.663,0.108,1.351,0.175,2.064,0.2c0.715,0.025,1.337,0.092,1.866,0.197v0.793h-17.786v-0.793
		c1.218-0.106,2.264-0.344,3.138-0.715c0.872-0.369,1.309-0.979,1.309-1.826v-26.838c0-0.424-0.04-0.74-0.12-0.953
		c-0.078-0.211-0.305-0.45-0.674-0.717c-0.478-0.263-1.032-0.594-1.666-0.992c-0.637-0.396-1.271-0.726-1.906-0.991v-0.478
		l10.4-4.051h0.477l-0.16,11.039h0.16c0.264-0.637,0.688-1.562,1.271-2.779c0.58-1.218,1.323-2.449,2.223-3.692
		c0.9-1.245,1.986-2.317,3.254-3.218c1.271-0.899,2.727-1.351,4.368-1.351c1.323,0,2.448,0.397,3.374,1.191s1.389,1.8,1.389,3.017
		C447.725,376.717,447.382,377.686,446.693,378.451z"/>
</g>
<path fill="none" stroke="#FFFFFF" stroke-width="0.75" stroke-miterlimit="10" d="M166.5,371.518c0,0,1.011,10.611,2.125,13.185"/>
<path fill="none" stroke="#FFFFFF" stroke-width="0.75" stroke-linecap="round" stroke-miterlimit="10" d="M170.385,371.489
	c0,0,0.386,7.854,1.334,10.479"/>
<path fill="none" stroke="#FFFFFF" stroke-width="0.75" stroke-linecap="round" stroke-miterlimit="10" d="M175.125,380.219
	c0,0,3.667-0.318,7.208,1.975"/>
<path fill="none" stroke="#FFFFFF" stroke-width="0.75" stroke-linecap="round" stroke-miterlimit="10" d="M175.126,371.003
	c0,0,4.835,0.078,8.783,1.745"/>
</svg>
