<?xml version="1.0" encoding="utf-8"?><!DOCTYPE svg PUBLIC "-//W3C//DTD SVG 1.0//EN" "http://www.w3.org/TR/2001/REC-SVG-20010904/DTD/svg10.dtd"><svg width="478" height="413" viewBox="0 0 478 413" xmlns="http://www.w3.org/2000/svg" xmlns:xlink="http://www.w3.org/1999/xlink"><svg version="1" width="22" height="22" viewBox="0 0 22 22" id="add-entry" x="428" y="118"><circle fill-rule="evenodd" clip-rule="evenodd" cx="11" cy="11" r="11"/><path fill-rule="evenodd" clip-rule="evenodd" fill="#FFF" d="M9.28 5.212h3v11.575h-3z"/><path fill-rule="evenodd" clip-rule="evenodd" fill="#FFF" d="M4.994 9.5H16.57v3H4.993z"/></svg><svg width="70" height="70" viewBox="0 0 70 70" id="arrow-down-dark" x="70" y="342.11199999999997"><path clip-rule="evenodd" fill="none" stroke="#1E0806" stroke-width="3" stroke-miterlimit="10" d="M6.252 26.437L36.24 43.892l29.986-17.455"/></svg><svg width="70" height="70" viewBox="0 0 70 70" id="arrow-down-light" y="342.11199999999997"><path clip-rule="evenodd" fill="none" stroke="#FFF" stroke-width="3" stroke-miterlimit="10" d="M6.252 26.437L36.24 43.892l29.986-17.455"/></svg><svg width="70" height="70" viewBox="0 0 70 70" id="arrow-left-dark" x="140" y="342.11199999999997"><path clip-rule="evenodd" fill="none" stroke="#1E0806" stroke-width="3" stroke-miterlimit="10" d="M44.967 5.178L27.512 35.165l17.455 29.987"/></svg><svg width="70" height="70" viewBox="0 0 70 70" id="arrow-left-light" x="210" y="342.11199999999997"><path clip-rule="evenodd" fill="none" stroke="#FFF" stroke-width="3" stroke-miterlimit="10" d="M44.967 5.178L27.512 35.165l17.455 29.987"/></svg><svg width="70" height="70" viewBox="0 0 70 70" id="arrow-right-dark" x="358"><path clip-rule="evenodd" fill="none" stroke="#1E0806" stroke-width="3" stroke-miterlimit="10" d="M27.512 65.152l17.455-29.987L27.512 5.178"/></svg><svg width="70" height="70" viewBox="0 0 70 70" id="arrow-right-light" x="358" y="70"><path clip-rule="evenodd" fill="none" stroke="#FFF" stroke-width="3" stroke-miterlimit="10" d="M27.512 65.152l17.455-29.987L27.512 5.178"/></svg><svg width="70" height="70" viewBox="0 0 70 70" id="arrow-up-dark" x="358" y="140"><path clip-rule="evenodd" fill="none" stroke="#1E0806" stroke-width="3" stroke-miterlimit="10" d="M66.226 43.892L36.24 26.437 6.25 43.892"/></svg><svg width="70" height="70" viewBox="0 0 70 70" id="arrow-up-light" x="358" y="210"><path clip-rule="evenodd" fill="none" stroke="#FFF" stroke-width="3" stroke-miterlimit="10" d="M66.226 43.892L36.24 26.437 6.25 43.892"/></svg><svg width="32" height="32" viewBox="0 0 32 32" id="best" x="428" y="86"><path fill="#FDEF35" d="M30.5 25h-29V7l7.558 6.015L16 7l7.77 6.015L30.5 7"/></svg><svg width="36" height="36" viewBox="0 0 36 36" id="close" x="428" y="50"><path fill="#FFF" d="M34.8 0L18 16.86 1.14 0 0 1.14 16.8 18 0 34.86 1.14 36 18 19.14 34.8 36l1.2-1.14L19.14 18 36 1.14"/></svg><svg viewBox="0 0 50 50" width="50" height="50" id="direct-link" x="330" y="342.11199999999997"><g fill="#FFF"><path d="M33.6 27.4c-.4-.4-.9-.6-1.5-.6s-1.1.2-1.6.7l.4.4.5.5c.1.1.2.2.3.4l.3.6c.1.2.1.4.1.6 0 .6-.2 1.1-.6 1.5s-.9.5-1.5.5c-.2 0-.4 0-.6-.1-.2-.1-.4-.1-.6-.3-.2-.1-.3-.2-.4-.3l-.5-.5-.4-.4c-.5.5-.7 1-.7 1.6 0 .6.2 1.1.6 1.5l4.5 4.5c.4.4.9.6 1.5.6s1.1-.2 1.5-.6l3.2-3.2c.4-.4.6-.9.6-1.5s-.2-1.1-.6-1.5l-4.5-4.4zM18.3 12c-.4-.4-.9-.6-1.5-.6s-1.1.2-1.5.6l-3.2 3.2c-.4.4-.6.9-.6 1.5s.2 1.1.6 1.5l4.5 4.5c.4.4.9.6 1.5.6s1.1-.2 1.6-.7l-.4-.4-.5-.5c-.1-.1-.2-.2-.3-.4l-.3-.6c-.1-.2-.1-.4-.1-.6 0-.6.2-1.1.6-1.5s.9-.6 1.5-.6c.2 0 .4 0 .6.1.2.1.4.1.6.3.2.1.3.2.4.3l.5.5.4.4c.5-.5.7-1 .7-1.6 0-.6-.2-1.1-.6-1.5L18.3 12z"/><path d="M47.2 2.7C45.4.9 43.2 0 40.6 0H9.4C6.8 0 4.6.9 2.7 2.7.9 4.6 0 6.8 0 9.4v31.2c0 2.6.9 4.8 2.7 6.6C4.6 49 6.8 50 9.4 50h31.2c2.6 0 4.8-.9 6.6-2.7 1.8-1.8 2.7-4 2.7-6.6V9.4c.1-2.6-.9-4.8-2.7-6.7zm-6.1 35.1L37.9 41c-1.2 1.2-2.7 1.8-4.4 1.8-1.8 0-3.2-.6-4.4-1.9l-4.5-4.5c-1.2-1.2-1.8-2.7-1.8-4.4 0-1.8.6-3.3 1.9-4.6l-1.9-1.9c-1.2 1.3-2.8 1.9-4.5 1.9-1.7 0-3.2-.6-4.4-1.8l-4.5-4.5c-1.2-1.2-1.8-2.7-1.8-4.4s.6-3.2 1.9-4.4L12.4 9c1.2-1.2 2.7-1.8 4.4-1.8 1.8 0 3.2.6 4.4 1.9l4.5 4.5c1.2 1.2 1.8 2.7 1.8 4.4 0 1.8-.6 3.3-1.9 4.6l1.9 1.9c1.2-1.3 2.8-1.9 4.5-1.9 1.7 0 3.2.6 4.4 1.8l4.5 4.5c1.2 1.2 1.8 2.7 1.8 4.4s-.4 3.3-1.6 4.5z"/></g></svg><svg width="50" height="50" viewBox="0 0 50 50" id="facebook" x="280" y="342.11199999999997"><path fill="#FFF" d="M50.027 40.645c0 2.583-.914 4.79-2.753 6.63-1.834 1.833-4.042 2.747-6.63 2.747h-6.25v-19.8h6.61l.98-7.295h-7.588v-4.66c0-1.17.302-2.07.91-2.698.608-.633 1.65-.95 3.127-.95l4.3-.028V7.845c-2.088-.195-4.038-.292-5.862-.292-2.956 0-5.32.875-7.1 2.622-1.78 1.75-2.67 4.197-2.67 7.35v5.402h-7.295v7.295H27.1v19.8H9.382c-2.583 0-4.796-.914-6.63-2.748C.92 45.436 0 43.228 0 40.644V9.378c0-2.583.92-4.79 2.753-6.63C4.586.92 6.8 0 9.383 0h31.262c2.587 0 4.796.92 6.63 2.748 1.837 1.838 2.752 4.047 2.752 6.63v31.267z"/></svg><svg width="50" height="50" viewBox="0 0 50 50" id="google-plus" x="358" y="280"><path fill="#FFF" d="M49.952 9.37v31.223c0 2.58-.913 4.784-2.75 6.62-1.83 1.826-4.035 2.744-6.614 2.744H9.364c-2.58 0-4.784-.918-6.615-2.744C.912 45.377 0 43.173 0 40.593V9.37c0-2.58.913-4.785 2.75-6.62C4.58.917 6.784 0 9.363 0h31.224c2.58 0 4.784.918 6.615 2.75 1.836 1.835 2.75 4.04 2.75 6.62m-21.954 0l2.865-2.085h-8.62c-1.847 0-3.59.35-5.237 1.044-1.646.694-3.03 1.752-4.148 3.185-1.117 1.433-1.676 3.09-1.676 4.973 0 2.02.7 3.696 2.098 5.027 1.4 1.336 3.118 2 5.158 2 .476 0 .942-.033 1.4-.096-.288.626-.428 1.213-.428 1.752 0 .957.437 1.977 1.302 3.06-3.793.257-6.58.942-8.36 2.05-1.014.63-1.835 1.418-2.452 2.37-.622.957-.928 1.986-.928 3.094 0 .933.2 1.773.602 2.52.398.75.928 1.36 1.578 1.837.646.476 1.4.88 2.24 1.204.85.325 1.69.554 2.52.68.835.13 1.666.2 2.492.2 1.302 0 2.608-.17 3.92-.506 1.31-.334 2.54-.834 3.69-1.495 1.146-.66 2.08-1.56 2.798-2.686.714-1.123 1.07-2.395 1.07-3.804 0-1.064-.215-2.035-.647-2.91-.437-.878-.967-1.597-1.593-2.165-.63-.562-1.258-1.077-1.89-1.543-.63-.466-1.16-.942-1.592-1.428-.432-.492-.65-.972-.65-1.448s.17-.942.504-1.384c.335-.442.743-.874 1.22-1.287.475-.407.95-.864 1.432-1.364.476-.495.88-1.14 1.22-1.933.334-.792.504-1.685.504-2.686 0-1.302-.243-2.38-.733-3.235-.492-.855-1.273-1.836-2.357-2.943H28zm-1.04 26.085c0 1.646-.63 2.866-1.904 3.657-1.268.792-2.778 1.185-4.536 1.185-.89 0-1.763-.102-2.618-.306-.86-.208-1.676-.514-2.458-.927-.777-.413-1.408-.986-1.884-1.724-.476-.74-.714-1.584-.714-2.536 0-1 .267-1.865.81-2.603.54-.737 1.254-1.296 2.133-1.675.878-.38 1.762-.65 2.665-.816.9-.16 1.812-.244 2.75-.244.43 0 .766.024 1.004.068.043.02.29.2.747.534.457.34.738.544.845.622.107.073.36.267.748.583.393.316.66.554.797.714.146.165.35.408.622.733.266.325.456.607.553.845.097.238.194.525.29.865.1.335.147.675.147 1.025m-2.41-17.728c0 1.302-.354 2.38-1.068 3.235-.72.855-1.714 1.287-2.997 1.287-1.146 0-2.156-.462-3.02-1.385-.87-.918-1.492-1.967-1.87-3.137-.385-1.17-.574-2.322-.574-3.448 0-1.32.35-2.448 1.045-3.38.69-.933 1.69-1.4 2.992-1.4 1.146 0 2.16.487 3.04 1.463.88.976 1.506 2.07 1.884 3.283.382 1.213.57 2.374.57 3.48m12.915 6.213h4.162v-2.085h-4.162v-4.162H35.38v4.162h-4.16v2.084h4.16v5.2h2.085v-5.2z"/></svg><svg width="246.045" height="156.379" viewBox="0 0 246.045 156.379" id="location" y="185.733"><defs><path id="oa" d="M0 0h246.045v156.38H0z"/></defs><clipPath id="ob"><use xlink:href="#oa" overflow="visible"/></clipPath><path clip-path="url(#ob)" fill="none" stroke="#FFF" stroke-width="2" d="M87.604 17.984L78.44 28.552 65.73 31.87v-6.943H55.683v3.625l-6.207 6.943s8.57 1.358 8.57 2.244c0 .886-9.608 17.17-11.158 17.17s-14.85 11.796-14.85 11.796l-6.21 2.51v13.747L8.095 97.446v12.71l5.91 6.207L1 127.626v4.403h12.12l6.206-7.982.295-10.308 12.416-5.95 14.85 2.366-2.584 20.69 6.355 1.183 10.345 18.915 5.912 2.365 5.984-4.73 5.248 2.66 9.458-5.91 14.188 4.433 3.25-5.91h5.617l2.66-8.22h3.532s2.38-5.877 2.38-6.942-2.38-6.415-2.38-6.415l3.857-3.547 12.413-12.71 1.182 17.44s6.798 7.388 7.685 7.98c.887.59 11.232 4.196 11.232 4.196l3.497 4.375-4.09 3.842 5.912 1.773s-.886 9.754 0 9.754h7.094l2.956-5.026-5.248-5.32 2.588-3.843-2.588-5.556 11.737-6.943 4.302-14.95-2.514-5.062 2.514-5.918 9.605 2.37v8.61s4.433 4.214 5.025 5.58c.59 1.363 7.55 1.363 7.55 1.363l2.5-5.502 11.527-1.44 5.615 11.49 7.397-1.182-5.033-8.276 2.364-3.843-4.73-3.548-1.28-8.867 10.148-5.91s-1.725 5.614 2.093 5.614 10.026 3.54 10.026 3.54l2.66-6.943-6.797-5.465 6.798-21.136-7.093-4.58-7.39 7.982-7.39 3.54-15.664-14.304-11.528-1.447h-6.207l2.3-13.886 7.158-11.025-1.292-8.692 12.496-5.194-3.814-5.89-6.503 4.285-10.345-6.207h-12.12l-5.024-3.843h-9.09l-6.625 3.843V7.59l-3.498-1.773-2.365 1.774 1.478 4.14-4.433-2.66.886-5.913-8.57-2.07-9.164 7.39 3.25 3.547 8.573.887-2.07 2.81-2.45-1.627-3.756 1.626v3.694l-7.98-.59-2.66-3.105h-4.434l-5.91 3.99-5.322 1.9-6.502-3.626-3.302 1.725-5.27 1.9-.296-3.626h-5.32z"/><defs><path id="oc" d="M0 0h246.045v156.38H0z"/></defs><defs><path id="od" d="M0 0h246.045v156.38H0z"/></defs><defs><path id="oe" d="M0 0h246.045v156.38H0z"/></defs><defs><path id="of" d="M0 0h246.045v156.38H0z"/></defs><defs><path id="og" d="M0 0h246.045v156.38H0z"/></defs><defs><path id="oh" d="M0 0h246.045v156.38H0z"/></defs><defs><path id="oi" d="M0 0h246.045v156.38H0z"/></defs><g><defs><path id="oj" d="M0 0h246.045v156.38H0z"/></defs></g><g><defs><path id="ok" d="M0 0h246.045v156.38H0z"/></defs></g></svg><svg width="358" height="185.733" viewBox="302.89 0 358 185.733" id="logo"><path fill="#E30613" d="M563.15 6.372l-15.718-4.32-89.696 17.527-14.704-2.1-32.074 15.075-32.862 6.454v81.156l40.046-13.313 8.248 3.77 88.222-17.33 7.524 5.043 28.11-14.84 32.344-2.31V0"/><defs><path id="pa" d="M378.096 0H582.59v120.165H378.095z"/></defs><clipPath id="pb"><use xlink:href="#pa" overflow="visible"/></clipPath><path clip-path="url(#pb)" fill="#FFF" d="M558.67 32.612v-1.026h.3c.41 0 .655.097.655.497 0 .352-.267.528-.655.528h-.3zm-.73 1.958h.73v-1.492l.17-.002c.265.002.455.092.554.365l.394 1.13h.778l-.52-1.325c-.13-.322-.294-.383-.44-.403l-.002-.012c.448-.063.774-.364.774-.817 0-.64-.48-.918-1.193-.918h-1.247v3.475z"/><g><defs><path id="pc" d="M378.096 0H582.59v120.165H378.095z"/></defs><clipPath id="pd"><use xlink:href="#pc" overflow="visible"/></clipPath><path clip-path="url(#pd)" fill="#FFF" d="M555.926 32.89c0 1.747 1.424 3.176 3.175 3.176 1.75 0 3.177-1.43 3.177-3.176 0-1.752-1.426-3.178-3.176-3.18-1.75 0-3.174 1.428-3.174 3.18m.402-.002c0-1.53 1.243-2.772 2.773-2.772s2.774 1.242 2.774 2.772c0 1.528-1.242 2.773-2.773 2.773-1.53 0-2.772-1.244-2.772-2.772"/></g><g><defs><path id="pe" d="M378.096 0H582.59v120.165H378.095z"/></defs><clipPath id="pf"><use xlink:href="#pe" overflow="visible"/></clipPath><path clip-path="url(#pf)" fill="#FFF" d="M487.377 54.77l.022-1.693c0-1.997-.69-3.873-1.8-4.906-.804-.743-1.76-1.01-2.843-.802-4.262.808-4.934 9.314-4.934 9.314l9.554-1.913zm7.94 1.15c-.323.5-.8.6-.8.6l-16.593 3.254c-.052 2.638.18 7.157 2.685 9.433 4.037 3.67 11.06-.632 14.533-4.84.226-.305.3-.073.246.117-1.14 3.823-5.458 9.238-11.45 10.412-8.32 1.616-14.718-3.187-15.073-12.027-.172-4.3 1.058-8.366 3.565-11.762 2.663-3.618 6.502-6.057 10.79-6.88 3.554-.672 6.923.168 9.245 2.315 2.053 1.9 3.14 4.655 3.14 7.943 0-.002.067.86-.29 1.433m50.185-9.784c-2.94 2-6.605 4.486-6.602 8.533.003 1.54.39 2.785 1.067 3.412.453.42 1.027.56 1.71.432.93-.176 2.01-.93 2.8-1.967.683-.89 1.057-1.866 1.058-2.734l-.033-7.677zm11.483 8.575c.06.126-.02.37-.02.37-.28 1.255-1.516 5.5-5.646 6.308-3.363.657-4.928-.634-5.5-2.396-2.363 3.206-5.727 4.805-8.652 5.375-5.994 1.166-7.086-3.66-7.086-5.672-.01-6.242 5.263-9.248 10.888-12.907 1.692-1.1 4.566-2.64 4.56-4.598-.01-1.875-.08-3.758-1.05-4.644-.525-.49-4.32-1.435-5.904 3.49-.66 2.047-1.495 4.605-4.062 5.116-2.288.455-4.757-2.836-2.083-7.006 1.792-2.782 6.222-4.412 10.44-5.23 4.215-.822 7.25-.382 9.014 1.25 1.233 1.137 1.865 2.888 1.86 5.19l.013 13.63c.014 3.984 1.892 2.907 2.883 1.916.05-.054.102-.106.142-.157 0 0 .145-.18.203-.034m-103.335.59c-.583-1.438.413-2.864 1.46-3.873l.096-.093c.34-.327.38-.567.302-.74-.13-.274-.365-.128-.44-.128l-.07.017-.477.12c-1.516.357-3.7.842-5.804 1.255-2.54.496-5.186.91-6.643 1.138l-.098.007c-.08.034-.315-.026-.442.3-.08.21-.023.376.275.613l.04.04c.66.644 1.528 1.644 2.097 2.91.937 2.104 8.944 19.46 10.315 22.423.04.118.118.285.24.348.125.063.338.012.338.012l1.807-.355.07-.013s.208-.032.335-.146c.13-.108.194-.312.238-.436l.045-.118c1.354-3.702 8.25-22.526 9.27-25.17.786-2.047 1.923-3.728 2.74-4.78l.062-.085c.29-.355.35-.517.27-.69-.126-.284-.364-.13-.443-.13l-.15.035c-1.02.258-2.447.6-3.64.835-1.033.206-2.34.405-3.41.564l-.06.01c-.087.026-.317-.027-.444.296-.08.21-.035.43.31.623l.094.06c1.055.6 2.067 1.627 1.488 3.294-.75 2.185-3.088 8.972-4.84 14.028 0-.003-4.172-10.3-4.93-12.172m-24.034-8.078c.003-1.426.498-2.856 1.4-4.037.898-1.177 2.1-1.962 3.376-2.2 1.254-.245 2.415.06 3.27.86.897.826 1.387 2.1 1.392 3.59.002 2.91-2.125 5.597-4.838 6.116-1.122.213-2.276-.133-3.167-.957-.91-.846-1.43-2.07-1.434-3.37m-1.682 9.8c-.08.03-.384.148-.44.42-.058.29.21.435.265.46 1.156.53 3.156 1.77 3.156 4.548l.008.234.026 16.244c.01 2.04-1.097 3.674-2.117 4.744l-.078.087c-.29.29-.486.557-.405.798.087.262.445.22.445.22l.117-.03 12.394-2.458.123-.035s.356-.098.44-.393c.077-.27-.12-.462-.41-.643l-.116-.065c-1.097-.705-2.165-1.807-2.172-3.813l-.027-23.19s.07-.546-.23-.782c-.308-.25-.59-.097-.7-.05-3.153 1.415-6.435 2.6-9.99 3.626l-.29.077zm72.063-23.545l.022 30.43c.017 2.814-1.653 4.833-2.92 6.264l-.11.123c-.295.295-.487.56-.414.806.09.262.436.208.436.208l.16-.022c3.114-.607 10.297-2.004 13.446-2.624l.078-.02s.345-.08.43-.382c.077-.27-.123-.46-.418-.64l-.086-.063c-1.105-.76-2.376-2.152-2.387-4.164l-.02-39.176s.046-.344-.125-.498c-.15-.134-.396.034-.548.107-.72.344-2.252 1.026-4.655 1.866-2.217.772-4.29 1.43-5.5 1.8l-.316.102c-.084.03-.388.15-.444.423-.055.286.213.435.268.456 1.155.528 3.08 1.81 3.085 4.585l.017.418zm13.692-9.12c-.084.03-.388.15-.443.422-.057.288.21.434.266.46 1.153.528 3.082 1.806 3.084 4.583l.015.253.028 30.812c.008 2.576-1.67 4.643-2.94 6.073l-.1.102c-.286.293-.487.564-.405.8.088.263.435.208.435.208l.092-.01c3.056-.592 10.26-1.996 13.46-2.618l.14-.04s.34-.076.428-.377c.076-.27-.12-.46-.412-.64l-.096-.066c-1.105-.76-2.396-2.473-2.387-4.595l-.016-38.63.004-.116s.04-.342-.127-.498c-.136-.118-.338-.007-.488.07l-.164.086c-.756.352-2.26 1.015-4.56 1.82-2.32.807-4.475 1.49-5.657 1.854l-.16.045zm-96.65 62.687s.354-.1.44-.393c.08-.268-.12-.458-.413-.64-.295-.18-1.4-.978-1.834-2.138-.44-1.197-.6-3.787-.607-4.798l-.027-3.644-.01-.22c-.014-1.184-.03-2.18-.03-2.81-.008-1.743.093-8.687 3.496-9.335.785-.144 1.136.277 1.575.808.566.688 1.286 1.8 3.175 1.175 4.462-1.47 4.608-9.876-1.148-8.755-3.227.63-5.935 4.165-7.51 7.494l-.368-4.818s.003-.637-.25-.808c-.317-.212-.59-.002-.713.057-.758.396-2.176 1.074-4.396 2.003-2.45 1.028-4.24 1.72-4.957 1.98-.08.03-.39.162-.443.438-.057.29.21.435.265.46 1.155.525 2.99 1.8 2.992 4.576l.066 13.01c0 1.01-.134 3.655-.56 5.03-.425 1.326-1.518 2.548-1.81 2.846-.293.293-.49.56-.41.803.09.26.444.217.444.217l12.935-2.512.097-.025z"/></g><g fill="#2C110D"><path d="M319.853 185.022h-16.587V102.09h24.287c10.307 0 15.402 5.094 15.402 15.4v23.34c0 10.31-5.095 15.402-15.402 15.402h-7.7v28.79zm3.554-68.716h-3.554v25.71h3.554c2.014 0 2.962-.95 2.962-2.963v-19.785c0-2.014-.95-2.962-2.963-2.962zM373.4 185.733h-10.664c-10.307 0-15.402-5.095-15.402-15.402v-53.55c0-10.307 5.095-15.402 15.402-15.402H373.4c10.306 0 15.4 5.095 15.4 15.402v53.55c.002 10.308-5.094 15.403-15.4 15.403zm-4.148-70.138h-2.37c-2.014 0-2.96.947-2.96 2.962v49.997c0 2.014.946 2.96 2.96 2.96h2.37c2.014 0 2.962-.946 2.962-2.96v-49.997c0-2.015-.948-2.962-2.962-2.962zM420.31 185.733h-10.66c-10.308 0-15.403-5.095-15.403-15.402v-53.55c0-10.307 5.095-15.402 15.402-15.402h10.66c10.308 0 15.403 5.095 15.403 15.402v53.55c0 10.308-5.095 15.403-15.402 15.403zm-4.146-70.138h-2.37c-2.014 0-2.96.947-2.96 2.962v49.997c0 2.014.946 2.96 2.96 2.96h2.37c2.014 0 2.962-.946 2.962-2.96v-49.997c0-2.015-.948-2.962-2.962-2.962zM457.982 102.09v68.123h11.965v14.81h-28.552v-82.934h16.587zM515.317 135.5v-33.41h16.587v82.932h-16.587v-34.714h-8.292v34.714h-16.587V102.09h16.587v33.41h8.292zM568.628 102.09v14.808h-14.216v18.6h13.625v14.81h-13.625v19.905h14.454v14.81h-31.04v-82.935h30.802zM614.473 156.47v28.552h-16.587v-28.434c0-2.014-.947-2.962-2.962-2.962h-4.145v31.396H574.19V102.09h24.76c10.308 0 15.403 5.094 15.403 15.4v15.995c0 7.11-2.607 10.662-7.11 12.322 5.095 1.42 7.228 4.62 7.228 10.663zm-19.667-39.928h-4.027v22.985h4.026c2.015 0 2.962-.948 2.962-2.962v-17.06c0-2.014-.947-2.963-2.962-2.963zM645.864 185.733h-10.662c-10.307 0-15.402-5.095-15.402-15.402v-53.55c0-10.307 5.095-15.402 15.402-15.402h10.662c10.307 0 15.402 5.095 15.402 15.402v53.55c0 10.308-5.094 15.403-15.402 15.403zm-4.146-70.138h-2.37c-2.014 0-2.96.947-2.96 2.962v49.997c0 2.014.946 2.96 2.96 2.96h2.37c2.014 0 2.962-.946 2.962-2.96v-49.997c0-2.015-.948-2.962-2.962-2.962z"/></g></svg><svg width="74.343" height="74.343" viewBox="0 0 74.343 74.343" id="play" x="246.045" y="260.076"><path fill="#FFF" d="M56.24 37.172L26.592 55.498V18.845L56.24 37.172zm18.103 0C74.343 16.642 57.7 0 37.173 0 16.642 0 0 16.643 0 37.172s16.642 37.17 37.172 37.17c20.53 0 37.17-16.64 37.17-37.17"/></svg><svg width="50" height="50" viewBox="0 0 50 50" id="twitter" x="428"><path fill="#FFF" d="M49.91 9.36v31.194c0 2.582-.913 4.785-2.748 6.614-1.83 1.83-4.033 2.747-6.61 2.747H9.357c-2.577 0-4.78-.917-6.61-2.747C.913 45.338 0 43.135 0 40.553V9.36c0-2.58.912-4.784 2.747-6.613C4.577.917 6.78 0 9.357 0h31.196c2.577 0 4.78.917 6.61 2.747 1.834 1.83 2.746 4.032 2.746 6.614m-8.318 6.304c-1.213.54-2.523.907-3.93 1.106 1.47-.87 2.48-2.135 3.022-3.804-1.412.825-2.863 1.378-4.353 1.66-1.324-1.432-2.983-2.145-4.973-2.145-1.888 0-3.494.666-4.828 1.995-1.33 1.334-2 2.94-2 4.828 0 .626.058 1.145.165 1.558-2.795-.15-5.416-.853-7.866-2.11-2.447-1.257-4.528-2.936-6.237-5.037-.63 1.082-.946 2.232-.946 3.445 0 2.47.99 4.367 2.96 5.682-1.02-.02-2.1-.3-3.25-.84v.063c0 1.626.542 3.072 1.625 4.338 1.082 1.268 2.417 2.054 4 2.355-.632.175-1.185.262-1.66.262-.282 0-.705-.044-1.268-.13.456 1.363 1.262 2.493 2.42 3.38 1.16.89 2.476 1.345 3.95 1.365-2.513 1.946-5.342 2.926-8.48 2.926-.564 0-1.107-.034-1.627-.097 3.208 2.034 6.692 3.053 10.462 3.053 2.425 0 4.7-.383 6.827-1.155 2.12-.767 3.94-1.795 5.46-3.086 1.513-1.29 2.818-2.77 3.91-4.45 1.097-1.68 1.907-3.436 2.44-5.265.53-1.83.797-3.654.797-5.474 0-.393-.015-.684-.034-.883 1.364-.97 2.504-2.148 3.412-3.536"/></svg><svg width="74.343" height="74.343" viewBox="0 0 74.343 74.343" id="video-close" x="246.045" y="185.733"><path fill="#FFF" d="M37.172 0C16.642 0 0 16.642 0 37.172s16.642 37.172 37.172 37.172 37.172-16.642 37.172-37.172S57.7 0 37.172 0zm15.232 49.045l-3.36 3.36L37.173 40.53 25.298 52.404l-3.36-3.36 11.874-11.872L21.94 25.298l3.358-3.36 11.874 11.874L49.046 21.94l3.36 3.358L40.53 37.172l11.874 11.873z"/></svg></svg>